<?xml version="1.0" encoding="utf-8"?>
<!-- Generator: Adobe Illustrator 17.1.0, SVG Export Plug-In . SVG Version: 6.00 Build 0)  -->
<!DOCTYPE svg PUBLIC "-//W3C//DTD SVG 1.1//EN" "http://www.w3.org/Graphics/SVG/1.1/DTD/svg11.dtd">
<svg version="1.1" id="XMLID_143_" xmlns="http://www.w3.org/2000/svg" xmlns:xlink="http://www.w3.org/1999/xlink" x="0px" y="0px"
	 viewBox="0 0 28 24.5" enable-background="new 0 0 28 24.5" xml:space="preserve">
<g id="achievement">
	<rect id="_x2E_svg_178_" x="2" y="0.5" fill="none" width="24" height="24"/>
	<path fill="none" stroke="#000000" stroke-width="2" stroke-miterlimit="10" d="M23.6196,13.4113L19.031,18l-2.7238-2.7238
		 M17.98,9.29C18,9.2,18,9.1,18,9c0-0.08,0-3.66,0-6c0-1.15,0-2,0-2H6v8c0,3.31,2.69,6,6,6c0.38,0,0.74-0.04,1.1-0.11 M6,3H1v4.3
		C1,9.5091,2.7909,11,5,11h1 M22.34,9.41C22.76,8.83,23,8.11,23,7.3V3h-5 M9.73,14.55C8.11,15.39,7,17.08,7,19.03 M13,19H5v4h14
		 M20,9c-3.866,0-7,3.134-7,7s3.134,7,7,7s7-3.134,7-7S23.866,9,20,9z"/>
</g>
</svg>
