<?xml version="1.0" encoding="utf-8"?>
<!-- Generator: Adobe Illustrator 17.1.0, SVG Export Plug-In . SVG Version: 6.00 Build 0)  -->
<!DOCTYPE svg PUBLIC "-//W3C//DTD SVG 1.1//EN" "http://www.w3.org/Graphics/SVG/1.1/DTD/svg11.dtd">
<svg version="1.1" id="XMLID_232_" xmlns="http://www.w3.org/2000/svg" xmlns:xlink="http://www.w3.org/1999/xlink" x="0px" y="0px"
	 viewBox="0 0 24 24" enable-background="new 0 0 24 24" xml:space="preserve">
<g id="action">
	<rect id="_x2E_svg_82_" x="0" y="0" fill="none" width="24" height="24"/>
	<path fill="none" stroke="#000000" stroke-width="2" stroke-miterlimit="10" d="M4.3088,20.1644l-0.5364-0.5391
		c-2.3631-2.3748-2.3631-6.2608,0-8.6356L4.7573,10L14,19.2883l-0.8719,0.8762C10.6927,22.6119,6.7442,22.6119,4.3088,20.1644z
		 M10.8719,3.8356L10,4.7117L19.2427,14l0.9849-0.9898c2.3631-2.3748,2.3631-6.2608,0-8.6356l-0.5364-0.5391
		C17.2558,1.3881,13.3073,1.3881,10.8719,3.8356z M13.71,14.54l3.04-3.04 M9.46,10.29l3.05-3.05 M19.9279,4.0722L23,1 M1,23
		l3.0722-3.0722"/>
</g>
</svg>
