<?xml version="1.0" encoding="utf-8"?>
<!-- Generator: Adobe Illustrator 17.1.0, SVG Export Plug-In . SVG Version: 6.00 Build 0)  -->
<!DOCTYPE svg PUBLIC "-//W3C//DTD SVG 1.1//EN" "http://www.w3.org/Graphics/SVG/1.1/DTD/svg11.dtd">
<svg version="1.1" id="XMLID_312_" xmlns="http://www.w3.org/2000/svg" xmlns:xlink="http://www.w3.org/1999/xlink" x="0px" y="0px"
	 viewBox="0 0 24 24" enable-background="new 0 0 24 24" xml:space="preserve">
<g id="actions">
	<rect id="_x2E_svg_2_" x="0" fill="none" width="24" height="24"/>
	<path fill="none" stroke="#000000" stroke-width="2" stroke-miterlimit="10" d="M20,12c0,4.4183-3.5817,8-8,8s-8-3.5817-8-8
		s3.5817-8,8-8S20,7.5817,20,12z M15,12c0-1.6542-1.3455-3-3-3s-3,1.3458-3,3s1.3455,3,3,3S15,13.6542,15,12z M12,0v4 M20,12h4
		 M12,24v-4 M0,12h4 M20.4853,3.5147l-2.8284,2.8284 M17.6569,17.6569l2.8284,2.8284 M6.3431,17.6569l-2.8284,2.8284 M3.5147,3.5147
		l2.8284,2.8284"/>
</g>
</svg>
