<?xml version="1.0" encoding="utf-8"?>
<!-- Generator: Adobe Illustrator 19.1.0, SVG Export Plug-In . SVG Version: 6.00 Build 0)  -->
<svg version="1.1" id="XMLID_312_" xmlns="http://www.w3.org/2000/svg" xmlns:xlink="http://www.w3.org/1999/xlink" x="0px" y="0px"
	 viewBox="0 0 48 48" enable-background="new 0 0 48 48" xml:space="preserve">
<g id="actions">
	<rect id="_x2E_svg_2_" x="0" y="0" fill="none" width="48" height="48"/>
	<path fill="none" stroke="#231F20" stroke-width="2" stroke-miterlimit="10" d="M32,24c0,4.4183-3.5817,8-8,8s-8-3.5817-8-8
		s3.5817-8,8-8S32,19.5817,32,24z M27,24c0-1.6542-1.3455-3-3-3s-3,1.3458-3,3s1.3455,3,3,3S27,25.6542,27,24z M24,12v4 M32,24h4
		 M24,36v-4 M12,24h4 M32.4853,15.5147l-2.8284,2.8284 M29.6569,29.6569l2.8284,2.8284 M18.3431,29.6569l-2.8284,2.8284
		 M15.5147,15.5147l2.8284,2.8284"/>
</g>
</svg>
