<?xml version="1.0" encoding="utf-8"?>
<!-- Generator: Adobe Illustrator 17.1.0, SVG Export Plug-In . SVG Version: 6.00 Build 0)  -->
<!DOCTYPE svg PUBLIC "-//W3C//DTD SVG 1.1//EN" "http://www.w3.org/Graphics/SVG/1.1/DTD/svg11.dtd">
<svg version="1.1" id="XMLID_310_" xmlns="http://www.w3.org/2000/svg" xmlns:xlink="http://www.w3.org/1999/xlink" x="0px" y="0px"
	 viewBox="0 0 24 24" enable-background="new 0 0 24 24" xml:space="preserve">
<g id="app">
	<rect id="_x2E_svg_4_" x="0" y="0" fill="none" width="24" height="24"/>
	<path d="M6,6H2V2h4V6z M14,2h-4v4h4V2z M22,2h-4v4h4V2z M6,10H2v4h4V10z M14,10h-4v4h4V10z M22,10h-4v4h4V10z M6,18H2v4h4V18z
		 M14,18h-4v4h4V18z M22,18h-4v4h4V18z"/>
</g>
</svg>
