<?xml version="1.0" encoding="utf-8"?>
<!-- Generator: Adobe Illustrator 17.1.0, SVG Export Plug-In . SVG Version: 6.00 Build 0)  -->
<!DOCTYPE svg PUBLIC "-//W3C//DTD SVG 1.1//EN" "http://www.w3.org/Graphics/SVG/1.1/DTD/svg11.dtd">
<svg version="1.1" id="XMLID_74_" xmlns="http://www.w3.org/2000/svg" xmlns:xlink="http://www.w3.org/1999/xlink" x="0px" y="0px"
	 viewBox="0 0 24 25.5" enable-background="new 0 0 24 25.5" xml:space="preserve">
<g id="assistant">
	<rect id="_x2E_svg_246_" y="0" fill="none" width="24" height="24"/>
	<path d="M9.1397,13.5h-1c-0.5523,0-1-0.4477-1-1v-1c0-0.5523,0.4477-1,1-1h1c0.5523,0,1,0.4477,1,1v1
		C10.1397,13.0523,9.692,13.5,9.1397,13.5z"/>
	<path d="M16.1397,13.5h-1c-0.5523,0-1-0.4477-1-1v-1c0-0.5523,0.4477-1,1-1h1c0.5523,0,1,0.4477,1,1v1
		C17.1397,13.0523,16.692,13.5,16.1397,13.5z"/>
	<circle cx="12.0981" cy="2.5417" r="2.0417"/>
	<path fill="none" stroke="#000000" stroke-width="2" stroke-miterlimit="10" d="M20.1397,18.5c-1.3553,0.71-4.1967,1.9688-8,1.9688
		c-1.53,0-4.631-0.2037-8-1.9688c0-2.3333,0-1.6667,0-4c0-4.4183,3.5817-8,8-8h0c4.4183,0,8,3.5817,8,8V18.5z M12.1397,6.5v-4
		 M4.1702,13.7989c0,2.15,4.4695,2.7011,7.9695,2.7011 M12.1397,16.5c3.5,0,7.9677-0.5633,7.9677-2.7133 M8.1397,20.5
		c0,2.21,1.79,4,4,4s4-1.79,4-4"/>
</g>
</svg>
