<?xml version="1.0" encoding="utf-8"?>
<!-- Generator: Adobe Illustrator 19.1.0, SVG Export Plug-In . SVG Version: 6.00 Build 0)  -->
<svg version="1.1" id="XMLID_146_" xmlns="http://www.w3.org/2000/svg" xmlns:xlink="http://www.w3.org/1999/xlink" x="0px" y="0px"
	 viewBox="0 0 48 48" enable-background="new 0 0 48 48" xml:space="preserve">
<g id="circular-view">
	<rect id="_x2E_svg_168_" x="0" y="0" fill="none" width="48" height="48"/>
	<path fill="none" stroke="#231F20" stroke-width="2" stroke-miterlimit="10" d="M26.7574,15.5c0,1.3807-1.1193,2.5-2.5,2.5
		c-1.3807,0-2.5-1.1193-2.5-2.5s1.1193-2.5,2.5-2.5C25.6381,13,26.7574,14.1193,26.7574,15.5z M32.2574,17
		c-1.3807,0-2.5,1.1193-2.5,2.5s1.1193,2.5,2.5,2.5c1.3807,0,2.5-1.1193,2.5-2.5S33.6381,17,32.2574,17z M32.2574,26
		c-1.3807,0-2.5,1.1193-2.5,2.5s1.1193,2.5,2.5,2.5c1.3807,0,2.5-1.1193,2.5-2.5S33.6381,26,32.2574,26z M16.2574,17
		c-1.3807,0-2.5,1.1193-2.5,2.5s1.1193,2.5,2.5,2.5s2.5-1.1193,2.5-2.5S17.6381,17,16.2574,17z M16.2574,26
		c-1.3807,0-2.5,1.1193-2.5,2.5s1.1193,2.5,2.5,2.5s2.5-1.1193,2.5-2.5S17.6381,26,16.2574,26z M24.2574,30
		c-1.3807,0-2.5,1.1193-2.5,2.5c0,1.3807,1.1193,2.5,2.5,2.5c1.3807,0,2.5-1.1193,2.5-2.5C26.7574,31.1193,25.6381,30,24.2574,30z"
		/>
</g>
</svg>
