<?xml version="1.0" encoding="utf-8"?>
<!-- Generator: Adobe Illustrator 17.1.0, SVG Export Plug-In . SVG Version: 6.00 Build 0)  -->
<!DOCTYPE svg PUBLIC "-//W3C//DTD SVG 1.1//EN" "http://www.w3.org/Graphics/SVG/1.1/DTD/svg11.dtd">
<svg version="1.1" id="XMLID_146_" xmlns="http://www.w3.org/2000/svg" xmlns:xlink="http://www.w3.org/1999/xlink" x="0px" y="0px"
	 viewBox="0 0 24 24" enable-background="new 0 0 24 24" xml:space="preserve">
<g id="circular-view">
	<rect id="_x2E_svg_168_" x="0" fill="none" width="24" height="24"/>
	<path fill="none" stroke="#000000" stroke-width="2" stroke-miterlimit="10" d="M14.7574,3.5c0,1.3807-1.1193,2.5-2.5,2.5
		s-2.5-1.1193-2.5-2.5s1.1193-2.5,2.5-2.5S14.7574,2.1193,14.7574,3.5z M20.2574,5c-1.3807,0-2.5,1.1193-2.5,2.5s1.1193,2.5,2.5,2.5
		s2.5-1.1193,2.5-2.5S21.6381,5,20.2574,5z M20.2574,14c-1.3807,0-2.5,1.1193-2.5,2.5s1.1193,2.5,2.5,2.5s2.5-1.1193,2.5-2.5
		S21.6381,14,20.2574,14z M4.2574,5c-1.3807,0-2.5,1.1193-2.5,2.5s1.1193,2.5,2.5,2.5s2.5-1.1193,2.5-2.5S5.6381,5,4.2574,5z
		 M4.2574,14c-1.3807,0-2.5,1.1193-2.5,2.5s1.1193,2.5,2.5,2.5s2.5-1.1193,2.5-2.5S5.6381,14,4.2574,14z M12.2574,18
		c-1.3807,0-2.5,1.1193-2.5,2.5s1.1193,2.5,2.5,2.5s2.5-1.1193,2.5-2.5S13.6381,18,12.2574,18z"/>
</g>
</svg>
