<?xml version="1.0" encoding="utf-8"?>
<!-- Generator: Adobe Illustrator 17.1.0, SVG Export Plug-In . SVG Version: 6.00 Build 0)  -->
<!DOCTYPE svg PUBLIC "-//W3C//DTD SVG 1.1//EN" "http://www.w3.org/Graphics/SVG/1.1/DTD/svg11.dtd">
<svg version="1.1" id="XMLID_251_" xmlns="http://www.w3.org/2000/svg" xmlns:xlink="http://www.w3.org/1999/xlink" x="0px" y="0px"
	 viewBox="0 0 24.1 24.1" enable-background="new 0 0 24.1 24.1" xml:space="preserve">
<g id="cloud">
	<rect id="_x2E_svg_63_" x="0" y="0" fill="none" width="24" height="24"/>
	<path fill="none" stroke="#000000" stroke-width="2" stroke-miterlimit="10" d="M7.1,8V7c0-2.2091,1.7909-4,4-4h3
		c2.2091,0,4,1.7909,4,4v1c2.7729,0,5,2.2219,5,4.9948S20.8521,18,18.0792,18H11.4 M12.7,8H6.1208C3.3479,8,1.1,10.2375,1.1,13.0104
		S3.3271,18,6.1,18v1.1c0,2.2091,1.7909,4,4,4h3c2.2091,0,4-1.7909,4-4V19"/>
</g>
</svg>
