<svg width="24" height="24" viewBox="0 0 24 24">
  <path fill="none" stroke="#000" stroke-width="2" d="M16,15 C20.0089021,14.9354541 23,11.9673591 23,8 C23,4.98813056 22.0029673,5.9851632 21,7 C20.0089021,7.97922849 18,10 18,10 L14,6 C14,6 16.0207715,3.99109792 17,3 C18.0148368,1.99703264 18.0148368,1 16,1 C12.0326409,0.999999999 9.05307486,3.99109792 9,8 C9.04154304,8.97626113 9,11 9,11 C7.11486635,12.8970031 4.65923194,15.3526375 3,17 C0.0682492584,19.9436202 4.05637975,23.9317507 7,21 C8.65052042,19.3376102 11.1126942,16.8754364 13,15 C13,15 15.0237389,14.958457 16,15 Z"/>
</svg>
