<?xml version="1.0" encoding="utf-8"?>
<!-- Generator: Adobe Illustrator 19.1.0, SVG Export Plug-In . SVG Version: 6.00 Build 0)  -->
<svg version="1.1" id="XMLID_259_" xmlns="http://www.w3.org/2000/svg" xmlns:xlink="http://www.w3.org/1999/xlink" x="0px" y="0px"
	 viewBox="0 0 48 48" enable-background="new 0 0 48 48" xml:space="preserve">
<g id="configuration">
	<rect id="_x2E_svg_54_" x="0" y="0" fill="none" width="48" height="48"/>
	<path fill="none" stroke="#231F20" stroke-width="2" stroke-miterlimit="10" d="M26.5387,25.7l-8.42,8.42
		c-0.58,0.59-1.35,0.88-2.12,0.88c-0.77,0-1.54-0.29-2.12-0.88c-1.17-1.17-1.17-3.07,0-4.24l8.42-8.42c-0.2-0.62-0.3-1.28-0.3-1.96
		c0-3.59,2.91-6.5,6.5-6.5c0.8,0,1.56,0.14,2.26,0.41l-4.2,4.2l3.83,3.83l4.2-4.2c0.27,0.7,0.41,1.46,0.41,2.26
		c0,3.59-2.91,6.5-6.5,6.5C27.8187,26,27.1587,25.9,26.5387,25.7z"/>
</g>
</svg>
