<?xml version="1.0" encoding="utf-8"?>
<!-- Generator: Adobe Illustrator 17.1.0, SVG Export Plug-In . SVG Version: 6.00 Build 0)  -->
<!DOCTYPE svg PUBLIC "-//W3C//DTD SVG 1.1//EN" "http://www.w3.org/Graphics/SVG/1.1/DTD/svg11.dtd">
<svg version="1.1" id="XMLID_161_" xmlns="http://www.w3.org/2000/svg" xmlns:xlink="http://www.w3.org/1999/xlink" x="0px" y="0px"
	 viewBox="0 0 26 26.1147" enable-background="new 0 0 26 26.1147" xml:space="preserve">
<g id="cubes">
	<rect id="_x2E_svg_153_" x="1" y="2.1147" fill="none" width="24" height="24"/>
	<path fill="none" stroke="#000000" stroke-width="2" stroke-miterlimit="10" d="M1,14.0692l6-2.9545l6,2.9545v7.0909l-6,2.9545
		l-6-2.9545V14.0692z M1,14.0692l6,2.9545l6-2.9545 M7,17.1147v7 M13,21.1601l6,2.9545l6-2.9545v-7.0909l-6-2.9545l-6,2.9545
		V21.1601z M13,14.0692l6,2.9545l6-2.9545 M19,17.1147v7 M7,11.1601l6,2.9545l6-2.9545V4.0692l-6-2.9545L7,4.0692V11.1601z
		 M7,4.0692l6,2.9545l6-2.9545 M13,7.1147v7"/>
</g>
</svg>
