<?xml version="1.0" encoding="utf-8"?>
<!-- Generator: Adobe Illustrator 19.1.0, SVG Export Plug-In . SVG Version: 6.00 Build 0)  -->
<svg version="1.1" id="XMLID_257_" xmlns="http://www.w3.org/2000/svg" xmlns:xlink="http://www.w3.org/1999/xlink" x="0px" y="0px"
	 viewBox="0 0 48 48" enable-background="new 0 0 48 48" xml:space="preserve">
<g id="cycle">
	<rect id="_x2E_svg_52_" x="0" y="0" fill="none" width="48" height="48"/>
	<path fill="none" stroke="#231F20" stroke-width="2" stroke-miterlimit="10" d="M26.9508,29.7125l-2.2097,3.9209l3.8266,2.2642
		 M17.518,23.4374l-2.2088-3.9215L11.482,21.779"/>
	<path fill="none" stroke="#231F20" stroke-width="2" stroke-miterlimit="10" d="M27.6134,18.4261l4.4187,0.0263l0.0257-4.5277"/>
	<path fill="none" stroke="#231F20" stroke-width="2" stroke-miterlimit="10" d="M26.0138,33.5
		c4.4091-0.9351,7.7173-4.8501,7.7173-9.5378c0-0.729-0.08-1.4393-0.2317-2.1226"/>
	<path fill="none" stroke="#231F20" stroke-width="2" stroke-miterlimit="10" d="M14.8579,20.5153
		c-0.4051,1.0716-0.6268,2.2334-0.6268,3.4469c0,4.3751,2.8817,8.0772,6.8506,9.3117"/>
	<path fill="none" stroke="#231F20" stroke-width="2" stroke-miterlimit="10" d="M31.2979,17.5179
		c-1.7867-2.027-4.4024-3.3057-7.3168-3.3057c-2.4341,0-4.6598,0.8919-6.3682,2.3668"/>
</g>
</svg>
