<?xml version="1.0" encoding="utf-8"?>
<!-- Generator: Adobe Illustrator 17.1.0, SVG Export Plug-In . SVG Version: 6.00 Build 0)  -->
<!DOCTYPE svg PUBLIC "-//W3C//DTD SVG 1.1//EN" "http://www.w3.org/Graphics/SVG/1.1/DTD/svg11.dtd">
<svg version="1.1" id="XMLID_256_" xmlns="http://www.w3.org/2000/svg" xmlns:xlink="http://www.w3.org/1999/xlink" x="0px" y="0px"
	 viewBox="0 0 24 24.5" enable-background="new 0 0 24 24.5" xml:space="preserve">
<g id="dashboard">
	<rect id="_x2E_svg_51_" x="0" y="0" fill="none" width="24" height="24"/>
	<path fill="none" stroke="#000000" stroke-width="2" stroke-miterlimit="10" d="M23,12.5c0,6.0751-4.9249,11-11,11
		s-11-4.9249-11-11s4.9249-11,11-11S23,6.4249,23,12.5z M2,16.5h20 M15,15.5c0-1.6569-1.3431-3-3-3s-3,1.3431-3,3 M12,12.5v-6
		 M12,4.5v-2 M17.6569,6.8431l1.4142-1.4142 M20,12.5h2 M6,6.8431L4.5858,5.4289 M4,12.5H2"/>
</g>
</svg>
