<?xml version="1.0" encoding="utf-8"?>
<!-- Generator: Adobe Illustrator 17.1.0, SVG Export Plug-In . SVG Version: 6.00 Build 0)  -->
<!DOCTYPE svg PUBLIC "-//W3C//DTD SVG 1.1//EN" "http://www.w3.org/Graphics/SVG/1.1/DTD/svg11.dtd">
<svg version="1.1" id="XMLID_118_" xmlns="http://www.w3.org/2000/svg" xmlns:xlink="http://www.w3.org/1999/xlink" x="0px" y="0px"
	 viewBox="0 0 24.0004 24" enable-background="new 0 0 24.0004 24" xml:space="preserve">
<g id="defect">
	<rect id="_x2E_svg_196_" x="0" fill="none" width="24" height="24"/>
	<path fill="none" stroke="#000000" stroke-width="2" stroke-miterlimit="10" d="M19.0004,16.0796c0,3.822-3.178,6.9204-7,6.9204
		s-7-3.0984-7-6.9204V9.3529c1-0.5968,3.3059-2.3646,7.0368-2.3529c3.6859,0.0115,5.9632,1.7527,6.9632,2.3529
		C19.0004,13.7128,19.0004,11.7197,19.0004,16.0796z M12.0004,24V12 M0.8575,6c2.3571,3.25,5.1429,3,5.1429,3 M5.0804,17.08
		c-1.01,0.19-2.7,0.83-4.22,2.92 M0.0004,13h6 M18.0004,9c0,0,2.7857,0.25,5.1429-3 M23.1404,20c-1.52-2.09-3.21-2.73-4.22-2.92
		 M18.0004,13h6 M16.5904,7.98c0.27-0.61,0.41-1.28,0.41-1.98c0-2.76-2.24-5-5-5s-5,2.24-5,5c0,0.71,0.15,1.38,0.41,1.99"/>
</g>
</svg>
