<?xml version="1.0" encoding="utf-8"?>
<!-- Generator: Adobe Illustrator 19.1.0, SVG Export Plug-In . SVG Version: 6.00 Build 0)  -->
<svg version="1.1" id="XMLID_229_" xmlns="http://www.w3.org/2000/svg" xmlns:xlink="http://www.w3.org/1999/xlink" x="0px" y="0px"
	 viewBox="0 0 48 48" enable-background="new 0 0 48 48" xml:space="preserve">
<g id="deliver">
	<rect id="_x2E_svg_85_" x="0" y="0" fill="none" width="48" height="48"/>
	<path fill="none" stroke="#231F20" stroke-width="2" stroke-miterlimit="10" d="M15.6875,29h-2V15h14v4v10h-7 M27.6875,29
		L27.6875,29 M32.6875,29h3v-6l-4-4h-4 M18.1875,27c-1.3807,0-2.5,1.1193-2.5,2.5s1.1193,2.5,2.5,2.5c1.3807,0,2.5-1.1193,2.5-2.5
		S19.5682,27,18.1875,27z M30.1875,27c-1.3807,0-2.5,1.1193-2.5,2.5s1.1193,2.5,2.5,2.5c1.3807,0,2.5-1.1193,2.5-2.5
		S31.5682,27,30.1875,27z"/>
</g>
</svg>
