<?xml version="1.0" encoding="utf-8"?>
<!-- Generator: Adobe Illustrator 17.1.0, SVG Export Plug-In . SVG Version: 6.00 Build 0)  -->
<!DOCTYPE svg PUBLIC "-//W3C//DTD SVG 1.1//EN" "http://www.w3.org/Graphics/SVG/1.1/DTD/svg11.dtd">
<svg version="1.1" id="XMLID_229_" xmlns="http://www.w3.org/2000/svg" xmlns:xlink="http://www.w3.org/1999/xlink" x="0px" y="0px"
	 viewBox="0 0 24.6875 24" enable-background="new 0 0 24.6875 24" xml:space="preserve">
<g id="deliver">
	<rect id="_x2E_svg_85_" x="0" y="0" fill="none" width="24" height="24"/>
	<path fill="none" stroke="#000000" stroke-width="2" stroke-miterlimit="10" d="M3.6875,17h-2V3h14v4v10h-7 M15.6875,17L15.6875,17
		 M20.6875,17h3v-6l-4-4h-4 M6.1875,15c-1.3807,0-2.5,1.1193-2.5,2.5s1.1193,2.5,2.5,2.5s2.5-1.1193,2.5-2.5S7.5682,15,6.1875,15z
		 M18.1875,15c-1.3807,0-2.5,1.1193-2.5,2.5s1.1193,2.5,2.5,2.5c1.3807,0,2.5-1.1193,2.5-2.5S19.5682,15,18.1875,15z"/>
</g>
</svg>
