<?xml version="1.0" encoding="utf-8"?>
<!-- Generator: Adobe Illustrator 19.1.0, SVG Export Plug-In . SVG Version: 6.00 Build 0)  -->
<svg version="1.1" id="XMLID_116_" xmlns="http://www.w3.org/2000/svg" xmlns:xlink="http://www.w3.org/1999/xlink" x="0px" y="0px"
	 viewBox="0 0 48 48" enable-background="new 0 0 48 48" xml:space="preserve">
<g id="document-conig">
	<rect id="_x2E_svg_198_" x="0" fill="none" width="48" height="48"/>
	<path fill="none" stroke="#231F20" stroke-width="2" stroke-miterlimit="10" d="M15,23V13h13.0002L33,17.9999V35h-8 M27,13v6h6
		 M26,19 M21,30c0-1.6542-1.3455-3-3-3s-3,1.3458-3,3s1.3455,3,3,3S21,31.6542,21,30z M21,30.0001L24,30 M20.1212,32.1214
		l2.1214,2.1212 M18,36l-0.0001-3 M15.8786,32.1212l-2.1212,2.1214 M12,30h3 M15.8787,27.8787l-2.1213-2.1213 M18,27v-3
		 M22.2426,25.7574l-2.1213,2.1213"/>
</g>
</svg>
