<?xml version="1.0" encoding="utf-8"?>
<!-- Generator: Adobe Illustrator 19.1.0, SVG Export Plug-In . SVG Version: 6.00 Build 0)  -->
<svg version="1.1" id="XMLID_34_" xmlns="http://www.w3.org/2000/svg" xmlns:xlink="http://www.w3.org/1999/xlink" x="0px" y="0px"
	 viewBox="0 0 48 48" enable-background="new 0 0 48 48" xml:space="preserve">
<g id="document-sound">
	<rect id="_x2E_svg_287_" x="0" y="0" fill="none" width="48" height="48"/>
	<polyline fill="none" stroke="#231F20" stroke-width="2" stroke-miterlimit="10" points="16,20 16,13 29.0002,13 34,17.9999 34,35 
		30,35 	"/>
	<polyline fill="none" stroke="#231F20" stroke-width="2" stroke-miterlimit="10" points="28,14 28,19 34,19 	"/>
	<path fill="none" stroke="#231F20" stroke-width="2" stroke-miterlimit="10" d="M22.5,25L22.5,25c1.6569,0,3,1.3431,3,3v0
		c0,1.6569-1.3431,3-3,3h0"/>
	<path fill="none" stroke="#231F20" stroke-width="2" stroke-miterlimit="10" d="M22.5,21L22.5,21c3.866,0,7,3.134,7,7v0
		c0,3.866-3.134,7-7,7h0"/>
	<polygon fill="none" stroke="#231F20" stroke-width="2" stroke-miterlimit="10" points="15,26 12,26 12,30 15,30 20,34 20,22 	"/>
</g>
</svg>
