<?xml version="1.0" encoding="utf-8"?>
<!-- Generator: Adobe Illustrator 17.1.0, SVG Export Plug-In . SVG Version: 6.00 Build 0)  -->
<!DOCTYPE svg PUBLIC "-//W3C//DTD SVG 1.1//EN" "http://www.w3.org/Graphics/SVG/1.1/DTD/svg11.dtd">
<svg version="1.1" id="XMLID_80_" xmlns="http://www.w3.org/2000/svg" xmlns:xlink="http://www.w3.org/1999/xlink" x="0px" y="0px"
	 viewBox="0 0 24.2083 24" enable-background="new 0 0 24.2083 24" xml:space="preserve">
<g id="document-threat">
	<rect id="_x2E_svg_234_" x="0.2083" y="0" fill="none" width="24" height="24"/>
	<path fill="none" stroke="#000000" stroke-width="2" stroke-miterlimit="10" d="M4.2083,4V1h13.0002l4.9998,4.9999V23h-9
		 M16.2083,2v5h6 M4.2083,12.72C2.2083,13.5133,1,15.4267,1,17.6667C1,20.6133,3.5117,23,6.4583,23s5.25-2.3867,5.25-5.3333
		c0-2.24-1.5-4.1533-3.5-4.9467v-0.3867V11h-4v1.3333V12.72z M13.2083,7.6c0,0.8284-0.6716,1.5-1.5,1.5H11.375
		c-0.8284,0-1.5-0.6716-1.5-1.5v0c0-0.8284-0.6716-1.5-1.5-1.5H7.7083c-0.8284,0-1.5,0.6716-1.5,1.5v2.5"/>
</g>
</svg>
