<?xml version="1.0" encoding="utf-8"?>
<!-- Generator: Adobe Illustrator 17.1.0, SVG Export Plug-In . SVG Version: 6.00 Build 0)  -->
<!DOCTYPE svg PUBLIC "-//W3C//DTD SVG 1.1//EN" "http://www.w3.org/Graphics/SVG/1.1/DTD/svg11.dtd">
<svg version="1.1" id="XMLID_42_" xmlns="http://www.w3.org/2000/svg" xmlns:xlink="http://www.w3.org/1999/xlink" x="0px" y="0px"
	 viewBox="0 0 24 24" enable-background="new 0 0 24 24" xml:space="preserve">
<g id="document-powerpoint">
	<rect id="_x2E_svg_277_" fill="none" width="24" height="24"/>
	<polyline fill="none" stroke="#000000" stroke-width="2" stroke-miterlimit="10" points="4.5,9 4.5,1 17.5002,1 22.5,5.9999 
		22.5,23 3.5,23 	"/>
	<polyline fill="none" stroke="#000000" stroke-width="2" stroke-miterlimit="10" points="16.5,2 16.5,7 22.5,7 	"/>
	<path fill="none" stroke="#000000" stroke-width="2" stroke-miterlimit="10" d="M15.5,7"/>
	<g>
		<path d="M3.2898,10.9497H6.967c2.1474,0,3.4459,1.2729,3.4459,3.1117v0.0261c0,2.0822-1.6201,3.1619-3.6385,3.1619H5.2701v2.7003
			H3.2898V10.9497z M6.8385,15.4888c0.9899,0,1.5684-0.592,1.5684-1.3637V14.1c0-0.8875-0.6171-1.3627-1.607-1.3627H5.2701v2.7515
			H6.8385z"/>
	</g>
</g>
</svg>
