<?xml version="1.0" encoding="utf-8"?>
<!-- Generator: Adobe Illustrator 17.1.0, SVG Export Plug-In . SVG Version: 6.00 Build 0)  -->
<!DOCTYPE svg PUBLIC "-//W3C//DTD SVG 1.1//EN" "http://www.w3.org/Graphics/SVG/1.1/DTD/svg11.dtd">
<svg version="1.1" id="XMLID_31_" xmlns="http://www.w3.org/2000/svg" xmlns:xlink="http://www.w3.org/1999/xlink" x="0px" y="0px"
	 viewBox="0 0 24.5814 24" enable-background="new 0 0 24.5814 24" xml:space="preserve">
<g id="document-executable">
	<rect id="_x2E_svg_284_" x="0.5814" y="0" fill="none" width="24" height="24"/>
	<line fill="none" stroke="#000000" stroke-width="2" stroke-miterlimit="10" x1="6" y1="13" x2="0" y2="13"/>
	<line fill="none" stroke="#000000" stroke-width="2" stroke-miterlimit="10" x1="6" y1="19" x2="0" y2="19"/>
	<line fill="none" stroke="#000000" stroke-width="2" stroke-miterlimit="10" x1="5" y1="16.0001" x2="0" y2="16.0001"/>
	<line fill="none" stroke="#000000" stroke-width="2" stroke-miterlimit="10" x1="1" y1="12" x2="1" y2="20"/>
	<line fill="none" stroke="#000000" stroke-width="2" stroke-miterlimit="10" x1="20" y1="13" x2="14" y2="13"/>
	<line fill="none" stroke="#000000" stroke-width="2" stroke-miterlimit="10" x1="20" y1="19" x2="14" y2="19"/>
	<line fill="none" stroke="#000000" stroke-width="2" stroke-miterlimit="10" x1="19" y1="16.0001" x2="14" y2="16.0001"/>
	<line fill="none" stroke="#000000" stroke-width="2" stroke-miterlimit="10" x1="15" y1="12" x2="15" y2="20"/>
	<polygon points="11.4028,20.0002 6.3985,12 8.574,12 13.5814,20 	"/>
	<polygon points="8.4016,20.0002 13.4059,12 11.2269,12 6.2195,20 	"/>
	<polyline fill="none" stroke="#000000" stroke-width="2" stroke-miterlimit="10" points="5,8 5,1 18.0002,1 23,5.9999 23,23 5,23 	
		"/>
	<polyline fill="none" stroke="#000000" stroke-width="2" stroke-miterlimit="10" points="17,2 17,7 23,7 	"/>
</g>
</svg>
