<?xml version="1.0" encoding="utf-8"?>
<!-- Generator: Adobe Illustrator 17.1.0, SVG Export Plug-In . SVG Version: 6.00 Build 0)  -->
<!DOCTYPE svg PUBLIC "-//W3C//DTD SVG 1.1//EN" "http://www.w3.org/Graphics/SVG/1.1/DTD/svg11.dtd">
<svg version="1.1" id="XMLID_78_" xmlns="http://www.w3.org/2000/svg" xmlns:xlink="http://www.w3.org/1999/xlink" x="0px" y="0px"
	 viewBox="0 0 24 24" enable-background="new 0 0 24 24" xml:space="preserve">
<g id="document-data">
	<rect id="_x2E_svg_232_" y="0" fill="none" width="24" height="24"/>
	<path fill="none" stroke="#000000" stroke-width="2" stroke-miterlimit="10" d="M3,7V1h13.0002L21,5.9999V23h-5 M15,2v5h6 M7,10
		c-3.3137,0-6,1.1193-6,2.5S3.6863,15,7,15s6-1.1193,6-2.5S10.3137,10,7,10z M1,13v3.5C1,17.8807,3.6863,19,7,19s6-1.1193,6-2.5V13
		 M1,17v3.5C1,21.8807,3.6863,23,7,23s6-1.1193,6-2.5V17"/>
</g>
</svg>
