<?xml version="1.0" encoding="utf-8"?>
<!-- Generator: Adobe Illustrator 19.1.0, SVG Export Plug-In . SVG Version: 6.00 Build 0)  -->
<svg version="1.1" id="XMLID_31_" xmlns="http://www.w3.org/2000/svg" xmlns:xlink="http://www.w3.org/1999/xlink" x="0px" y="0px"
	 viewBox="0 0 48 48" enable-background="new 0 0 48 48" xml:space="preserve">
<g id="document-executable">
	<rect id="_x2E_svg_284_" x="0" y="0" fill="none" width="48" height="48"/>
	<line fill="none" stroke="#231F20" stroke-width="2" stroke-miterlimit="10" x1="17.4186" y1="25" x2="11.4186" y2="25"/>
	<line fill="none" stroke="#231F20" stroke-width="2" stroke-miterlimit="10" x1="17.4186" y1="31" x2="11.4186" y2="31"/>
	
		<line fill="none" stroke="#231F20" stroke-width="2" stroke-miterlimit="10" x1="16.4186" y1="28.0001" x2="11.4186" y2="28.0001"/>
	<line fill="none" stroke="#231F20" stroke-width="2" stroke-miterlimit="10" x1="12.4186" y1="24" x2="12.4186" y2="32"/>
	<line fill="none" stroke="#231F20" stroke-width="2" stroke-miterlimit="10" x1="31.4186" y1="25" x2="25.4186" y2="25"/>
	<line fill="none" stroke="#231F20" stroke-width="2" stroke-miterlimit="10" x1="31.4186" y1="31" x2="25.4186" y2="31"/>
	
		<line fill="none" stroke="#231F20" stroke-width="2" stroke-miterlimit="10" x1="30.4186" y1="28.0001" x2="25.4186" y2="28.0001"/>
	<line fill="none" stroke="#231F20" stroke-width="2" stroke-miterlimit="10" x1="26.4186" y1="24" x2="26.4186" y2="32"/>
	<polygon fill="#231F20" points="22.8214,32.0002 17.8171,24 19.9926,24 25,32 	"/>
	<polygon fill="#231F20" points="19.8202,32.0002 24.8245,24 22.6454,24 17.638,32 	"/>
	<polyline fill="none" stroke="#231F20" stroke-width="2" stroke-miterlimit="10" points="16.4186,20 16.4186,13 29.4188,13 
		34.4186,17.9999 34.4186,35 16.4186,35 	"/>
	<polyline fill="none" stroke="#231F20" stroke-width="2" stroke-miterlimit="10" points="28.4186,14 28.4186,19 34.4186,19 	"/>
</g>
</svg>
