<?xml version="1.0" encoding="utf-8"?>
<!-- Generator: Adobe Illustrator 19.1.0, SVG Export Plug-In . SVG Version: 6.00 Build 0)  -->
<svg version="1.1" id="XMLID_78_" xmlns="http://www.w3.org/2000/svg" xmlns:xlink="http://www.w3.org/1999/xlink" x="0px" y="0px"
	 viewBox="0 0 48 48" enable-background="new 0 0 48 48" xml:space="preserve">
<g id="document-data">
	<rect id="_x2E_svg_232_" x="0" y="0" fill="none" width="48" height="48"/>
	<path fill="none" stroke="#231F20" stroke-width="2" stroke-miterlimit="10" d="M15,19v-6h13.0002L33,17.9999V35h-5 M27,14v5h6
		 M19,22c-3.3137,0-6,1.1193-6,2.5s2.6863,2.5,6,2.5s6-1.1193,6-2.5S22.3137,22,19,22z M13,25v3.5c0,1.3807,2.6863,2.5,6,2.5
		s6-1.1193,6-2.5V25 M13,29v3.5c0,1.3807,2.6863,2.5,6,2.5s6-1.1193,6-2.5V29"/>
</g>
</svg>
