<?xml version="1.0" encoding="utf-8"?>
<!-- Generator: Adobe Illustrator 17.1.0, SVG Export Plug-In . SVG Version: 6.00 Build 0)  -->
<!DOCTYPE svg PUBLIC "-//W3C//DTD SVG 1.1//EN" "http://www.w3.org/Graphics/SVG/1.1/DTD/svg11.dtd">
<svg version="1.1" id="XMLID_36_" xmlns="http://www.w3.org/2000/svg" xmlns:xlink="http://www.w3.org/1999/xlink" x="0px" y="0px"
	 viewBox="0 0 26 24" enable-background="new 0 0 26 24" xml:space="preserve">
<g id="document-cloud">
	<rect id="_x2E_svg_271_" x="2" y="0" fill="none" width="24" height="24"/>
	<polyline fill="none" stroke="#000000" stroke-width="2" stroke-miterlimit="10" points="6,6 6,1 19.0002,1 24,5.9999 24,23 17,23 
			"/>
	<polyline fill="none" stroke="#000000" stroke-width="2" stroke-miterlimit="10" points="18,2 18,7 24,7 	"/>
	<path fill="none" stroke="#000000" stroke-width="2" stroke-miterlimit="10" d="M5.375,12.8537v-1c0-1.6569,1.3431-3,3-3h4
		c1.6569,0,3,1.3431,3,3v1l1,0c1.6569,0,3,1.3431,3,3v0c0,1.6569-1.3431,3-3,3H9.9996"/>
	<path fill="none" stroke="#000000" stroke-width="2" stroke-miterlimit="10" d="M14,18.8537v1c0,1.6569-1.3431,3-3,3H8
		c-1.6569,0-3-1.3431-3-3v-1H4c-1.6569,0-3-1.3431-3-3v0c0-1.6569,1.3431-3,3-3h6.375"/>
</g>
</svg>
