<?xml version="1.0" encoding="utf-8"?>
<!-- Generator: Adobe Illustrator 17.1.0, SVG Export Plug-In . SVG Version: 6.00 Build 0)  -->
<!DOCTYPE svg PUBLIC "-//W3C//DTD SVG 1.1//EN" "http://www.w3.org/Graphics/SVG/1.1/DTD/svg11.dtd">
<svg version="1.1" id="XMLID_116_" xmlns="http://www.w3.org/2000/svg" xmlns:xlink="http://www.w3.org/1999/xlink" x="0px" y="0px"
	 viewBox="0 0 24 24" enable-background="new 0 0 24 24" xml:space="preserve">
<g id="document-conig">
	<rect id="_x2E_svg_198_" x="0" fill="none" width="24" height="24"/>
	<path fill="none" stroke="#000000" stroke-width="2" stroke-miterlimit="10" d="M3,11V1h13.0002L21,5.9999V23h-8 M15,1v6h6 M14,7
		 M9,18c0-1.6542-1.3455-3-3-3s-3,1.3458-3,3s1.3455,3,3,3S9,19.6542,9,18z M9,18.0001L12,18 M8.1212,20.1214l2.1214,2.1212 M6,24
		l-0.0001-3 M3.8786,20.1212l-2.1212,2.1214 M0,18h3 M3.8787,15.8787l-2.1213-2.1213 M6,15v-3 M10.2426,13.7574l-2.1213,2.1213"/>
</g>
</svg>
