<?xml version="1.0" encoding="utf-8"?>
<!-- Generator: Adobe Illustrator 17.1.0, SVG Export Plug-In . SVG Version: 6.00 Build 0)  -->
<!DOCTYPE svg PUBLIC "-//W3C//DTD SVG 1.1//EN" "http://www.w3.org/Graphics/SVG/1.1/DTD/svg11.dtd">
<svg version="1.1" id="XMLID_34_" xmlns="http://www.w3.org/2000/svg" xmlns:xlink="http://www.w3.org/1999/xlink" x="0px" y="0px"
	 viewBox="0 0 25 24.0806" enable-background="new 0 0 25 24.0806" xml:space="preserve">
<g id="document-sound">
	<rect id="_x2E_svg_287_" x="1" fill="none" width="24" height="24"/>
	<polyline fill="none" stroke="#000000" stroke-width="2" stroke-miterlimit="10" points="5,8 5,1 18.0002,1 23,5.9999 23,23 19,23 
			"/>
	<polyline fill="none" stroke="#000000" stroke-width="2" stroke-miterlimit="10" points="17,2 17,7 23,7 	"/>
	<path fill="none" stroke="#000000" stroke-width="2" stroke-miterlimit="10" d="M11.5,13L11.5,13c1.6569,0,3,1.3431,3,3v0
		c0,1.6569-1.3431,3-3,3h0"/>
	<path fill="none" stroke="#000000" stroke-width="2" stroke-miterlimit="10" d="M11.5,9L11.5,9c3.866,0,7,3.134,7,7v0
		c0,3.866-3.134,7-7,7h0"/>
	<polygon fill="none" stroke="#000000" stroke-width="2" stroke-miterlimit="10" points="4,14 1,14 1,18 4,18 9,22 9,10 	"/>
</g>
</svg>
