<?xml version="1.0" encoding="utf-8"?>
<!-- Generator: Adobe Illustrator 17.1.0, SVG Export Plug-In . SVG Version: 6.00 Build 0)  -->
<!DOCTYPE svg PUBLIC "-//W3C//DTD SVG 1.1//EN" "http://www.w3.org/Graphics/SVG/1.1/DTD/svg11.dtd">
<svg version="1.1" id="XMLID_40_" xmlns="http://www.w3.org/2000/svg" xmlns:xlink="http://www.w3.org/1999/xlink" x="0px" y="0px"
	 viewBox="0 0 24.4999 24" enable-background="new 0 0 24.4999 24" xml:space="preserve">
<g id="document-rtf">
	<rect id="_x2E_svg_280_" x="0.4999" y="0" fill="none" width="24" height="24"/>
	<polyline fill="none" stroke="#000000" stroke-width="2" stroke-miterlimit="10" points="4.9999,9 4.9999,1 18.0001,1 
		22.9999,5.9999 22.9999,23 3.9999,23 	"/>
	<polyline fill="none" stroke="#000000" stroke-width="2" stroke-miterlimit="10" points="16.9999,2 16.9999,7 22.9999,7 	"/>
	<path fill="none" stroke="#000000" stroke-width="2" stroke-miterlimit="10" d="M15.9999,7"/>
	<line fill="none" stroke="#000000" stroke-width="2" stroke-miterlimit="10" x1="1" y1="13.0004" x2="1" y2="20.0004"/>
	<path fill="none" stroke="#000000" stroke-width="2" stroke-miterlimit="10" d="M3,17.0004c1.1046,0,2-0.8954,2-2s-0.8954-2-2-2H1
		v4H3z"/>
	<polygon points="4.246,20.0004 1.5437,16.2977 3.7342,16.2977 6.4561,20.0201 	"/>
	<line fill="none" stroke="#000000" stroke-width="2" stroke-miterlimit="10" x1="12.5557" y1="13" x2="6.5557" y2="13"/>
	<line fill="none" stroke="#000000" stroke-width="2" stroke-miterlimit="10" x1="9.5557" y1="12" x2="9.5557" y2="20"/>
	<line fill="none" stroke="#000000" stroke-width="2" stroke-miterlimit="10" x1="19.5557" y1="13" x2="13.5557" y2="13"/>
	<line fill="none" stroke="#000000" stroke-width="2" stroke-miterlimit="10" x1="14.5557" y1="12" x2="14.5557" y2="20"/>
	<line fill="none" stroke="#000000" stroke-width="2" stroke-miterlimit="10" x1="18.5557" y1="17" x2="13.5557" y2="17"/>
</g>
</svg>
