<?xml version="1.0" encoding="utf-8"?>
<!-- Generator: Adobe Illustrator 17.1.0, SVG Export Plug-In . SVG Version: 6.00 Build 0)  -->
<!DOCTYPE svg PUBLIC "-//W3C//DTD SVG 1.1//EN" "http://www.w3.org/Graphics/SVG/1.1/DTD/svg11.dtd">
<svg version="1.1" id="XMLID_107_" xmlns="http://www.w3.org/2000/svg" xmlns:xlink="http://www.w3.org/1999/xlink" x="0px" y="0px"
	 viewBox="0 0 24.0001 24" enable-background="new 0 0 24.0001 24" xml:space="preserve">
<g id="folder-cycle">
	<rect id="_x2E_svg_202_" x="0.0001" fill="none" width="24" height="24"/>
	<path fill="none" stroke="#000000" stroke-width="2" stroke-miterlimit="10" d="M4.0001,23h-3V5l0-4h8l3,4h11v18h-4 M1.0001,9h22"
		/>
	<path fill="none" stroke="#000000" stroke-width="2" stroke-miterlimit="10" d="M7.0001,18c0-2.7614,2.2386-5,5-5
		c1.9848,0,3.6994,1.1565,4.5069,2.8323"/>
	<polygon points="13.0001,17 18.0001,17 18.0001,12 	"/>
	<path fill="none" stroke="#000000" stroke-width="2" stroke-miterlimit="10" d="M17.0001,18c0,2.7614-2.2386,5-5,5
		c-1.9848,0-3.6994-1.1565-4.5069-2.8323"/>
	<polygon points="11.0001,19 6.0001,19 6.0001,24 	"/>
</g>
</svg>
