<?xml version="1.0" encoding="utf-8"?>
<!-- Generator: Adobe Illustrator 17.1.0, SVG Export Plug-In . SVG Version: 6.00 Build 0)  -->
<!DOCTYPE svg PUBLIC "-//W3C//DTD SVG 1.1//EN" "http://www.w3.org/Graphics/SVG/1.1/DTD/svg11.dtd">
<svg version="1.1" id="XMLID_171_" xmlns="http://www.w3.org/2000/svg" xmlns:xlink="http://www.w3.org/1999/xlink" x="0px" y="0px"
	 viewBox="0 0 24 24" enable-background="new 0 0 24 24" xml:space="preserve">
<g id="globe">
	<rect id="_x2E_svg_146_" fill="none" width="24" height="24"/>
	<path fill="none" stroke="#000000" stroke-width="2" stroke-miterlimit="10" d="M23,12c0,6.0751-4.9249,11-11,11S1,18.0751,1,12
		S5.9249,1,12,1S23,5.9249,23,12z M2,9c0,0,4.125-0.25,5.4344,1.2308C8.4973,11.4327,8,12.7448,9,13l0,0
		c0,0,1.7237,0.3779,1.3,1.5804c-1.425,4.0446,2.6809,2.248,2.6809,5.3569c0,3.1144,3.2905,3.3569,3.2905,0.8664
		s2.2024-3.7329,2.2024-5.5993s-1.6845-2.1022-2.7988-2.7262C14.5606,11.8597,14.1589,11,12,11l0,0l0,0c-1.1199-1-1.5349-1.8913-1-3
		c0.546-1.1199,2.4332-1.0625,2.4332-3.8015c0-1.6714-1.4238-3.1434-2.5381-3.1434"/>
</g>
</svg>
