<?xml version="1.0" encoding="utf-8"?>
<!-- Generator: Adobe Illustrator 17.1.0, SVG Export Plug-In . SVG Version: 6.00 Build 0)  -->
<!DOCTYPE svg PUBLIC "-//W3C//DTD SVG 1.1//EN" "http://www.w3.org/Graphics/SVG/1.1/DTD/svg11.dtd">
<svg version="1.1" id="XMLID_204_" xmlns="http://www.w3.org/2000/svg" xmlns:xlink="http://www.w3.org/1999/xlink" x="0px" y="0px"
	 viewBox="0 0 26 24" enable-background="new 0 0 26 24" xml:space="preserve">
<g id="group">
	<rect id="_x2E_svg_119_" x="1" fill="none" width="24" height="24"/>
	<path fill="none" stroke="#000000" stroke-width="2" stroke-miterlimit="10" d="M17,8.5c0,2.2091-1.7909,4-4,4s-4-1.7909-4-4
		s1.7909-4,4-4S17,6.2909,17,8.5z M19,18.4091C19,14.995,16.3687,12.5,12.9546,12.5h0.1364C9.6768,12.5,7,14.995,7,18.4091V21.5h12
		V18.4091z M16.96,8.93c0.01,0,0.01,0.01,0.02,0.01c0.58,0.35,1.26,0.55,1.97,0.56c0.02,0,0.03,0,0.05,0c2.21,0,4-1.79,4-4
		s-1.79-4-4-4c-2.06,0-3.76,1.56-3.97,3.56 M19,18.5h6v-3.0909C25,11.995,22.3687,9.5,18.9546,9.5H19 M10.97,5.06
		C10.76,3.06,9.06,1.5,7,1.5c-2.21,0-4,1.79-4,4s1.79,4,4,4c0.02,0,0.03,0,0.05,0c0.71-0.01,1.39-0.21,1.97-0.56
		c0.01,0,0.01-0.01,0.02-0.01 M7,9.5h0.0454C3.6313,9.5,1,11.995,1,15.4091V18.5h6"/>
</g>
</svg>
