<?xml version="1.0" encoding="utf-8"?>
<!-- Generator: Adobe Illustrator 17.1.0, SVG Export Plug-In . SVG Version: 6.00 Build 0)  -->
<!DOCTYPE svg PUBLIC "-//W3C//DTD SVG 1.1//EN" "http://www.w3.org/Graphics/SVG/1.1/DTD/svg11.dtd">
<svg version="1.1" id="XMLID_71_" xmlns="http://www.w3.org/2000/svg" xmlns:xlink="http://www.w3.org/1999/xlink" x="0px" y="0px"
	 viewBox="0 0 24 26" enable-background="new 0 0 24 26" xml:space="preserve">
<g id="halt">
	<rect id="_x2E_svg_245_" y="1" fill="none" width="24" height="24"/>
	<path fill="none" stroke="#000000" stroke-width="2" stroke-miterlimit="10" d="M18,15V9c0-1.1046,0.8954-2,2-2h0
		c1.1046,0,2,0.8954,2,2v8v1c0,3.866-3.134,7-7,7H9c-3.866,0-7-3.134-7-7v-6h1c1.6569,0,3,1.3431,3,3v4 M18,14V6
		c0-1.1046-0.8954-2-2-2h0c-1.1046,0-2,0.8954-2,2v8 M14,11V3c0-1.1046-0.8954-2-2-2h0c-1.1046,0-2,0.8954-2,2v8 M10,14V6
		c0-1.1046-0.8954-2-2-2h0C6.8954,4,6,4.8954,6,6v8.9"/>
</g>
</svg>
