<?xml version="1.0" encoding="utf-8"?>
<!-- Generator: Adobe Illustrator 19.1.0, SVG Export Plug-In . SVG Version: 6.00 Build 0)  -->
<svg version="1.1" id="XMLID_71_" xmlns="http://www.w3.org/2000/svg" xmlns:xlink="http://www.w3.org/1999/xlink" x="0px" y="0px"
	 viewBox="0 0 48 48" enable-background="new 0 0 48 48" xml:space="preserve">
<g id="halt">
	<rect id="_x2E_svg_245_" x="0" y="0" fill="none" width="48" height="48"/>
	<path fill="none" stroke="#231F20" stroke-width="2" stroke-miterlimit="10" d="M30,26v-6c0-1.1046,0.8954-2,2-2h0
		c1.1046,0,2,0.8954,2,2v8v1c0,3.866-3.134,7-7,7h-6c-3.866,0-7-3.134-7-7v-6h1c1.6569,0,3,1.3431,3,3v4 M30,25v-8
		c0-1.1046-0.8954-2-2-2h0c-1.1046,0-2,0.8954-2,2v8 M26,22v-8c0-1.1046-0.8954-2-2-2h0c-1.1046,0-2,0.8954-2,2v8 M22,25v-8
		c0-1.1046-0.8954-2-2-2h0c-1.1046,0-2,0.8954-2,2v8.9"/>
</g>
</svg>
