<?xml version="1.0" encoding="utf-8"?>
<!-- Generator: Adobe Illustrator 17.1.0, SVG Export Plug-In . SVG Version: 6.00 Build 0)  -->
<!DOCTYPE svg PUBLIC "-//W3C//DTD SVG 1.1//EN" "http://www.w3.org/Graphics/SVG/1.1/DTD/svg11.dtd">
<svg version="1.1" id="XMLID_135_" xmlns="http://www.w3.org/2000/svg" xmlns:xlink="http://www.w3.org/1999/xlink" x="0px" y="0px"
	 viewBox="0 0 24 24.1667" enable-background="new 0 0 24 24.1667" xml:space="preserve">
<g id="inherit">
	<rect id="_x2E_svg_170_" y="0.1667" fill="none" width="24" height="24"/>
	<path fill="none" stroke="#000000" stroke-width="2" stroke-miterlimit="10" d="M17,6c0,2.7614-2.2386,5-5,5S7,8.7614,7,6
		s2.2386-5,5-5S17,3.2386,17,6z M4,17c-1.6569,0-3,1.3431-3,3s1.3431,3,3,3s3-1.3431,3-3S5.6569,17,4,17z M17,20
		c0,1.6569,1.3431,3,3,3s3-1.3431,3-3s-1.3431-3-3-3S17,18.3431,17,20z M6.4,18.2L12,15v-4 M17.6,18.2L12,15"/>
</g>
</svg>
