<?xml version="1.0" encoding="utf-8"?>
<!-- Generator: Adobe Illustrator 17.1.0, SVG Export Plug-In . SVG Version: 6.00 Build 0)  -->
<!DOCTYPE svg PUBLIC "-//W3C//DTD SVG 1.1//EN" "http://www.w3.org/Graphics/SVG/1.1/DTD/svg11.dtd">
<svg version="1.1" id="XMLID_101_" xmlns="http://www.w3.org/2000/svg" xmlns:xlink="http://www.w3.org/1999/xlink" x="0px" y="0px"
	 viewBox="0 0 24 25.1473" enable-background="new 0 0 24 25.1473" xml:space="preserve">
<g id="launch">
	<rect id="_x2E_svg_209_" x="0" y="0" fill="none" width="24" height="24"/>
	<circle cx="12" cy="9" r="2"/>
	<path fill="none" stroke="#000000" stroke-width="2" stroke-miterlimit="10" d="M19.1848,17.4137
		C19.8089,18.0219,20,18.8468,20,19.707v3.6281c0,0.6476-0.581,0.8821-1.1339,0.5229l-2.7003-2.0099
		C15.6193,21.493,14.977,21,14.3201,21H12H9.6799c-0.6569,0-1.2195,0.493-1.7661,0.8481l-2.78,2.1616
		C4.581,24.369,4,23.9827,4,23.3351V19.707c0-0.8602,0.1911-1.6851,0.8152-2.2933l2.3703-2.4657
		c-0.1076-1.1416-0.1768-2.4289-0.1768-3.8817C7.0086,3.8449,12,2.1473,12,2.1473s4.9914,1.6976,4.9914,8.919
		c0,1.4528-0.0693,2.7401-0.1768,3.8817L19.1848,17.4137z M8,21l2,3h4l2-3"/>
</g>
</svg>
