<?xml version="1.0" encoding="utf-8"?>
<!-- Generator: Adobe Illustrator 17.1.0, SVG Export Plug-In . SVG Version: 6.00 Build 0)  -->
<!DOCTYPE svg PUBLIC "-//W3C//DTD SVG 1.1//EN" "http://www.w3.org/Graphics/SVG/1.1/DTD/svg11.dtd">
<svg version="1.1" id="XMLID_291_" xmlns="http://www.w3.org/2000/svg" xmlns:xlink="http://www.w3.org/1999/xlink" x="0px" y="0px"
	 viewBox="0 0 24 24.2101" enable-background="new 0 0 24 24.2101" xml:space="preserve">
<g id="link">
	<rect id="_x2E_svg_23_" x="0" y="0" fill="none" width="24" height="24"/>
	<path fill="none" stroke="#000000" stroke-width="2" stroke-miterlimit="10" d="M4.4792,22.6702l-2.9392-2.9392
		c-0.7199-0.7199-0.7199-1.8871,0-2.6071l4.5839-4.5839c0.7199-0.7199,1.8871-0.7199,2.6071,0l2.9392,2.9392
		c0.7199,0.7199,0.7199,1.8871,0,2.6071l-4.5839,4.5839C6.3663,23.3901,5.1991,23.3901,4.4792,22.6702z M17.8761,11.8803
		l4.5839-4.5839c0.7199-0.7199,0.7199-1.8871,0-2.6071L19.5208,1.75c-0.7199-0.7199-1.8871-0.7199-2.6071,0L12.3298,6.334
		c-0.7199,0.7199-0.7199,1.8871,0,2.6071l2.9392,2.9392C15.989,12.6002,17.1562,12.6002,17.8761,11.8803z M17,7.2101l-10,10"/>
</g>
</svg>
