<?xml version="1.0" encoding="utf-8"?>
<!-- Generator: Adobe Illustrator 17.1.0, SVG Export Plug-In . SVG Version: 6.00 Build 0)  -->
<!DOCTYPE svg PUBLIC "-//W3C//DTD SVG 1.1//EN" "http://www.w3.org/Graphics/SVG/1.1/DTD/svg11.dtd">
<svg version="1.1" id="XMLID_19_" xmlns="http://www.w3.org/2000/svg" xmlns:xlink="http://www.w3.org/1999/xlink" x="0px" y="0px"
	 viewBox="0 0 24 24" enable-background="new 0 0 24 24" xml:space="preserve">
<g id="payment-paypal">
	<rect id="_x2E_svg_294_" x="0" y="0" fill="none" width="24" height="24"/>
	<path d="M18.2812,2.477c-0.978-1.1147-2.7457-1.5925-5.0072-1.5925H6.7105c-0.4627,0-0.8559,0.3365-0.9283,0.7928L3.0494,19.0098
		c-0.0543,0.3418,0.2103,0.6514,0.5567,0.6514h4.052l1.0177-6.4548l-0.0315,0.2021c0.0724-0.4563,0.4627-0.7928,0.9248-0.7928
		h1.9255c3.7827,0,6.7446-1.5364,7.6098-5.981c0.0257-0.1314,0.0479-0.2594,0.0672-0.3844
		C19.4292,4.6076,19.1698,3.4894,18.2812,2.477 M20.0516,7.1303L20.0516,7.1303c-0.0199,0.1256-0.0415,0.253-0.0672,0.3844
		c-0.8652,4.444-3.8271,5.981-7.6098,5.981h-1.9261c-0.4621,0-0.8523,0.3365-0.9242,0.7928l-0.9861,6.2521l-0.2798,1.7736
		c-0.0473,0.2991,0.184,0.5702,0.4866,0.5702h3.4158c0.4043,0,0.7484-0.2944,0.8115-0.6934l0.0333-0.1741l0.6438-4.0801
		l0.0415-0.2255c0.0631-0.399,0.4072-0.6934,0.8115-0.6934h0.5112c3.3089,0,5.8998-1.3442,6.657-5.2321
		c0.3161-1.6247,0.1525-2.9812-0.6835-3.934C20.7334,7.5632,20.4185,7.3249,20.0516,7.1303"/>
</g>
</svg>
