<?xml version="1.0" encoding="utf-8"?>
<!-- Generator: Adobe Illustrator 17.1.0, SVG Export Plug-In . SVG Version: 6.00 Build 0)  -->
<!DOCTYPE svg PUBLIC "-//W3C//DTD SVG 1.1//EN" "http://www.w3.org/Graphics/SVG/1.1/DTD/svg11.dtd">
<svg version="1.1" id="XMLID_21_" xmlns="http://www.w3.org/2000/svg" xmlns:xlink="http://www.w3.org/1999/xlink" x="0px" y="0px"
	 viewBox="0 0 24 24" enable-background="new 0 0 24 24" xml:space="preserve">
<g id="payment-square">
	<rect id="_x2E_svg_292_" x="0" y="0" fill="none" width="24" height="24"/>
	<path fill="none" stroke="#000000" stroke-width="2" stroke-miterlimit="10" d="M17,20.8844H7c-2.2091,0-4-1.7909-4-4v-10
		c0-2.2091,1.7909-4,4-4h10c2.2091,0,4,1.7909,4,4v10C21,19.0936,19.2091,20.8844,17,20.8844z"/>
	<path d="M14,8.8844h-4c-0.5523,0-1,0.4477-1,1v4c0,0.5523,0.4477,1,1,1h4c0.5523,0,1-0.4477,1-1v-4
		C15,9.3322,14.5523,8.8844,14,8.8844z"/>
</g>
</svg>
