<?xml version="1.0" encoding="utf-8"?>
<!-- Generator: Adobe Illustrator 17.1.0, SVG Export Plug-In . SVG Version: 6.00 Build 0)  -->
<!DOCTYPE svg PUBLIC "-//W3C//DTD SVG 1.1//EN" "http://www.w3.org/Graphics/SVG/1.1/DTD/svg11.dtd">
<svg version="1.1" id="XMLID_15_" xmlns="http://www.w3.org/2000/svg" xmlns:xlink="http://www.w3.org/1999/xlink" x="0px" y="0px"
	 viewBox="0 0 24 24" enable-background="new 0 0 24 24" xml:space="preserve">
<g id="platform-skype">
	<rect id="_x2E_svg_300_" x="0" y="0" fill="none" width="24" height="24"/>
	<path d="M21.9582,14.0392c0.0821-0.5194,0.1254-1.0509,0.1254-1.5933c0-5.6373-4.5696-10.2069-10.2072-10.2069
		c-0.5409,0-1.0738,0.0445-1.5928,0.1256C9.3435,1.7832,8.234,1.4466,7.0451,1.4466c-3.4065,0-6.168,2.7612-6.168,6.168
		c0,1.1887,0.3368,2.2973,0.9181,3.2393c-0.0804,0.5202-0.1247,1.0499-0.1247,1.5923c0,5.6376,4.5696,10.2059,10.2057,10.2059
		c0.5414,0,1.0743-0.0418,1.5933-0.1237c0.9411,0.5806,2.0496,0.9181,3.2386,0.9181c3.4073,0,6.1685-2.7619,6.1685-6.1687
		C22.8768,16.0889,22.5402,14.9803,21.9582,14.0392L21.9582,14.0392z M16.7225,17.0881c-0.4319,0.6216-1.066,1.1073-1.8949,1.4566
		c-0.8306,0.35-1.8121,0.5243-2.9455,0.5243c-1.3586,0-2.4835-0.2376-3.3713-0.7177c-0.6294-0.3437-1.1413-0.805-1.5349-1.3801
		c-0.3943-0.5754-0.5942-1.1389-0.5942-1.6884c0-0.3241,0.1237-0.6062,0.3642-0.836c0.2432-0.2315,0.5563-0.3476,0.9259-0.3476
		c0.3029,0,0.563,0.0912,0.7746,0.2718c0.2102,0.1806,0.3865,0.4432,0.5307,0.7898c0.1728,0.4016,0.3606,0.7372,0.5603,1.0049
		c0.1985,0.2645,0.4779,0.4855,0.8397,0.6583c0.3579,0.1733,0.834,0.2598,1.43,0.2598c0.8155,0,1.4747-0.1762,1.979-0.5243
		c0.507-0.351,0.7507-0.7783,0.7507-1.2948c0-0.4116-0.1315-0.7389-0.4006-0.9939c-0.2716-0.2581-0.6226-0.4549-1.0579-0.592
		c-0.4371-0.1386-1.024-0.2858-1.7595-0.4407c-0.9875-0.2154-1.8135-0.4664-2.4823-0.7544
		c-0.6698-0.2894-1.2031-0.6847-1.5984-1.1841c-0.3962-0.5043-0.5937-1.131-0.5937-1.8734c0-0.7079,0.2085-1.341,0.626-1.892
		c0.4173-0.5524,1.021-0.9753,1.8081-1.2699c0.7844-0.2946,1.7079-0.4417,2.7659-0.4417c0.846,0,1.5779,0.0978,2.1973,0.2926
		c0.618,0.1963,1.1328,0.4552,1.5444,0.78c0.4094,0.3241,0.7104,0.6661,0.901,1.0249c0.1904,0.3598,0.2865,0.7113,0.2865,1.0543
		c0,0.319-0.1237,0.6082-0.3645,0.8617c-0.241,0.254-0.549,0.3833-0.9088,0.3821c-0.3244,0-0.5788-0.0748-0.7553-0.2332
		c-0.1718-0.1533-0.3522-0.3972-0.5476-0.7372c-0.2466-0.4745-0.5422-0.8441-0.8861-1.1085
		c-0.3346-0.2594-0.8868-0.3945-1.6551-0.3928c-0.7108,0-1.2797,0.1452-1.7089,0.4292C9.5151,8.4645,9.3086,8.7994,9.3076,9.1917
		C9.3083,9.4376,9.379,9.6449,9.5212,9.8221c0.1445,0.1789,0.3454,0.3339,0.6038,0.4647c0.2584,0.1327,0.5212,0.2354,0.7854,0.3092
		c0.2672,0.0758,0.7106,0.1853,1.3268,0.3302c0.7729,0.1667,1.4742,0.3527,2.1041,0.5556c0.6287,0.2039,1.1653,0.4498,1.6087,0.7426
		c0.4468,0.2921,0.7961,0.6644,1.0455,1.1142c0.2508,0.4505,0.3759,1.0007,0.3759,1.648
		C17.3725,15.7664,17.1552,16.4675,16.7225,17.0881L16.7225,17.0881z"/>
</g>
</svg>
