<?xml version="1.0" encoding="utf-8"?>
<!-- Generator: Adobe Illustrator 17.1.0, SVG Export Plug-In . SVG Version: 6.00 Build 0)  -->
<!DOCTYPE svg PUBLIC "-//W3C//DTD SVG 1.1//EN" "http://www.w3.org/Graphics/SVG/1.1/DTD/svg11.dtd">
<svg version="1.1" id="XMLID_17_" xmlns="http://www.w3.org/2000/svg" xmlns:xlink="http://www.w3.org/1999/xlink" x="0px" y="0px"
	 viewBox="0 0 24.1371 24.0009" enable-background="new 0 0 24.1371 24.0009" xml:space="preserve">
<g id="platform-chrome">
	<rect id="_x2E_svg_302_" x="0.1371" y="0.0009" fill="none" width="24" height="24"/>
	<path d="M6.0538,10.4666L2.6192,4.5177C4.8183,1.7644,8.2032,0,12.0009,0c4.3933,0,8.2344,2.3612,10.3257,5.8832h-9.7922
		c-0.1759-0.0152-0.3537-0.0234-0.5335-0.0234C9.1442,5.8598,6.7369,7.8203,6.0538,10.4666z M16.2974,7.6177h6.8785
		c0.533,1.3578,0.8259,2.8362,0.8259,4.3831c0,6.5823-5.2996,11.926-11.8646,11.9991l4.908-8.5009
		c0.691-0.9933,1.0968-2.1992,1.0968-3.4983C18.1419,10.2858,17.4349,8.733,16.2974,7.6177z M7.6412,12.0009
		c0-2.4039,1.9558-4.3597,4.3597-4.3597s4.3597,1.9558,4.3597,4.3597s-1.9558,4.3597-4.3597,4.3597S7.6412,14.4048,7.6412,12.0009z
		 M13.6459,17.9179l-3.4357,5.9507C4.4317,23.0041,0,18.0201,0,12.0009c0-2.1381,0.5598-4.1451,1.5399-5.8838l4.8995,8.4863
		c0.9814,2.0887,3.1051,3.5386,5.5615,3.5386C12.5704,18.1419,13.1221,18.0636,13.6459,17.9179z"/>
</g>
</svg>
