<?xml version="1.0" encoding="utf-8"?>
<!-- Generator: Adobe Illustrator 17.1.0, SVG Export Plug-In . SVG Version: 6.00 Build 0)  -->
<!DOCTYPE svg PUBLIC "-//W3C//DTD SVG 1.1//EN" "http://www.w3.org/Graphics/SVG/1.1/DTD/svg11.dtd">
<svg version="1.1" id="XMLID_18_" xmlns="http://www.w3.org/2000/svg" xmlns:xlink="http://www.w3.org/1999/xlink" x="0px" y="0px"
	 viewBox="0 0 24 24.0009" enable-background="new 0 0 24 24.0009" xml:space="preserve">
<g id="platform-apple">
	<rect id="_x2E_svg_303_" x="0" y="0.0009" fill="none" width="24" height="24"/>
	<path d="M18.5499,12.7504c0.0337,3.632,3.1862,4.8406,3.2211,4.856c-0.0267,0.0852-0.5037,1.7224-1.6609,3.4135
		c-1.0003,1.462-2.0385,2.9187-3.674,2.9489c-1.607,0.0296-2.1237-0.953-3.961-0.953c-1.8367,0-2.4108,0.9228-3.932,0.9826
		c-1.5786,0.0597-2.7807-1.581-3.7894-3.0377c-2.061-2.9797-3.636-8.4198-1.5212-12.092c1.0506-1.8236,2.9282-2.9784,4.9661-3.008
		c1.5502-0.0296,3.0134,1.0429,3.961,1.0429c0.947,0,2.7251-1.2897,4.5943-1.1003c0.7825,0.0326,2.9791,0.3161,4.3895,2.3807
		C21.0299,8.2544,18.5226,9.714,18.5499,12.7504 M15.5297,3.832C16.3678,2.8175,16.9319,1.4052,16.778,0
		c-1.2081,0.0486-2.6689,0.805-3.5354,1.819c-0.7766,0.8979-1.4567,2.335-1.2732,3.7124C13.316,5.6355,14.6916,4.8471,15.5297,3.832
		"/>
</g>
</svg>
