<?xml version="1.0" encoding="utf-8"?>
<!-- Generator: Adobe Illustrator 17.1.0, SVG Export Plug-In . SVG Version: 6.00 Build 0)  -->
<!DOCTYPE svg PUBLIC "-//W3C//DTD SVG 1.1//EN" "http://www.w3.org/Graphics/SVG/1.1/DTD/svg11.dtd">
<svg version="1.1" id="XMLID_9_" xmlns="http://www.w3.org/2000/svg" xmlns:xlink="http://www.w3.org/1999/xlink" x="0px" y="0px"
	 viewBox="0 0 24.003 24" enable-background="new 0 0 24.003 24" xml:space="preserve">
<g id="platform-dropbox">
	<rect id="_x2E_svg_295_" x="0.003" y="0" fill="none" width="24" height="24"/>
	<polygon points="15.9985,1.8917 12.003,3.8961 20.009,7.8976 24,5.8961 	"/>
	<polygon points="15.9985,15.5735 15.3293,15.2404 11.994,13.5675 8.6781,15.23 8.009,15.5646 7.3413,15.2315 3.997,13.5601 
		3.997,18.997 12.003,23.0014 12.003,22.9865 20.009,18.9865 20.009,13.569 16.6677,15.2404 	"/>
	<polygon points="8.009,13.8947 12.003,11.8917 4.0179,7.8976 12.003,3.9066 8.009,1.9036 0,5.9051 3.9776,7.8976 0,9.8902 	"/>
	<polygon points="12.003,11.9021 15.9985,13.9036 24,9.9021 20.009,7.8976 	"/>
</g>
</svg>
