<?xml version="1.0" encoding="utf-8"?>
<!-- Generator: Adobe Illustrator 19.1.0, SVG Export Plug-In . SVG Version: 6.00 Build 0)  -->
<svg version="1.1" id="XMLID_168_" xmlns="http://www.w3.org/2000/svg" xmlns:xlink="http://www.w3.org/1999/xlink" x="0px" y="0px"
	 viewBox="0 0 48 48" enable-background="new 0 0 48 48" xml:space="preserve">
<g id="satellite">
	<rect id="_x2E_svg_143_" x="0" y="0" fill="none" width="48" height="48"/>
	<path fill="none" stroke="#231F20" stroke-width="2" stroke-miterlimit="10" d="M33,29.9467c-4.1421,4.1421-10.8579,4.1421-15,0
		s-4.1421-10.8579,0-15L33,29.9467z M18.015,30.0467c-3.31,0-6.015,2.9-6.015,5.9h12c0-1.12-0.37-2-1.02-3H23 M26,21.9467l4-4
		 M31.5,13.9467c-1.3807,0-2.5,1.1193-2.5,2.5c0,1.3807,1.1193,2.5,2.5,2.5s2.5-1.1193,2.5-2.5
		C34,15.066,32.8807,13.9467,31.5,13.9467z"/>
</g>
</svg>
