<?xml version="1.0" encoding="utf-8"?>
<!-- Generator: Adobe Illustrator 17.1.0, SVG Export Plug-In . SVG Version: 6.00 Build 0)  -->
<!DOCTYPE svg PUBLIC "-//W3C//DTD SVG 1.1//EN" "http://www.w3.org/Graphics/SVG/1.1/DTD/svg11.dtd">
<svg version="1.1" id="XMLID_96_" xmlns="http://www.w3.org/2000/svg" xmlns:xlink="http://www.w3.org/1999/xlink" x="0px" y="0px"
	 viewBox="0 0 24.5 25" enable-background="new 0 0 24.5 25" xml:space="preserve">
<g id="schedule-play">
	<rect id="_x2E_svg_214_" x="0" y="0" fill="none" width="24" height="24"/>
	<path fill="none" stroke="#000000" stroke-width="2" stroke-miterlimit="10" d="M12.5,20h-11V4h16v9 M2.5,8h14 M5.5,4V1 M14.5,12
		h-6 M6.5,12h-2 M12.5,16h-4 M6.5,16h-2 M13.5,4V1 M18,13c-3.0376,0-5.5,2.4624-5.5,5.5S14.9624,24,18,24s5.5-2.4624,5.5-5.5
		S21.0376,13,18,13z"/>
	<path d="M16.5,15.5c0.0521,0.0469,0,6,0,6l5-3L16.5,15.5z"/>
</g>
</svg>
