<?xml version="1.0" encoding="utf-8"?>
<!-- Generator: Adobe Illustrator 17.1.0, SVG Export Plug-In . SVG Version: 6.00 Build 0)  -->
<!DOCTYPE svg PUBLIC "-//W3C//DTD SVG 1.1//EN" "http://www.w3.org/Graphics/SVG/1.1/DTD/svg11.dtd">
<svg version="1.1" id="XMLID_94_" xmlns="http://www.w3.org/2000/svg" xmlns:xlink="http://www.w3.org/1999/xlink" x="0px" y="0px"
	 viewBox="0 0 24.1397 24.85" enable-background="new 0 0 24.1397 24.85" xml:space="preserve">
<g id="service-business">
	<rect id="_x2E_svg_222_" x="0" y="0.85" fill="none" width="24" height="24"/>
	<path fill="none" stroke="#000000" stroke-width="2" stroke-miterlimit="10" d="M4.1397,23h-3V5h22v18h-5 M16.1397,5V1h-8v4
		 M7.7507,16.49c-0.665,0.686-1.071,1.624-1.071,2.66c0,2.128,1.722,3.85,3.85,3.85s3.85-1.638,3.85-3.766
		c0-0.8423-0.196-1.302-0.196-1.302c-0.399-1.281-1.33-1.981-2.415-2.338c-0.014-0.007-0.035-0.021-0.049-0.035
		c-0.021-0.014-0.042-0.035-0.063-0.042c-0.007-0.007-0.014-0.007-0.021-0.007 M12.5948,11.506C12.0558,10.043,10.6417,9,8.9897,9
		c-2.128,0-3.85,1.722-3.85,3.85c0,1.694,1.092,3.129,2.611,3.64c0.385,0.14,0.805,0.21,1.239,0.21c1.05,0,2.002-0.42,2.695-1.106
		c0.014-0.007,0.028-0.021,0.035-0.035c0.693-0.693,1.12-1.652,1.12-2.709C12.8397,12.374,12.7558,11.919,12.5948,11.506z
		 M11.6357,15.468c0.007,0.014,0.014,0.035,0.021,0.049c0.007,0.028,0.014,0.049,0.028,0.077 M14.3796,17.9883
		c0.2915,0.0745,0.5962,0.1117,0.9101,0.1117c2.128,0,3.85-1.722,3.85-3.85s-1.722-3.85-3.85-3.85c-1.05,0-2.002,0.42-2.695,1.106"
		/>
</g>
</svg>
