<?xml version="1.0" encoding="utf-8"?>
<!-- Generator: Adobe Illustrator 17.1.0, SVG Export Plug-In . SVG Version: 6.00 Build 0)  -->
<!DOCTYPE svg PUBLIC "-//W3C//DTD SVG 1.1//EN" "http://www.w3.org/Graphics/SVG/1.1/DTD/svg11.dtd">
<svg version="1.1" id="XMLID_95_" xmlns="http://www.w3.org/2000/svg" xmlns:xlink="http://www.w3.org/1999/xlink" x="0px" y="0px"
	 viewBox="0 0 24 24" enable-background="new 0 0 24 24" xml:space="preserve">
<g id="service-start">
	<rect id="_x2E_svg_215_" x="0" y="0" fill="none" width="24" height="24"/>
	<path d="M6,5.5c0.0521,0.0469,0,6,0,6l5-3L6,5.5z"/>
	<path fill="none" stroke="#000000" stroke-width="2" stroke-miterlimit="10" d="M11.28,12.3c0.01,0,0.02,0,0.03,0.01
		c0.03,0.01,0.06,0.04,0.09,0.06c0.02,0.02,0.05,0.04,0.07,0.05c1.55,0.51,2.79,1.48,3.36,3.31c0.03,0.08,0.05,0.18,0.08,0.27h0.01
		c0.18,0,0.28,1.01,0.28,1.62c0,3.04-2.46,5.38-5.5,5.38s-5.5-2.46-5.5-5.5c0-1.48,0.58-2.82,1.53-3.8 M12.65,6.5799
		C11.88,4.49,9.86,3,7.5,3C4.46,3,2,5.46,2,8.5c0,2.42,1.56,4.47,3.73,5.2C6.28,13.9,6.88,14,7.5,14c1.5,0,2.86-0.6,3.85-1.58
		c0.02-0.01,0.04-0.03,0.05-0.05c0.99-0.99,1.6-2.36,1.6-3.87C13,7.82,12.88,7.17,12.65,6.5799z M11.28,12.24
		c0.01,0.02,0.02,0.05,0.03,0.07c0.01,0.04,0.02,0.07,0.04,0.11 M14.83,15.73c0.03,0.01,0.06,0.02,0.09,0.03
		c0.5,0.16,1.03,0.24,1.58,0.24c3.04,0,5.5-2.46,5.5-5.5S19.54,5,16.5,5c-1.5,0-2.86,0.6-3.85,1.58"/>
</g>
</svg>
