<?xml version="1.0" encoding="utf-8"?>
<!-- Generator: Adobe Illustrator 17.1.0, SVG Export Plug-In . SVG Version: 6.00 Build 0)  -->
<!DOCTYPE svg PUBLIC "-//W3C//DTD SVG 1.1//EN" "http://www.w3.org/Graphics/SVG/1.1/DTD/svg11.dtd">
<svg version="1.1" id="XMLID_93_" xmlns="http://www.w3.org/2000/svg" xmlns:xlink="http://www.w3.org/1999/xlink" x="0px" y="0px"
	 viewBox="0 0 24 24.1389" enable-background="new 0 0 24 24.1389" xml:space="preserve">
<g id="sheild-configure">
	<rect id="_x2E_svg_221_" x="0" y="0" fill="none" width="24" height="24"/>
	<path fill="none" stroke="#000000" stroke-width="2" stroke-miterlimit="10" d="M12.0002,14.15c-1.6545,0-3-1.3458-3-3
		s1.3455-3,3-3s3,1.3458,3,3S13.6547,14.15,12.0002,14.15z M18.0002,11.15l-3,0.0001 M16.2428,15.3926l-2.1214-2.1212 M12,14.15
		l0.0001,3 M9.8787,13.2712l-2.1212,2.1214 M6.0002,11.15h3 M9.8788,9.0287L7.7575,6.9074 M12.0002,8.15v-3 M14.1215,9.0287
		l2.1213-2.1213 M12.0002,1.15l-9,4.4v2.864c0,4.2846,1.8322,8.3646,5.0345,11.2111l3.9655,3.2249l3.9655-3.2249
		c3.2023-2.8465,5.0345-6.9266,5.0345-11.2111V5.55L12.0002,1.15z"/>
</g>
</svg>
