<?xml version="1.0" encoding="utf-8"?>
<!-- Generator: Adobe Illustrator 17.1.0, SVG Export Plug-In . SVG Version: 6.00 Build 0)  -->
<!DOCTYPE svg PUBLIC "-//W3C//DTD SVG 1.1//EN" "http://www.w3.org/Graphics/SVG/1.1/DTD/svg11.dtd">
<svg version="1.1" id="XMLID_91_" xmlns="http://www.w3.org/2000/svg" xmlns:xlink="http://www.w3.org/1999/xlink" x="0px" y="0px"
	 viewBox="0 0 25 25.15" enable-background="new 0 0 25 25.15" xml:space="preserve">
<g id="soa">
	<rect id="_x2E_svg_223_" y="0" fill="none" width="24" height="24"/>
	<path fill="none" stroke="#000000" stroke-width="2" stroke-miterlimit="10" d="M6,9.15c-1.6545,0-3-1.3458-3-3s1.3455-3,3-3
		s3,1.3458,3,3S7.6545,9.15,6,9.15z M9,6.1501L12,6.15 M10.2426,10.3926L8.1212,8.2714 M6,12.15l-0.0001-3 M3.8786,8.2712
		l-2.1212,2.1214 M0,6.15h3 M1.7574,1.9074l2.1213,2.1213 M6,3.15v-3 M8.1213,4.0287l2.1213-2.1213 M22,11.15c0-1.6542-1.3455-3-3-3
		s-3,1.3458-3,3s1.3455,3,3,3S22,12.8042,22,11.15z M22,11.1501l3-0.0001 M21.1212,13.2714l2.1214,2.1212 M18.9999,14.15l0.0001,3
		 M16.8786,13.2712l-2.1212,2.1214 M13,11.15h3 M11,19.15c0-1.6542-1.3455-3-3-3s-3,1.3458-3,3s1.3455,3,3,3S11,20.8042,11,19.15z
		 M14,19.15l-3,0.0001 M10.1212,21.2714l2.1214,2.1212 M8,25.15l-0.0001-3 M3.7574,23.3926l2.1212-2.1214 M2,19.15h3
		 M5.8787,17.0287l-2.1213-2.1213 M8,16.15v-3 M10.1213,17.0287l2.1213-2.1213 M16.8787,9.0287l-2.1213-2.1213 M19,8.15v-3
		 M21.1213,9.0287l2.1213-2.1213"/>
</g>
</svg>
