<?xml version="1.0" encoding="utf-8"?>
<!-- Generator: Adobe Illustrator 17.1.0, SVG Export Plug-In . SVG Version: 6.00 Build 0)  -->
<!DOCTYPE svg PUBLIC "-//W3C//DTD SVG 1.1//EN" "http://www.w3.org/Graphics/SVG/1.1/DTD/svg11.dtd">
<svg version="1.1" id="XMLID_3_" xmlns="http://www.w3.org/2000/svg" xmlns:xlink="http://www.w3.org/1999/xlink" x="0px" y="0px"
	 viewBox="0 0 28 24" enable-background="new 0 0 28 24" xml:space="preserve">
<g id="social-youtube">
	<rect id="_x2E_svg_310_" x="2.0013" y="0" fill="none" width="24" height="24"/>
	<g id="Lozenge">
		<g>
			<path d="M27.7202,5.8016c0,0-0.2735-1.9302-1.1131-2.7803c-1.0648-1.1155-2.2574-1.1204-2.8043-1.1853
				c-3.9191-0.2839-9.7963-0.2839-9.7963-0.2839h-0.0128c0,0-5.8766,0-9.7955,0.2839c-0.5474,0.0649-1.74,0.0698-2.8048,1.1853
				C0.5537,3.8714,0.2806,5.8016,0.2806,5.8016S0,8.0662,0,10.3326v2.124c0,2.2661,0.2806,4.531,0.2806,4.531
				s0.2731,1.9302,1.1127,2.7803c1.0648,1.1145,2.4637,1.0798,3.087,1.1965C6.7202,21.1783,14,21.2459,14,21.2459
				s5.8837-0.0095,9.8027-0.2927c0.5469-0.0645,1.7395-0.0708,2.8043-1.1853c0.8396-0.8501,1.1131-2.7803,1.1131-2.7803
				S28,14.7227,28,12.4566v-2.124C28,8.0662,27.7202,5.8016,27.7202,5.8016z M10.892,15.2564l-0.0009-8.3179l8,4.1733
				L10.892,15.2564z"/>
		</g>
	</g>
</g>
</svg>
