<?xml version="1.0" encoding="utf-8"?>
<!-- Generator: Adobe Illustrator 17.1.0, SVG Export Plug-In . SVG Version: 6.00 Build 0)  -->
<!DOCTYPE svg PUBLIC "-//W3C//DTD SVG 1.1//EN" "http://www.w3.org/Graphics/SVG/1.1/DTD/svg11.dtd">
<svg version="1.1" id="XMLID_29_" xmlns="http://www.w3.org/2000/svg" xmlns:xlink="http://www.w3.org/1999/xlink" x="0px" y="0px"
	 viewBox="0 0 24 24" enable-background="new 0 0 24 24" xml:space="preserve">
<g id="social-github">
	<rect id="_x2E_svg_282_" x="0" y="0" fill="none" width="24" height="24"/>
	<path d="M23.0014,13.7188c0,4.5554-2.75,8.25-11,8.25s-11-3.696-11-8.25c0-1.9635,0.451-3.7647,1.6486-5.1824
		c-0.3493-0.9446-1.0422-3.6135,0.7576-6.743c3.2739,0.8223,4.8661,2.8875,5.4615,3.8734c0.9405-0.1265,1.9759-0.198,3.1322-0.198
		c1.1495,0,2.1808,0.0784,3.1226,0.2145c0.5871-0.9804,2.178-3.0621,5.4711-3.8899c1.8631,3.2409,1.056,5.9868,0.7219,6.8365
		C22.5036,10.0324,23.0014,11.7965,23.0014,13.7188z M19.2187,13.0312C17.4807,12.1623,15.4375,12,12,12
		s-5.4807,0.1623-7.2187,1.0312c-2.0625,1.0312-2.0625,4.4688,0,5.8438C6.3226,19.9021,8.2916,20.5938,12,20.5938
		c3.707,0,5.676-0.6916,7.2188-1.7188C21.2812,17.5,21.2812,14.0625,19.2187,13.0312z M15.4389,13.375
		c-1.4355,0-2.0625,1.2306-2.0625,2.75c0,1.518,0.5775,2.75,2.0625,2.75s2.0625-1.232,2.0625-2.75
		C17.5014,14.6056,16.8757,13.375,15.4389,13.375z M8.5639,13.375c-1.4355,0-2.0625,1.2306-2.0625,2.75
		c0,1.518,0.5775,2.75,2.0625,2.75s2.0625-1.232,2.0625-2.75C10.6264,14.6056,10.0007,13.375,8.5639,13.375z"/>
</g>
</svg>
