<?xml version="1.0" encoding="utf-8"?>
<!-- Generator: Adobe Illustrator 17.1.0, SVG Export Plug-In . SVG Version: 6.00 Build 0)  -->
<!DOCTYPE svg PUBLIC "-//W3C//DTD SVG 1.1//EN" "http://www.w3.org/Graphics/SVG/1.1/DTD/svg11.dtd">
<svg version="1.1" id="XMLID_28_" xmlns="http://www.w3.org/2000/svg" xmlns:xlink="http://www.w3.org/1999/xlink" x="0px" y="0px"
	 viewBox="0 0 24 24" enable-background="new 0 0 24 24" xml:space="preserve">
<g id="social-slack">
	<rect id="_x2E_svg_281_" x="0" y="0" fill="none" width="24" height="24"/>
	<path d="M21.1667,14.6344h-2.75v-5.5h2.75C22.1792,9.1344,23,8.3136,23,7.3011s-0.8208-1.8333-1.8333-1.8333h-2.75v-2.75
		c0-1.0125-0.8208-1.8333-1.8333-1.8333c-1.0125,0-1.8333,0.8209-1.8333,1.8333v2.75h-5.5v-2.75
		c0-1.0125-0.8208-1.8333-1.8333-1.8333c-1.0125,0-1.8333,0.8209-1.8333,1.8333v2.75h-2.75C1.8208,5.4678,1,6.2887,1,7.3011
		s0.8208,1.8333,1.8333,1.8333h2.75v5.5h-2.75C1.8208,14.6344,1,15.4553,1,16.4678s0.8208,1.8333,1.8333,1.8333h2.75v2.75
		c0,1.0125,0.8208,1.8333,1.8333,1.8333c1.0126,0,1.8333-0.8209,1.8333-1.8333v-2.75h5.5v2.75c0,1.0125,0.8208,1.8333,1.8333,1.8333
		c1.0126,0,1.8333-0.8209,1.8333-1.8333v-2.75h2.75c1.0126,0,1.8333-0.8209,1.8333-1.8333S22.1792,14.6344,21.1667,14.6344z
		 M9.25,14.6344v-5.5h5.5v5.5H9.25z"/>
</g>
</svg>
