<?xml version="1.0" encoding="utf-8"?>
<!-- Generator: Adobe Illustrator 17.1.0, SVG Export Plug-In . SVG Version: 6.00 Build 0)  -->
<!DOCTYPE svg PUBLIC "-//W3C//DTD SVG 1.1//EN" "http://www.w3.org/Graphics/SVG/1.1/DTD/svg11.dtd">
<svg version="1.1" id="XMLID_8_" xmlns="http://www.w3.org/2000/svg" xmlns:xlink="http://www.w3.org/1999/xlink" x="0px" y="0px"
	 viewBox="0 0 24 24" enable-background="new 0 0 24 24" xml:space="preserve">
<g id="social-instagram">
	<rect id="_x2E_svg_305_" x="0" y="0" fill="none" width="24" height="24"/>
	<path fill-rule="evenodd" clip-rule="evenodd" fill="none" stroke="#000000" stroke-width="2" stroke-miterlimit="10" d="M20,22H4
		c-1.1046,0-2-0.8954-2-2V4c0-1.1046,0.8954-2,2-2h16c1.1046,0,2,0.8954,2,2v16C22,21.1046,21.1046,22,20,22z"/>
	<path fill-rule="evenodd" clip-rule="evenodd" d="M22,10H2V4c0-1.1046,0.8954-2,2-2h16c1.1046,0,2,0.8954,2,2V10z"/>
	<path fill-rule="evenodd" clip-rule="evenodd" fill="#FFFFFF" d="M19.5,7.399h-2c-0.5523,0-1-0.4477-1-1v-2c0-0.5523,0.4477-1,1-1
		h2c0.5523,0,1,0.4477,1,1v2C20.5,6.9513,20.0523,7.399,19.5,7.399z"/>
	
		<circle fill-rule="evenodd" clip-rule="evenodd" fill="#FFFFFF" stroke="#000000" stroke-width="2" stroke-miterlimit="10" cx="12" cy="12" r="5"/>
</g>
</svg>
