<?xml version="1.0" encoding="UTF-8" standalone="no"?>
<svg width="24px" height="24px" viewBox="0 0 24 24" version="1.1" xmlns="http://www.w3.org/2000/svg" xmlns:xlink="http://www.w3.org/1999/xlink">
<g id="social-linkedin">
    <path stroke="none" fill="#000000" d="M22,23 L18,23 L18,17 C18,15 17.5,13 15,13 C12.5,13 12,15 12,17 L12,23 L8,23 L8,9 L12,9 L12,12 C12,12 13.5,9 17,9 C19.5,9 22,11 22,15.5 L22,23 Z M6,23 L2,23 L2,9 L6,9 L6,23 Z M4,7 C5,7 6.5,6 6.5,4.5 C6.5,3 5,2 4,2 C2.5,2 1.5,3 1.5,4.5 C1.5,6 2.5,7 4,7 Z"></path>
</g>
</svg>