<?xml version="1.0" encoding="utf-8"?>
<!-- Generator: Adobe Illustrator 17.1.0, SVG Export Plug-In . SVG Version: 6.00 Build 0)  -->
<!DOCTYPE svg PUBLIC "-//W3C//DTD SVG 1.1//EN" "http://www.w3.org/Graphics/SVG/1.1/DTD/svg11.dtd">
<svg version="1.1" id="XMLID_25_" xmlns="http://www.w3.org/2000/svg" xmlns:xlink="http://www.w3.org/1999/xlink" x="0px" y="0px"
	 viewBox="0 0 24.0027 24" enable-background="new 0 0 24.0027 24" xml:space="preserve">
<g id="social-reddit">
	<rect id="_x2E_svg_289_" x="0" y="0" fill="none" width="24" height="24"/>
	<path d="M24.0027,11.6172c0-1.4806-1.1866-2.6833-2.6459-2.6833c-0.6949,0-1.3203,0.2673-1.796,0.7109
		c-1.7318-1.2187-4.0677-2.0205-6.6762-2.1702l1.1706-3.9127l3.5866,0.7216c0.1229,1.2134,1.1332,2.1595,2.3679,2.1595
		c0.0053,0,0.0053,0,0.0107,0c0.0053,0,0.0053,0,0.0107,0c1.3149,0,2.3786-1.0797,2.3786-2.4107s-1.069-2.4107-2.384-2.4107
		c-0.0053,0-0.0053,0-0.0107,0h-0.0053c-0.9194,0-1.7105,0.5238-2.1114,1.2989l-4.7947-0.9621L11.4575,7.464l-0.1336,0.0053
		C8.6352,7.5869,6.2191,8.3994,4.4445,9.6448c-0.4704-0.4437-1.1011-0.7109-1.796-0.7109c-1.4592,0-2.6459,1.2027-2.6459,2.6833
		c0,1.0477,0.588,1.951,1.4486,2.3947c-0.0428,0.2619-0.0641,0.5238-0.0641,0.7911c0.0053,4.0517,4.7572,7.3443,10.6156,7.3443
		s10.6102-3.2927,10.6102-7.3497c0-0.2673-0.0214-0.5292-0.0588-0.7911C23.4147,13.5628,24.0027,12.6595,24.0027,11.6172z
		 M1.8361,12.6916c-0.3528-0.2405-0.5826-0.6468-0.5826-1.1118c0-0.7376,0.5933-1.3416,1.3203-1.3416
		c0.2993,0,0.5773,0.1016,0.8018,0.2726C2.6539,11.1468,2.1194,11.8844,1.8361,12.6916z M19.1278,4.0323
		c0-0.4918,0.3955-0.898,0.882-0.898c0.4864,0,0.882,0.4009,0.882,0.898c0,0.4918-0.3955,0.898-0.882,0.898
		C19.5234,4.9303,19.1278,4.5294,19.1278,4.0323z M6.7911,13.6163c0-0.9408,0.759-1.6998,1.6998-1.6998s1.6998,0.759,1.6998,1.6998
		c0,0.9408-0.759,1.6998-1.6998,1.6998S6.7911,14.557,6.7911,13.6163z M12.003,19.7064c-2.8266-0.0119-4.5131-1.6924-4.5843-1.7637
		l0.7482-0.7363c0.0119,0.0119,1.4074,1.4371,3.8361,1.4489c2.3931-0.0119,3.8124-1.4371,3.8302-1.4489l0.7482,0.7363
		C16.5101,18.014,14.8296,19.6945,12.003,19.7064z M15.5465,15.3161c-0.9408,0-1.6998-0.759-1.6998-1.6998
		c0-0.9408,0.759-1.6998,1.6998-1.6998s1.6998,0.759,1.6998,1.6998S16.482,15.3161,15.5465,15.3161z M22.18,12.713
		c-0.2886-0.8178-0.8339-1.5715-1.5661-2.2129c0.2245-0.1764,0.5078-0.278,0.8125-0.278c0.743,0,1.3416,0.6094,1.3416,1.363
		C22.7733,12.0555,22.5381,12.4671,22.18,12.713z"/>
</g>
</svg>
