<?xml version="1.0" encoding="utf-8"?>
<!-- Generator: Adobe Illustrator 17.1.0, SVG Export Plug-In . SVG Version: 6.00 Build 0)  -->
<!DOCTYPE svg PUBLIC "-//W3C//DTD SVG 1.1//EN" "http://www.w3.org/Graphics/SVG/1.1/DTD/svg11.dtd">
<svg version="1.1" id="XMLID_10_" xmlns="http://www.w3.org/2000/svg" xmlns:xlink="http://www.w3.org/1999/xlink" x="0px" y="0px"
	 viewBox="0 0 24 24" enable-background="new 0 0 24 24" xml:space="preserve">
<g id="social-medium" transform="matrix(1.3333333,0,0,-1.3333333,0,126.66667)">
	<rect id="_x2E_svg_296_" x="-3" y="74" fill="none" width="24" height="24"/>
	<g id="g12" transform="scale(0.1)">
		<path id="path14" d="M180,906.9011h-7.119c-2.643,0-6.381-3.8127-6.381-6.2537v-88.4714c0-2.444,3.738-5.775,6.381-5.775H180v-21
			h-64.5v21H129v93.0001h-0.6615L96.8133,785.4011H72.4061L41.2875,899.4011H40.5v-93.0001H54v-21H0v21h6.9147
			c2.8476,0,6.5853,3.3311,6.5853,5.775v88.4714c0,2.4409-3.7377,6.2537-6.5853,6.2537H0v21h67.5246l22.1696-82.5h0.6099
			l22.3746,82.5H180V906.9011"/>
	</g>
</g>
</svg>
