<?xml version="1.0" encoding="utf-8"?>
<!-- Generator: Adobe Illustrator 17.1.0, SVG Export Plug-In . SVG Version: 6.00 Build 0)  -->
<!DOCTYPE svg PUBLIC "-//W3C//DTD SVG 1.1//EN" "http://www.w3.org/Graphics/SVG/1.1/DTD/svg11.dtd">
<svg version="1.1" id="XMLID_6_" xmlns="http://www.w3.org/2000/svg" xmlns:xlink="http://www.w3.org/1999/xlink" x="0px" y="0px"
	 viewBox="0 0 24 24" enable-background="new 0 0 24 24" xml:space="preserve">
<g id="social-twitter">
	<rect id="_x2E_svg_307_" x="0" y="0" fill="none" width="24" height="24"/>
	<path d="M24,4.5565c-0.8831,0.3923-1.8319,0.6563-2.828,0.7755c1.0164-0.6093,1.7974-1.5744,2.1648-2.7242
		c-0.9512,0.5646-2.0053,0.974-3.1265,1.1953c-0.8982-0.9575-2.1779-1.5551-3.5941-1.5551c-2.7195,0-4.924,2.2045-4.924,4.924
		c0,0.386,0.0434,0.7617,0.1275,1.1216C7.7275,8.0887,4.0991,6.1282,1.671,3.1489C1.247,3.8761,1.0044,4.722,1.0044,5.625
		c0,1.7075,0.8689,3.2151,2.1904,4.0981C2.3875,9.6969,1.6282,9.4757,0.9644,9.1075c-0.0004,0.02-0.0007,0.0407-0.0007,0.0613
		c0,2.3858,1.6975,4.3759,3.9499,4.8281c-0.4129,0.1131-0.8482,0.173-1.297,0.173c-0.3174,0-0.6256-0.031-0.9265-0.0889
		c0.6266,1.9564,2.4451,3.3805,4.5996,3.4205c-1.6854,1.3201-3.8082,2.1073-6.1151,2.1073c-0.3978,0-0.7897-0.0234-1.1747-0.0683
		c2.179,1.396,4.7671,2.2115,7.5479,2.2115c9.0568,0,14.0094-7.5028,14.0094-14.0094c0-0.213-0.0049-0.4254-0.0145-0.6363
		C22.5052,6.4115,23.3399,5.5443,24,4.5565z"/>
</g>
</svg>
