<svg width="24" height="24" viewBox="0 0 24 24">
  <path fill="#3B5998" fill-rule="evenodd" d="M23.00025,0 L1.0005,0 C0.44775,0 0,0.44775 0,0.99975 L0,23.00025 C0,23.55225 0.44775,24 1.0005,24 L12.75,24 L12.75,15 L9.75,15 L9.75,11.25 L12.75,11.25 L12.75,8.25 C12.75,5.15025 14.71275,3.62475 17.478,3.62475 C18.8025,3.62475 19.941,3.72375 20.2725,3.76725 L20.2725,7.00725 L18.35475,7.008 C16.851,7.008 16.5,7.72275 16.5,8.77125 L16.5,11.25 L20.25,11.25 L19.5,15 L16.5,15 L16.56,24 L23.00025,24 C23.55225,24 24,23.55225 24,23.00025 L24,0.99975 C24,0.44775 23.55225,0 23.00025,0"/>
</svg>
