<?xml version="1.0" encoding="utf-8"?>
<!-- Generator: Adobe Illustrator 17.1.0, SVG Export Plug-In . SVG Version: 6.00 Build 0)  -->
<!DOCTYPE svg PUBLIC "-//W3C//DTD SVG 1.1//EN" "http://www.w3.org/Graphics/SVG/1.1/DTD/svg11.dtd">
<svg version="1.1" id="XMLID_159_" xmlns="http://www.w3.org/2000/svg" xmlns:xlink="http://www.w3.org/1999/xlink" x="0px" y="0px"
	 viewBox="0 0 28 24.0692" enable-background="new 0 0 28 24.0692" xml:space="preserve">
<g id="stakeholder">
	<rect id="_x2E_svg_155_" x="0.5" y="0.0692" fill="none" width="24" height="24"/>
	<path fill="none" stroke="#000000" stroke-width="2" stroke-miterlimit="10" d="M15,4.0692l6-2.9545l6,2.9545v7.0909l-6,2.9545
		l-6-2.9545V4.0692z M15,4.0692l6,2.9545l6-2.9545 M21,7.1147v7 M7,12.1147c0,0,0.04,0,0.02,0c-3.23,0.03-6.02,2.66-6.02,5.89v2.11
		h3 M3,20.1147h10v-2.11c0-3.23-2.76-5.86-5.98-5.89c-0.02,0-0.02,0-0.02,0 M7,4.1147c-2.2091,0-4,1.7909-4,4s1.7909,4,4,4
		s4-1.7909,4-4S9.2091,4.1147,7,4.1147z"/>
</g>
</svg>
