<?xml version="1.0" encoding="utf-8"?>
<!-- Generator: Adobe Illustrator 19.1.0, SVG Export Plug-In . SVG Version: 6.00 Build 0)  -->
<svg version="1.1" id="XMLID_159_" xmlns="http://www.w3.org/2000/svg" xmlns:xlink="http://www.w3.org/1999/xlink" x="0px" y="0px"
	 viewBox="0 0 48 48" enable-background="new 0 0 48 48" xml:space="preserve">
<g id="stakeholder">
	<rect id="_x2E_svg_155_" x="0" y="0" fill="none" width="48" height="48"/>
	<path fill="none" stroke="#231F20" stroke-width="2" stroke-miterlimit="10" d="M26.5,16l6-2.9545L38.5,16v7.0909l-6,2.9545
		l-6-2.9545V16z M26.5,16l6,2.9545L38.5,16 M32.5,19.0455v7 M18.5,24.0455c0,0,0.04,0,0.02,0c-3.23,0.03-6.02,2.66-6.02,5.89v2.11h3
		 M14.5,32.0455h10v-2.11c0-3.23-2.76-5.86-5.98-5.89c-0.02,0-0.02,0-0.02,0 M18.5,16.0455c-2.2091,0-4,1.7909-4,4s1.7909,4,4,4
		s4-1.7909,4-4S20.7091,16.0455,18.5,16.0455z"/>
</g>
</svg>
