<?xml version="1.0" encoding="utf-8"?>
<!-- Generator: Adobe Illustrator 17.1.0, SVG Export Plug-In . SVG Version: 6.00 Build 0)  -->
<!DOCTYPE svg PUBLIC "-//W3C//DTD SVG 1.1//EN" "http://www.w3.org/Graphics/SVG/1.1/DTD/svg11.dtd">
<svg version="1.1" id="XMLID_297_" xmlns="http://www.w3.org/2000/svg" xmlns:xlink="http://www.w3.org/1999/xlink" x="0px" y="0px"
	 viewBox="0 0 24 24" enable-background="new 0 0 24 24" xml:space="preserve">
<g id="star_1_">
	<rect id="_x2E_svg_12_" y="0" fill="none" width="24" height="24"/>
	<g id="star">
		<path d="M12,4.4722l2.2111,4.4222L14.7639,10H16h3.3419l-2.792,2.9393l-0.7562,0.7963l0.2659,1.0654l1.2408,4.9724l-4.2639-2.5836
			L12,16.5618l-1.0364,0.6281l-4.2639,2.5836l1.2408-4.9724l0.2659-1.0654l-0.7563-0.7963L4.6581,10H8h1.2361l0.5528-1.1056
			L12,4.4722 M12,0L8,8H0l6,6.3168L3.5836,24L12,18.9003L20.4164,24L18,14.3168L24,8h-8L12,0L12,0z"/>
	</g>
</g>
</svg>
