<?xml version="1.0" encoding="utf-8"?>
<!-- Generator: Adobe Illustrator 17.1.0, SVG Export Plug-In . SVG Version: 6.00 Build 0)  -->
<!DOCTYPE svg PUBLIC "-//W3C//DTD SVG 1.1//EN" "http://www.w3.org/Graphics/SVG/1.1/DTD/svg11.dtd">
<svg version="1.1" id="XMLID_178_" xmlns="http://www.w3.org/2000/svg" xmlns:xlink="http://www.w3.org/1999/xlink" x="0px" y="0px"
	 viewBox="0 0 24 24" enable-background="new 0 0 24 24" xml:space="preserve">
<g id="street-view">
	<rect id="_x2E_svg_136_" fill="none" width="24" height="24"/>
	<path fill="none" stroke="#000000" stroke-width="2" stroke-miterlimit="10" d="M16,5c0,2.2091-1.7909,4-4,4S8,7.2091,8,5
		s1.7909-4,4-4S16,2.7909,16,5z M12,9c0,0,0.04,0,0.02,0C8.79,9.03,6,11.66,6,14.89V17h3v6h6v-6h3v-2.11c0-3.23-2.76-5.86-5.98-5.89
		C12,9,12,9,12,9 M4,23h16"/>
</g>
</svg>
