<?xml version="1.0" encoding="utf-8"?>
<!-- Generator: Adobe Illustrator 17.1.0, SVG Export Plug-In . SVG Version: 6.00 Build 0)  -->
<!DOCTYPE svg PUBLIC "-//W3C//DTD SVG 1.1//EN" "http://www.w3.org/Graphics/SVG/1.1/DTD/svg11.dtd">
<svg version="1.1" id="XMLID_220_" xmlns="http://www.w3.org/2000/svg" xmlns:xlink="http://www.w3.org/1999/xlink" x="0px" y="0px"
	 viewBox="0 0 24 24.15" enable-background="new 0 0 24 24.15" xml:space="preserve">
<g id="support">
	<rect id="_x2E_svg_95_" x="0" y="0" fill="none" width="24" height="24"/>
	<path fill="none" stroke="#000000" stroke-width="2" stroke-miterlimit="10" d="M23,12.15c0,6.0751-4.9249,11-11,11
		s-11-4.9249-11-11s4.9249-11,11-11S23,6.0749,23,12.15z M17,12.15c0-2.7568-2.2432-5-5-5s-5,2.2432-5,5s2.2432,5,5,5
		S17,14.9068,17,12.15z M9,8.15v-6 M15,8.15v-6 M16,9.15h6 M16,15.15h6 M15,16.15v6 M9,16.15v6 M8,15.15H2 M8,9.15H2"/>
</g>
</svg>
