<?xml version="1.0" encoding="utf-8"?>
<!-- Generator: Adobe Illustrator 17.1.0, SVG Export Plug-In . SVG Version: 6.00 Build 0)  -->
<!DOCTYPE svg PUBLIC "-//W3C//DTD SVG 1.1//EN" "http://www.w3.org/Graphics/SVG/1.1/DTD/svg11.dtd">
<svg version="1.1" id="XMLID_208_" xmlns="http://www.w3.org/2000/svg" xmlns:xlink="http://www.w3.org/1999/xlink" x="0px" y="0px"
	 viewBox="0 0 24 24" enable-background="new 0 0 24 24" xml:space="preserve">
<g id="system">
	<rect id="_x2E_svg_106_" x="0" fill="none" width="24" height="24"/>
	<path fill="none" stroke="#000000" stroke-width="2" stroke-miterlimit="10" d="M23,19H1V1h22V19z M12,7c-1.6569,0-3,1.3431-3,3
		s1.3431,3,3,3s3-1.3431,3-3S13.6569,7,12,7z M12,7V4 M16.2426,5.7574l-2.1213,2.1213 M18,10h-3 M14.1213,12.1213l2.1213,2.1213
		 M12,13v3 M9.8787,12.1213l-2.1213,2.1213 M9,10H6 M7.7574,5.7574l2.1213,2.1213 M16,10 M14.8284,12.8284 M12,16 M12,14
		 M9.1716,12.8284 M6,10 M8,10 M16,19H8v4h8V19z M5,23h14"/>
</g>
</svg>
