<?xml version="1.0" encoding="utf-8"?>
<!-- Generator: Adobe Illustrator 17.1.0, SVG Export Plug-In . SVG Version: 6.00 Build 0)  -->
<!DOCTYPE svg PUBLIC "-//W3C//DTD SVG 1.1//EN" "http://www.w3.org/Graphics/SVG/1.1/DTD/svg11.dtd">
<svg version="1.1" id="XMLID_177_" xmlns="http://www.w3.org/2000/svg" xmlns:xlink="http://www.w3.org/1999/xlink" x="0px" y="0px"
	 viewBox="0 0 24 24" enable-background="new 0 0 24 24" xml:space="preserve">
<g id="target">
	<rect id="_x2E_svg_137_" fill="none" width="24" height="24"/>
	<path fill="none" stroke="#000000" stroke-width="2" stroke-miterlimit="10" d="M23,12c0,6.0751-4.9249,11-11,11S1,18.0751,1,12
		S5.9249,1,12,1S23,5.9249,23,12z M18,12c0-3.3086-2.6914-6-6-6s-6,2.6914-6,6s2.6914,6,6,6S18,15.3086,18,12z M13,12
		c0-0.5518-0.4482-1-1-1s-1,0.4482-1,1s0.4482,1,1,1S13,12.5518,13,12z"/>
</g>
</svg>
