<?xml version="1.0" encoding="utf-8"?>
<!-- Generator: Adobe Illustrator 17.1.0, SVG Export Plug-In . SVG Version: 6.00 Build 0)  -->
<!DOCTYPE svg PUBLIC "-//W3C//DTD SVG 1.1//EN" "http://www.w3.org/Graphics/SVG/1.1/DTD/svg11.dtd">
<svg version="1.1" id="XMLID_219_" xmlns="http://www.w3.org/2000/svg" xmlns:xlink="http://www.w3.org/1999/xlink" x="0px" y="0px"
	 viewBox="0 0 24 26" enable-background="new 0 0 24 26" xml:space="preserve">
<g id="threats">
	<rect id="_x2E_svg_94_" x="0" y="1" fill="none" width="24" height="24"/>
	<path fill="none" stroke="#000000" stroke-width="2" stroke-miterlimit="10" d="M9,9V7h6v2v0.58c2.93,1.19,5,4.06,5,7.42
		c0,4.42-3.58,8-8,8s-8-3.58-8-8c0-3.36,2.07-6.23,5-7.42V9z M22,2v1c0,1.1046-0.8954,2-2,2h-1c-1.1046,0-2-0.8954-2-2v0
		c0-1.1046-0.8954-2-2-2h-1c-1.1046,0-2,0.8954-2,2v4 M15,20l-6-6 M9,20l6-6"/>
</g>
</svg>
