<svg width="24" height="24" viewBox="0 0 24 24">
  <path fill="none" stroke="#000" stroke-width="2" d="M8,2 C5.790861,2 4,3.790861 4,6 C4,7.48056471 4.80439726,8.77325238 6,9.46487122 L6,16 L18,16 L18,9.46487122 C19.1956027,8.77325238 20,7.48056471 20,6 C20,3.790861 18.209139,2 16,2 L8,2 Z M11.3212774,6.87413911 C11.600007,6.39136541 12.209917,6.22167659 12.700101,6.50468445 L14.4159244,7.49531555 C14.8986981,7.77404508 15.0683869,8.38395511 14.7853791,8.87413911 L13.794748,10.5899625 C13.5160184,11.0727362 12.9061084,11.242425 12.4159244,10.9594172 L10.700101,9.96878606 C10.2173273,9.69005654 10.0476385,9.0801465 10.3306463,8.58996251 L11.3212774,6.87413911 Z M8,18 L8,20 M12,18 L12,23 M16,18 L16,21"/>
</svg>
