<?xml version="1.0" encoding="utf-8"?>
<!-- Generator: Adobe Illustrator 17.1.0, SVG Export Plug-In . SVG Version: 6.00 Build 0)  -->
<!DOCTYPE svg PUBLIC "-//W3C//DTD SVG 1.1//EN" "http://www.w3.org/Graphics/SVG/1.1/DTD/svg11.dtd">
<svg version="1.1" id="XMLID_205_" xmlns="http://www.w3.org/2000/svg" xmlns:xlink="http://www.w3.org/1999/xlink" x="0px" y="0px"
	 viewBox="0 0 24.5 24.127" enable-background="new 0 0 24.5 24.127" xml:space="preserve">
<g id="troubleshooting">
	<rect id="_x2E_svg_109_" x="0.5" y="0.127" fill="none" width="24" height="24"/>
	<path fill="none" stroke="#000000" stroke-width="2" stroke-miterlimit="10" d="M4,10.717c-1.76-0.78-3-2.54-3-4.59
		s1.24-3.81,3-4.59v0.59v4h4v-4v-0.59c1.76,0.78,3,2.54,3,4.59s-1.24,3.81-3,4.59v0.41v10c0,1.1-0.9,2-2,2
		c-0.55,0-1.05-0.22-1.41-0.59C4.22,22.177,4,21.677,4,21.127v-10V10.717z M21,3.127c0-1.1046-0.8954-2-2-2l0,0
		c-1.1046,0-2,0.8954-2,2v9h4V3.127z M14,12.127h10 M19,12.127v6h-2.5l1.5,5h2l1.5-5H20"/>
</g>
</svg>
