<?xml version="1.0" encoding="utf-8"?>
<!-- Generator: Adobe Illustrator 19.1.0, SVG Export Plug-In . SVG Version: 6.00 Build 0)  -->
<svg version="1.1" id="XMLID_181_" xmlns="http://www.w3.org/2000/svg" xmlns:xlink="http://www.w3.org/1999/xlink" x="0px" y="0px"
	 viewBox="0 0 48 48" enable-background="new 0 0 48 48" xml:space="preserve">
<g id="user-worker">
	<rect id="_x2E_svg_133_" x="0" y="0" fill="none" width="48" height="48"/>
	<path fill="none" stroke="#231F20" stroke-width="2" stroke-miterlimit="10" d="M30,19v1.5714C30,24.1218,27.5504,27,24,27
		s-6-2.8782-6-6.4286V19 M20.45,25.83C17.81,27.14,16,29.86,16,33v2h16v-2c0-2.21-0.9-4.21-2.34-5.66
		c-0.61-0.61-1.32-1.12-2.11-1.51 M31,20c0-3.866-3.134-7-7-7s-7,3.134-7,7H31z M22,16v-2 M26,16v-2 M15,20h18"/>
</g>
</svg>
