<?xml version="1.0" encoding="utf-8"?>
<!-- Generator: Adobe Illustrator 17.1.0, SVG Export Plug-In . SVG Version: 6.00 Build 0)  -->
<!DOCTYPE svg PUBLIC "-//W3C//DTD SVG 1.1//EN" "http://www.w3.org/Graphics/SVG/1.1/DTD/svg11.dtd">
<svg version="1.1" id="XMLID_182_" xmlns="http://www.w3.org/2000/svg" xmlns:xlink="http://www.w3.org/1999/xlink" x="0px" y="0px"
	 viewBox="0 0 25.7071 24" enable-background="new 0 0 25.7071 24" xml:space="preserve">
<g id="user-admin">
	<rect id="_x2E_svg_132_" x="0.0009" fill="none" width="24" height="24"/>
	<path fill="none" stroke="#000000" stroke-width="2" stroke-miterlimit="10" d="M14,6c0,2.7614-2.2386,5-5,5S4,8.7614,4,6
		s2.2386-5,5-5S14,3.2386,14,6z M12,20.5c0,1.3807,1.1193,2.5,2.5,2.5s2.5-1.1193,2.5-2.5S15.8807,18,14.5,18S12,19.1193,12,20.5z
		 M25,16l-3-3l-5.5312,5.5312 M19.5,15.5l3,3 M9,11L9,11c-4.4183,0-8,3.5817-8,8v4h8 M15.0018,13.7104
		C13.5359,12.0484,11.3904,11,9,11h0"/>
</g>
</svg>
