<?xml version="1.0" encoding="utf-8"?>
<!-- Generator: Adobe Illustrator 17.1.0, SVG Export Plug-In . SVG Version: 6.00 Build 0)  -->
<!DOCTYPE svg PUBLIC "-//W3C//DTD SVG 1.1//EN" "http://www.w3.org/Graphics/SVG/1.1/DTD/svg11.dtd">
<svg version="1.1" id="XMLID_203_" xmlns="http://www.w3.org/2000/svg" xmlns:xlink="http://www.w3.org/1999/xlink" x="0px" y="0px"
	 viewBox="0 0 24 24.5" enable-background="new 0 0 24 24.5" xml:space="preserve">
<g id="user-female">
	<rect id="_x2E_svg_117_" y="0.5" fill="none" width="24" height="24"/>
	<path fill="none" stroke="#000000" stroke-width="2" stroke-miterlimit="10" d="M7.9941,24v-4 M15.9941,20v4 M19.9941,24v-5
		c0-2.7614-2.1386-5-4.9-5h-0.1l0,0l0,0c3.375,0,5.1-2.1,5.1-2.1s-3.1-1.8687-3.1-5.9c0-2.7583-2.2917-5-5.05-5h0.0969
		C9.2827,1,7.0176,3.2417,7.0176,6c0,3.9688-3.1117,5.9-3.1117,5.9S4.6191,14,7.9941,14h1c-2.7614,0-5,2.2386-5,5v5"/>
</g>
</svg>
