<?xml version="1.0" encoding="utf-8"?>
<!-- Generator: Adobe Illustrator 19.1.0, SVG Export Plug-In . SVG Version: 6.00 Build 0)  -->
<svg version="1.1" id="XMLID_180_" xmlns="http://www.w3.org/2000/svg" xmlns:xlink="http://www.w3.org/1999/xlink" x="0px" y="0px"
	 viewBox="0 0 48 48" enable-background="new 0 0 48 48" xml:space="preserve">
<g id="user-manager">
	<rect id="_x2E_svg_134_" x="0" y="0" fill="none" width="48" height="48"/>
	<path fill="none" stroke="#231F20" stroke-width="2" stroke-miterlimit="10" d="M27.575,23.83c0.79,0.39,1.5,0.9,2.11,1.51
		c1.44,1.45,2.34,3.45,2.34,5.66v4h-16v-4c0-3.14,1.81-5.86,4.45-7.17 M24.025,13c-3.3137,0-6,2.6863-6,6s2.6863,6,6,6s6-2.6863,6-6
		S27.3387,13,24.025,13z M29.935,20c-2.05-0.03-3.86-1.09-4.91-2.69c-1.07,1.62-2.91,2.69-5,2.69c-0.69,0-1.35-0.11-1.96-0.33
		 M19.025,25l5,6v4l0,0v-4l5-6"/>
</g>
</svg>
