<?xml version="1.0" encoding="utf-8"?>
<!-- Generator: Adobe Illustrator 17.1.0, SVG Export Plug-In . SVG Version: 6.00 Build 0)  -->
<!DOCTYPE svg PUBLIC "-//W3C//DTD SVG 1.1//EN" "http://www.w3.org/Graphics/SVG/1.1/DTD/svg11.dtd">
<svg version="1.1" id="XMLID_180_" xmlns="http://www.w3.org/2000/svg" xmlns:xlink="http://www.w3.org/1999/xlink" x="0px" y="0px"
	 viewBox="0 0 24 24" enable-background="new 0 0 24 24" xml:space="preserve">
<g id="user-manager">
	<rect id="_x2E_svg_134_" x="0" fill="none" width="24" height="24"/>
	<path fill="none" stroke="#000000" stroke-width="2" stroke-miterlimit="10" d="M15.575,11.83c0.79,0.39,1.5,0.9,2.11,1.51
		c1.44,1.45,2.34,3.45,2.34,5.66v4h-16v-4c0-3.14,1.81-5.86,4.45-7.17 M12.025,1c-3.3137,0-6,2.6863-6,6s2.6863,6,6,6s6-2.6863,6-6
		S15.3387,1,12.025,1z M17.935,8c-2.05-0.03-3.86-1.09-4.91-2.69c-1.07,1.62-2.91,2.69-5,2.69c-0.69,0-1.35-0.11-1.96-0.33
		 M7.025,13l5,6v4l0,0v-4l5-6"/>
</g>
</svg>
