<?xml version="1.0" encoding="utf-8"?>
<!-- Generator: Adobe Illustrator 17.1.0, SVG Export Plug-In . SVG Version: 6.00 Build 0)  -->
<!DOCTYPE svg PUBLIC "-//W3C//DTD SVG 1.1//EN" "http://www.w3.org/Graphics/SVG/1.1/DTD/svg11.dtd">
<svg version="1.1" id="XMLID_185_" xmlns="http://www.w3.org/2000/svg" xmlns:xlink="http://www.w3.org/1999/xlink" x="0px" y="0px"
	 viewBox="0 0 26 24" enable-background="new 0 0 26 24" xml:space="preserve">
<g id="user-settings">
	<rect id="_x2E_svg_129_" fill="none" width="24" height="24"/>
	<path fill="none" stroke="#000000" stroke-width="2" stroke-miterlimit="10" d="M20,21c-1.6545,0-3-1.3458-3-3s1.3455-3,3-3
		s3,1.3458,3,3S21.6545,21,20,21z M26,18l-3,0.0001 M22.1212,20.1214l2.1214,2.1212 M20,24l-0.0001-3 M15.7574,22.2426
		l2.1212-2.1214 M14,18h3 M17.8787,15.8787l-2.1213-2.1213 M20,15v-3 M22.1213,15.8787l2.1213-2.1213 M9,1C6.2386,1,4,3.2386,4,6
		s2.2386,5,5,5s5-2.2386,5-5S11.7614,1,9,1z M14.0002,12.7548C12.6306,11.6568,10.892,11,9,11h0c-4.4183,0-8,3.5817-8,8v4h12.4"/>
</g>
</svg>
