<?xml version="1.0" encoding="utf-8"?>
<!-- Generator: Adobe Illustrator 17.1.0, SVG Export Plug-In . SVG Version: 6.00 Build 0)  -->
<!DOCTYPE svg PUBLIC "-//W3C//DTD SVG 1.1//EN" "http://www.w3.org/Graphics/SVG/1.1/DTD/svg11.dtd">
<svg version="1.1" id="XMLID_179_" xmlns="http://www.w3.org/2000/svg" xmlns:xlink="http://www.w3.org/1999/xlink" x="0px" y="0px"
	 viewBox="0 0 24 24" enable-background="new 0 0 24 24" xml:space="preserve">
<g id="user-police">
	<rect id="_x2E_svg_135_" fill="none" width="24" height="24"/>
	<path fill="none" stroke="#000000" stroke-width="2" stroke-miterlimit="10" d="M18,9v0.5714C18,13.1218,15.5504,16,12,16
		s-6-2.8782-6-6.4286V9 M8.45,14.83C5.81,16.14,4,18.86,4,22v1h16v-1c0-2.21-0.9-4.21-2.34-5.66c-0.61-0.61-1.32-1.12-2.11-1.51
		 M21,5.3322C19.2226,2.7422,15.8652,1,12,1S4.7774,2.7422,3,5.3322L5.4169,8H12h6.5831L21,5.3322z"/>
	<path d="M12,3h-2c0,0-0.0625,3,2,3c2,0,1.9998-3,1.9998-3H12z"/>
</g>
</svg>
