<svg xmlns="http://www.w3.org/2000/svg" width="24" height="24" viewBox="0 0 24 24">
  <path fill="none" stroke="#000000" stroke-width="2" d="M16,14 C18.3736719,15.1826446 20,17.6506255 20,21 L20,23 L4,23 L4,21 C4,17.6457258 5.6310898,15.1754259 8,14 M12,15 C15.3137085,15 18,12.3137085 18,9 C18,8.29823864 18.2213987,7.62461614 18,6.99868739 M6,6.99868739 C5.7870373,7.61390257 6,8.31234852 6,9 C6,12.3137085 8.6862915,15 12,15 L12,15 M6,8 L18,8 L21,4 C19.0884181,2.26537447 15.7904958,1 12,1 C8.16364606,1 4.83185613,2.29617718 3,4 L6,8 L6,8 L6,8 Z M12,5 C12.5522847,5 13,4.55228475 13,4 C13,4 11,3.99999999 11,4 C11,4.55228475 11.4477153,5 12,5 L12,5 L12,5 Z"/>
</svg>
