<?xml version="1.0" encoding="utf-8"?>
<!-- Generator: Adobe Illustrator 17.1.0, SVG Export Plug-In . SVG Version: 6.00 Build 0)  -->
<!DOCTYPE svg PUBLIC "-//W3C//DTD SVG 1.1//EN" "http://www.w3.org/Graphics/SVG/1.1/DTD/svg11.dtd">
<svg version="1.1" id="XMLID_141_" xmlns="http://www.w3.org/2000/svg" xmlns:xlink="http://www.w3.org/1999/xlink" x="0px" y="0px"
	 viewBox="0 0 25 24.9141" enable-background="new 0 0 25 24.9141" xml:space="preserve">
<g id="vm-maintenance">
	<rect id="_x2E_svg_176_" x="1" y="0" fill="none" width="24" height="24"/>
	<path fill="none" stroke="#000000" stroke-width="2" stroke-miterlimit="10" d="M23.6937,14.2495l-2.0349,2.0349l-1.4431-1.4432
		l2.0348-2.0348c-1.1328-0.5556-2.5327-0.3536-3.478,0.5917c-0.9433,0.9433-1.1319,2.3387-0.5894,3.476L13,22.0569l1.443,1.443
		l5.1833-5.1829c1.1372,0.5422,2.5324,0.3536,3.4757-0.5896C24.0472,16.7822,24.2493,15.3824,23.6937,14.2495z"/>
	<path fill="none" stroke="#000000" stroke-width="2" stroke-miterlimit="10" d="M15,13.5H5v-10h10V13.5z M18,11.5v-4H8v10h6
		 M11,10.5H1v10h10V10.5z"/>
</g>
</svg>
