<?xml version="1.0" encoding="utf-8"?>
<!-- Generator: Adobe Illustrator 17.1.0, SVG Export Plug-In . SVG Version: 6.00 Build 0)  -->
<!DOCTYPE svg PUBLIC "-//W3C//DTD SVG 1.1//EN" "http://www.w3.org/Graphics/SVG/1.1/DTD/svg11.dtd">
<svg version="1.1" id="XMLID_66_" xmlns="http://www.w3.org/2000/svg" xmlns:xlink="http://www.w3.org/1999/xlink" x="0px" y="0px"
	 viewBox="0 0 24 24" enable-background="new 0 0 24 24" xml:space="preserve">
<g id="worksop">
	<rect id="_x2E_svg_241_" y="0" fill="none" width="24" height="24"/>
	<polyline fill="none" stroke="#000000" stroke-width="2" stroke-miterlimit="10" points="20,16 23,16 23,2 3,2 3,5 	"/>
	<rect x="10" y="0" width="6" height="4"/>
	<path fill="none" stroke="#000000" stroke-width="2" stroke-miterlimit="10" d="M10,10.5c0,1.933-1.567,3.5-3.5,3.5
		S3,12.433,3,10.5S4.567,7,6.5,7S10,8.567,10,10.5z M8,14H6c-2.7614,0-5,2.2386-5,5v4h11v-3.9515
		c0-0.6033,0.3584-1.1483,0.9169-1.3766C16.8134,16.0792,19,11,19,11l-2-2C11.7917,14.2083,8,14,8,14 M17,9l2-2"/>
</g>
</svg>
