<?xml version="1.0" encoding="utf-8"?>
<!-- Generator: Adobe Illustrator 17.1.0, SVG Export Plug-In . SVG Version: 6.00 Build 0)  -->
<!DOCTYPE svg PUBLIC "-//W3C//DTD SVG 1.1//EN" "http://www.w3.org/Graphics/SVG/1.1/DTD/svg11.dtd">
<svg version="1.1" id="Layer_1" xmlns="http://www.w3.org/2000/svg" xmlns:xlink="http://www.w3.org/1999/xlink" x="0px" y="0px"
	 viewBox="0 0 140 140" enable-background="new 0 0 140 140" xml:space="preserve">
<path fill="#333333" d="M100.8,39.4c16.9,17,16.8,44.4-0.1,61.3c-16.9,16.9-44.6,16.9-61.5,0c-16.9-17-16.9-44.5,0-61.4
	c8.7-8.7,20.3-13,31.7-12.7L93.4,4C69-4.7,40.7,0.7,20.9,20C-6.7,47.2-7,91.9,20.4,119.4c27.3,27.4,71.7,27.5,99.1,0.1
	c27.3-27.3,27.3-71.5,0.1-98.9L100.8,39.4z"/>
<path fill="#03B388" d="M94.4,52.6c8.5,11.9,7.3,28.7-3.7,39.2c-11.8,11.3-30.4,11.1-42-0.5C37,79.5,37,60.5,48.7,48.8l22.2-22.2
	c-11.4-0.2-23,4-31.7,12.7c-16.9,16.9-17,44.4-0.1,61.3c17,17.1,44.5,17.2,61.6,0.1c16.9-16.9,16.9-44.4,0.1-61.3L95,45.2
	C93,47.2,92.8,50.3,94.4,52.6z"/>
</svg>
