<?xml version="1.0" encoding="UTF-8" standalone="no"?>
<svg width="123px" height="48px" viewBox="0 0 123 48" version="1.1" xmlns="http://www.w3.org/2000/svg" xmlns:xlink="http://www.w3.org/1999/xlink" xmlns:sketch="http://www.bohemiancoding.com/sketch/ns">
    <!-- Generator: Sketch 3.3.3 (12072) - http://www.bohemiancoding.com/sketch -->
    <title>hpesm_pri_grn_rev_rgb</title>
    <desc>Created with Sketch.</desc>
    <defs></defs>
    <g id="Page-1" stroke="none" stroke-width="1" fill="none" fill-rule="evenodd" sketch:type="MSPage">
        <g id="hpesm_pri_grn_rev_rgb" sketch:type="MSLayerGroup">
            <g id="Page-1" sketch:type="MSShapeGroup">
                <path d="M0.423085714,0.224228571 L0.423085714,11.1003429 L38.2868571,11.1003429 L38.2868571,0.224228571 L0.423085714,0.224228571 L0.423085714,0.224228571 Z M35.9204571,8.73394286 L2.78948571,8.73394286 L2.78948571,2.59062857 L35.9204571,2.59062857 L35.9204571,8.73394286 L35.9204571,8.73394286 Z" id="element" fill="#00B388"></path>
                <path d="M7.3152,33.7186286 L7.3152,35.0420571 L1.93714286,35.0420571 L1.93714286,38.3670857 L6.82765714,38.3670857 L6.82765714,39.6548571 L1.93714286,39.6548571 L1.93714286,43.2747429 L7.3152,43.2747429 L7.3152,44.5974857 L0.423085714,44.5974857 L0.423085714,33.7193143 L7.3152,33.7193143 L7.3152,33.7186286 L7.3152,33.7186286 Z M11.0557714,44.5968 L9.57668571,44.5968 L9.57668571,36.5904 L10.9686857,36.5904 L10.9686857,38.088 C11.5426286,37.0779429 12.4656,36.4162286 13.6491429,36.4162286 C15.5115429,36.4162286 16.608,37.6340571 16.608,39.4621714 L16.608,44.5961143 L15.1282286,44.5961143 L15.1282286,39.4971429 C15.1282286,38.4363429 14.5714286,37.8089143 13.3357714,37.8089143 C12.2742857,37.8089143 11.3691429,38.5227429 11.0557714,39.4806857 L11.0557714,44.5968 L11.0557714,44.5968 Z M22.6635429,44.7709714 C20.6619429,44.7709714 19.8617143,43.8994286 19.8617143,42.3168 L19.8617143,37.8966857 L18.1734857,37.8966857 L18.1734857,36.5910857 L19.8617143,36.5910857 L19.8617143,34.5202286 L21.3408,34.5202286 L21.3408,36.5910857 L23.6208,36.5910857 L23.6208,37.8966857 L21.3408,37.8966857 L21.3408,42.1782857 C21.3408,43.1355429 21.8804571,43.3954286 22.8034286,43.3954286 C23.0461714,43.3954286 23.2902857,43.3618286 23.4994286,43.2912 L23.6208,43.2912 L23.6208,44.5968 C23.3945143,44.6832 23.0804571,44.7709714 22.6635429,44.7709714 L22.6635429,44.7709714 L22.6635429,44.7709714 Z M29.1709714,44.7709714 C26.5083429,44.7709714 24.8201143,43.2048 24.8201143,40.6806857 C24.8201143,38.1744 26.3869714,36.4162286 28.6841143,36.4162286 C31.0505143,36.4162286 32.2518857,38.0016 32.2518857,40.3501714 L32.2518857,41.1339429 L26.352,41.1339429 C26.5611429,42.6987429 27.6747429,43.4310857 29.1888,43.4310857 C30.1289143,43.4310857 30.8427429,43.2740571 31.5387429,42.7700571 L31.6950857,42.7700571 L31.6950857,44.0406857 C30.9819429,44.5796571 30.0589714,44.7709714 29.1709714,44.7709714 L29.1709714,44.7709714 L29.1709714,44.7709714 Z M26.3698286,39.9668571 L30.8077714,39.9668571 C30.7549714,38.5056 29.9897143,37.7225143 28.7019429,37.7225143 C27.4141714,37.7225143 26.5611429,38.6626286 26.3698286,39.9668571 L26.3698286,39.9668571 L26.3698286,39.9668571 Z M38.7250286,38.1044571 C38.5158857,38.0016 38.2025143,37.9302857 37.8726857,37.9302857 C36.9318857,37.9302857 36.1837714,38.5933714 35.8710857,39.6706286 L35.8710857,44.5968 L34.392,44.5968 L34.392,36.5904 L35.784,36.5904 L35.784,38.3142857 C36.2544,37.0086857 37.1067429,36.4690286 38.064,36.4690286 C38.4116571,36.4690286 38.7250286,36.5218286 38.8470857,36.5910857 L38.8470857,38.1051429 L38.7250286,38.1051429 L38.7250286,38.1044571 L38.7250286,38.1044571 Z M41.8045714,43.2912 L41.8045714,47.5378286 L40.3254857,47.5378286 L40.3254857,36.5904 L41.7174857,36.5904 L41.7174857,37.9659429 C42.1878857,37.1472 43.1094857,36.4162286 44.3451429,36.4162286 C46.7643429,36.4162286 48.0349714,38.3307429 48.0349714,40.5065143 C48.0349714,42.7344 46.7636571,44.6832 44.3451429,44.6832 C43.1972571,44.6832 42.2921143,44.0571429 41.8045714,43.2912 L41.8045714,43.2912 L41.8045714,43.2912 Z M46.5209143,40.5065143 C46.5209143,38.8882286 45.6164571,37.8082286 43.9974857,37.8082286 C43.0409143,37.8082286 42.2749714,38.3136 41.8052571,39.1837714 L41.8052571,41.9341714 C42.2756571,42.7865143 43.0409143,43.3090286 43.9974857,43.3090286 C45.6157714,43.3090286 46.5209143,42.1947429 46.5209143,40.5065143 L46.5209143,40.5065143 L46.5209143,40.5065143 Z M54.5958857,38.1044571 C54.3867429,38.0016 54.0733714,37.9302857 53.7428571,37.9302857 C52.8027429,37.9302857 52.0546286,38.5933714 51.7419429,39.6706286 L51.7419429,44.5968 L50.2628571,44.5968 L50.2628571,36.5904 L51.6548571,36.5904 L51.6548571,38.3142857 C52.1245714,37.0086857 52.9776,36.4690286 53.9341714,36.4690286 C54.2825143,36.4690286 54.5958857,36.5218286 54.7179429,36.5910857 L54.7179429,38.1051429 L54.5958857,38.1051429 L54.5958857,38.1044571 L54.5958857,38.1044571 Z M57.1179429,35.7901714 C56.5604571,35.7901714 56.0564571,35.3197714 56.0564571,34.7458286 C56.0564571,34.1718857 56.5604571,33.7186286 57.1179429,33.7186286 C57.6918857,33.7186286 58.1794286,34.1718857 58.1794286,34.7458286 C58.1794286,35.3204571 57.6925714,35.7901714 57.1179429,35.7901714 L57.1179429,35.7901714 L57.1179429,35.7901714 Z M57.8489143,44.5968 L56.3698286,44.5968 L56.3698286,36.5904 L57.8489143,36.5904 L57.8489143,44.5968 L57.8489143,44.5968 Z M60.2502857,42.6994286 L60.3901714,42.6994286 C61.0512,43.2390857 62.0262857,43.5174857 62.9478857,43.5174857 C63.8180571,43.5174857 64.584,43.1876571 64.584,42.4745143 C64.584,41.7606857 63.9401143,41.6029714 62.6701714,41.1867429 C61.5387429,40.8027429 60.2674286,40.4022857 60.2674286,38.8882286 C60.2674286,37.3042286 61.5552,36.4169143 63.2098286,36.4169143 C64.1492571,36.4169143 64.9851429,36.6082286 65.6804571,37.0786286 L65.6804571,38.4363429 L65.5241143,38.4363429 C64.8973714,37.9659429 64.1492571,37.6704 63.2262857,37.6704 C62.2868571,37.6704 61.7643429,38.088 61.7643429,38.6804571 C61.7643429,39.3414857 62.3211429,39.5163429 63.6267429,39.9154286 C64.7917714,40.2994286 66.0809143,40.7513143 66.0809143,42.2653714 C66.0809143,43.9193143 64.7225143,44.7716571 62.9657143,44.7716571 C61.9035429,44.7716571 60.8420571,44.5110857 60.2502857,44.0413714 L60.2502857,42.6994286 L60.2502857,42.6994286 Z M72.1008,44.7709714 C69.4381714,44.7709714 67.7499429,43.2048 67.7499429,40.6806857 C67.7499429,38.1744 69.3161143,36.4162286 71.6139429,36.4162286 C73.9817143,36.4162286 75.1824,38.0016 75.1824,40.3501714 L75.1824,41.1339429 L69.2818286,41.1339429 C69.4909714,42.6987429 70.6045714,43.4310857 72.12,43.4310857 C73.0587429,43.4310857 73.7725714,43.2740571 74.4692571,42.7700571 L74.6256,42.7700571 L74.6256,44.0406857 C73.9110857,44.5796571 72.9888,44.7709714 72.1008,44.7709714 L72.1008,44.7709714 L72.1008,44.7709714 Z M69.2996571,39.9668571 L73.7382857,39.9668571 C73.6861714,38.5056 72.9202286,37.7225143 71.6324571,37.7225143 C70.344,37.7225143 69.4909714,38.6626286 69.2996571,39.9668571 L69.2996571,39.9668571 L69.2996571,39.9668571 Z M9.56022857,18.2009143 L9.56022857,29.0784 L7.19314286,29.0784 L7.19314286,24.5705143 L2.79017143,24.5705143 L2.79017143,29.0784 L0.423771429,29.0784 L0.423771429,18.2009143 L2.79017143,18.2009143 L2.79017143,22.4996571 L7.19314286,22.4996571 L7.19314286,18.2009143 L9.56022857,18.2009143 L9.56022857,18.2009143 Z M15.9812571,29.2704 C12.9874286,29.2704 11.3862857,27.6514286 11.3862857,25.0409143 C11.3862857,22.4304 13.0566857,20.7072 15.4758857,20.7072 C18.0864,20.7072 19.392,22.3433143 19.392,24.7974857 L19.392,25.7190857 L13.8226286,25.7190857 C13.9961143,27.0603429 15.0582857,27.4073143 16.1019429,27.4073143 C17.0427429,27.4073143 17.7730286,27.2859429 18.5396571,26.8697143 L18.8002286,26.8697143 L18.8002286,28.5744 C18.1042286,29.0784 16.9906286,29.2704 15.9812571,29.2704 L15.9812571,29.2704 L15.9812571,29.2704 Z M13.8054857,24.2228571 L17.0605714,24.2228571 C16.9906286,23.0043429 16.4688,22.4646857 15.5115429,22.4646857 C14.6934857,22.4646857 13.9618286,22.848 13.8054857,24.2228571 L13.8054857,24.2228571 L13.8054857,24.2228571 Z M22.1753143,29.0784 L20.4692571,21.1776 L20.4692571,20.8992 L22.6621714,20.8992 L23.5851429,25.8768 L23.8114286,27.4772571 L24.1248,25.8768 L25.2384,20.8992 L27.7275429,20.8992 L28.8246857,25.8768 L29.1552,27.4772571 L29.4164571,25.8768 L30.3387429,20.8992 L32.4274286,20.8992 L32.4274286,21.1776 L30.7042286,29.0784 L27.6754286,29.0784 L26.7010286,24.7104 L26.4226286,23.0742857 L26.1442286,24.7104 L25.1869714,29.0784 L22.1753143,29.0784 L22.1753143,29.0784 Z M36.6020571,29.2704 C34.8617143,29.2704 33.9915429,28.4701714 33.9915429,26.6070857 L33.9915429,18.2016 L36.3586286,18.2016 L36.3586286,26.4507429 C36.3586286,27.0253714 36.6020571,27.2166857 37.1588571,27.2166857 C37.3330286,27.2166857 37.6121143,27.1645714 37.7856,27.1131429 L37.8205714,27.1131429 L37.8205714,29.0790857 C37.5593143,29.1661714 37.0546286,29.2704 36.6020571,29.2704 L36.6020571,29.2704 L36.6020571,29.2704 Z M43.1108571,29.2704 C40.1170286,29.2704 38.5158857,27.6514286 38.5158857,25.0409143 C38.5158857,22.4304 40.1869714,20.7072 42.6061714,20.7072 C45.2173714,20.7072 46.5216,22.3433143 46.5216,24.7974857 L46.5216,25.7190857 L40.9522286,25.7190857 C41.1264,27.0603429 42.1878857,27.4073143 43.2322286,27.4073143 C44.1716571,27.4073143 44.9033143,27.2859429 45.6685714,26.8697143 L45.9298286,26.8697143 L45.9298286,28.5744 C45.2331429,29.0784 44.1195429,29.2704 43.1108571,29.2704 L43.1108571,29.2704 L43.1108571,29.2704 Z M40.9344,24.2228571 L44.1888,24.2228571 C44.1195429,23.0043429 43.5977143,22.4646857 42.6404571,22.4646857 C41.8224,22.4646857 41.0914286,22.848 40.9344,24.2228571 L40.9344,24.2228571 L40.9344,24.2228571 Z M54.5430857,26.1024 L54.5430857,22.8473143 L51.0795429,22.8473143 L51.0795429,25.9974857 C51.0795429,26.8333714 51.3579429,27.2153143 52.1417143,27.2153143 C52.368,27.2153143 52.6635429,27.1453714 52.8198857,27.0768 L53.0468571,27.0768 L53.0468571,29.0256 C52.7328,29.1298286 52.2630857,29.2690286 51.5670857,29.2690286 C49.5661714,29.2690286 48.7131429,28.3117714 48.7131429,26.1017143 L48.7131429,22.8466286 L47.3033143,22.8466286 L47.3033143,20.8978286 L48.7131429,20.8978286 L48.7131429,18.9133714 L51.0802286,18.9133714 L51.0802286,20.8978286 L54.5437714,20.8978286 L54.5437714,18.9133714 L56.9108571,18.9133714 L56.9108571,20.8978286 L58.8774857,20.8978286 L58.8774857,22.8466286 L56.9108571,22.8466286 L56.9108571,25.9968 C56.9108571,26.8326857 57.1892571,27.2146286 57.9723429,27.2146286 C58.1986286,27.2146286 58.4948571,27.1446857 58.6512,27.0761143 L58.8774857,27.0761143 L58.8774857,29.0249143 C58.5641143,29.1291429 58.0944,29.2683429 57.3984,29.2683429 C55.3968,29.2704 54.5430857,28.3124571 54.5430857,26.1024 L54.5430857,26.1024 L54.5430857,26.1024 Z M65.8361143,25.7190857 L65.8361143,29.0784 L63.4875429,29.0784 L63.4875429,18.2009143 L67.7163429,18.2009143 C70.1184,18.2009143 71.7017143,19.5236571 71.7017143,21.9771429 C71.7017143,24.3956571 70.1177143,25.7184 67.7163429,25.7184 L65.8361143,25.7184 L65.8361143,25.7190857 L65.8361143,25.7190857 Z M67.5257143,20.2025143 L65.8361143,20.2025143 L65.8361143,23.7181714 L67.5257143,23.7181714 C68.7250286,23.7181714 69.3003429,23.0043429 69.3003429,21.9778286 C69.2996571,20.9156571 68.7250286,20.2025143 67.5257143,20.2025143 L67.5257143,20.2025143 L67.5257143,20.2025143 Z M77.7222857,27.8605714 C77.2354286,28.7657143 76.3474286,29.1661714 75.2509714,29.1661714 C73.7369143,29.1661714 72.4834286,28.2946286 72.4834286,26.6763429 C72.4834286,25.0587429 73.5798857,24.1186286 75.6514286,24.1186286 C76.3296,24.1186286 77.0084571,24.1878857 77.6530286,24.3099429 L77.6530286,23.8395429 C77.6530286,22.9693714 77.0434286,22.5867429 75.8249143,22.5867429 C74.9197714,22.5867429 74.1716571,22.7780571 73.5456,23.0907429 L73.2836571,23.0907429 L73.2836571,21.3154286 C73.9110857,20.9856 75.0246857,20.7065143 76.1033143,20.7065143 C78.6624,20.7065143 79.9851429,21.8729143 79.9851429,23.8916571 L79.9851429,29.0777143 L77.7216,29.0777143 L77.7216,27.8605714 L77.7222857,27.8605714 L77.7222857,27.8605714 Z M77.6530286,26.5206857 L77.6530286,25.4763429 C77.2518857,25.3549714 76.7307429,25.32 76.3117714,25.32 C75.3552,25.32 74.8676571,25.6854857 74.8676571,26.4329143 C74.8676571,27.1810286 75.3558857,27.4765714 76.0683429,27.4765714 C76.7835429,27.4765714 77.4260571,27.1296 77.6530286,26.5206857 L77.6530286,26.5206857 L77.6530286,26.5206857 Z M81.7234286,25.0066286 C81.7234286,22.3611429 83.5858286,20.7072 86.0064,20.7072 C86.9972571,20.7072 87.7632,20.9341714 88.2850286,21.2818286 L88.2850286,23.3355429 L88.0416,23.3355429 C87.5376,22.9529143 86.9808,22.7787429 86.2669714,22.7787429 C85.0998857,22.7787429 84.1611429,23.5961143 84.1611429,25.0066286 C84.1611429,26.3986286 85.0998857,27.1988571 86.2669714,27.1988571 C86.9808,27.1988571 87.5376,27.0246857 88.0416,26.6420571 L88.2850286,26.6420571 L88.2850286,28.6957714 C87.7632,29.0427429 86.9972571,29.2697143 86.0064,29.2697143 C83.5858286,29.2704 81.7234286,27.6342857 81.7234286,25.0066286 L81.7234286,25.0066286 L81.7234286,25.0066286 Z M92.4781714,25.1101714 L92.4781714,29.0784 L90.1117714,29.0784 L90.1117714,18.2009143 L92.4781714,18.2009143 L92.4781714,24.3963429 L93.0349714,23.5618286 L95.2107429,20.8992 L97.7170286,20.8992 L97.7170286,21.1776 L94.6889143,24.6061714 L97.7170286,28.7993143 L97.7170286,29.0784 L95.0544,29.0784 L93.0349714,26.0845714 L92.4781714,25.1101714 L92.4781714,25.1101714 Z M103.510629,27.8605714 C103.023771,28.7657143 102.135771,29.1661714 101.039314,29.1661714 C99.5252571,29.1661714 98.2717714,28.2946286 98.2717714,26.6763429 C98.2717714,25.0587429 99.3682286,24.1186286 101.439771,24.1186286 C102.117943,24.1186286 102.7968,24.1878857 103.441371,24.3099429 L103.441371,23.8395429 C103.441371,22.9693714 102.831771,22.5867429 101.613943,22.5867429 C100.709486,22.5867429 99.96,22.7780571 99.3346286,23.0907429 L99.0733714,23.0907429 L99.0733714,21.3154286 C99.6994286,20.9856 100.813029,20.7065143 101.891657,20.7065143 C104.450743,20.7065143 105.773486,21.8729143 105.773486,23.8916571 L105.773486,29.0777143 L103.509943,29.0777143 L103.509943,27.8605714 L103.510629,27.8605714 L103.510629,27.8605714 Z M103.442057,26.5206857 L103.442057,25.4763429 C103.040914,25.3549714 102.519771,25.32 102.102171,25.32 C101.144914,25.32 100.658057,25.6854857 100.658057,26.4329143 C100.658057,27.1810286 101.144914,27.4765714 101.858743,27.4765714 C102.572571,27.4765714 103.2144,27.1296 103.442057,26.5206857 L103.442057,26.5206857 L103.442057,26.5206857 Z M110.192914,22.5524571 C110.629029,21.3339429 111.550629,20.8114286 112.490057,20.8114286 C112.8048,20.8114286 113.065371,20.8985143 113.1696,20.9506286 L113.1696,23.1956571 L112.926171,23.1956571 C112.683429,23.0742857 112.439314,23.0036571 112.108114,23.0036571 C111.168,23.0036571 110.489829,23.4390857 110.297829,24.3613714 L110.297829,29.0777143 L107.931429,29.0777143 L107.931429,20.8978286 L110.1936,20.8978286 L110.1936,22.5524571 L110.192914,22.5524571 L110.192914,22.5524571 Z M120.008914,27.9298286 C119.469257,28.7821714 118.615543,29.2697143 117.554743,29.2697143 C115.326857,29.2697143 113.952,27.4765714 113.952,25.0059429 C113.952,22.5168 115.326857,20.7065143 117.554743,20.7065143 C118.546286,20.7065143 119.365029,21.1419429 119.904686,21.8900571 L119.904686,18.2009143 L122.271086,18.2009143 L122.271086,29.0784 L120.008914,29.0784 L120.008914,27.9298286 L120.008914,27.9298286 Z M119.904,26.4157714 L119.904,23.5611429 C119.468571,22.9344 118.8768,22.6381714 118.198629,22.6381714 C117.12,22.6381714 116.389029,23.4733714 116.389029,25.0059429 C116.389029,26.52 117.119314,27.3373714 118.198629,27.3373714 C118.8768,27.3380571 119.469257,27.0425143 119.904,26.4157714 L119.904,26.4157714 L119.904,26.4157714 Z" id="Shape" fill="#FFFFFF"></path>
            </g>
        </g>
    </g>
</svg>