<svg width="164" height="48" xmlns="http://www.w3.org/2000/svg" viewBox="0 0 164.47 48"><defs><style>.cls-1{fill:#7d4cdb;}</style></defs><title>grommet-logo_1</title><g id="Layer_2" data-name="Layer 2"><g id="Layer_1-2" data-name="Layer 1"><path class="cls-1" d="M68.19,21a4.13,4.13,0,0,1,2,1.9V21h3.33l0,12.38a7,7,0,0,1-.86,3.81Q71.18,39.42,67,39.42a7.74,7.74,0,0,1-4.08-1,3.63,3.63,0,0,1-1.75-2.94h3.72a1.54,1.54,0,0,0,.46.86,2.91,2.91,0,0,0,1.86.47,2.5,2.5,0,0,0,2.47-1.23A6.21,6.21,0,0,0,70.13,33v-.84a4.1,4.1,0,0,1-1.06,1.25,4.14,4.14,0,0,1-2.64.77,5,5,0,0,1-4-1.77,7.17,7.17,0,0,1-1.49-4.79,8,8,0,0,1,1.46-4.89,4.76,4.76,0,0,1,4.1-2A4.43,4.43,0,0,1,68.19,21Zm1.15,9.37a4.22,4.22,0,0,0,.82-2.88,4.38,4.38,0,0,0-.77-2.83,2.58,2.58,0,0,0-2.09-1,2.46,2.46,0,0,0-2.47,1.69,6.14,6.14,0,0,0-.37,2.21,5.17,5.17,0,0,0,.38,2,2.51,2.51,0,0,0,2.48,1.66A2.65,2.65,0,0,0,69.34,30.38Z"/><path class="cls-1" d="M84,20.75l.29,0v3.5c-.21,0-.4,0-.57-.05h-.41a2.83,2.83,0,0,0-2.77,1.33,5.4,5.4,0,0,0-.4,2.32V34.1H76.65l0-13.06h3.26v2.28a7.39,7.39,0,0,1,1.38-1.79,3.73,3.73,0,0,1,2.5-.79Z"/><path class="cls-1" d="M97.12,32.54a6,6,0,0,1-5,2,6.07,6.07,0,0,1-5-2,7.57,7.57,0,0,1-1.65-4.91,7.63,7.63,0,0,1,1.67-4.9,6,6,0,0,1,5-2.05,6,6,0,0,1,5,2.08,7.61,7.61,0,0,1,1.65,4.89A7.56,7.56,0,0,1,97.12,32.54ZM94.4,30.65a5,5,0,0,0,.8-3,4.91,4.91,0,0,0-.79-3,3,3,0,0,0-4.61,0,4.89,4.89,0,0,0-.81,3,4.92,4.92,0,0,0,.8,3,3,3,0,0,0,4.61,0Z"/><path class="cls-1" d="M117.53,21.17A3.83,3.83,0,0,1,119.79,24,13.05,13.05,0,0,1,119.9,26l0,8.22h-3.5l0-8.31a2.75,2.75,0,0,0-.24-1.23,1.7,1.7,0,0,0-1.67-.91,2,2,0,0,0-2,1.17,3.59,3.59,0,0,0-.28,1.5l0,7.77h-3.44l0-7.77a4.38,4.38,0,0,0-.24-1.69,1.66,1.66,0,0,0-1.68-.95,2,2,0,0,0-2,.94,3.72,3.72,0,0,0-.28,1.61v7.85h-3.46l0-13h3.32V23a5.37,5.37,0,0,1,1.2-1.45,4.75,4.75,0,0,1,5-.1,3.9,3.9,0,0,1,1.12,1.57,4.41,4.41,0,0,1,1.67-1.68,5,5,0,0,1,2.35-.53A4.63,4.63,0,0,1,117.53,21.17Z"/><path class="cls-1" d="M139.33,21.22a3.73,3.73,0,0,1,1.52,1.18,3.6,3.6,0,0,1,.74,1.67,11.65,11.65,0,0,1,.12,1.93l0,8.23h-3.5l0-8.31a2.73,2.73,0,0,0-.24-1.22,1.69,1.69,0,0,0-1.67-.91,1.94,1.94,0,0,0-2,1.17,3.7,3.7,0,0,0-.28,1.49v7.77h-3.44l0-7.78a4.32,4.32,0,0,0-.24-1.68,1.66,1.66,0,0,0-1.69-.95,2,2,0,0,0-2,.94,3.53,3.53,0,0,0-.28,1.6l0,7.86H123l0-13h3.32v1.9a5.51,5.51,0,0,1,1.2-1.44,4.71,4.71,0,0,1,5-.1,3.92,3.92,0,0,1,1.12,1.57,4.31,4.31,0,0,1,1.67-1.69,5.17,5.17,0,0,1,2.35-.53A4.55,4.55,0,0,1,139.33,21.22Z"/><path class="cls-1" d="M153.36,21.46a5.31,5.31,0,0,1,2.25,1.94,6.41,6.41,0,0,1,1,2.7,16.81,16.81,0,0,1,.1,2.59l-9.5,0a3.13,3.13,0,0,0,1.36,2.76,3.42,3.42,0,0,0,1.88.49,2.8,2.8,0,0,0,1.89-.59,2.89,2.89,0,0,0,.71-.9h3.48a4.23,4.23,0,0,1-1.27,2.36,6.37,6.37,0,0,1-4.91,1.89,7.08,7.08,0,0,1-4.6-1.62q-2-1.61-2-5.23a7.07,7.07,0,0,1,1.81-5.19,6.25,6.25,0,0,1,4.67-1.8A7.38,7.38,0,0,1,153.36,21.46Zm-5.11,2.94a3.54,3.54,0,0,0-.91,2h5.88a2.86,2.86,0,0,0-.91-2.06,3,3,0,0,0-2-.71A2.73,2.73,0,0,0,148.25,24.4Z"/><path class="cls-1" d="M157.15,23.76V21.33H159V17.69h3.38v3.64h2.12v2.43h-2.12l0,6.9a1.61,1.61,0,0,0,.2,1,2.27,2.27,0,0,0,1.25.2h.67V34.4l-1.61.05c-1.62,0-2.72-.23-3.31-.84A2.54,2.54,0,0,1,159,31.8l0-8Z"/><path class="cls-1" d="M24,8A16,16,0,1,1,8,24,16,16,0,0,1,24,8m0-8A24,24,0,1,0,48,24,24,24,0,0,0,24,0Z"/></g></g></svg>