<?xml version="1.0" encoding="utf-8"?>
<!-- Generator: Adobe Illustrator 17.1.0, SVG Export Plug-In . SVG Version: 6.00 Build 0)  -->
<!DOCTYPE svg PUBLIC "-//W3C//DTD SVG 1.1//EN" "http://www.w3.org/Graphics/SVG/1.1/DTD/svg11.dtd">
<svg version="1.1" id="Layer_1" xmlns="http://www.w3.org/2000/svg" xmlns:xlink="http://www.w3.org/1999/xlink" x="0px" y="0px"
	 viewBox="0 0 400 368" enable-background="new 0 0 400 368" xml:space="preserve">
<text transform="matrix(1.0023 0 0 1 -0.2363 45)"><tspan x="0" y="0" fill="#F05023" font-family="'OpenSans-Light'" font-size="14">Company </tspan><tspan x="18.2" y="18" fill="#F05023" font-family="'OpenSans-Light'" font-size="14">logo</tspan></text>
<g>
	<g>
		<line fill="none" stroke="#F05023" stroke-miterlimit="10" x1="82" y1="40.5" x2="190" y2="40.5"/>
		<g>
			<circle fill="#F05023" cx="189.7" cy="40" r="3.8"/>
		</g>
	</g>
</g>
<rect x="208" y="1" fill="none" stroke="#CCCCCC" stroke-miterlimit="10" width="70" height="70"/>
<g>
	<text transform="matrix(1 0 0 1 171.0762 108.8994)" fill="#777777" font-family="'OpenSans-Light'" font-size="22">Product Name</text>
</g>
<g>
	<g>
		<rect x="94.5" y="168.5" fill="none" stroke="#0C96D4" stroke-miterlimit="10" width="299" height="30"/>
		<g>
			<text transform="matrix(1 0 0 1 95.5498 156.8994)" fill="#505050" font-family="'OpenSans-Light'" font-size="13">Username</text>
		</g>
		<g>
			<text transform="matrix(1 0 0 1 122.5498 362.8994)" fill="#505050" font-family="'OpenSans-Light'" font-size="13">Remember me</text>
		</g>
		<text transform="matrix(1 0 0 1 105.5498 189.2324)" fill="#CCCCCC" font-family="'OpenSans'" font-size="14">joe.smith@hp.com</text>
		<text transform="matrix(1 0 0 1 293.2168 362.8994)" fill="#0C96D4" font-family="'OpenSans-Light'" font-size="13">Forgot password?</text>
		<rect x="95.5" y="237.5" fill="none" stroke="#DBDADA" stroke-miterlimit="10" width="299" height="30"/>
		<rect x="95" y="297" fill="#0C96D4" width="300" height="36"/>
		<g>
			<text transform="matrix(1 0 0 1 95.5498 226.5)" fill="#505050" font-family="'OpenSans-Light'" font-size="13">Password</text>
		</g>
		<text transform="matrix(1 0 0 1 221.5078 320.0996)" fill="#FFFFFF" font-family="'OpenSans-Bold'" font-size="16">Log In</text>
		<rect x="95.5" y="350.5" fill="none" stroke="#BAB8BB" stroke-miterlimit="10" width="16" height="16"/>
	</g>
	<line fill="none" stroke="#505050" stroke-miterlimit="10" x1="102.5" y1="174" x2="102.5" y2="193"/>
</g>
</svg>
