<?xml version="1.0" encoding="utf-8"?>
<!-- Generator: Adobe Illustrator 17.1.0, SVG Export Plug-In . SVG Version: 6.00 Build 0)  -->
<!DOCTYPE svg PUBLIC "-//W3C//DTD SVG 1.1//EN" "http://www.w3.org/Graphics/SVG/1.1/DTD/svg11.dtd">
<svg version="1.1" id="Layer_1" xmlns="http://www.w3.org/2000/svg" xmlns:xlink="http://www.w3.org/1999/xlink" x="0px" y="0px"
	 viewBox="0 0 304 260" enable-background="new 0 0 304 260" xml:space="preserve">
<g>
	<g>
		<rect x="1.5" y="60.5" fill="none" stroke="#0C96D4" stroke-miterlimit="10" width="299" height="30"/>
		<g>
			<text transform="matrix(1 0 0 1 2.5498 48.8994)" fill="#505050" font-family="'OpenSans-Light'" font-size="13">Username</text>
		</g>
		<g>
			<text transform="matrix(1 0 0 1 29.5498 254.8994)" fill="#505050" font-family="'OpenSans-Light'" font-size="13">Remember me</text>
		</g>
		<text transform="matrix(1 0 0 1 12.5498 81.2324)" fill="#CCCCCC" font-family="'OpenSans'" font-size="14">joe.smith@hp.com</text>
		<text transform="matrix(1 0 0 1 200.2168 254.8994)" fill="#0C96D4" font-family="'OpenSans-Light'" font-size="13">Forgot password?</text>
		<rect x="2.5" y="129.5" fill="none" stroke="#DBDADA" stroke-miterlimit="10" width="299" height="30"/>
		<rect x="2" y="189" fill="#0C96D4" width="300" height="36"/>
		<g>
			<text transform="matrix(1 0 0 1 2.5498 118.5)" fill="#505050" font-family="'OpenSans-Light'" font-size="13">Password</text>
		</g>
		<text transform="matrix(1 0 0 1 128.5078 212.0996)" fill="#FFFFFF" font-family="'OpenSans-Bold'" font-size="16">Log In</text>
		<rect x="2.5" y="242.5" fill="none" stroke="#BAB8BB" stroke-miterlimit="10" width="16" height="16"/>
	</g>
	<line fill="none" stroke="#505050" stroke-miterlimit="10" x1="9.5" y1="66" x2="9.5" y2="85"/>
</g>
<text transform="matrix(1.0023 0 0 1 76.792 13)" fill="#F05023" font-family="'OpenSans-Light'" font-size="14">Focus state with I-Beam</text>
<g>
	<g>
		<line fill="none" stroke="#F05023" stroke-miterlimit="10" x1="150.5" y1="22" x2="150.5" y2="60"/>
		<g>
			<circle fill="#F05023" cx="150.5" cy="60.2" r="3.8"/>
		</g>
	</g>
</g>
</svg>
