<?xml version="1.0" encoding="utf-8"?>
<!-- Generator: Adobe Illustrator 17.1.0, SVG Export Plug-In . SVG Version: 6.00 Build 0)  -->
<!DOCTYPE svg PUBLIC "-//W3C//DTD SVG 1.1//EN" "http://www.w3.org/Graphics/SVG/1.1/DTD/svg11.dtd">
<svg version="1.1" id="Layer_1" xmlns="http://www.w3.org/2000/svg" xmlns:xlink="http://www.w3.org/1999/xlink" x="0px" y="0px"
	 viewBox="0 0 475 342" enable-background="new 0 0 475 342" xml:space="preserve">
<rect x="213.2" y="108.3" fill="#505050" width="23" height="179"/>
<rect x="134.2" y="290.3" fill="#505050" width="181" height="3"/>
<rect x="1.7" y="0.8" fill="#E5E8E7" width="444" height="237"/>
<rect x="1.7" y="0.8" fill="none" stroke="#505050" stroke-width="2" stroke-miterlimit="10" width="444" height="237"/>
<rect x="51" y="323" fill="none" width="369" height="18"/>
<text transform="matrix(1.0023 0 0 1 109.8066 333.6396)" fill="#F05023" font-family="'OpenSans-Light'" font-size="14">Login page without a background image</text>
<g>
	<rect x="165.2" y="55.3" fill="#FFFFFF" width="119" height="112"/>
	<rect x="195.7" y="102.8" fill="#FFFFFF" width="59" height="9"/>
	<rect x="195.7" y="102.8" fill="none" stroke="#CCCCCC" stroke-miterlimit="10" width="59" height="9"/>
	<rect x="195.2" y="96.3" fill="#CCCCCC" width="37" height="2"/>
	<rect x="195.7" y="124.8" fill="#FFFFFF" width="59" height="9"/>
	<rect x="195.7" y="124.8" fill="none" stroke="#CCCCCC" stroke-miterlimit="10" width="59" height="9"/>
	<rect x="195.2" y="118.3" fill="#CCCCCC" width="37" height="2"/>
	<rect x="195.2" y="140.3" fill="#1096D4" width="59" height="10"/>
	<rect x="195.2" y="140.3" fill="#0C96D4" width="59" height="10"/>
	<rect x="214.7" y="65.8" fill="none" stroke="#CCCCCC" stroke-miterlimit="10" width="18" height="18"/>
</g>
<g>
	<rect x="359.8" y="129.3" fill="#505050" width="114" height="165.3"/>
	<rect x="364" y="135" fill="#E5E8E7" width="104" height="140"/>
	<g>
		<rect x="364.8" y="146.3" fill="#FFFFFF" width="103" height="102.2"/>
		<rect x="386.5" y="218.6" fill="#0C96D4" width="59" height="10"/>
		<rect x="386.5" y="186.6" fill="none" stroke="#CCCCCC" stroke-miterlimit="10" width="59" height="7"/>
		<rect x="386" y="180.2" fill="#CCCCCC" width="37" height="2"/>
		<rect x="386.5" y="204.6" fill="none" stroke="#CCCCCC" stroke-miterlimit="10" width="59" height="7"/>
		<rect x="386" y="199.1" fill="#CCCCCC" width="37" height="2"/>
		<rect x="408.5" y="157" fill="none" stroke="#CCCCCC" stroke-miterlimit="10" width="14" height="14"/>
	</g>
</g>
<g>
	<rect x="328.5" y="214.3" fill="#505050" width="44" height="80"/>
	<rect x="330.5" y="217.3" fill="#E5E8E7" width="40" height="69"/>
	<g>
		<rect x="331" y="226.3" fill="#FFFFFF" width="39" height="52"/>
		<g>
			<rect x="337.3" y="262.7" fill="#0C96D4" width="25" height="5.6"/>
			<rect x="337.3" y="244.7" fill="none" stroke="#CCCCCC" stroke-miterlimit="10" width="25" height="3.9"/>
			<rect x="337" y="242.1" fill="#CCCCCC" width="12" height="0.6"/>
			<rect x="337.3" y="254.8" fill="none" stroke="#CCCCCC" stroke-miterlimit="10" width="25" height="3.9"/>
			<rect x="337" y="252.3" fill="#CCCCCC" width="12" height="0.6"/>
		</g>
		<rect x="346.2" y="230.5" fill="none" stroke="#CCCCCC" stroke-miterlimit="10" width="7.9" height="7.9"/>
	</g>
</g>
</svg>
