<?xml version="1.0" encoding="utf-8"?>
<!-- Generator: Adobe Illustrator 17.1.0, SVG Export Plug-In . SVG Version: 6.00 Build 0)  -->
<!DOCTYPE svg PUBLIC "-//W3C//DTD SVG 1.1//EN" "http://www.w3.org/Graphics/SVG/1.1/DTD/svg11.dtd">
<svg version="1.1" id="Layer_1" xmlns="http://www.w3.org/2000/svg" xmlns:xlink="http://www.w3.org/1999/xlink" x="0px" y="0px"
	 viewBox="0 0 490 620" enable-background="new 0 0 490 620" xml:space="preserve">
<rect x="2" fill="#0C96D4" width="384" height="512"/>
<rect x="1.6" fill="#FFFFFF" width="384" height="20.5"/>
<g>
	<text transform="matrix(1 0 0 1 150.1758 13.4453)" fill="#686969" font-family="'OpenSans-Light'" font-size="9">hp-enterprise.com</text>
</g>
<rect x="2" y="50" fill="#FFFFFF" width="384" height="393"/>
<g>
	<g>
		<text transform="matrix(1 0 0 1 143.0869 377.3623)" fill="#0C96D4" font-family="'OpenSans-Light'" font-size="12">Forgot password?</text>
	</g>
	<g>
		<text transform="matrix(1 0 0 1 149.9189 413.3623)" fill="#0C96D4" font-family="'OpenSans-Light'" font-size="12">Create account</text>
	</g>
	<g>
		<rect x="80.5" y="201.5" fill="none" stroke="#CCCCCC" stroke-miterlimit="10" width="225" height="27"/>
		<g>
			<text transform="matrix(1 0 0 1 80.0972 191.0625)" fill="#6F6F6F" font-family="'OpenSans-Light'" font-size="12">Username</text>
		</g>
		<text transform="matrix(1 0 0 1 90.8975 219.2617)" fill="#CCCCCC" font-family="'OpenSans'" font-size="12">joe.smith@hp.com</text>
		<rect x="80.5" y="264.5" fill="none" stroke="#CCCCCC" stroke-miterlimit="10" width="225" height="27"/>
		<rect x="81" y="309" fill="#0C96D4" width="225" height="32"/>
		<g>
			<text transform="matrix(1 0 0 1 80.0972 254.0625)" fill="#6F6F6F" font-family="'OpenSans-Light'" font-size="12">Password</text>
		</g>
		<text transform="matrix(1 0 0 1 171.6592 329.7422)" fill="#FFFFFF" font-family="'OpenSans-Bold'" font-size="14">Log In</text>
	</g>
	<g>
		<text transform="matrix(1 0 0 1 140.1187 154.7686)" fill="#6F6F6F" font-family="'OpenSans-Light'" font-size="16.2">Product Name</text>
	</g>
	<rect x="171.4" y="79.7" fill="none" stroke="#CCCCCC" stroke-width="0.9" stroke-miterlimit="10" width="45" height="44.9"/>
</g>
<polyline fill="none" stroke="#CCCCCC" stroke-miterlimit="10" points="1.5,512 1.5,0.5 385.5,0.5 385.5,512 "/>
<g>
	<rect x="279" y="247" fill="#FFFFFF" width="209" height="372"/>
	<g>
		<line fill="none" stroke="#CCCCCC" stroke-miterlimit="10" x1="280" y1="266.5" x2="489" y2="266.5"/>
		<rect x="299.5" y="390.5" fill="none" stroke="#CCCCCC" stroke-miterlimit="10" width="170" height="22"/>
		<g>
			<text transform="matrix(1 0 0 1 298.5498 379.8994)" fill="#6F6F6F" font-family="'OpenSans-Light'" font-size="12">Username</text>
		</g>
		<g>
			<text transform="matrix(1 0 0 1 334.8398 543.8994)" fill="#0C96D4" font-family="'OpenSans-Light'" font-size="12">Forgot password?</text>
		</g>
		<g>
			<text transform="matrix(1 0 0 1 341.6719 573.8994)" fill="#0C96D4" font-family="'OpenSans-Light'" font-size="12">Create account</text>
		</g>
		<text transform="matrix(1 0 0 1 310.5498 405.2324)" fill="#CCCCCC" font-family="'OpenSans'" font-size="11">joe.smith@hp.com</text>
		<rect x="299.5" y="448.5" fill="none" stroke="#CCCCCC" stroke-miterlimit="10" width="170" height="22"/>
		<rect x="299" y="485" fill="#0C96D4" width="170" height="30"/>
		<g>
			<text transform="matrix(1 0 0 1 298.5498 436.8994)" fill="#6F6F6F" font-family="'OpenSans-Light'" font-size="12">Password</text>
		</g>
		<text transform="matrix(1 0 0 1 359.5049 504.0996)" fill="#FFFFFF" font-family="'OpenSans-Bold'" font-size="14">Log In</text>
		<g>
			<text transform="matrix(1 0 0 1 340.2705 259.4453)" fill="#686969" font-family="'OpenSans-Light'" font-size="9">hp-enterprise.com</text>
		</g>
		<g>
			<text transform="matrix(1 0 0 1 339.2363 349.5732)" fill="#6F6F6F" font-family="'OpenSans-Light'" font-size="14">Product Name</text>
		</g>
	</g>
	<polyline fill="none" stroke="#CCCCCC" stroke-miterlimit="10" points="279.5,619 279.5,246.5 489.5,246.5 489.5,619 	"/>
	<rect x="369" y="296.1" fill="none" stroke="#CCCCCC" stroke-miterlimit="10" width="30" height="30"/>
	<rect x="279.8" y="599" fill="#0C96D4" width="210" height="20"/>
	<rect x="279.8" y="266" fill="#0C96D4" width="210" height="10"/>
</g>
</svg>
