<svg xmlns="http://www.w3.org/2000/svg" width="24" height="24" viewBox="0 0 24 24">
  <path fill="#000000" fill-rule="evenodd" d="M21.3413397,10.8818306 C21.0536477,10.586643 20.6516656,10.4307928 20.240889,10.4532797 L15.2692312,10.7300251 L18.0052553,7.61394921 C18.3950292,7.17007305 18.5063878,6.57836187 18.3556956,6.04962158 C18.2761749,5.68730702 18.0567601,5.35764679 17.7196784,5.1470264 C17.7093255,5.13964207 11.1796483,1.34639712 11.1796483,1.34639712 C10.6464551,1.03666345 9.9745924,1.10490356 9.5144633,1.51530903 L6.32480383,4.3605396 C5.73713734,4.8847157 5.68566967,5.78604924 6.20988288,6.37375285 C6.7341332,6.96138224 7.63550385,7.01299834 8.22313324,6.4886367 L10.6413343,4.33155889 L12.6404468,5.49245719 L9.11170191,9.51135093 C7.64845425,9.74998724 6.33189131,10.4242619 5.29838197,11.3964331 L7.14112481,13.2391759 C7.97414402,12.481744 9.0801979,12.0194256 10.2921928,12.0194256 C12.8773391,12.0194256 14.9805373,14.1226609 14.9805373,16.7078443 C14.9805373,17.9198392 14.5182189,19.0258189 13.7608612,19.8588381 L15.6034927,21.7015809 C16.8309984,20.3966696 17.5843485,18.6408318 17.5843485,16.7078443 C17.5843485,15.5562228 17.3169912,14.467164 16.8416111,13.4987407 L18.7660268,13.391538 L18.2978826,19.133875 C18.2338727,19.9187662 18.8183851,20.6068447 19.6033134,20.6709288 C19.6426099,20.6741201 19.6818322,20.6756415 19.7206834,20.6756415 C20.4556283,20.6756415 21.0795856,20.1109072 21.140293,19.3655352 L21.7411696,11.992894 C21.7747145,11.5820803 21.6288833,11.1769441 21.3413397,10.8818306 Z M18.7003471,4.7736539 C20.0185057,4.7736539 21.08697,3.70507827 21.08697,2.3868455 C21.08697,1.06868695 20.0185057,4.4408921e-16 18.7003471,4.4408921e-16 C17.3820401,4.4408921e-16 16.3135016,1.06868695 16.3135016,2.3868455 C16.3135016,3.70507827 17.382003,4.7736539 18.7003471,4.7736539 Z M5.60381122,16.7078072 C5.60381122,15.7335209 5.9027467,14.8279572 6.41337869,14.0773901 L4.5507464,12.2147949 C3.58020795,13.4533215 3,15.012417 3,16.7078072 C3,20.7352356 6.26480152,24 10.2922299,24 C11.9876943,24 13.5466414,23.419792 14.7851308,22.4492165 L12.9225357,20.5866955 C12.1720057,21.0971791 11.266442,21.3962259 10.2922299,21.3962259 C7.7070465,21.3962259 5.60381122,19.2929906 5.60381122,16.7078072 Z"/>
</svg>
