<?xml version="1.0" encoding="utf-8"?>
<!-- Generator: Adobe Illustrator 19.1.0, SVG Export Plug-In . SVG Version: 6.00 Build 0)  -->
<svg version="1.1" id="XMLID_232_" xmlns="http://www.w3.org/2000/svg" xmlns:xlink="http://www.w3.org/1999/xlink" x="0px" y="0px"
	 viewBox="0 0 48 48" enable-background="new 0 0 48 48" xml:space="preserve">
<g id="action">
	<rect id="_x2E_svg_82_" x="0" y="0" fill="none" width="48" height="48"/>
	<path fill="none" stroke="#231F20" stroke-width="2" stroke-miterlimit="10" d="M16.3088,32.1644l-0.5364-0.5391
		c-2.3631-2.3748-2.3631-6.2608,0-8.6356L16.7573,22L26,31.2883l-0.8719,0.8762C22.6928,34.6119,18.7442,34.6119,16.3088,32.1644z
		 M22.8719,15.8356L22,16.7117L31.2427,26l0.9849-0.9898c2.3631-2.3748,2.3631-6.2608,0-8.6356l-0.5364-0.5391
		C29.2559,13.3881,25.3073,13.3881,22.8719,15.8356z M25.71,26.54l3.04-3.04 M21.46,22.29l3.05-3.05 M31.9279,16.0722L35,13 M13,35
		l3.0722-3.0722"/>
</g>
</svg>
