<?xml version="1.0" encoding="utf-8"?>
<!-- Generator: Adobe Illustrator 19.1.0, SVG Export Plug-In . SVG Version: 6.00 Build 0)  -->
<svg version="1.1" id="XMLID_231_" xmlns="http://www.w3.org/2000/svg" xmlns:xlink="http://www.w3.org/1999/xlink" x="0px" y="0px"
	 viewBox="0 0 48 48" enable-background="new 0 0 48 48" xml:space="preserve">
<g id="aggregate">
	<rect id="_x2E_svg_83_" x="0" y="0" fill="none" width="48" height="48"/>
	<path fill="none" stroke="#231F20" stroke-width="2" stroke-miterlimit="10" d="M20.5,28c-4.1438,0-7.5-3.3562-7.5-7.5
		c0-4.1437,3.3562-7.5,7.5-7.5c4.1437,0,7.5,3.3563,7.5,7.5 M28,20h-8v8h8V20z M20,27.5c0,4.1437,3.3563,7.5,7.5,7.5
		s7.5-3.3563,7.5-7.5S31.6438,20,27.5,20 M28,20h-8v8h8V20z M28,20h-8v8h8V20z"/>
</g>
</svg>
