<?xml version="1.0" encoding="utf-8"?>
<!-- Generator: Adobe Illustrator 19.1.0, SVG Export Plug-In . SVG Version: 6.00 Build 0)  -->
<svg version="1.1" id="XMLID_163_" xmlns="http://www.w3.org/2000/svg" xmlns:xlink="http://www.w3.org/1999/xlink" x="0px" y="0px"
	 viewBox="0 0 48 48" enable-background="new 0 0 48 48" xml:space="preserve">
<g id="alarm">
	<rect id="_x2E_svg_151_" x="0" y="0" fill="none" width="48" height="48"/>
	<path fill="none" stroke="#231F20" stroke-width="2" stroke-miterlimit="10" d="M33,24c0,4.9706-4.0294,9-9,9s-9-4.0294-9-9
		s4.0294-9,9-9S33,19.0294,33,24z M18,30l-4,4 M30,30l4,4 M21.46,15.37C20.71,13.96,19.22,13,17.5,13c-2.49,0-4.5,2.01-4.5,4.5
		c0,1.72,0.96,3.21,2.37,3.96 M32.63,21.46C34.04,20.71,35,19.22,35,17.5c0-2.49-2.01-4.5-4.5-4.5c-1.72,0-3.21,0.96-3.96,2.37
		 M24,19v5l3,3"/>
</g>
</svg>
