<?xml version="1.0" encoding="utf-8"?>
<!-- Generator: Adobe Illustrator 17.1.0, SVG Export Plug-In . SVG Version: 6.00 Build 0)  -->
<!DOCTYPE svg PUBLIC "-//W3C//DTD SVG 1.1//EN" "http://www.w3.org/Graphics/SVG/1.1/DTD/svg11.dtd">
<svg version="1.1" id="XMLID_163_" xmlns="http://www.w3.org/2000/svg" xmlns:xlink="http://www.w3.org/1999/xlink" x="0px" y="0px"
	 viewBox="0 0 24 24" enable-background="new 0 0 24 24" xml:space="preserve">
<g id="alarm">
	<rect id="_x2E_svg_151_" fill="none" width="24" height="24"/>
	<path fill="none" stroke="#000000" stroke-width="2" stroke-miterlimit="10" d="M21,12c0,4.9706-4.0294,9-9,9s-9-4.0294-9-9
		s4.0294-9,9-9S21,7.0294,21,12z M6,18l-4,4 M18,18l4,4 M9.46,3.37C8.71,1.96,7.22,1,5.5,1C3.01,1,1,3.01,1,5.5
		c0,1.72,0.96,3.21,2.37,3.96 M20.63,9.46C22.04,8.71,23,7.22,23,5.5C23,3.01,20.99,1,18.5,1c-1.72,0-3.21,0.96-3.96,2.37 M12,7v5
		l3,3"/>
</g>
</svg>
