<?xml version="1.0" encoding="utf-8"?>
<!-- Generator: Adobe Illustrator 19.1.0, SVG Export Plug-In . SVG Version: 6.00 Build 0)  -->
<svg version="1.1" id="XMLID_310_" xmlns="http://www.w3.org/2000/svg" xmlns:xlink="http://www.w3.org/1999/xlink" x="0px" y="0px"
	 viewBox="0 0 48 48" enable-background="new 0 0 48 48" xml:space="preserve">
<g id="app">
	<rect id="_x2E_svg_4_" x="0" y="0" fill="none" width="48" height="48"/>
	<path fill="#231F20" d="M18,18h-4v-4h4V18z M26,14h-4v4h4V14z M34,14h-4v4h4V14z M18,22h-4v4h4V22z M26,22h-4v4h4V22z M34,22h-4v4
		h4V22z M18,30h-4v4h4V30z M26,30h-4v4h4V30z M34,30h-4v4h4V30z"/>
</g>
</svg>
