<svg width="24" height="24" viewBox="0 0 24 24">
  <path fill="none" stroke="#000" stroke-width="2" d="M3.11111111,7.55555556 C4.66955145,4.26701301 8.0700311,2 12,2 C17.5228475,2 22,6.4771525 22,12 C22,17.5228475 17.5228475,22 12,22 L12,22 C6.4771525,22 2,17.5228475 2,12 M2,4 L2,8 L6,8 M9,16 L9,9 L7,9.53333333 M17,12 C17,10 15.9999999,8.5 14.5,8.5 C13.0000001,8.5 12,10 12,12 C12,14 13,15.5000001 14.5,15.5 C16,15.4999999 17,14 17,12 Z M14.5,8.5 C16.9253741,8.5 17,11 17,12 C17,13 17,15.5 14.5,15.5 C12,15.5 12,13 12,12 C12,11 12.059,8.5 14.5,8.5 Z"/>
</svg>
