<?xml version="1.0" encoding="UTF-8" standalone="no"?>
<svg
   xmlns:dc="http://purl.org/dc/elements/1.1/"
   xmlns:cc="http://creativecommons.org/ns#"
   xmlns:rdf="http://www.w3.org/1999/02/22-rdf-syntax-ns#"
   xmlns:svg="http://www.w3.org/2000/svg"
   xmlns="http://www.w3.org/2000/svg"
   xml:space="preserve"
   enable-background="new 0 0 48 48"
   viewBox="0 0 48 48"
   y="0px"
   x="0px"
   id="XMLID_60_"
   version="1.1"><metadata
     id="metadata11"><rdf:RDF><cc:Work
         rdf:about=""><dc:format>image/svg+xml</dc:format><dc:type
           rdf:resource="http://purl.org/dc/dcmitype/StillImage" /><dc:title></dc:title></cc:Work></rdf:RDF></metadata><defs
     id="defs9" /><g
     id="carrot-next"><rect
       height="48"
       width="48"
       fill="none"
       id="_x2E_svg_254_" /></g><path
     id="path3344"
     d="m 9.2831959,24.395508 3.7148431,0 -2.96875,2.498047 0.644532,0.765625 3.878906,-3.263672 6.179687,0 0,6.304687 0.591797,-0.109374 c 0,0 4.264937,-0.796678 8.539062,-1.976563 2.137064,-0.589943 4.275671,-1.27372 5.91211,-2.017578 0.818219,-0.371929 1.511953,-0.755833 2.03125,-1.177735 0.519296,-0.4219 0.912968,-0.912883 0.910156,-1.52539 -0.0028,-0.610671 -0.402175,-1.095633 -0.923828,-1.509766 -0.521653,-0.414132 -1.216239,-0.788794 -2.035156,-1.15039 -1.637834,-0.723194 -3.774834,-1.38149 -5.910156,-1.947266 -4.270646,-1.131552 -8.527344,-1.882813 -8.527344,-1.882812 l -0.587891,-0.103516 0,6.095703 -6.027344,0 -4.031249,-3.390625 -0.644532,0.763672 3.121094,2.626953 -3.8671871,0 0,1 z m 12.4492181,5.074219 0,-10.953125 c 0.5049,0.09081 3.674765,0.657739 7.390625,1.61914 l 0,5.03125 1,0 0,-4.759765 c 1.923585,0.525018 3.817587,1.115507 5.232422,1.740234 0.773891,0.341715 1.407413,0.694838 1.816406,1.019531 0.408993,0.324693 0.544278,0.590145 0.544922,0.730469 6.62e-4,0.144117 -0.133451,0.414969 -0.541016,0.746094 -0.407564,0.331125 -1.041162,0.691463 -1.814453,1.042969 -0.474757,0.215805 -1.013905,0.427757 -1.578125,0.636718 l 0,-2.802734 -1,0 0,3.160156 c -1.010957,0.341749 -2.096035,0.667987 -3.185546,0.96875 -1.446441,0.399295 -2.757418,0.714994 -3.945313,0.988281 l 0.04687,-6.570312 -1,-0.0059 -0.04687,6.80664 c -1.533235,0.337652 -2.639587,0.548228 -2.919917,0.601563 z"
     style="color:#000000;font-style:normal;font-variant:normal;font-weight:normal;font-stretch:normal;font-size:medium;line-height:normal;font-family:sans-serif;text-indent:0;text-align:start;text-decoration:none;text-decoration-line:none;text-decoration-style:solid;text-decoration-color:#000000;letter-spacing:normal;word-spacing:normal;text-transform:none;direction:ltr;block-progression:tb;writing-mode:lr-tb;baseline-shift:baseline;text-anchor:start;white-space:normal;clip-rule:nonzero;display:inline;overflow:visible;visibility:visible;opacity:1;isolation:auto;mix-blend-mode:normal;color-interpolation:sRGB;color-interpolation-filters:linearRGB;solid-color:#000000;solid-opacity:1;fill:#000000;fill-opacity:1;fill-rule:evenodd;stroke:none;stroke-width:1px;stroke-linecap:butt;stroke-linejoin:miter;stroke-miterlimit:4;stroke-dasharray:none;stroke-dashoffset:0;stroke-opacity:1;color-rendering:auto;image-rendering:auto;shape-rendering:auto;text-rendering:auto;enable-background:accumulate" /></svg>