<?xml version="1.0" encoding="utf-8"?>
<!-- Generator: Adobe Illustrator 19.1.0, SVG Export Plug-In . SVG Version: 6.00 Build 0)  -->
<svg version="1.1" id="XMLID_251_" xmlns="http://www.w3.org/2000/svg" xmlns:xlink="http://www.w3.org/1999/xlink" x="0px" y="0px"
	 viewBox="0 0 48 48" enable-background="new 0 0 48 48" xml:space="preserve">
<g id="cloud">
	<rect id="_x2E_svg_63_" x="0" y="0" fill="none" width="48" height="48"/>
	<path fill="none" stroke="#231F20" stroke-width="2" stroke-miterlimit="10" d="M19.1,20v-1c0-2.2091,1.7909-4,4-4h3
		c2.2091,0,4,1.7909,4,4v1c2.7729,0,5,2.2219,5,4.9948S32.8521,30,30.0792,30H23.4 M24.7,20h-6.5792
		C15.3479,20,13.1,22.2375,13.1,25.0104S15.3271,30,18.1,30v1.1c0,2.2091,1.7909,4,4,4h3c2.2091,0,4-1.7909,4-4V31"/>
</g>
</svg>
