<?xml version="1.0" encoding="utf-8"?>
<!-- Generator: Adobe Illustrator 19.1.0, SVG Export Plug-In . SVG Version: 6.00 Build 0)  -->
<svg version="1.1" id="XMLID_161_" xmlns="http://www.w3.org/2000/svg" xmlns:xlink="http://www.w3.org/1999/xlink" x="0px" y="0px"
	 viewBox="0 0 48 48" enable-background="new 0 0 48 48" xml:space="preserve">
<g id="cubes">
	<rect id="_x2E_svg_153_" x="0" y="0" fill="none" width="48" height="48"/>
	<path fill="none" stroke="#231F20" stroke-width="2" stroke-miterlimit="10" d="M12,23.9545L18,21l6,2.9545v7.0909L18,34l-6-2.9545
		V23.9545z M12,23.9545l6,2.9545l6-2.9545 M18,27v7 M24,31.0455L30,34l6-2.9545v-7.0909L30,21l-6,2.9545V31.0455z M24,23.9545
		l6,2.9545l6-2.9545 M30,27v7 M18,21.0455L24,24l6-2.9545v-7.0909L24,11l-6,2.9545V21.0455z M18,13.9545l6,2.9545l6-2.9545 M24,17v7
		"/>
</g>
</svg>
