<?xml version="1.0" encoding="utf-8"?>
<!-- Generator: Adobe Illustrator 17.1.0, SVG Export Plug-In . SVG Version: 6.00 Build 0)  -->
<!DOCTYPE svg PUBLIC "-//W3C//DTD SVG 1.1//EN" "http://www.w3.org/Graphics/SVG/1.1/DTD/svg11.dtd">
<svg version="1.1" id="XMLID_257_" xmlns="http://www.w3.org/2000/svg" xmlns:xlink="http://www.w3.org/1999/xlink" x="0px" y="0px"
	 viewBox="0 0 25.027 24.7583" enable-background="new 0 0 25.027 24.7583" xml:space="preserve">
<g id="cycle">
	<rect id="_x2E_svg_52_" x="1.027" y="0" fill="none" width="24" height="24"/>
	<path fill="none" stroke="#000000" stroke-width="2" stroke-miterlimit="10" d="M15.9778,17.7125l-2.2097,3.9209l3.8266,2.2642
		 M6.5449,11.4374L4.3362,7.5158L0.509,9.779"/>
	<path fill="none" stroke="#000000" stroke-width="2" stroke-miterlimit="10" d="M16.6404,6.4261l4.4187,0.0263l0.0257-4.5277"/>
	<path fill="none" stroke="#000000" stroke-width="2" stroke-miterlimit="10" d="M15.0408,21.5
		c4.4091-0.9351,7.7172-4.8501,7.7172-9.5378c0-0.729-0.08-1.4393-0.2317-2.1226"/>
	<path fill="none" stroke="#000000" stroke-width="2" stroke-miterlimit="10" d="M3.8848,8.5153
		c-0.4051,1.0716-0.6268,2.2334-0.6268,3.4469c0,4.3751,2.8817,8.0772,6.8506,9.3117"/>
	<path fill="none" stroke="#000000" stroke-width="2" stroke-miterlimit="10" d="M20.3249,5.5179
		c-1.7867-2.027-4.4024-3.3057-7.3168-3.3057c-2.4341,0-4.6598,0.8919-6.3682,2.3668"/>
</g>
</svg>
