<?xml version="1.0" encoding="utf-8"?>
<!-- Generator: Adobe Illustrator 19.1.0, SVG Export Plug-In . SVG Version: 6.00 Build 0)  -->
<svg version="1.1" id="XMLID_256_" xmlns="http://www.w3.org/2000/svg" xmlns:xlink="http://www.w3.org/1999/xlink" x="0px" y="0px"
	 viewBox="0 0 48 48" enable-background="new 0 0 48 48" xml:space="preserve">
<g id="dashboard">
	<rect id="_x2E_svg_51_" x="0" y="0" fill="none" width="48" height="48"/>
	<path fill="none" stroke="#231F20" stroke-width="2" stroke-miterlimit="10" d="M35,24.5c0,6.0751-4.9249,11-11,11
		s-11-4.9249-11-11s4.9249-11,11-11S35,18.4249,35,24.5z M14,28.5h20 M27,27.5c0-1.6569-1.3431-3-3-3c-1.6569,0-3,1.3431-3,3
		 M24,24.5v-6 M24,16.5v-2 M29.6568,18.8431l1.4142-1.4142 M32,24.5h2 M18,18.8431l-1.4142-1.4142 M16,24.5h-2"/>
</g>
</svg>
