<?xml version="1.0" encoding="utf-8"?>
<!-- Generator: Adobe Illustrator 19.1.0, SVG Export Plug-In . SVG Version: 6.00 Build 0)  -->
<svg version="1.1" id="XMLID_137_" xmlns="http://www.w3.org/2000/svg" xmlns:xlink="http://www.w3.org/1999/xlink" x="0px" y="0px"
	 viewBox="0 0 48 48" enable-background="new 0 0 48 48" xml:space="preserve">
<g id="detach">
	<rect id="_x2E_svg_172_" x="0" y="0" fill="none" width="48" height="48"/>
	<path fill="none" stroke="#231F20" stroke-width="2" stroke-miterlimit="10" d="M28,18l-5,5 M25.83,25.83l6.18-6.19
		c1.55-1.54,1.55-4.05,0-5.6l-0.05-0.05c-1.55-1.55-4.06-1.55-5.6,0l-6.19,6.18 M21,25l-2.46,2.46c-0.77,0.77-0.77,2.03,0,2.8
		l0.03,0.03c0.77,0.77,2.03,0.77,2.8,0l2.46-2.46 M28.66,28.66l5-5 M18.17,22.17l-2.49,2.49c-2.32,2.32-2.32,6.08,0,8.4l0.09,0.08
		c2.32,2.32,6.08,2.32,8.4,0l2.49-2.48 M16,16l4.17,4.17L23,23l2.83,2.83l2.83,2.83L32,32"/>
</g>
</svg>
