<?xml version="1.0" encoding="utf-8"?>
<!-- Generator: Adobe Illustrator 17.1.0, SVG Export Plug-In . SVG Version: 6.00 Build 0)  -->
<!DOCTYPE svg PUBLIC "-//W3C//DTD SVG 1.1//EN" "http://www.w3.org/Graphics/SVG/1.1/DTD/svg11.dtd">
<svg version="1.1" id="XMLID_41_" xmlns="http://www.w3.org/2000/svg" xmlns:xlink="http://www.w3.org/1999/xlink" x="0px" y="0px"
	 viewBox="0 0 24 24" enable-background="new 0 0 24 24" xml:space="preserve">
<g id="document-outlook">
	<rect id="_x2E_svg_276_" x="0" y="0" fill="none" width="24" height="24"/>
	<polyline fill="none" stroke="#000000" stroke-width="2" stroke-miterlimit="10" points="4.4186,9 4.4186,1 17.4188,1 
		22.4186,5.9999 22.4186,23 3.4186,23 	"/>
	<polyline fill="none" stroke="#000000" stroke-width="2" stroke-miterlimit="10" points="16.4186,2 16.4186,7 22.4186,7 	"/>
	<path fill="none" stroke="#000000" stroke-width="2" stroke-miterlimit="10" d="M15.4186,7"/>
	<path d="M2.3379,15.4758v-0.0256c0-2.6643,1.653-4.75,4.094-4.75c2.4272,0,4.0674,2.0601,4.0674,4.7234v0.0266
		c0,2.6633-1.6402,4.75-4.0935,4.75C3.9519,20.2002,2.3379,18.1401,2.3379,15.4758z M8.4264,15.4758v-0.0256
		c0-1.6668-0.8137-2.9265-2.0206-2.9265c-1.2075,0-1.995,1.2203-1.995,2.8999v0.0266c0,1.6796,0.8009,2.9255,2.0211,2.9255
		S8.4264,17.1426,8.4264,15.4758z"/>
</g>
</svg>
