<?xml version="1.0" encoding="utf-8"?>
<!-- Generator: Adobe Illustrator 19.1.0, SVG Export Plug-In . SVG Version: 6.00 Build 0)  -->
<svg version="1.1" id="XMLID_38_" xmlns="http://www.w3.org/2000/svg" xmlns:xlink="http://www.w3.org/1999/xlink" x="0px" y="0px"
	 viewBox="0 0 48 48" enable-background="new 0 0 48 48" xml:space="preserve">
<g id="document-pdf">
	<rect id="_x2E_svg_273_" x="0" y="0" fill="none" width="48" height="48"/>
	<path fill="none" stroke="#231F20" stroke-width="2" stroke-miterlimit="10" d="M12.5,25v7 M14.5,29c1.1046,0,2-0.8954,2-2
		c0-1.1046-0.8954-2-2-2h-2v4H14.5z M19.5,31h3c1.1046,0,2-1.0945,2-2.2213V28v-0.7787c0-1.1055-0.8954-2.2213-2-2.2213h-3V31z"/>
	<line fill="none" stroke="#231F20" stroke-width="2" stroke-miterlimit="10" x1="32.5" y1="25" x2="26.5" y2="25"/>
	<line fill="none" stroke="#231F20" stroke-width="2" stroke-miterlimit="10" x1="27.5" y1="24" x2="27.5" y2="32"/>
	<line fill="none" stroke="#231F20" stroke-width="2" stroke-miterlimit="10" x1="31.5" y1="29" x2="26.5" y2="29"/>
	<polyline fill="none" stroke="#231F20" stroke-width="2" stroke-miterlimit="10" points="16.5,21 16.5,13 29.5002,13 34.5,17.9999 
		34.5,35 15.5,35 	"/>
	<polyline fill="none" stroke="#231F20" stroke-width="2" stroke-miterlimit="10" points="28.5,14 28.5,19 34.5,19 	"/>
	<path fill="none" stroke="#231F20" stroke-width="2" stroke-miterlimit="10" d="M27.5,19"/>
</g>
</svg>
