<?xml version="1.0" encoding="utf-8"?>
<!-- Generator: Adobe Illustrator 19.1.0, SVG Export Plug-In . SVG Version: 6.00 Build 0)  -->
<svg version="1.1" id="XMLID_42_" xmlns="http://www.w3.org/2000/svg" xmlns:xlink="http://www.w3.org/1999/xlink" x="0px" y="0px"
	 viewBox="0 0 48 48" enable-background="new 0 0 48 48" xml:space="preserve">
<g id="document-powerpoint">
	<rect id="_x2E_svg_277_" x="0" y="0" fill="none" width="48" height="48"/>
	<polyline fill="none" stroke="#231F20" stroke-width="2" stroke-miterlimit="10" points="16.5,21 16.5,13 29.5002,13 34.5,17.9999 
		34.5,35 15.5,35 	"/>
	<polyline fill="none" stroke="#231F20" stroke-width="2" stroke-miterlimit="10" points="28.5,14 28.5,19 34.5,19 	"/>
	<path fill="none" stroke="#231F20" stroke-width="2" stroke-miterlimit="10" d="M27.5,19"/>
	<g>
		<path fill="#231F20" d="M15.2898,22.9497h3.6772c2.1474,0,3.4459,1.2729,3.4459,3.1117v0.0261
			c0,2.0822-1.6201,3.1619-3.6385,3.1619h-1.5042v2.7003h-1.9803V22.9497z M18.8385,27.4888c0.9899,0,1.5684-0.592,1.5684-1.3637
			V26.1c0-0.8875-0.6171-1.3627-1.607-1.3627h-1.5298v2.7515H18.8385z"/>
	</g>
</g>
</svg>
