<?xml version="1.0" encoding="utf-8"?>
<!-- Generator: Adobe Illustrator 19.1.0, SVG Export Plug-In . SVG Version: 6.00 Build 0)  -->
<svg version="1.1" id="XMLID_41_" xmlns="http://www.w3.org/2000/svg" xmlns:xlink="http://www.w3.org/1999/xlink" x="0px" y="0px"
	 viewBox="0 0 48 48" enable-background="new 0 0 48 48" xml:space="preserve">
<g id="document-outlook">
	<rect id="_x2E_svg_276_" x="0" y="0" fill="none" width="48" height="48"/>
	<polyline fill="none" stroke="#231F20" stroke-width="2" stroke-miterlimit="10" points="16.4186,21 16.4186,13 29.4188,13 
		34.4186,17.9999 34.4186,35 15.4186,35 	"/>
	<polyline fill="none" stroke="#231F20" stroke-width="2" stroke-miterlimit="10" points="28.4186,14 28.4186,19 34.4186,19 	"/>
	<path fill="none" stroke="#231F20" stroke-width="2" stroke-miterlimit="10" d="M27.4186,19"/>
	<path fill="#231F20" d="M14.3379,27.4758v-0.0256c0-2.6643,1.653-4.75,4.094-4.75c2.4272,0,4.0674,2.0601,4.0674,4.7234v0.0266
		c0,2.6633-1.6402,4.75-4.0935,4.75C15.9519,32.2002,14.3379,30.1401,14.3379,27.4758z M20.4264,27.4758v-0.0256
		c0-1.6668-0.8137-2.9265-2.0206-2.9265c-1.2075,0-1.995,1.2203-1.995,2.8999v0.0266c0,1.6796,0.8009,2.9255,2.0211,2.9255
		S20.4264,29.1426,20.4264,27.4758z"/>
</g>
</svg>
