<?xml version="1.0" encoding="utf-8"?>
<!-- Generator: Adobe Illustrator 19.1.0, SVG Export Plug-In . SVG Version: 6.00 Build 0)  -->
<svg version="1.1" id="XMLID_36_" xmlns="http://www.w3.org/2000/svg" xmlns:xlink="http://www.w3.org/1999/xlink" x="0px" y="0px"
	 viewBox="0 0 48 48" enable-background="new 0 0 48 48" xml:space="preserve">
<g id="document-cloud">
	<rect id="_x2E_svg_271_" y="0" fill="none" width="48" height="48"/>
	<polyline fill="none" stroke="#231F20" stroke-width="2" stroke-miterlimit="10" points="16,18 16,13 29.0002,13 34,17.9999 34,35 
		27,35 	"/>
	<polyline fill="none" stroke="#231F20" stroke-width="2" stroke-miterlimit="10" points="28,14 28,19 34,19 	"/>
	<path fill="none" stroke="#231F20" stroke-width="2" stroke-miterlimit="10" d="M15.375,24.8537v-1c0-1.6569,1.3431-3,3-3h4
		c1.6569,0,3,1.3431,3,3v1h1c1.6569,0,3,1.3431,3,3v0c0,1.6569-1.3431,3-3,3h-6.3754"/>
	<path fill="none" stroke="#231F20" stroke-width="2" stroke-miterlimit="10" d="M24,30.8537v1c0,1.6569-1.3431,3-3,3h-3
		c-1.6569,0-3-1.3431-3-3v-1h-1c-1.6569,0-3-1.3431-3-3v0c0-1.6569,1.3431-3,3-3h6.375"/>
</g>
</svg>
