<?xml version="1.0" encoding="utf-8"?>
<!-- Generator: Adobe Illustrator 19.1.0, SVG Export Plug-In . SVG Version: 6.00 Build 0)  -->
<svg version="1.1" id="XMLID_80_" xmlns="http://www.w3.org/2000/svg" xmlns:xlink="http://www.w3.org/1999/xlink" x="0px" y="0px"
	 viewBox="0 0 48 48" enable-background="new 0 0 48 48" xml:space="preserve">
<g id="document-threat">
	<rect id="_x2E_svg_234_" x="0" y="0" fill="none" width="48" height="48"/>
	<path fill="none" stroke="#231F20" stroke-width="2" stroke-miterlimit="10" d="M16,16v-3h13.0002L34,17.9999V35h-9 M28,14v5h6
		 M16,24.72c-2,0.7933-3.2083,2.7067-3.2083,4.9467C12.7917,32.6133,15.3033,35,18.25,35s5.25-2.3867,5.25-5.3333
		c0-2.24-1.5-4.1533-3.5-4.9467v-0.3867V23h-4v1.3333V24.72z M25,19.6c0,0.8284-0.6716,1.5-1.5,1.5h-0.3333
		c-0.8284,0-1.5-0.6716-1.5-1.5v0c0-0.8284-0.6716-1.5-1.5-1.5H19.5c-0.8284,0-1.5,0.6716-1.5,1.5v2.5"/>
</g>
</svg>
