<?xml version="1.0" encoding="utf-8"?>
<!-- Generator: Adobe Illustrator 17.1.0, SVG Export Plug-In . SVG Version: 6.00 Build 0)  -->
<!DOCTYPE svg PUBLIC "-//W3C//DTD SVG 1.1//EN" "http://www.w3.org/Graphics/SVG/1.1/DTD/svg11.dtd">
<svg version="1.1" id="XMLID_38_" xmlns="http://www.w3.org/2000/svg" xmlns:xlink="http://www.w3.org/1999/xlink" x="0px" y="0px"
	 viewBox="0 0 24.5 24" enable-background="new 0 0 24.5 24" xml:space="preserve">
<g id="document-pdf">
	<rect id="_x2E_svg_273_" x="0.5" y="0" fill="none" width="24" height="24"/>
	<path fill="none" stroke="#000000" stroke-width="2" stroke-miterlimit="10" d="M1,13v7 M3,17c1.1046,0,2-0.8954,2-2s-0.8954-2-2-2
		H1v4H3z M8,19h3c1.1046,0,2-1.0945,2-2.2213V16v-0.7787C13,14.1158,12.1046,13,11,13H8V19z"/>
	<line fill="none" stroke="#000000" stroke-width="2" stroke-miterlimit="10" x1="21" y1="13" x2="15" y2="13"/>
	<line fill="none" stroke="#000000" stroke-width="2" stroke-miterlimit="10" x1="16" y1="12" x2="16" y2="20"/>
	<line fill="none" stroke="#000000" stroke-width="2" stroke-miterlimit="10" x1="20" y1="17" x2="15" y2="17"/>
	<polyline fill="none" stroke="#000000" stroke-width="2" stroke-miterlimit="10" points="5,9 5,1 18.0002,1 23,5.9999 23,23 4,23 	
		"/>
	<polyline fill="none" stroke="#000000" stroke-width="2" stroke-miterlimit="10" points="17,2 17,7 23,7 	"/>
	<path fill="none" stroke="#000000" stroke-width="2" stroke-miterlimit="10" d="M16,7"/>
</g>
</svg>
