<?xml version="1.0" encoding="utf-8"?>
<!-- Generator: Adobe Illustrator 19.1.0, SVG Export Plug-In . SVG Version: 6.00 Build 0)  -->
<svg version="1.1" id="XMLID_107_" xmlns="http://www.w3.org/2000/svg" xmlns:xlink="http://www.w3.org/1999/xlink" x="0px" y="0px"
	 viewBox="0 0 48 48" enable-background="new 0 0 48 48" xml:space="preserve">
<g id="folder-cycle">
	<rect id="_x2E_svg_202_" x="0" y="0" fill="none" width="48" height="48"/>
	<path fill="none" stroke="#231F20" stroke-width="2" stroke-miterlimit="10" d="M16,35h-3V17l0-4h8l3,4h11v18h-4 M13,21h22"/>
	<path fill="none" stroke="#231F20" stroke-width="2" stroke-miterlimit="10" d="M19,30c0-2.7614,2.2386-5,5-5
		c1.9848,0,3.6994,1.1565,4.5069,2.8323"/>
	<polygon fill="#231F20" points="25,29 30,29 30,24 	"/>
	<path fill="none" stroke="#231F20" stroke-width="2" stroke-miterlimit="10" d="M29,30c0,2.7614-2.2386,5-5,5
		c-1.9848,0-3.6994-1.1565-4.5069-2.8323"/>
	<polygon fill="#231F20" points="23,31 18,31 18,36 	"/>
</g>
</svg>
