<?xml version="1.0" encoding="utf-8"?>
<!-- Generator: Adobe Illustrator 19.1.0, SVG Export Plug-In . SVG Version: 6.00 Build 0)  -->
<svg version="1.1" id="XMLID_171_" xmlns="http://www.w3.org/2000/svg" xmlns:xlink="http://www.w3.org/1999/xlink" x="0px" y="0px"
	 viewBox="0 0 48 48" enable-background="new 0 0 48 48" xml:space="preserve">
<g id="globe">
	<rect id="_x2E_svg_146_" x="0" y="0" fill="none" width="48" height="48"/>
	<path fill="none" stroke="#231F20" stroke-width="2" stroke-miterlimit="10" d="M35,24c0,6.0751-4.9249,11-11,11s-11-4.9249-11-11
		s4.9249-11,11-11S35,17.9249,35,24z M14,21c0,0,4.125-0.25,5.4344,1.2308C20.4973,23.4327,20,24.7448,21,25l0,0
		c0,0,1.7237,0.3779,1.3,1.5804c-1.425,4.0446,2.6809,2.248,2.6809,5.3569c0,3.1145,3.2905,3.3569,3.2905,0.8664
		s2.2024-3.7329,2.2024-5.5993c0-1.8664-1.6845-2.1022-2.7988-2.7262C26.5606,23.8597,26.1589,23,24,23l0,0l0,0
		c-1.1199-1-1.5349-1.8913-1-3c0.546-1.1199,2.4332-1.0625,2.4332-3.8015c0-1.6714-1.4238-3.1434-2.5381-3.1434"/>
</g>
</svg>
