<?xml version="1.0" encoding="utf-8"?>
<!-- Generator: Adobe Illustrator 17.1.0, SVG Export Plug-In . SVG Version: 6.00 Build 0)  -->
<!DOCTYPE svg PUBLIC "-//W3C//DTD SVG 1.1//EN" "http://www.w3.org/Graphics/SVG/1.1/DTD/svg11.dtd">
<svg version="1.1" id="XMLID_106_" xmlns="http://www.w3.org/2000/svg" xmlns:xlink="http://www.w3.org/1999/xlink" x="0px" y="0px"
	 viewBox="0 0 24 24" enable-background="new 0 0 24 24" xml:space="preserve">
<g id="grid">
	<rect id="_x2E_svg_201_" x="0" y="0" fill="none" width="24" height="24"/>
	<path fill="none" stroke="#000000" stroke-width="2" stroke-miterlimit="10" d="M8.5,8.5h-7v-7h7V8.5z M15.5,1.5h-7v7h7V1.5z
		 M22.5,1.5h-7v7h7V1.5z M8.5,8.5h-7v7h7V8.5z M15.5,8.5h-7v7h7V8.5z M22.5,8.5h-7v7h7V8.5z M8.5,15.5h-7v7h7V15.5z M15.5,15.5h-7v7
		h7V15.5z M22.5,15.5h-7v7h7V15.5z"/>
</g>
</svg>
