<?xml version="1.0" encoding="utf-8"?>
<!-- Generator: Adobe Illustrator 19.1.0, SVG Export Plug-In . SVG Version: 6.00 Build 0)  -->
<svg version="1.1" id="XMLID_106_" xmlns="http://www.w3.org/2000/svg" xmlns:xlink="http://www.w3.org/1999/xlink" x="0px" y="0px"
	 viewBox="0 0 48 48" enable-background="new 0 0 48 48" xml:space="preserve">
<g id="grid">
	<rect id="_x2E_svg_201_" x="0" y="0" fill="none" width="48" height="48"/>
	<path fill="none" stroke="#231F20" stroke-width="2" stroke-miterlimit="10" d="M20.5,20.5h-7v-7h7V20.5z M27.5,13.5h-7v7h7V13.5z
		 M34.5,13.5h-7v7h7V13.5z M20.5,20.5h-7v7h7V20.5z M27.5,20.5h-7v7h7V20.5z M34.5,20.5h-7v7h7V20.5z M20.5,27.5h-7v7h7V27.5z
		 M27.5,27.5h-7v7h7V27.5z M34.5,27.5h-7v7h7V27.5z"/>
</g>
</svg>
