<?xml version="1.0" encoding="utf-8"?>
<!-- Generator: Adobe Illustrator 19.1.0, SVG Export Plug-In . SVG Version: 6.00 Build 0)  -->
<svg version="1.1" id="XMLID_125_" xmlns="http://www.w3.org/2000/svg" xmlns:xlink="http://www.w3.org/1999/xlink" x="0px" y="0px"
	 viewBox="0 0 48 48" enable-background="new 0 0 48 48" xml:space="preserve">
<g id="grow">
	<rect id="_x2E_svg_189_" fill="none" width="48" height="48"/>
	<path fill="none" stroke="#231F20" stroke-width="2" stroke-miterlimit="10" d="M24,17.9792v10 M25.4286,14.2037
		c-1.4154,1.2132-1.7745,2.9887-1.0978,4.4919c1.7537,0.58,3.8251,0.2722,5.2405-0.941c1.4154-1.2132,1.7745-2.9887,1.0978-4.4919
		C28.9154,12.6828,26.8441,12.9905,25.4286,14.2037z M17.3308,17.2627c-0.6766,1.5032-0.3176,3.2787,1.0978,4.4919
		c1.4154,1.2132,3.4868,1.521,5.2405,0.941c0.6766-1.5032,0.3176-3.2787-1.0978-4.4919
		C21.1559,16.9905,19.0846,16.6828,17.3308,17.2627z M29,27.9792H19l1,7h8L29,27.9792z M16,27.9792h16"/>
</g>
</svg>
