<?xml version="1.0" encoding="utf-8"?>
<!-- Generator: Adobe Illustrator 17.1.0, SVG Export Plug-In . SVG Version: 6.00 Build 0)  -->
<!DOCTYPE svg PUBLIC "-//W3C//DTD SVG 1.1//EN" "http://www.w3.org/Graphics/SVG/1.1/DTD/svg11.dtd">
<svg version="1.1" id="XMLID_125_" xmlns="http://www.w3.org/2000/svg" xmlns:xlink="http://www.w3.org/1999/xlink" x="0px" y="0px"
	 viewBox="0 0 24 24.0208" enable-background="new 0 0 24 24.0208" xml:space="preserve">
<g id="grow">
	<rect id="_x2E_svg_189_" y="0.0208" fill="none" width="24" height="24"/>
	<path fill="none" stroke="#000000" stroke-width="2" stroke-miterlimit="10" d="M12,6v10 M13.4287,2.2246
		c-1.4154,1.2132-1.7745,2.9887-1.0978,4.4919c1.7537,0.58,3.8251,0.2722,5.2405-0.941c1.4154-1.2132,1.7745-2.9887,1.0978-4.4919
		C16.9154,0.7036,14.8441,1.0113,13.4287,2.2246z M5.3308,5.2836C4.6542,6.7868,5.0132,8.5622,6.4287,9.7754
		s3.4868,1.521,5.2405,0.941c0.6766-1.5032,0.3176-3.2787-1.0978-4.4919S7.0846,4.7036,5.3308,5.2836z M17,16H7l1,7h8L17,16z M4,16
		h16"/>
</g>
</svg>
