<?xml version="1.0" encoding="utf-8"?>
<!-- Generator: Adobe Illustrator 19.1.0, SVG Export Plug-In . SVG Version: 6.00 Build 0)  -->
<svg version="1.1" id="XMLID_104_" xmlns="http://www.w3.org/2000/svg" xmlns:xlink="http://www.w3.org/1999/xlink" x="0px" y="0px"
	 viewBox="0 0 48 48" enable-background="new 0 0 48 48" xml:space="preserve">
<g id="host-maintenance">
	<rect id="_x2E_svg_217_" x="0" y="0" fill="none" width="48" height="48"/>
	<path fill="none" stroke="#231F20" stroke-width="2" stroke-miterlimit="10" d="M23.1,35H14V13h16v10 M15,20h14 M15,25h13.1 M15,30
		h11"/>
	<rect x="25" y="15" fill="#231F20" width="3" height="3"/>
	<path fill="#231F20" d="M35.3397,26.7645l-1.9941,1.9941l-1.4142-1.4142l1.994-1.994c-1.1101-0.5445-2.4819-0.3465-3.4083,0.5798
		c-0.9244,0.9244-1.1092,2.2919-0.5776,3.4064l-5.0793,5.079l1.4141,1.4141l5.0795-5.079c1.1144,0.5314,2.4817,0.3466,3.4061-0.5778
		C35.6861,29.2465,35.8842,27.8746,35.3397,26.7645z"/>
</g>
</svg>
