<?xml version="1.0" encoding="utf-8"?>
<!-- Generator: Adobe Illustrator 17.1.0, SVG Export Plug-In . SVG Version: 6.00 Build 0)  -->
<!DOCTYPE svg PUBLIC "-//W3C//DTD SVG 1.1//EN" "http://www.w3.org/Graphics/SVG/1.1/DTD/svg11.dtd">
<svg version="1.1" id="XMLID_104_" xmlns="http://www.w3.org/2000/svg" xmlns:xlink="http://www.w3.org/1999/xlink" x="0px" y="0px"
	 viewBox="0 0 24 24" enable-background="new 0 0 24 24" xml:space="preserve">
<g id="host-maintenance">
	<rect id="_x2E_svg_217_" x="0" fill="none" width="24" height="24"/>
	<path fill="none" stroke="#000000" stroke-width="2" stroke-miterlimit="10" d="M11.1,23H2V1h16v10 M3,8h14 M3,13h13.1 M3,18h11"/>
	<rect x="13" y="3" width="3" height="3"/>
	<path d="M23.3397,14.7645l-1.9941,1.9941l-1.4142-1.4142l1.994-1.994c-1.1101-0.5445-2.4819-0.3465-3.4083,0.5798
		c-0.9244,0.9244-1.1092,2.2919-0.5776,3.4064l-5.0793,5.079l1.4141,1.4141l5.0795-5.079c1.1144,0.5314,2.4817,0.3466,3.4061-0.5778
		C23.6861,17.2465,23.8842,15.8746,23.3397,14.7645z"/>
</g>
</svg>
