<?xml version="1.0" encoding="utf-8"?>
<!-- Generator: Adobe Illustrator 17.1.0, SVG Export Plug-In . SVG Version: 6.00 Build 0)  -->
<!DOCTYPE svg PUBLIC "-//W3C//DTD SVG 1.1//EN" "http://www.w3.org/Graphics/SVG/1.1/DTD/svg11.dtd">
<svg version="1.1" id="XMLID_103_" xmlns="http://www.w3.org/2000/svg" xmlns:xlink="http://www.w3.org/1999/xlink" x="0px" y="0px"
	 viewBox="0 0 24 25" enable-background="new 0 0 24 25" xml:space="preserve">
<g id="in-progress">
	<rect id="_x2E_svg_216_" x="0" y="0" fill="none" width="24" height="24"/>
	<path fill="none" stroke="#000000" stroke-width="2" stroke-miterlimit="10" d="M23.0002,24h-6.17h-9.75h-6.08h3.8896
		c-3.625-8.125,5.1104-8.0208,5.1104-11c0-3-8.625-2.875-5-11h-4h22h-3.8896c3.625,8.125-5.1104,8.0208-5.1104,11
		c0,3,8.625,2.875,5,11"/>
	<path d="M16.8302,24h-9.75c-0.31-1.54,0.23-2.4399,2.27-4.3201c0.78-0.72,1.79-1.53,2.7-2.76c0.91,1.23,1.9,2.0701,2.68,2.8
		C16.8402,21.6899,17.3102,21.97,16.8302,24z"/>
	<path d="M9.4466,7c-0.714,1.2603-0.6832,1.2753,0.9183,2.0747C10.8318,9.3075,11.4252,9.6038,11.9676,10
		c0.5494-0.3968,1.1516-0.6931,1.6247-0.9265C15.2657,8.2499,15.2525,8.2268,14.5575,7"/>
</g>
</svg>
