<?xml version="1.0" encoding="utf-8"?>
<!-- Generator: Adobe Illustrator 19.1.0, SVG Export Plug-In . SVG Version: 6.00 Build 0)  -->
<svg version="1.1" id="XMLID_68_" xmlns="http://www.w3.org/2000/svg" xmlns:xlink="http://www.w3.org/1999/xlink" x="0px" y="0px"
	 viewBox="0 0 48 48" enable-background="new 0 0 48 48" xml:space="preserve">
<g id="indicator">
	<rect id="_x2E_svg_239_" x="0" y="0" fill="none" width="48" height="48"/>
	<path fill="none" stroke="#231F20" stroke-width="2" stroke-miterlimit="10" d="M22,35v-3c0-3.0938-1.5745-5.6785-2.8975-7.0015
		C17.8184,23.7144,17,21.9536,17,19.9941c0-4.313,3.9007-7.7223,8.3667-6.8762c2.7529,0.5216,4.9634,2.7423,5.4984,5.4927
		c0.4874,2.5056-0.3875,4.8077-1.9677,6.3878C27.5745,26.3215,26,28.9062,26,32v3h-2H22z M24,17c-1.6569,0-3,1.3431-3,3
		s1.3431,3,3,3c1.6569,0,3-1.3431,3-3S25.6569,17,24,17z"/>
</g>
</svg>
