<?xml version="1.0" encoding="utf-8"?>
<!-- Generator: Adobe Illustrator 19.1.0, SVG Export Plug-In . SVG Version: 6.00 Build 0)  -->
<svg version="1.1" id="XMLID_233_" xmlns="http://www.w3.org/2000/svg" xmlns:xlink="http://www.w3.org/1999/xlink" x="0px" y="0px"
	 viewBox="0 0 48 48" enable-background="new 0 0 48 48" xml:space="preserve">
<g id="information">
	<rect id="_x2E_svg_80_" x="0" y="0" fill="none" width="48" height="48"/>
	<path fill="none" stroke="#231F20" stroke-width="2" stroke-miterlimit="10" d="M21,29.3705c0-1.6316-0.6658-3.1916-1.8455-4.3188
		C17.825,23.7815,17,21.992,17,20c0-3.922,3.2147-7.084,7.1565-6.9983c3.6551,0.0795,6.7296,3.125,6.8402,6.7793
		c0.0618,2.0431-0.744,3.8882-2.079,5.2009C27.7288,26.1508,27,27.7063,27,29.3736V30h-6V29.3705z M27,32v-2h-6v2
		c0,1.6569,1.3431,3,3,3h0C25.6569,35,27,33.6569,27,32z"/>
</g>
</svg>
