<?xml version="1.0" encoding="utf-8"?>
<!-- Generator: Adobe Illustrator 19.1.0, SVG Export Plug-In . SVG Version: 6.00 Build 0)  -->
<svg version="1.1" id="XMLID_135_" xmlns="http://www.w3.org/2000/svg" xmlns:xlink="http://www.w3.org/1999/xlink" x="0px" y="0px"
	 viewBox="0 0 48 48" enable-background="new 0 0 48 48" xml:space="preserve">
<g id="inherit">
	<rect id="_x2E_svg_170_" x="0" y="0" fill="none" width="48" height="48"/>
	<path fill="none" stroke="#231F20" stroke-width="2" stroke-miterlimit="10" d="M29,17.8333c0,2.7614-2.2386,5-5,5s-5-2.2386-5-5
		s2.2386-5,5-5S29,15.0719,29,17.8333z M16,28.8333c-1.6569,0-3,1.3431-3,3s1.3431,3,3,3s3-1.3431,3-3S17.6569,28.8333,16,28.8333z
		 M29,31.8333c0,1.6569,1.3431,3,3,3c1.6569,0,3-1.3431,3-3s-1.3431-3-3-3C30.3431,28.8333,29,30.1765,29,31.8333z M18.4,30.0333
		l5.6-3.2v-4 M29.6,30.0333l-5.6-3.2"/>
</g>
</svg>
