<?xml version="1.0" encoding="utf-8"?>
<!-- Generator: Adobe Illustrator 19.1.0, SVG Export Plug-In . SVG Version: 6.00 Build 0)  -->
<svg version="1.1" id="XMLID_291_" xmlns="http://www.w3.org/2000/svg" xmlns:xlink="http://www.w3.org/1999/xlink" x="0px" y="0px"
	 viewBox="0 0 48 48" enable-background="new 0 0 48 48" xml:space="preserve">
<g id="link">
	<rect id="_x2E_svg_23_" x="0" fill="none" width="48" height="48"/>
	<path fill="none" stroke="#231F20" stroke-width="2" stroke-miterlimit="10" d="M16.4792,34.6702l-2.9392-2.9392
		c-0.7199-0.7199-0.7199-1.8871,0-2.6071l4.5839-4.5839c0.7199-0.7199,1.8871-0.7199,2.6071,0l2.9392,2.9392
		c0.7199,0.7199,0.7199,1.8871,0,2.6071l-4.5839,4.5839C18.3663,35.3901,17.1991,35.3901,16.4792,34.6702z M29.8761,23.8803
		l4.5839-4.5839c0.7199-0.7199,0.7199-1.8871,0-2.6071L31.5208,13.75c-0.7199-0.7199-1.8871-0.7199-2.6071,0l-4.5839,4.5839
		c-0.7199,0.7199-0.7199,1.8871,0,2.6071l2.9392,2.9392C27.989,24.6002,29.1562,24.6002,29.8761,23.8803z M29,19.2101l-10,10"/>
</g>
</svg>
