<svg width="24" height="24" viewBox="0 0 24 24">
  <path fill="none" stroke="#000" stroke-width="2" d="M16,16 C16,14.8954305 12.8659932,14 9,14 C5.13400675,14 2,14.8954305 2,16 C2,17.1045695 5.13400675,18 9,18 C12.8659932,18 16,17.1045695 16,16 Z M2,16 L2,20.9367547 C2,22.0762536 5.13400675,23 9,23 C12.8659932,23 16,22.0762537 16,20.9367548 L16,16 M9,5 C4.581722,5 1,5.8954305 1,7 C1,8.1045695 4.581722,9 9,9 M1,7 L1,12.0000002 C1,13.0128881 4.581722,14 9,14 M23,4 C23,2.8954305 19.9004329,2 16.0769231,2 C12.2534133,2 9.15384615,2.8954305 9.15384615,4 C9.15384615,5.1045695 12.2534133,6 16.0769231,6 C19.9004329,6 23,5.1045695 23,4 Z M16,16 C19.8235098,16 23.0000002,15.0128879 23.0000002,14 L23,4 M9.15384615,3.99999999 L9.15384615,14.1660042 M8.99999999,9.00000001 C8.99999999,10.0128879 12.2534135,11 16.0769233,11 C19.9004331,11 23.0000004,10.0128879 23.0000004,9.00000001"/>
</svg>
