<?xml version="1.0" encoding="utf-8"?>
<!-- Generator: Adobe Illustrator 17.1.0, SVG Export Plug-In . SVG Version: 6.00 Build 0)  -->
<!DOCTYPE svg PUBLIC "-//W3C//DTD SVG 1.1//EN" "http://www.w3.org/Graphics/SVG/1.1/DTD/svg11.dtd">
<svg version="1.1" id="XMLID_194_" xmlns="http://www.w3.org/2000/svg" xmlns:xlink="http://www.w3.org/1999/xlink" x="0px" y="0px"
	 viewBox="0 0 24 24" enable-background="new 0 0 24 24" xml:space="preserve">
<g id="overview">
	<rect id="_x2E_svg_120_" y="0" fill="none" width="24" height="24"/>
	<circle fill="none" stroke="#000000" stroke-width="2" stroke-miterlimit="10" cx="18.5" cy="16.5" r="4.5"/>
	<line fill="none" stroke="#000000" stroke-width="2" stroke-miterlimit="10" x1="10" y1="7.1" x2="14" y2="7.1"/>
	<line fill="none" stroke="#000000" stroke-width="2" stroke-miterlimit="10" x1="10" y1="16.5" x2="14" y2="16.5"/>
	<path fill="none" stroke="#000000" stroke-width="2" stroke-miterlimit="10" d="M1.3684,14.7138C2.0597,13.1171,3.6494,12,5.5,12
		c2.4853,0,4.5,2.0147,4.5,4.5V6.1c0-1.3807-1.1193-2.5-2.5-2.5c-1.0888,0-2.015,0.696-2.358,1.6674l-3.7584,9.414L1.3684,14.7138z"
		/>
	<path fill="none" stroke="#000000" stroke-width="2" stroke-miterlimit="10" d="M22.6164,14.6814l-3.7584-9.414
		C18.515,4.296,17.5888,3.6,16.5,3.6c-1.3807,0-2.5,1.1193-2.5,2.5v10.4c0-2.4853,2.0147-4.5,4.5-4.5
		c1.8506,0,3.4403,1.1171,4.1315,2.7138L22.6164,14.6814z"/>
	<path fill="none" stroke="#000000" stroke-width="2" stroke-miterlimit="10" d="M10,16.5c0,2.4853-2.0147,4.5-4.5,4.5
		S1,18.9853,1,16.5S3.0147,12,5.5,12S10,14.0147,10,16.5z"/>
</g>
</svg>
