<?xml version="1.0" encoding="utf-8"?>
<!-- Generator: Adobe Illustrator 19.1.0, SVG Export Plug-In . SVG Version: 6.00 Build 0)  -->
<svg version="1.1" id="XMLID_194_" xmlns="http://www.w3.org/2000/svg" xmlns:xlink="http://www.w3.org/1999/xlink" x="0px" y="0px"
	 viewBox="0 0 48 48" enable-background="new 0 0 48 48" xml:space="preserve">
<g id="overview">
	<rect id="_x2E_svg_120_" x="0" y="0" fill="none" width="48" height="48"/>
	<path fill="none" stroke="#231F20" stroke-width="2" stroke-miterlimit="10" d="M22,28.5c0,2.4853-2.0147,4.5-4.5,4.5
		S13,30.9853,13,28.5s2.0147-4.5,4.5-4.5S22,26.0147,22,28.5z M30.5,24c-2.4853,0-4.5,2.0147-4.5,4.5s2.0147,4.5,4.5,4.5
		c2.4853,0,4.5-2.0147,4.5-4.5S32.9853,24,30.5,24z M22,27.1l-1-11h-4l-4,11.375V28.1 M35,28.1v-0.625L31,16.1h-4l-1,11 M22,19.1h4
		 M22,27.1h5"/>
</g>
</svg>
