<?xml version="1.0" encoding="utf-8"?>
<!-- Generator: Adobe Illustrator 19.1.0, SVG Export Plug-In . SVG Version: 6.00 Build 0)  -->
<svg version="1.1" id="XMLID_21_" xmlns="http://www.w3.org/2000/svg" xmlns:xlink="http://www.w3.org/1999/xlink" x="0px" y="0px"
	 viewBox="0 0 48 48" enable-background="new 0 0 48 48" xml:space="preserve">
<g id="payment-square">
	<rect id="_x2E_svg_292_" x="0" fill="none" width="48" height="48"/>
	<path fill="none" stroke="#000000" stroke-width="4" stroke-miterlimit="10" d="M29,32.8844H19c-2.2091,0-4-1.7909-4-4v-10
		c0-2.2091,1.7909-4,4-4h10c2.2091,0,4,1.7909,4,4v10C33,31.0936,31.2091,32.8844,29,32.8844z"/>
	<path d="M26,20.8844h-4c-0.5523,0-1,0.4477-1,1v4c0,0.5523,0.4477,1,1,1h4c0.5523,0,1-0.4477,1-1v-4
		C27,21.3322,26.5523,20.8844,26,20.8844z"/>
</g>
</svg>
