<?xml version="1.0" encoding="utf-8"?>
<!-- Generator: Adobe Illustrator 17.1.0, SVG Export Plug-In . SVG Version: 6.00 Build 0)  -->
<!DOCTYPE svg PUBLIC "-//W3C//DTD SVG 1.1//EN" "http://www.w3.org/Graphics/SVG/1.1/DTD/svg11.dtd">
<svg version="1.1" id="XMLID_16_" xmlns="http://www.w3.org/2000/svg" xmlns:xlink="http://www.w3.org/1999/xlink" x="0px" y="0px"
	 viewBox="0 0 24.5814 24.5701" enable-background="new 0 0 24.5814 24.5701" xml:space="preserve">
<g id="platform-firefox">
	<rect id="_x2E_svg_301_" x="0.5814" y="0" fill="none" width="24" height="24"/>
	<path d="M23.9654,9.7423l-0.278,1.7831c0,0-0.3974-3.3013-0.8843-4.5355c-0.7464-1.8911-1.0785-1.8759-1.0807-1.8732
		c0.4999,1.2704,0.4093,1.9529,0.4093,1.9529s-0.8857-2.414-3.2276-3.1821c-2.5942-0.8504-3.9977-0.6179-4.1599-0.5739
		c-0.0246-0.0002-0.0484-0.0002-0.071-0.0002c0.0192,0.0015,0.0378,0.0034,0.0569,0.005c-0.0008,0.0005-0.0021,0.001-0.0021,0.001
		c0.0107,0.0131,2.8667,0.4995,3.3732,1.1955c0,0-1.2131,0-2.4204,0.3479c-0.0546,0.0156,4.442,0.5617,5.3612,5.0549
		c0,0-0.4929-1.0283-1.1025-1.203c0.4009,1.2196,0.298,3.5338-0.0838,4.684c-0.0491,0.1479-0.0994-0.6394-0.8514-0.9785
		c0.2409,1.7261-0.0144,4.4638-1.2119,5.2179c-0.0933,0.0587,0.7507-2.7026,0.1697-1.635c-3.3447,5.1282-7.2985,2.3665-9.0761,1.151
		c0.9109,0.1983,2.6403-0.0309,3.4058-0.6003c0.001-0.0007,0.0018-0.0013,0.0028-0.002c0.8313-0.5684,1.3236-0.9835,1.7656-0.8853
		c0.4424,0.0988,0.7368-0.3451,0.3933-0.739c-0.344-0.3946-1.1792-0.937-2.3092-0.6414c-0.7969,0.2087-1.7844,1.0904-3.2917,0.1976
		c-1.157-0.6855-1.2659-1.255-1.2762-1.6494c0.0285-0.1398,0.0645-0.2704,0.1072-0.3896c0.1332-0.372,0.537-0.4842,0.7616-0.5728
		c0.381,0.0654,0.7093,0.1843,1.0539,0.3611c0.0045-0.1147,0.0059-0.267-0.0004-0.4397c0.033-0.0657,0.0126-0.2637-0.0404-0.5058
		c-0.0305-0.2416-0.0802-0.4916-0.1582-0.7193c0.0003,0,0.0005-0.0002,0.0005-0.0002c0.0015-0.0005,0.0028-0.001,0.0039-0.0017
		c0.0018-0.001,0.0034-0.0026,0.0049-0.0045C9.3096,10.5612,9.31,10.5609,9.31,10.5609c0.0023-0.0033,0.0039-0.0068,0.005-0.0113
		c0.0239-0.1082,0.2818-0.317,0.6028-0.5414C10.2054,9.807,10.5436,9.5934,10.81,9.428c0.2358-0.1464,0.4153-0.255,0.4534-0.2835
		c0.0145-0.0109,0.0318-0.0237,0.0507-0.0383c0.0035-0.0027,0.007-0.0054,0.0106-0.0083c0.0022-0.0017,0.0045-0.0035,0.0067-0.0053
		c0.1268-0.101,0.316-0.2917,0.3557-0.6932c0.0001-0.001,0.0002-0.0019,0.0003-0.0029c0.0012-0.0118,0.0022-0.0238,0.003-0.036
		c0.0007-0.0085,0.0012-0.017,0.0017-0.0257c0.0003-0.0067,0.0007-0.0133,0.001-0.0201c0.0007-0.0158,0.0012-0.032,0.0014-0.0484
		c0-0.0009,0-0.0018,0.0001-0.0027c0.0005-0.0389-0.0001-0.0794-0.0024-0.1219c-0.0013-0.0238-0.003-0.0452-0.007-0.0647
		c-0.0002-0.001-0.0004-0.0022-0.0007-0.0032c-0.0004-0.0019-0.0008-0.0038-0.0014-0.0057
		c-0.0008-0.0034-0.0018-0.0068-0.0029-0.0101c0,0-0.0002-0.0008-0.0004-0.0011c-0.0012-0.0037-0.0026-0.0074-0.0041-0.0109
		l-0.0001-0.0004c-0.0411-0.0963-0.195-0.1326-0.8307-0.1434c0,0-0.0012,0-0.0018,0l0,0c-0.2594-0.0044-0.5985-0.0045-1.043-0.0028
		c-0.7793,0.0031-1.21-0.7618-1.3475-1.0578c0.1884-1.042,0.733-1.7846,1.6277-2.2881c0.0169-0.0095,0.0136-0.0174-0.0064-0.0229
		c0.1749-0.1058-2.1151-0.0029-3.1684,1.3368C5.9709,5.6351,5.1561,5.6507,4.4538,5.8155C4.319,5.8117,4.1509,5.7949,3.9515,5.7534
		C3.4845,5.3302,2.816,4.5486,2.7802,3.6157c0,0-0.0022,0.0017-0.0059,0.0048c-0.0005-0.009-0.0013-0.0178-0.0017-0.0268
		c0,0-1.423,1.0937-1.21,4.0754C1.562,7.7168,1.561,7.7625,1.5597,7.8067C1.1746,8.3291,0.9835,8.7681,0.9693,8.8651
		C0.628,9.5599,0.2818,10.6054,0,12.1927c0,0,0.1971-0.625,0.5926-1.3328c-0.2909,0.8911-0.5195,2.2771-0.3852,4.356
		c0,0,0.0355-0.4609,0.1611-1.1249c0.0981,1.2893,0.5278,2.881,1.6139,4.7528c2.0847,3.5934,5.2891,5.408,8.8311,5.6863
		c0.629,0.0518,1.2668,0.0531,1.9084,0.0044c0.059-0.0042,0.1179-0.0085,0.177-0.0135c0.7257-0.051,1.4563-0.1606,2.1853-0.3367
		C25.0489,21.7751,23.9654,9.7423,23.9654,9.7423z"/>
</g>
</svg>
