<svg width="24" height="24" viewBox="0 0 24 24">
  <path fill-rule="evenodd" d="M9.58411114,23.9245755 C13.9059831,24.2012056 20.5433377,23.7709763 20.7003474,21.7260608 C20.7003474,21.7260608 20.3983279,22.5012567 17.128282,23.116664 C13.4395014,23.8108919 8.88963059,23.7300502 6.19103426,23.2849157 C6.19103426,23.2849157 6.74353662,23.7424291 9.58411114,23.9245755 M14.2515813,0.000111961144 C15.2576813,3.96274374 10.7046526,5.15894797 9.06104021,7.62676656 C7.94125663,9.30814718 9.610511,11.1145798 11.8850675,13.1666953 C10.9980826,11.1620743 7.9902669,9.40755719 11.8864569,6.33064706 C16.7452945,2.49458304 14.2515813,0.000111961144 14.2515813,0.000111961144 M16.966346,17.5843141 C16.945504,17.6397665 16.875778,17.7021662 16.875778,17.7021662 C22.8893885,16.1213324 20.6786212,12.1297744 17.8039416,13.1402954 C17.5514376,13.2299792 17.4191857,13.4372623 17.4191857,13.4372623 C17.4191857,13.4372623 17.5777112,13.3728416 17.9344251,13.2985683 C19.3873017,12.9959172 21.4692275,15.2443265 16.966346,17.5843141 M9.14137663,13.2105266 C9.14137663,13.2105266 7.44749081,13.0960851 5.3645544,14.1033219 C2.90090421,15.2948525 11.4577434,15.8368707 15.8872359,14.6718663 C16.3479071,14.3573417 16.984409,14.0847536 16.984409,14.0847536 C16.984409,14.0847536 15.1715344,14.4086256 13.3663649,14.5608353 C11.1578713,14.745887 8.78655745,14.7818868 7.59704792,14.6226034 C4.77971538,14.246437 9.14137663,13.2105266 9.14137663,13.2105266 M19.1800185,20.5038356 C19.1800185,20.5038356 19.8589623,21.0630327 18.4326119,21.4960409 C15.7206262,22.3174682 7.14534503,22.5655511 4.76329441,21.5286302 C3.90713049,21.1560006 5.51272204,20.6391191 6.01823517,20.5306144 C6.54496924,20.4166782 6.84585187,20.4376465 6.84585187,20.4376465 C5.89343583,19.7669132 0.690515845,21.7549869 4.20296052,22.3241629 C13.7821943,23.8778389 21.6648897,21.6248824 19.1800185,20.5038356 M12.9663249,11.4757147 C14.1241294,12.8084656 12.6621581,14.007954 12.6621581,14.007954 C12.6621581,14.007954 15.6017637,12.4904041 14.2515813,10.5899931 C12.9908301,8.8180445 12.0241404,7.93762808 17.2585129,4.90177037 C17.2585129,4.90177037 9.04221926,6.95388589 12.9663249,11.4757147 M8.12630829,15.9329965 C4.06123495,17.2820421 10.3879806,18.8119708 16.0686244,17.1511796 C15.4649644,16.938086 15.0810927,16.5491617 15.0810927,16.5491617 C12.30456,17.0834747 10.7003579,17.0664221 8.66883175,16.8569917 C7.09772423,16.6941715 8.12630829,15.9329965 8.12630829,15.9329965 M8.70053685,18.5603511 C8.70053685,18.5603511 7.78336272,19.0937799 9.35333341,19.2744105 C11.2550076,19.4911673 12.2271288,19.4602201 14.3229494,19.0634643 C14.3229494,19.0634643 14.8736833,19.4089361 15.6434477,19.7080503 C10.9451566,21.7217661 5.01011416,19.5915878 8.70053685,18.5603511"/>
</svg>
