<?xml version="1.0" encoding="utf-8"?>
<!-- Generator: Adobe Illustrator 19.1.0, SVG Export Plug-In . SVG Version: 6.00 Build 0)  -->
<svg version="1.1" id="XMLID_9_" xmlns="http://www.w3.org/2000/svg" xmlns:xlink="http://www.w3.org/1999/xlink" x="0px" y="0px"
	 viewBox="0 0 48 48" enable-background="new 0 0 48 48" xml:space="preserve">
<g id="platform-dropbox">
	<rect id="_x2E_svg_295_" fill="none" width="48" height="48"/>
	<polygon points="27.9955,13.8917 24,15.8961 32.006,19.8976 35.997,17.8961 	"/>
	<polygon points="27.9955,27.5735 27.3264,27.2404 23.991,25.5675 20.6751,27.23 20.006,27.5646 19.3383,27.2315 15.994,25.5601 
		15.994,30.997 24,35.0014 24,34.9865 32.006,30.9865 32.006,25.569 28.6647,27.2404 	"/>
	<polygon points="20.006,25.8947 24,23.8917 16.0149,19.8976 24,15.9066 20.006,13.9036 11.997,17.9051 15.9746,19.8976 
		11.997,21.8902 	"/>
	<polygon points="24,23.9021 27.9955,25.9036 35.997,21.9021 32.006,19.8976 	"/>
</g>
</svg>
