<?xml version="1.0" encoding="utf-8"?>
<!-- Generator: Adobe Illustrator 17.1.0, SVG Export Plug-In . SVG Version: 6.00 Build 0)  -->
<!DOCTYPE svg PUBLIC "-//W3C//DTD SVG 1.1//EN" "http://www.w3.org/Graphics/SVG/1.1/DTD/svg11.dtd">
<svg version="1.1" id="XMLID_70_" xmlns="http://www.w3.org/2000/svg" xmlns:xlink="http://www.w3.org/1999/xlink" x="0px" y="0px"
	 viewBox="0 0 24 24" enable-background="new 0 0 24 24" xml:space="preserve">
<g id="quick-view">
	<rect id="_x2E_svg_244_" y="0" fill="none" width="24" height="24"/>
	<path fill="none" stroke="#000000" stroke-width="2" stroke-miterlimit="10" d="M10,16.5c0,2.4853-2.0147,4.5-4.5,4.5
		S1,18.9853,1,16.5S3.0147,12,5.5,12S10,14.0147,10,16.5z M18.5,12c-2.4853,0-4.5,2.0147-4.5,4.5s2.0147,4.5,4.5,4.5
		s4.5-2.0147,4.5-4.5S20.9853,12,18.5,12z M14,16c0-1.1046-0.8954-2-2-2s-2,0.8954-2,2 M6,3L6,3C3.2386,3,1,5.2386,1,8v8 M23,16V8
		c0-2.7614-2.2386-5-5-5h0"/>
</g>
</svg>
