<?xml version="1.0" encoding="utf-8"?>
<!-- Generator: Adobe Illustrator 19.1.0, SVG Export Plug-In . SVG Version: 6.00 Build 0)  -->
<svg version="1.1" id="XMLID_70_" xmlns="http://www.w3.org/2000/svg" xmlns:xlink="http://www.w3.org/1999/xlink" x="0px" y="0px"
	 viewBox="0 0 48 48" enable-background="new 0 0 48 48" xml:space="preserve">
<g id="quick-view">
	<rect id="_x2E_svg_244_" x="0" y="0" fill="none" width="48" height="48"/>
	<path fill="none" stroke="#231F20" stroke-width="2" stroke-miterlimit="10" d="M22,28.5c0,2.4853-2.0147,4.5-4.5,4.5
		S13,30.9853,13,28.5s2.0147-4.5,4.5-4.5S22,26.0147,22,28.5z M30.5,24c-2.4853,0-4.5,2.0147-4.5,4.5s2.0147,4.5,4.5,4.5
		s4.5-2.0147,4.5-4.5S32.9853,24,30.5,24z M26,28c0-1.1046-0.8954-2-2-2c-1.1046,0-2,0.8954-2,2 M18,15L18,15
		c-2.7614,0-5,2.2386-5,5v8 M35,28v-8c0-2.7614-2.2386-5-5-5h0"/>
</g>
</svg>
