<?xml version="1.0" encoding="utf-8"?>
<!-- Generator: Adobe Illustrator 17.1.0, SVG Export Plug-In . SVG Version: 6.00 Build 0)  -->
<!DOCTYPE svg PUBLIC "-//W3C//DTD SVG 1.1//EN" "http://www.w3.org/Graphics/SVG/1.1/DTD/svg11.dtd">
<svg version="1.1" id="XMLID_168_" xmlns="http://www.w3.org/2000/svg" xmlns:xlink="http://www.w3.org/1999/xlink" x="0px" y="0px"
	 viewBox="0 0 25 24.9467" enable-background="new 0 0 25 24.9467" xml:space="preserve">
<g id="satellite">
	<rect id="_x2E_svg_143_" x="1" y="0" fill="none" width="24" height="24"/>
	<path fill="none" stroke="#000000" stroke-width="2" stroke-miterlimit="10" d="M22,17.9467c-4.1421,4.1421-10.8579,4.1421-15,0
		s-4.1421-10.8579,0-15L22,17.9467z M7.015,18.0467c-3.31,0-6.015,2.9-6.015,5.9h12c0-1.12-0.37-2-1.02-3H12 M15,9.9467l4-4
		 M20.5,1.9467c-1.3807,0-2.5,1.1193-2.5,2.5s1.1193,2.5,2.5,2.5s2.5-1.1193,2.5-2.5S21.8807,1.9467,20.5,1.9467z"/>
</g>
</svg>
