<?xml version="1.0" encoding="utf-8"?>
<!-- Generator: Adobe Illustrator 19.1.0, SVG Export Plug-In . SVG Version: 6.00 Build 0)  -->
<svg version="1.1" id="XMLID_96_" xmlns="http://www.w3.org/2000/svg" xmlns:xlink="http://www.w3.org/1999/xlink" x="0px" y="0px"
	 viewBox="0 0 48 48" enable-background="new 0 0 48 48" xml:space="preserve">
<g id="schedule-play">
	<rect id="_x2E_svg_214_" x="0" y="0" fill="none" width="48" height="48"/>
	<path fill="none" stroke="#231F20" stroke-width="2" stroke-miterlimit="10" d="M24.5,32h-11V16h16v9 M14.5,20h14 M17.5,16v-3
		 M26.5,24h-6 M18.5,24h-2 M24.5,28h-4 M18.5,28h-2 M25.5,16v-3 M30,25c-3.0376,0-5.5,2.4624-5.5,5.5S26.9624,36,30,36
		s5.5-2.4624,5.5-5.5S33.0376,25,30,25z"/>
	<path fill="#231F20" d="M28.5,27.5c0.0521,0.0469,0,6,0,6l5-3L28.5,27.5z"/>
</g>
</svg>
