<?xml version="1.0" encoding="utf-8"?>
<!-- Generator: Adobe Illustrator 19.1.0, SVG Export Plug-In . SVG Version: 6.00 Build 0)  -->
<svg version="1.1" id="XMLID_95_" xmlns="http://www.w3.org/2000/svg" xmlns:xlink="http://www.w3.org/1999/xlink" x="0px" y="0px"
	 viewBox="0 0 48 48" enable-background="new 0 0 48 48" xml:space="preserve">
<g id="service-start">
	<rect id="_x2E_svg_215_" x="0" y="0" fill="none" width="48" height="48"/>
	<path fill="#231F20" d="M18,17.5c0.0521,0.0469,0,6,0,6l5-3L18,17.5z"/>
	<path fill="none" stroke="#231F20" stroke-width="2" stroke-miterlimit="10" d="M23.28,24.3c0.01,0,0.02,0,0.03,0.01
		c0.03,0.01,0.06,0.04,0.09,0.06c0.02,0.02,0.05,0.04,0.07,0.05c1.55,0.51,2.79,1.48,3.36,3.31c0.03,0.08,0.05,0.18,0.08,0.27h0.01
		c0.18,0,0.28,1.01,0.28,1.62c0,3.04-2.46,5.38-5.5,5.38s-5.5-2.46-5.5-5.5c0-1.48,0.58-2.82,1.53-3.8 M24.65,18.5799
		C23.88,16.49,21.86,15,19.5,15c-3.04,0-5.5,2.46-5.5,5.5c0,2.42,1.56,4.47,3.73,5.2c0.55,0.2,1.15,0.3,1.77,0.3
		c1.5,0,2.86-0.6,3.85-1.58c0.02-0.01,0.04-0.03,0.05-0.05c0.99-0.99,1.6-2.36,1.6-3.87C25,19.82,24.88,19.17,24.65,18.5799z
		 M23.28,24.24c0.01,0.02,0.02,0.05,0.03,0.07c0.01,0.04,0.02,0.07,0.04,0.11 M26.83,27.73c0.03,0.01,0.06,0.02,0.09,0.03
		c0.5,0.16,1.03,0.24,1.58,0.24c3.04,0,5.5-2.46,5.5-5.5S31.54,17,28.5,17c-1.5,0-2.86,0.6-3.85,1.58"/>
</g>
</svg>
