<?xml version="1.0" encoding="utf-8"?>
<!-- Generator: Adobe Illustrator 19.1.0, SVG Export Plug-In . SVG Version: 6.00 Build 0)  -->
<svg version="1.1" id="XMLID_93_" xmlns="http://www.w3.org/2000/svg" xmlns:xlink="http://www.w3.org/1999/xlink" x="0px" y="0px"
	 viewBox="0 0 48 48" enable-background="new 0 0 48 48" xml:space="preserve">
<g id="sheild-configure">
	<rect id="_x2E_svg_221_" x="0" y="0" fill="none" width="48" height="48"/>
	<path fill="none" stroke="#231F20" stroke-width="2" stroke-miterlimit="10" d="M24.0002,26.15c-1.6545,0-3-1.3458-3-3
		s1.3455-3,3-3s3,1.3458,3,3S25.6547,26.15,24.0002,26.15z M30.0002,23.15l-3,0.0001 M28.2428,27.3926l-2.1214-2.1212 M24,26.15
		l0.0001,3 M21.8787,25.2712l-2.1212,2.1214 M18.0002,23.15h3 M21.8788,21.0287l-2.1213-2.1213 M24.0002,20.15v-3 M26.1215,21.0287
		l2.1213-2.1213 M24.0002,13.15l-9,4.4v2.864c0,4.2846,1.8322,8.3646,5.0345,11.2111l3.9655,3.2249l3.9655-3.2249
		c3.2023-2.8465,5.0345-6.9266,5.0345-11.2111V17.55L24.0002,13.15z"/>
</g>
</svg>
