<?xml version="1.0" encoding="utf-8"?>
<!-- Generator: Adobe Illustrator 19.1.0, SVG Export Plug-In . SVG Version: 6.00 Build 0)  -->
<svg version="1.1" id="XMLID_91_" xmlns="http://www.w3.org/2000/svg" xmlns:xlink="http://www.w3.org/1999/xlink" x="0px" y="0px"
	 viewBox="0 0 48 48" enable-background="new 0 0 48 48" xml:space="preserve">
<g id="soa">
	<rect id="_x2E_svg_223_" fill="none" width="48" height="48"/>
	<path fill="none" stroke="#231F20" stroke-width="2" stroke-miterlimit="10" d="M18,21.15c-1.6545,0-3-1.3458-3-3s1.3455-3,3-3
		s3,1.3458,3,3S19.6545,21.15,18,21.15z M21,18.1501l3-0.0001 M22.2426,22.3926l-2.1214-2.1212 M18,24.15l-0.0001-3
		 M15.8786,20.2712l-2.1212,2.1214 M12,18.15h3 M13.7574,13.9074l2.1213,2.1213 M18,15.15v-3 M20.1213,16.0287l2.1213-2.1213
		 M34,23.15c0-1.6542-1.3455-3-3-3s-3,1.3458-3,3s1.3455,3,3,3S34,24.8042,34,23.15z M34,23.1501l3-0.0001 M33.1212,25.2714
		l2.1214,2.1212 M30.9999,26.15l0.0001,3 M28.8786,25.2712l-2.1212,2.1214 M25,23.15h3 M23,31.15c0-1.6542-1.3455-3-3-3
		s-3,1.3458-3,3s1.3455,3,3,3S23,32.8042,23,31.15z M26,31.15l-3,0.0001 M22.1212,33.2714l2.1214,2.1212 M20,37.15l-0.0001-3
		 M15.7574,35.3926l2.1212-2.1214 M14,31.15h3 M17.8787,29.0287l-2.1213-2.1213 M20,28.15v-3 M22.1213,29.0287l2.1213-2.1213
		 M28.8787,21.0287l-2.1213-2.1213 M31,20.15v-3 M33.1213,21.0287l2.1213-2.1213"/>
</g>
</svg>
