<?xml version="1.0" encoding="utf-8"?>
<!-- Generator: Adobe Illustrator 17.1.0, SVG Export Plug-In . SVG Version: 6.00 Build 0)  -->
<!DOCTYPE svg PUBLIC "-//W3C//DTD SVG 1.1//EN" "http://www.w3.org/Graphics/SVG/1.1/DTD/svg11.dtd">
<svg version="1.1" id="XMLID_4_" xmlns="http://www.w3.org/2000/svg" xmlns:xlink="http://www.w3.org/1999/xlink" x="0px" y="0px"
	 viewBox="0 0 24 24" enable-background="new 0 0 24 24" xml:space="preserve">
<g id="social-linkedin">
	<rect id="_x2E_svg_309_" x="0" y="0" fill="none" width="24" height="24"/>
	<path d="M7.352,21.3818H3.2058V8.0466H7.352V21.3818z M5.2789,6.2234c-1.3278,0-2.4021-1.0766-2.4021-2.4024
		c0-1.3276,1.0743-2.4049,2.4021-2.4049c1.3254,0,2.402,1.0773,2.402,2.4049C7.681,5.1468,6.6043,6.2234,5.2789,6.2234z
		 M22.8768,21.3818H18.734v-6.4857c0-1.5466-0.0272-3.5358-2.1533-3.5358c-2.1573,0-2.486,1.6858-2.486,3.4247v6.5968H9.9512V8.0466
		h3.9756v1.8232h0.0568c0.5536-1.0492,1.9055-2.1546,3.9219-2.1546c4.1971,0,4.9714,2.7619,4.9714,6.352V21.3818z"/>
</g>
</svg>
