<svg width="24" height="24" viewBox="0 0 24 24">
  <path fill="#1DA1F2" fill-rule="evenodd" d="M24,4.3086 C23.117,4.7006 22.168,4.9646 21.172,5.0836 C22.188,4.4746 22.969,3.5096 23.337,2.3596 C22.386,2.9246 21.332,3.3336 20.21,3.5556 C19.312,2.5976 18.032,1.9996 16.616,1.9996 C13.897,1.9996 11.692,4.2046 11.692,6.9236 C11.692,7.3096 11.736,7.6856 11.82,8.0456 C7.728,7.8406 4.099,5.8806 1.671,2.9006 C1.247,3.6286 1.004,4.4736 1.004,5.3766 C1.004,7.0846 1.873,8.5926 3.195,9.4756 C2.388,9.4486 1.628,9.2276 0.964,8.8596 L0.964,8.9206 C0.964,11.3066 2.661,13.2966 4.914,13.7486 C4.501,13.8626 4.065,13.9216 3.617,13.9216 C3.299,13.9216 2.991,13.8906 2.69,13.8336 C3.317,15.7896 5.135,17.2136 7.29,17.2536 C5.604,18.5736 3.481,19.3606 1.175,19.3606 C0.777,19.3606 0.385,19.3376 0,19.2926 C2.179,20.6886 4.767,21.5046 7.548,21.5046 C16.605,21.5046 21.557,14.0016 21.557,7.4946 C21.557,7.2816 21.552,7.0696 21.543,6.8586 C22.505,6.1636 23.34,5.2966 24,4.3086"/>
</svg>
