<?xml version="1.0" encoding="utf-8"?>
<!-- Generator: Adobe Illustrator 17.1.0, SVG Export Plug-In . SVG Version: 6.00 Build 0)  -->
<!DOCTYPE svg PUBLIC "-//W3C//DTD SVG 1.1//EN" "http://www.w3.org/Graphics/SVG/1.1/DTD/svg11.dtd">
<svg version="1.1" id="XMLID_26_" xmlns="http://www.w3.org/2000/svg" xmlns:xlink="http://www.w3.org/1999/xlink" x="0px" y="0px"
	 viewBox="0 0 24 24" enable-background="new 0 0 24 24" xml:space="preserve">
<g id="social-tumblr">
	<rect id="_x2E_svg_288_" x="0" y="0" fill="none" width="24" height="24"/>
	<path d="M16.6827,18.4573c-0.4091,0.1951-1.1914,0.3649-1.7748,0.3795c-1.7613,0.0471-2.1032-1.2372-2.1174-2.1682V9.8198h4.4181
		V6.4887h-4.4029V0.8844c0,0-3.1702,0-3.2219,0c-0.053,0-0.1456,0.0464-0.1587,0.1642c-0.1885,1.7152-0.991,4.7256-4.3287,5.9293
		v2.8417h2.2266v7.1879c0,2.4613,1.8155,5.9579,6.6081,5.8754c1.6171-0.0277,3.413-0.7045,3.8095-1.2889L16.6827,18.4573"/>
</g>
</svg>
