<?xml version="1.0" encoding="utf-8"?>
<!-- Generator: Adobe Illustrator 19.1.0, SVG Export Plug-In . SVG Version: 6.00 Build 0)  -->
<svg version="1.1" id="XMLID_28_" xmlns="http://www.w3.org/2000/svg" xmlns:xlink="http://www.w3.org/1999/xlink" x="0px" y="0px"
	 viewBox="0 0 48 48" enable-background="new 0 0 48 48" xml:space="preserve">
<g id="social-slack">
	<rect id="_x2E_svg_281_" x="0" y="0" fill="none" width="48" height="48"/>
	<path d="M33.1667,26.6344h-2.75v-5.5h2.75c1.0126,0,1.8333-0.8209,1.8333-1.8333s-0.8208-1.8333-1.8333-1.8333h-2.75v-2.75
		c0-1.0125-0.8208-1.8333-1.8333-1.8333c-1.0125,0-1.8333,0.8209-1.8333,1.8333v2.75h-5.5v-2.75
		c0-1.0125-0.8208-1.8333-1.8333-1.8333c-1.0125,0-1.8333,0.8209-1.8333,1.8333v2.75h-2.75c-1.0125,0-1.8333,0.8209-1.8333,1.8333
		s0.8208,1.8333,1.8333,1.8333h2.75v5.5h-2.75c-1.0125,0-1.8333,0.8209-1.8333,1.8333s0.8208,1.8333,1.8333,1.8333h2.75v2.75
		c0,1.0125,0.8208,1.8333,1.8333,1.8333c1.0126,0,1.8333-0.8209,1.8333-1.8333v-2.75h5.5v2.75c0,1.0125,0.8208,1.8333,1.8333,1.8333
		c1.0126,0,1.8333-0.8209,1.8333-1.8333v-2.75h2.75c1.0126,0,1.8333-0.8209,1.8333-1.8333S34.1792,26.6344,33.1667,26.6344z
		 M21.25,26.6344v-5.5h5.5v5.5H21.25z"/>
</g>
</svg>
