<?xml version="1.0" encoding="UTF-8" standalone="no"?>
<svg width="24px" height="24px" viewBox="0 0 24 24" version="1.1" xmlns="http://www.w3.org/2000/svg" xmlns:xlink="http://www.w3.org/1999/xlink">
    <!-- Generator: Sketch 3.7 (28169) - http://www.bohemiancoding.com/sketch -->
    <title>linkedin-24</title>
    <desc>Created with Sketch.</desc>
    <defs></defs>
    <g id="Page-1" stroke="none" stroke-width="1" fill="none">
        <g id="linkedin-24" fill="#000000">
            <path d="M22,23 L18,23 L18,17.0000002 C18,15.3255457 17.5,13 15,13 C12.5,13 12,15.1165094 12,17 L12,23.0000002 L8,23.0000002 L8,9 L12,9 L12,12 C12,12 13.5,9 17,9 C19.5,9 22,11 22,15.5 L22,23 Z M6,23 L2,23 L2,9.00000002 L6,9.00000002 L6,23 Z M4,7 C5.38071187,7 6.5,5.88071187 6.5,4.5 C6.5,3.11928813 5.38071187,2 4,2 C2.61928813,2 1.5,3.11928813 1.5,4.5 C1.5,5.88071187 2.61928813,7 4,7 Z" id="Linkedin"></path>
        </g>
    </g>
</svg>