<?xml version="1.0" encoding="utf-8"?>
<!-- Generator: Adobe Illustrator 19.1.0, SVG Export Plug-In . SVG Version: 6.00 Build 0)  -->
<svg version="1.1" id="XMLID_10_" xmlns="http://www.w3.org/2000/svg" xmlns:xlink="http://www.w3.org/1999/xlink" x="0px" y="0px"
	 viewBox="0 0 48 48" enable-background="new 0 0 48 48" xml:space="preserve">
<g id="social-medium" transform="matrix(1.3333333,0,0,-1.3333333,0,126.66667)">
	<rect id="_x2E_svg_296_" x="-6" y="53" fill="none" width="48" height="48"/>
	<g id="g12" transform="scale(0.1)">
		<path id="path14" d="M270,816.9011h-7.119c-2.643,0-6.381-3.8127-6.381-6.2537V722.176c0-2.4439,3.738-5.775,6.381-5.775H270
			V695.401h-64.5v21.0001H219v93h-0.6615L186.8133,695.401H162.406l-31.1186,114.0001H130.5v-93H144V695.401H90v21.0001h6.9147
			c2.8476,0,6.5853,3.3311,6.5853,5.775v88.4714c0,2.441-3.7377,6.2537-6.5853,6.2537H90v21h67.5246l22.1696-82.5h0.6099
			l22.3746,82.5H270V816.9011"/>
	</g>
</g>
</svg>
