<?xml version="1.0" encoding="UTF-8" standalone="no"?>
<svg width="24px" height="24px" viewBox="0 0 24 24" version="1.1" xmlns="http://www.w3.org/2000/svg" xmlns:xlink="http://www.w3.org/1999/xlink">
<g id="social-twitter">
    <path stroke="none" fill="#000000" d="M22,5 C23,4 23,3 23,2 C22,3 21,4 20,4 C20,4 19,2 17,2 C13,2 12,4 12,8 C6,8 4.099,5.97949244 2,3 C0,5.97949243 2,9 3,10 C3,10 2,10 1,9 C1,11 2.661,13.5836965 5,14 C5,14 4,15 2,14 C2,16 5,18 7,18 C7,18 6,21 0,21 C2,22 5,22 8,22 C16.605,22 22,15 22,8 L22,7 C23,6 23.34,5.38067162 24,4 C23,5 22,5 22,5 Z"></path>
</g>
</svg>