<?xml version="1.0" encoding="utf-8"?>
<!-- Generator: Adobe Illustrator 19.1.0, SVG Export Plug-In . SVG Version: 6.00 Build 0)  -->
<svg version="1.1" id="XMLID_8_" xmlns="http://www.w3.org/2000/svg" xmlns:xlink="http://www.w3.org/1999/xlink" x="0px" y="0px"
	 viewBox="0 0 48 48" enable-background="new 0 0 48 48" xml:space="preserve">
<g id="social-instagram">
	<rect id="_x2E_svg_305_" x="0" y="0" fill="none" width="48" height="48"/>
	<path fill-rule="evenodd" clip-rule="evenodd" fill="#FFFFFF" stroke="#000000" stroke-width="2.7273" stroke-miterlimit="10" d="
		M32,34H16c-1.1046,0-2-0.8954-2-2V16c0-1.1046,0.8954-2,2-2h16c1.1046,0,2,0.8954,2,2v16C34,33.1046,33.1046,34,32,34z"/>
	<path fill-rule="evenodd" clip-rule="evenodd" d="M34,22H14v-6c0-1.1046,0.8954-2,2-2h16c1.1046,0,2,0.8954,2,2V22z"/>
	
		<circle fill-rule="evenodd" clip-rule="evenodd" fill="#FFFFFF" stroke="#000000" stroke-width="2.5" stroke-miterlimit="10" cx="24" cy="24" r="5"/>
	<path fill-rule="evenodd" clip-rule="evenodd" fill="#FFFFFF" d="M31.5,19.399h-2c-0.5523,0-1-0.4477-1-1v-2c0-0.5523,0.4477-1,1-1
		h2c0.5523,0,1,0.4477,1,1v2C32.5,18.9513,32.0523,19.399,31.5,19.399z"/>
</g>
</svg>
