<svg width="24" height="24" viewBox="0 0 24 24">
  <path fill="#00AFE1" fill-rule="evenodd" d="M24,12.16 C24,10.4533333 23.1733333,9.10666667 21.5933333,9.10666667 C20.0066667,9.10666667 19.0466667,10.4533333 19.0466667,12.1466667 C19.0466667,14.1533333 20.18,15.1666667 21.8066667,15.1666667 C22.6,15.1666667 23.2,14.9866667 23.6533333,14.7333333 L23.6533333,13.4 C23.2,13.6266667 22.68,13.7666667 22.02,13.7666667 C21.3733333,13.7666667 20.8,13.54 20.7266667,12.7533333 L23.9866667,12.7533333 C23.9866667,12.6666667 24,12.32 24,12.16 L24,12.16 Z M20.7066667,11.5266667 C20.7066667,10.7733333 21.1666667,10.46 21.5866667,10.46 C21.9933333,10.46 22.4266667,10.7733333 22.4266667,11.5266667 L20.7066667,11.5266667 L20.7066667,11.5266667 Z M16.4733333,9.10666667 C15.82,9.10666667 15.4,9.41333333 15.1666667,9.62666667 L15.08,9.21333333 L13.6133333,9.21333333 L13.6133333,16.9866667 L15.28,16.6333333 L15.2866667,14.7466667 C15.5266667,14.92 15.88,15.1666667 16.4666667,15.1666667 C17.66,15.1666667 18.7466667,14.2066667 18.7466667,12.0933333 C18.74,10.16 17.64,9.10666667 16.4733333,9.10666667 L16.4733333,9.10666667 Z M16.0733333,13.7 C15.68,13.7 15.4466667,13.56 15.2866667,13.3866667 L15.28,10.9133333 C15.4533333,10.72 15.6933333,10.5866667 16.0733333,10.5866667 C16.68,10.5866667 17.1,11.2666667 17.1,12.14 C17.1,13.0333333 16.6866667,13.7 16.0733333,13.7 L16.0733333,13.7 Z M11.32,8.71333333 L12.9933333,8.35333333 L12.9933333,7 L11.32,7.35333333 L11.32,8.71333333 Z M11.32,9.22 L12.9933333,9.22 L12.9933333,15.0533333 L11.32,15.0533333 L11.32,9.22 Z M9.52666667,9.71333333 L9.42,9.22 L7.98,9.22 L7.98,15.0533333 L9.64666667,15.0533333 L9.64666667,11.1 C10.04,10.5866667 10.7066667,10.68 10.9133333,10.7533333 L10.9133333,9.22 C10.7,9.14 9.92,8.99333333 9.52666667,9.71333333 L9.52666667,9.71333333 Z M6.19333333,7.77333333 L4.56666667,8.12 L4.56,13.46 C4.56,14.4466667 5.3,15.1733333 6.28666667,15.1733333 C6.83333333,15.1733333 7.23333333,15.0733333 7.45333333,14.9533333 L7.45333333,13.6 C7.24,13.6866667 6.18666667,13.9933333 6.18666667,13.0066667 L6.18666667,10.64 L7.45333333,10.64 L7.45333333,9.22 L6.18666667,9.22 L6.19333333,7.77333333 L6.19333333,7.77333333 Z M1.68666667,10.9133333 C1.68666667,10.6533333 1.9,10.5533333 2.25333333,10.5533333 C2.76,10.5533333 3.4,10.7066667 3.90666667,10.98 L3.90666667,9.41333333 C3.35333333,9.19333333 2.80666667,9.10666667 2.25333333,9.10666667 C0.9,9.10666667 0,9.81333333 0,10.9933333 C0,12.8333333 2.53333333,12.54 2.53333333,13.3333333 C2.53333333,13.64 2.26666667,13.74 1.89333333,13.74 C1.34,13.74 0.633333333,13.5133333 0.0733333333,13.2066667 L0.0733333333,14.7933333 C0.693333333,15.06 1.32,15.1733333 1.89333333,15.1733333 C3.28,15.1733333 4.23333333,14.4866667 4.23333333,13.2933333 C4.22666667,11.3066667 1.68666667,11.66 1.68666667,10.9133333 L1.68666667,10.9133333 Z"/>
</svg>
