<?xml version="1.0" encoding="utf-8"?>
<!-- Generator: Adobe Illustrator 19.1.0, SVG Export Plug-In . SVG Version: 6.00 Build 0)  -->
<svg version="1.1" id="XMLID_297_" xmlns="http://www.w3.org/2000/svg" xmlns:xlink="http://www.w3.org/1999/xlink" x="0px" y="0px"
	 viewBox="0 0 48 48" enable-background="new 0 0 48 48" xml:space="preserve">
<g id="star_1_">
	<rect id="_x2E_svg_12_" x="0" y="0" fill="none" width="48" height="48"/>
	<g id="star">
		<path fill="#231F20" d="M24,16.4722l2.2111,4.4222L26.7639,22H28h3.3419l-2.792,2.9393l-0.7562,0.7963l0.2659,1.0654
			l1.2408,4.9724l-4.2639-2.5836L24,28.5618l-1.0364,0.6281l-4.2639,2.5836l1.2408-4.9724l0.2659-1.0654l-0.7563-0.7963L16.6581,22
			H20h1.2361l0.5528-1.1056L24,16.4722 M24,12l-4,8h-8l6,6.3168L15.5836,36L24,30.9003L32.4164,36L30,26.3168L36,20h-8L24,12L24,12z
			"/>
	</g>
</g>
</svg>
