<?xml version="1.0" encoding="utf-8"?>
<!-- Generator: Adobe Illustrator 19.1.0, SVG Export Plug-In . SVG Version: 6.00 Build 0)  -->
<svg version="1.1" id="XMLID_51_" xmlns="http://www.w3.org/2000/svg" xmlns:xlink="http://www.w3.org/1999/xlink" x="0px" y="0px"
	 viewBox="0 0 48 48" enable-background="new 0 0 48 48" xml:space="preserve">
<g id="star-half">
	<rect id="_x2E_svg_263_" x="0" y="0" fill="none" width="48" height="48"/>
	<g>
		<path fill="#231F20" d="M24,16.4721l2.2112,4.4223L26.7639,22H28h3.3418l-2.7919,2.9393l-0.7563,0.7962l0.2659,1.0654
			l1.2409,4.9725l-4.2639-2.5836L24,28.5618l-1.0364,0.628l-4.2639,2.5836l1.2409-4.9725l0.2659-1.0654l-0.7563-0.7962L16.6582,22
			H20h1.2361l0.5528-1.1056L24,16.4721 M24,12l-4,8h-8l6,6.3167L15.5836,36L24,30.9003L32.4164,36L30,26.3167L36,20h-8L24,12L24,12z
			"/>
	</g>
	<polygon fill="#231F20" points="24,30.9003 15.5836,36 18,26.3167 12,20 20,20 24,12 	"/>
</g>
</svg>
