<?xml version="1.0" encoding="utf-8"?>
<!-- Generator: Adobe Illustrator 19.1.0, SVG Export Plug-In . SVG Version: 6.00 Build 0)  -->
<svg version="1.1" id="XMLID_178_" xmlns="http://www.w3.org/2000/svg" xmlns:xlink="http://www.w3.org/1999/xlink" x="0px" y="0px"
	 viewBox="0 0 48 48" enable-background="new 0 0 48 48" xml:space="preserve">
<g id="street-view">
	<rect id="_x2E_svg_136_" x="0" y="0" fill="none" width="48" height="48"/>
	<path fill="none" stroke="#231F20" stroke-width="2" stroke-miterlimit="10" d="M28,17c0,2.2091-1.7909,4-4,4s-4-1.7909-4-4
		s1.7909-4,4-4S28,14.7909,28,17z M24,21c0,0,0.04,0,0.02,0C20.79,21.03,18,23.66,18,26.89V29h3v6h6v-6h3v-2.11
		c0-3.23-2.76-5.86-5.98-5.89C24,21,24,21,24,21 M16,35h16"/>
</g>
</svg>
