<?xml version="1.0" encoding="utf-8"?>
<!-- Generator: Adobe Illustrator 19.1.0, SVG Export Plug-In . SVG Version: 6.00 Build 0)  -->
<svg version="1.1" id="XMLID_220_" xmlns="http://www.w3.org/2000/svg" xmlns:xlink="http://www.w3.org/1999/xlink" x="0px" y="0px"
	 viewBox="0 0 48 48" enable-background="new 0 0 48 48" xml:space="preserve">
<g id="support">
	<rect id="_x2E_svg_95_" x="0" y="0" fill="none" width="48" height="48"/>
	<path fill="none" stroke="#231F20" stroke-width="2" stroke-miterlimit="10" d="M35,24.15c0,6.0751-4.9249,11-11,11
		s-11-4.9249-11-11s4.9249-11,11-11S35,18.0749,35,24.15z M29,24.15c0-2.7568-2.2432-5-5-5s-5,2.2432-5,5s2.2432,5,5,5
		S29,26.9068,29,24.15z M21,20.15v-6 M27,20.15v-6 M28,21.15h6 M28,27.15h6 M27,28.15v6 M21,28.15v6 M20,27.15h-6 M20,21.15h-6"/>
</g>
</svg>
