<?xml version="1.0" encoding="utf-8"?>
<!-- Generator: Adobe Illustrator 17.1.0, SVG Export Plug-In . SVG Version: 6.00 Build 0)  -->
<!DOCTYPE svg PUBLIC "-//W3C//DTD SVG 1.1//EN" "http://www.w3.org/Graphics/SVG/1.1/DTD/svg11.dtd">
<svg version="1.1" id="XMLID_87_" xmlns="http://www.w3.org/2000/svg" xmlns:xlink="http://www.w3.org/1999/xlink" x="0px" y="0px"
	 viewBox="0 0 27 25" enable-background="new 0 0 27 25" xml:space="preserve">
<g id="table-add">
	<rect id="_x2E_svg_227_" x="0" y="0" fill="none" width="24" height="24"/>
	<path fill="none" stroke="#000000" stroke-width="2" stroke-miterlimit="10" d="M26,17c0,3.866-3.134,7-7,7s-7-3.134-7-7
		s3.134-7,7-7S26,13.134,26,17z M22,1H1v4h21V1z M22,11V5H8H1v18h7h7 M8,5v18 M15,6v5l0,0 M15,24v-1v-0.26 M15,11L15,11H2 M2,17h10
		 M22,15 M22,15 M23,17h-8 M19,21v-8"/>
</g>
</svg>
