<?xml version="1.0" encoding="utf-8"?>
<!-- Generator: Adobe Illustrator 19.1.0, SVG Export Plug-In . SVG Version: 6.00 Build 0)  -->
<svg version="1.1" id="XMLID_87_" xmlns="http://www.w3.org/2000/svg" xmlns:xlink="http://www.w3.org/1999/xlink" x="0px" y="0px"
	 viewBox="0 0 48 48" enable-background="new 0 0 48 48" xml:space="preserve">
<g id="table-add">
	<rect id="_x2E_svg_227_" fill="none" width="48" height="48"/>
	<path fill="none" stroke="#231F20" stroke-width="2" stroke-miterlimit="10" d="M38,29c0,3.866-3.134,7-7,7s-7-3.134-7-7
		s3.134-7,7-7S38,25.134,38,29z M34,13H13v4h21V13z M34,23v-6H20h-7v18h7h7 M20,17v18 M27,18v5l0,0 M27,36v-1v-0.26 M27,23L27,23H14
		 M14,29h10 M34,27 M34,27 M35,29h-8 M31,33v-8"/>
</g>
</svg>
