<?xml version="1.0" encoding="utf-8"?>
<!-- Generator: Adobe Illustrator 19.1.0, SVG Export Plug-In . SVG Version: 6.00 Build 0)  -->
<svg version="1.1" id="XMLID_177_" xmlns="http://www.w3.org/2000/svg" xmlns:xlink="http://www.w3.org/1999/xlink" x="0px" y="0px"
	 viewBox="0 0 48 48" enable-background="new 0 0 48 48" xml:space="preserve">
<g id="target">
	<rect id="_x2E_svg_137_" x="0" y="0" fill="none" width="48" height="48"/>
	<path fill="none" stroke="#231F20" stroke-width="2" stroke-miterlimit="10" d="M35,24c0,6.0751-4.9249,11-11,11s-11-4.9249-11-11
		s4.9249-11,11-11S35,17.9249,35,24z M30,24c0-3.3086-2.6914-6-6-6s-6,2.6914-6,6s2.6914,6,6,6S30,27.3086,30,24z M25,24
		c0-0.5518-0.4482-1-1-1s-1,0.4482-1,1s0.4482,1,1,1S25,24.5518,25,24z"/>
</g>
</svg>
