<svg width="24" height="24" viewBox="0 0 24 24">
  <path fill="none" stroke="#000" stroke-linecap="round" stroke-linejoin="round" stroke-width="2" d="M16.5,19 C17.8807119,19 19,17.8807119 19,16.5 C19,15.1192881 17.8807119,14 16.5,14 C15.1192881,14 14,15.1192881 14,16.5 C14,17.8807119 15.1192881,19 16.5,19 Z M10,5 L12,3 M7.5,10 C8.88071187,10 10,8.88071187 10,7.5 C10,6.11928813 8.88071187,5 7.5,5 C6.11928813,5 5,6.11928813 5,7.5 C5,8.88071187 6.11928813,10 7.5,10 Z M8,16 L16,8 M5.5,21 C6.88071187,21 8,19.8807119 8,18.5 C8,17.1192881 6.88071187,16 5.5,16 C4.11928813,16 3,17.1192881 3,18.5 C3,19.8807119 4.11928813,21 5.5,21 Z M18.5,8 C19.8807119,8 21,6.88071187 21,5.5 C21,4.11928813 19.8807119,3 18.5,3 C17.1192881,3 16,4.11928813 16,5.5 C16,6.88071187 17.1192881,8 18.5,8 Z M12,21 L14,19"/>
</svg>
