<?xml version="1.0" encoding="utf-8"?>
<!-- Generator: Adobe Illustrator 19.1.0, SVG Export Plug-In . SVG Version: 6.00 Build 0)  -->
<svg version="1.1" id="XMLID_205_" xmlns="http://www.w3.org/2000/svg" xmlns:xlink="http://www.w3.org/1999/xlink" x="0px" y="0px"
	 viewBox="0 0 48 48" enable-background="new 0 0 48 48" xml:space="preserve">
<g id="troubleshooting">
	<rect id="_x2E_svg_109_" x="0" y="0" fill="none" width="48" height="48"/>
	<path fill="none" stroke="#231F20" stroke-width="2" stroke-miterlimit="10" d="M15.5,22.59c-1.76-0.78-3-2.54-3-4.59
		s1.24-3.81,3-4.59V14v4h4v-4v-0.59c1.76,0.78,3,2.54,3,4.59s-1.24,3.81-3,4.59V23v10c0,1.1-0.9,2-2,2c-0.55,0-1.05-0.22-1.41-0.59
		c-0.37-0.36-0.59-0.86-0.59-1.41V23V22.59z M32.5,15c0-1.1046-0.8954-2-2-2l0,0c-1.1046,0-2,0.8954-2,2v9h4V15z M25.5,24h10
		 M30.5,24v6H28l1.5,5h2l1.5-5h-1.5"/>
</g>
</svg>
