<?xml version="1.0" encoding="utf-8"?>
<!-- Generator: Adobe Illustrator 19.1.0, SVG Export Plug-In . SVG Version: 6.00 Build 0)  -->
<svg version="1.1" id="XMLID_182_" xmlns="http://www.w3.org/2000/svg" xmlns:xlink="http://www.w3.org/1999/xlink" x="0px" y="0px"
	 viewBox="0 0 48 48" enable-background="new 0 0 48 48" xml:space="preserve">
<g id="user-admin">
	<rect id="_x2E_svg_132_" fill="none" width="48" height="48"/>
	<path fill="none" stroke="#231F20" stroke-width="2" stroke-miterlimit="10" d="M25.9991,18c0,2.7614-2.2386,5-5,5s-5-2.2386-5-5
		s2.2386-5,5-5S25.9991,15.2386,25.9991,18z M23.9991,32.5c0,1.3807,1.1193,2.5,2.5,2.5s2.5-1.1193,2.5-2.5
		c0-1.3807-1.1193-2.5-2.5-2.5S23.9991,31.1193,23.9991,32.5z M36.9991,28l-3-3l-5.5312,5.5312 M31.4991,27.5l3,3 M20.9991,23
		L20.9991,23c-4.4183,0-8,3.5817-8,8v4h8 M27.0009,25.7104C25.535,24.0484,23.3895,23,20.9991,23h0"/>
</g>
</svg>
