<?xml version="1.0" encoding="utf-8"?>
<!-- Generator: Adobe Illustrator 19.1.0, SVG Export Plug-In . SVG Version: 6.00 Build 0)  -->
<svg version="1.1" id="XMLID_179_" xmlns="http://www.w3.org/2000/svg" xmlns:xlink="http://www.w3.org/1999/xlink" x="0px" y="0px"
	 viewBox="0 0 48 48" enable-background="new 0 0 48 48" xml:space="preserve">
<g id="user-police">
	<rect id="_x2E_svg_135_" x="0" y="0" fill="none" width="48" height="48"/>
	<path fill="none" stroke="#231F20" stroke-width="2" stroke-miterlimit="10" d="M30,21v0.5714C30,25.1218,27.5504,28,24,28
		s-6-2.8782-6-6.4286V21 M20.45,26.83C17.81,28.14,16,30.86,16,34v1h16v-1c0-2.21-0.9-4.21-2.34-5.66
		c-0.61-0.61-1.32-1.12-2.11-1.51 M33,17.3322C31.2226,14.7422,27.8652,13,24,13s-7.2226,1.7422-9,4.3322L17.4169,20H24h6.5831
		L33,17.3322z"/>
	<path fill="#231F20" d="M24,15h-2c0,0-0.0625,3,2,3c2,0,1.9998-3,1.9998-3H24z"/>
</g>
</svg>
