<?xml version="1.0" encoding="utf-8"?>
<!-- Generator: Adobe Illustrator 19.1.0, SVG Export Plug-In . SVG Version: 6.00 Build 0)  -->
<svg version="1.1" id="XMLID_203_" xmlns="http://www.w3.org/2000/svg" xmlns:xlink="http://www.w3.org/1999/xlink" x="0px" y="0px"
	 viewBox="0 0 48 48" enable-background="new 0 0 48 48" xml:space="preserve">
<g id="user-female">
	<rect id="_x2E_svg_117_" x="0" y="0" fill="none" width="48" height="48"/>
	<path fill="none" stroke="#231F20" stroke-width="2" stroke-miterlimit="10" d="M19.9941,35.5v-4 M27.9941,31.5v4 M31.9941,35.5v-5
		c0-2.7614-2.1386-5-4.9-5h-0.1l0,0l0,0c3.375,0,5.1-2.1,5.1-2.1s-3.1-1.8687-3.1-5.9c0-2.7583-2.2917-5-5.05-5h0.0969
		c-2.7583,0-5.0234,2.2417-5.0234,5c0,3.9688-3.1117,5.9-3.1117,5.9s0.7133,2.1,4.0883,2.1h1c-2.7614,0-5,2.2386-5,5v5"/>
</g>
</svg>
