<?xml version="1.0" encoding="utf-8"?>
<!-- Generator: Adobe Illustrator 17.1.0, SVG Export Plug-In . SVG Version: 6.00 Build 0)  -->
<!DOCTYPE svg PUBLIC "-//W3C//DTD SVG 1.1//EN" "http://www.w3.org/Graphics/SVG/1.1/DTD/svg11.dtd">
<svg version="1.1" id="XMLID_181_" xmlns="http://www.w3.org/2000/svg" xmlns:xlink="http://www.w3.org/1999/xlink" x="0px" y="0px"
	 viewBox="0 0 24 24" enable-background="new 0 0 24 24" xml:space="preserve">
<g id="user-worker">
	<rect id="_x2E_svg_133_" fill="none" width="24" height="24"/>
	<path fill="none" stroke="#000000" stroke-width="2" stroke-miterlimit="10" d="M18,7v1.5714C18,12.1218,15.5504,15,12,15
		s-6-2.8782-6-6.4286V7 M8.45,13.83C5.81,15.14,4,17.86,4,21v2h16v-2c0-2.21-0.9-4.21-2.34-5.66c-0.61-0.61-1.32-1.12-2.11-1.51
		 M19,8c0-3.866-3.134-7-7-7S5,4.134,5,8H19z M10,4V2 M14,4V2 M3,8h18"/>
</g>
</svg>
