<?xml version="1.0" encoding="utf-8"?>
<!-- Generator: Adobe Illustrator 19.1.0, SVG Export Plug-In . SVG Version: 6.00 Build 0)  -->
<svg version="1.1" id="XMLID_185_" xmlns="http://www.w3.org/2000/svg" xmlns:xlink="http://www.w3.org/1999/xlink" x="0px" y="0px"
	 viewBox="0 0 48 48" enable-background="new 0 0 48 48" xml:space="preserve">
<g id="user-settings">
	<rect id="_x2E_svg_129_" x="0" y="0" fill="none" width="48" height="48"/>
	<path fill="none" stroke="#231F20" stroke-width="2" stroke-miterlimit="10" d="M32,33c-1.6545,0-3-1.3458-3-3s1.3455-3,3-3
		s3,1.3458,3,3S33.6545,33,32,33z M38,30l-3,0.0001 M34.1212,32.1214l2.1214,2.1212 M32,36l-0.0001-3 M27.7573,34.2426
		l2.1212-2.1214 M26,30h3 M29.8787,27.8787l-2.1213-2.1213 M32,27v-3 M34.1213,27.8787l2.1213-2.1213 M21,13c-2.7614,0-5,2.2386-5,5
		s2.2386,5,5,5s5-2.2386,5-5S23.7614,13,21,13z M26.0002,24.7548C24.6306,23.6568,22.892,23,21,23h0c-4.4183,0-8,3.5817-8,8v4h12.4"
		/>
</g>
</svg>
