<?xml version="1.0" encoding="utf-8"?>
<!-- Generator: Adobe Illustrator 19.1.0, SVG Export Plug-In . SVG Version: 6.00 Build 0)  -->
<svg version="1.1" id="XMLID_66_" xmlns="http://www.w3.org/2000/svg" xmlns:xlink="http://www.w3.org/1999/xlink" x="0px" y="0px"
	 viewBox="0 0 48 48" enable-background="new 0 0 48 48" xml:space="preserve">
<g id="workshop">
	<rect id="_x2E_svg_241_" x="0" y="0" fill="none" width="48" height="48"/>
	<polyline fill="none" stroke="#231F20" stroke-width="2" stroke-miterlimit="10" points="32,28 35,28 35,14 15,14 15,17 	"/>
	<rect x="22" y="12" fill="#231F20" width="6" height="4"/>
	<path fill="none" stroke="#231F20" stroke-width="2" stroke-miterlimit="10" d="M22,22.5c0,1.933-1.567,3.5-3.5,3.5
		S15,24.433,15,22.5s1.567-3.5,3.5-3.5S22,20.567,22,22.5z M20,26h-2c-2.7614,0-5,2.2386-5,5v4h11v-3.9515
		c0-0.6033,0.3584-1.1483,0.9169-1.3766C28.8134,28.0792,31,23,31,23l-2-2C23.7917,26.2083,20,26,20,26 M29,21l2-2"/>
</g>
</svg>
