<?xml version="1.0" encoding="utf-8"?>
<!-- Generator: Adobe Illustrator 16.0.0, SVG Export Plug-In . SVG Version: 6.00 Build 0)  -->
<!DOCTYPE svg PUBLIC "-//W3C//DTD SVG 1.1//EN" "http://www.w3.org/Graphics/SVG/1.1/DTD/svg11.dtd">
<svg version="1.1" id="Dashboard" xmlns="http://www.w3.org/2000/svg" xmlns:xlink="http://www.w3.org/1999/xlink" x="0px" y="0px"
	 width="864.667px" height="464.667px" viewBox="0 0 864.667 464.667" enable-background="new 0 0 864.667 464.667"
	 xml:space="preserve">
<rect x="6.667" y="64" fill="#F4F4F4" width="855" height="394"/>
<g>
	<g>
		<path fill="#5F798D" d="M88.955,43.79c-3.461,0-5.956-2.816-5.956-6.794c0-3.999,2.494-6.793,5.956-6.793
			c3.483,0,5.977,2.795,5.977,6.793C94.931,40.973,92.438,43.79,88.955,43.79z M88.955,31.729c-2.537,0-4.257,2.171-4.257,5.267
			c0,3.096,1.72,5.268,4.257,5.268c2.559,0,4.278-2.171,4.278-5.268C93.233,33.9,91.513,31.729,88.955,31.729z"/>
		<path fill="#5F798D" d="M97.167,34.05h1.612v1.204c0.559-0.752,1.591-1.397,2.817-1.397c2.171,0,3.354,1.397,3.354,3.483v6.256
			h-1.634v-5.999c0-1.333-0.667-2.257-2.107-2.257c-1.118,0-2.085,0.752-2.43,1.785v6.471h-1.612V34.05z"/>
		<path fill="#5F798D" d="M108.583,39.103c0.064,2.215,1.462,3.268,3.204,3.268c1.075,0,1.849-0.258,2.709-0.903v1.483
			c-0.774,0.602-1.763,0.838-2.902,0.838c-2.752,0-4.601-1.87-4.601-4.88c0-2.967,1.72-5.052,4.257-5.052
			c2.58,0,3.913,1.871,3.913,4.666v0.58H108.583z M108.67,37.834h4.923c-0.064-1.397-0.774-2.602-2.322-2.602
			C110.002,35.233,108.971,36.071,108.67,37.834z"/>
		<path fill="#5F798D" d="M121.462,43.596l-5.095-13.201h1.784l4.128,10.965l4.149-10.965h1.72l-5.096,13.201H121.462z"/>
		<path fill="#5F798D" d="M130.835,32.201c-0.559,0-1.032-0.473-1.032-1.032c0-0.581,0.473-1.032,1.032-1.032
			c0.581,0,1.054,0.452,1.054,1.032C131.889,31.729,131.416,32.201,130.835,32.201z M131.652,43.596h-1.612V34.05h1.612V43.596z"/>
		<path fill="#5F798D" d="M135.437,39.103c0.065,2.215,1.462,3.268,3.204,3.268c1.075,0,1.849-0.258,2.709-0.903v1.483
			c-0.774,0.602-1.763,0.838-2.902,0.838c-2.752,0-4.601-1.87-4.601-4.88c0-2.967,1.72-5.052,4.257-5.052
			c2.58,0,3.913,1.871,3.913,4.666v0.58H135.437z M135.523,37.834h4.923c-0.064-1.397-0.774-2.602-2.322-2.602
			C136.855,35.233,135.824,36.071,135.523,37.834z"/>
		<path fill="#5F798D" d="M152.228,41.339l2.107-7.289h1.569l-2.816,9.546h-1.569l-1.978-7.246l-2,7.246h-1.569l-2.816-9.546h1.612
			l2.107,7.289l1.957-7.289h1.44L152.228,41.339z"/>
	</g>
	
		<rect x="38.491" y="22.717" opacity="0.5" fill="none" stroke="#C5C9C8" stroke-width="0.6948" stroke-miterlimit="10" enable-background="new    " width="24.319" height="24.318"/>
	<polyline fill="none" stroke="#00B388" stroke-width="3" stroke-miterlimit="10" points="183.561,32.953 176.804,39.234 
		170.046,32.953 	"/>
	
		<line opacity="0.5" fill="none" stroke="#C5C9C8" stroke-width="0.6948" stroke-miterlimit="10" enable-background="new    " x1="38.491" y1="22.717" x2="62.81" y2="47.035"/>
	
		<line opacity="0.5" fill="none" stroke="#C5C9C8" stroke-width="0.6948" stroke-miterlimit="10" enable-background="new    " x1="62.81" y1="22.717" x2="38.491" y2="47.035"/>
	<g>
		<polygon fill="#00B387" points="49.956,52.072 67.151,34.875 49.956,34.875 		"/>
		<polygon fill="#00B387" points="32.76,34.875 49.956,34.875 49.956,17.681 		"/>
	</g>
</g>
<path fill="#666666" d="M737.625,43.923l-3.52-3.631c0.803-1.184,1.271-2.616,1.271-4.163c0-4.033-3.199-7.314-7.131-7.314
	c-3.934,0-7.133,3.281-7.133,7.314c0,4.037,3.199,7.32,7.133,7.32c1.494,0,2.881-0.476,4.027-1.285l3.469,3.582
	c0.256,0.265,0.6,0.397,0.939,0.397c0.328,0,0.656-0.123,0.912-0.368C738.113,45.271,738.126,44.442,737.625,43.923z
	 M728.246,40.828c-2.488,0-4.512-2.108-4.512-4.699c0-2.588,2.021-4.696,4.512-4.696s4.512,2.108,4.512,4.696
	C732.757,38.72,730.736,40.828,728.246,40.828z"/>
<g>
	<path fill="#666666" d="M776.046,42.592c0,1.523-1.238,2.758-2.76,2.758c-1.52,0-2.756-1.235-2.756-2.758"/>
	<path fill="#666666" d="M778.345,34.553c0-2.754-1.975-5.039-4.57-5.505v-0.092c-0.166,0-0.326,0.01-0.486,0.025
		c-0.16-0.015-0.324-0.025-0.486-0.025v0.092c-2.598,0.466-4.572,2.751-4.572,5.505c0,0,0.682,6.592-3.211,6.592h7.783h0.973h7.785
		C777.667,41.145,778.345,34.553,778.345,34.553z"/>
</g>
<g>
	<path fill="none" stroke="#CCCCCC" stroke-width="1.4741" stroke-miterlimit="10" d="M835.544,36.149
		c0,8.508-6.979,15.404-15.588,15.404c-8.607,0-15.586-6.896-15.586-15.404c0-8.511,6.979-15.407,15.586-15.407
		S835.544,27.639,835.544,36.149z"/>
	<path fill="#666666" d="M822.431,39.551l-0.852-1.796c1.348-0.716,2.285-2.235,2.285-4.008c0-2.455-1.787-4.447-3.99-4.447
		c-2.197,0-3.984,1.992-3.984,4.447c0,1.831,0.994,3.401,2.408,4.084l-0.814,1.72c-4.588,0-5.18,3.853-5.18,3.853h6.889h1.531h6.889
		C827.613,43.403,827.021,39.551,822.431,39.551z"/>
</g>
<rect x="19.667" y="268" fill="#FFFFFF" width="195" height="174"/>
<rect x="231.667" y="268" fill="#FFFFFF" width="193" height="174"/>
<rect x="441.667" y="268" fill="#FFFFFF" width="195" height="174"/>
<rect x="652.667" y="268" fill="#FFFFFF" width="194" height="174"/>
<rect x="19.667" y="79" fill="#FFFFFF" width="195" height="174"/>
<rect x="231.667" y="79" fill="#FFFFFF" width="193" height="174"/>
<rect x="441.667" y="79" fill="#FFFFFF" width="195" height="174"/>
<rect x="652.667" y="79" fill="#FFFFFF" width="194" height="174"/>
<rect x="5.667" y="6" fill="none" stroke="#EAEAEA" stroke-width="2" stroke-miterlimit="10" width="855" height="453"/>
<g>
	<path fill="#666666" d="M34.421,102.171c0.974,0.875,1.963,1.204,3.134,1.204c1.452,0,2.375-0.726,2.375-1.897
		c0-1.022-0.577-1.435-1.814-1.962l-1.484-0.627c-1.056-0.445-2.194-1.056-2.194-2.59c0-1.715,1.435-2.573,3.068-2.573
		c1.056,0,2.095,0.313,2.837,0.858v0.94c-0.792-0.66-1.683-1.022-2.821-1.022c-1.253,0-2.26,0.594-2.26,1.781
		c0,0.99,0.693,1.419,1.765,1.848l1.567,0.66c1.484,0.644,2.161,1.369,2.161,2.672c0,1.616-1.353,2.688-3.2,2.688
		c-1.353,0-2.474-0.429-3.134-1.006V102.171z"/>
	<path fill="#666666" d="M45.673,103.425c0.825,0,1.435-0.198,2.062-0.726v0.809c-0.544,0.445-1.27,0.643-2.128,0.643
		c-2.045,0-3.415-1.452-3.415-3.744c0-2.26,1.221-3.876,3.167-3.876c1.914,0,2.903,1.452,2.903,3.58v0.297H43
		C43.001,102.385,44.155,103.425,45.673,103.425z M43.034,99.73h4.437c-0.049-1.287-0.66-2.475-2.111-2.475
		C44.155,97.255,43.232,98.146,43.034,99.73z"/>
	<path fill="#666666" d="M53.494,97.437c-0.198-0.083-0.413-0.132-0.676-0.132c-0.891,0-1.6,0.643-1.946,1.583v5.113h-0.825v-7.324
		h0.825v1.171c0.33-0.726,1.072-1.32,1.979-1.32c0.281,0,0.479,0.049,0.644,0.099L53.494,97.437L53.494,97.437z"/>
	<path fill="#666666" d="M57.058,104.002l-2.919-7.324h0.874l2.409,6.187l2.408-6.187h0.841l-2.903,7.324H57.058z"/>
	<path fill="#666666" d="M64.994,103.425c0.825,0,1.435-0.198,2.062-0.726v0.809c-0.544,0.445-1.27,0.643-2.128,0.643
		c-2.045,0-3.415-1.452-3.415-3.744c0-2.26,1.221-3.876,3.167-3.876c1.914,0,2.903,1.452,2.903,3.58v0.297h-5.262
		C62.322,102.385,63.476,103.425,64.994,103.425z M62.354,99.73h4.437c-0.049-1.287-0.66-2.475-2.111-2.475
		C63.476,97.255,62.553,98.146,62.354,99.73z"/>
	<path fill="#666666" d="M72.814,97.437c-0.198-0.083-0.413-0.132-0.676-0.132c-0.891,0-1.6,0.643-1.946,1.583v5.113h-0.825v-7.324
		h0.825v1.171c0.33-0.726,1.072-1.32,1.979-1.32c0.281,0,0.479,0.049,0.644,0.099L72.814,97.437L72.814,97.437z"/>
	<path fill="#666666" d="M83.885,102.715l1.798-6.037h0.792l-2.21,7.324h-0.709l-1.765-6.054l-1.765,6.054h-0.709l-2.21-7.324h0.808
		l1.798,6.037l1.749-6.037h0.676L83.885,102.715z"/>
	<path fill="#666666" d="M88.358,95.012c-0.313,0-0.561-0.248-0.561-0.561c0-0.297,0.248-0.561,0.561-0.561s0.561,0.264,0.561,0.561
		C88.919,94.765,88.671,95.012,88.358,95.012z M88.771,104.002h-0.825v-7.324h0.825V104.002z"/>
	<path fill="#666666" d="M92.681,104.002h-0.825v-6.614h-1.567v-0.709h1.567v-1.88h0.825v1.88h1.732v0.709h-1.732V104.002z"/>
	<path fill="#666666" d="M95.931,93.28h0.825v4.569c0.445-0.693,1.303-1.32,2.342-1.32c1.666,0,2.541,1.072,2.541,2.623v4.85h-0.808
		v-4.734c0-1.138-0.578-1.979-1.881-1.979c-1.006,0-1.831,0.709-2.193,1.583v5.13h-0.825L95.931,93.28L95.931,93.28z"/>
	<path fill="#666666" d="M108.521,99.631v4.371h-0.841V93.874h3.579c1.979,0,3.283,0.99,3.283,2.87c0,1.897-1.303,2.887-3.283,2.887
		H108.521z M111.226,94.633h-2.705v4.223h2.705c1.567,0,2.474-0.775,2.474-2.111C113.7,95.425,112.792,94.633,111.226,94.633z"/>
	<path fill="#666666" d="M119.608,97.437c-0.198-0.083-0.413-0.132-0.676-0.132c-0.891,0-1.6,0.643-1.946,1.583v5.113h-0.825v-7.324
		h0.825v1.171c0.33-0.726,1.072-1.32,1.979-1.32c0.281,0,0.479,0.049,0.644,0.099L119.608,97.437L119.608,97.437z"/>
	<path fill="#666666" d="M123.651,104.15c-1.93,0-3.233-1.55-3.233-3.81c0-2.26,1.303-3.811,3.233-3.811
		c1.946,0,3.249,1.551,3.249,3.811C126.9,102.6,125.597,104.15,123.651,104.15z M123.651,97.255c-1.452,0-2.408,1.237-2.408,3.085
		c0,1.847,0.957,3.084,2.408,3.084c1.468,0,2.424-1.237,2.424-3.084C126.075,98.493,125.119,97.255,123.651,97.255z"/>
	<path fill="#666666" d="M131.983,94.039c-0.214-0.115-0.462-0.181-0.742-0.181c-0.775,0-1.336,0.561-1.336,1.583v1.237h1.715v0.709
		h-1.715v6.614h-0.809v-6.614h-1.188v-0.709h1.188v-1.319c0-1.336,0.875-2.227,2.062-2.227c0.313,0,0.577,0.05,0.825,0.148V94.039
		L131.983,94.039z"/>
	<path fill="#666666" d="M133.386,95.012c-0.313,0-0.561-0.248-0.561-0.561c0-0.297,0.248-0.561,0.561-0.561
		s0.561,0.264,0.561,0.561C133.947,94.765,133.7,95.012,133.386,95.012z M133.799,104.002h-0.825v-7.324h0.825V104.002z"/>
	<path fill="#666666" d="M136.967,104.002h-0.825V93.28h0.825V104.002z"/>
	<path fill="#666666" d="M142.262,103.425c0.825,0,1.435-0.198,2.062-0.726v0.809c-0.544,0.445-1.27,0.643-2.128,0.643
		c-2.045,0-3.415-1.452-3.415-3.744c0-2.26,1.221-3.876,3.167-3.876c1.914,0,2.903,1.452,2.903,3.58v0.297h-5.262
		C139.59,102.385,140.745,103.425,142.262,103.425z M139.623,99.73h4.437c-0.049-1.287-0.66-2.475-2.111-2.475
		C140.745,97.255,139.821,98.146,139.623,99.73z"/>
	<path fill="#666666" d="M146.207,102.534c0.644,0.561,1.386,0.891,2.342,0.891c0.907,0,1.749-0.363,1.749-1.303
		c0-0.627-0.413-1.006-1.155-1.27l-1.221-0.445c-0.99-0.363-1.699-0.825-1.699-1.946c0-1.237,1.088-1.93,2.425-1.93
		c0.775,0,1.55,0.231,2.144,0.66v0.891c-0.61-0.479-1.237-0.825-2.144-0.825c-0.875,0-1.617,0.413-1.617,1.188
		c0,0.693,0.462,0.957,1.253,1.253l1.271,0.479c1.006,0.346,1.55,0.973,1.55,1.913c0,1.32-1.155,2.062-2.573,2.062
		c-0.973,0-1.847-0.33-2.326-0.726L146.207,102.534L146.207,102.534z"/>
	<path fill="#999999" d="M159.455,104.002h-0.825v-9.138l-2.656,1.369v-0.874l2.969-1.501h0.511L159.455,104.002L159.455,104.002z"
		/>
	<path fill="#999999" d="M162.442,100.769h3.612v-2.507h0.808v2.507h1.864v0.759h-1.864v2.474h-0.808v-2.474h-4.784v-0.066
		l3.514-7.588h0.841L162.442,100.769z"/>
</g>
<g>
	<g>
		<path fill="#00B388" d="M362.584,196.649c-5.246,15.981-20.297,27.56-38.011,27.56c-22.058,0-40.099-17.946-40.099-40.003
			c0-21.144,17.192-38.498,37.192-39.901v-11.026c-27,1.417-48.188,23.717-48.188,50.927c0,28.122,22.925,51,51.047,51
			c22.868,0,42.29-15.127,48.741-35.902L362.584,196.649z"/>
		<path fill="#FFC200" d="M353.372,142.138l-5.752,9.401c10.247,7.251,16.957,19.187,16.957,32.666c0,2.429-0.23,4.802-0.646,7.112
			l10.701,2.654c0.615-3.161,0.942-6.426,0.942-9.766C375.573,166.762,366.769,151.339,353.372,142.138z"/>
	</g>
	<g>
		<path fill="#FF2300" d="M327.667,129.977v17.641c4,0.372,9.473,1.731,13.688,3.88l9.284-15.044
			C343.718,132.696,336.667,130.399,327.667,129.977z"/>
	</g>
	<g>
		<path d="M319.235,167.047h10.859v0.12l-5.339,7.23c3,0.21,5.459,2.28,5.459,5.58c0,3.48-2.76,5.76-6.12,5.76
			c-2.25,0-3.75-0.63-4.92-1.53v-1.77c1.32,1.32,3.03,1.92,4.86,1.92c2.67,0,4.74-1.71,4.74-4.38c0-3.06-2.7-4.77-6.209-4.47v-0.12
			l5.04-6.93h-8.37V167.047z"/>
		<path d="M309.556,195.054c1,0,1.715,0.27,2.269,0.716v0.756c-0.688-0.594-1.391-0.824-2.255-0.824
			c-1.769,0-3.065,1.377-3.065,3.619c0,2.241,1.296,3.619,3.065,3.619c0.864,0,1.566-0.243,2.255-0.837v0.77
			c-0.554,0.446-1.269,0.716-2.269,0.716c-2.093,0-3.754-1.634-3.754-4.267C305.802,196.688,307.462,195.054,309.556,195.054z"/>
		<path d="M316.953,198.092c-0.162-0.067-0.338-0.108-0.554-0.108c-0.729,0-1.31,0.526-1.594,1.296v4.186h-0.675v-5.996h0.675v0.958
			c0.271-0.594,0.878-1.08,1.621-1.08c0.229,0,0.392,0.041,0.527,0.081V198.092L316.953,198.092z"/>
		<path d="M319.207,196.107c-0.256,0-0.459-0.203-0.459-0.459c0-0.243,0.203-0.459,0.459-0.459s0.459,0.216,0.459,0.459
			C319.666,195.904,319.463,196.107,319.207,196.107z M319.544,203.467h-0.675v-5.996h0.675V203.467z"/>
		<path d="M323.419,203.467h-0.675v-5.415h-1.283v-0.581h1.283v-1.54h0.675v1.54h1.418v0.581h-1.418V203.467z"/>
		<path d="M327.091,196.107c-0.256,0-0.459-0.203-0.459-0.459c0-0.243,0.203-0.459,0.459-0.459c0.256,0,0.459,0.216,0.459,0.459
			C327.55,195.904,327.347,196.107,327.091,196.107z M327.428,203.467h-0.675v-5.996h0.675V203.467z"/>
		<path d="M332.383,197.35c0.581,0,1.175,0.162,1.594,0.526v0.689c-0.473-0.432-0.972-0.608-1.566-0.608
			c-1.188,0-2.147,0.932-2.147,2.512c0,1.58,0.959,2.512,2.147,2.512c0.594,0,1.094-0.175,1.566-0.607v0.688
			c-0.418,0.365-1.013,0.527-1.594,0.527c-1.607,0-2.795-1.229-2.795-3.12C329.588,198.578,330.776,197.35,332.383,197.35z"/>
		<path d="M339.552,199.308c0-0.811-0.567-1.337-1.486-1.337c-0.688,0-1.256,0.203-1.742,0.526v-0.648
			c0.405-0.27,1.067-0.5,1.81-0.5c1.269,0,2.066,0.729,2.066,1.917v4.2h-0.648v-0.567c-0.257,0.311-0.918,0.662-1.661,0.662
			c-1.215,0-2.215-0.703-2.215-1.85c0-1.107,1-1.837,2.242-1.837c0.716,0,1.364,0.338,1.634,0.635V199.308z M339.552,201.333
			c-0.189-0.513-0.864-0.891-1.594-0.891c-0.851,0-1.634,0.418-1.634,1.27c0,0.851,0.783,1.283,1.634,1.283
			c0.729,0,1.404-0.378,1.594-0.891V201.333z"/>
		<path d="M343.398,203.467h-0.675v-8.778h0.675V203.467z"/>
	</g>
</g>
<g>
	<path fill="#00B388" d="M749.572,235.283c-28.121,0-50.998-22.878-50.998-51c0-28.119,22.877-50.999,50.998-50.999
		s51.002,22.879,51.002,50.999C800.574,212.405,777.693,235.283,749.572,235.283z M749.572,144.281
		c-22.057,0-40.002,17.947-40.002,40.002c0,22.059,17.945,40.005,40.002,40.005s40.004-17.946,40.004-40.005
		C789.576,162.229,771.628,144.281,749.572,144.281z"/>
	<g>
		<path d="M746.339,184.057v1.41h-11.551v-0.12l5.939-6.99c1.98-2.34,3.602-4.05,3.602-6.54c0-2.16-1.32-3.63-3.9-3.63
			c-2.1,0-3.93,1.2-5.221,2.55v-1.65c1.23-1.29,3.121-2.31,5.311-2.31c3.359,0,5.311,1.98,5.311,5.01c0,2.79-1.799,4.83-3.99,7.35
			l-4.26,4.919L746.339,184.057L746.339,184.057z"/>
		<path d="M748.621,176.257c0-5.61,2.699-9.48,6.779-9.48c4.051,0,6.75,3.87,6.75,9.48c0,5.61-2.699,9.479-6.75,9.479
			C751.32,185.737,748.621,181.867,748.621,176.257z M750.15,176.257c0,4.74,1.979,8.069,5.25,8.069c3.27,0,5.25-3.33,5.25-8.069
			c0-4.739-1.98-8.07-5.25-8.07C752.128,168.188,750.15,171.518,750.15,176.257z"/>
		<path d="M745.212,203.588c-2.107,0-3.66-1.729-3.66-4.267c0-2.539,1.555-4.268,3.66-4.268c2.119,0,3.672,1.729,3.672,4.268
			C748.884,201.86,747.333,203.588,745.212,203.588z M745.212,195.702c-1.756,0-2.959,1.485-2.959,3.619
			c0,2.133,1.203,3.619,2.959,3.619c1.768,0,2.971-1.485,2.971-3.619C748.183,197.188,746.982,195.702,745.212,195.702z"/>
		<path d="M751.152,198.957l4.186-3.781h0.906l-4.432,3.984l4.537,4.308h-0.902l-4.295-4.024v4.024h-0.689v-8.292h0.689V198.957z"/>
	</g>
</g>
<polyline fill="none" stroke="#00B388" stroke-width="1.5" stroke-miterlimit="10" points="175.226,95.029 179.358,99.249 
	175.226,103.469 "/>
<g>
	<path fill="#666666" d="M245.42,102.171c0.974,0.875,1.963,1.204,3.134,1.204c1.452,0,2.375-0.726,2.375-1.897
		c0-1.022-0.577-1.435-1.814-1.962l-1.484-0.627c-1.056-0.445-2.194-1.056-2.194-2.59c0-1.715,1.435-2.573,3.068-2.573
		c1.056,0,2.095,0.313,2.837,0.858v0.94c-0.792-0.66-1.683-1.022-2.821-1.022c-1.253,0-2.26,0.594-2.26,1.781
		c0,0.99,0.693,1.419,1.765,1.848l1.567,0.66c1.484,0.644,2.161,1.369,2.161,2.672c0,1.616-1.353,2.688-3.2,2.688
		c-1.353,0-2.474-0.429-3.134-1.006V102.171L245.42,102.171z"/>
	<path fill="#666666" d="M256.672,103.425c0.825,0,1.435-0.198,2.062-0.726v0.809c-0.544,0.445-1.27,0.643-2.128,0.643
		c-2.045,0-3.415-1.452-3.415-3.744c0-2.26,1.221-3.876,3.167-3.876c1.914,0,2.903,1.452,2.903,3.58v0.297H254
		C254,102.385,255.155,103.425,256.672,103.425z M254.033,99.73h4.437c-0.049-1.287-0.66-2.475-2.111-2.475
		C255.155,97.255,254.231,98.146,254.033,99.73z"/>
	<path fill="#666666" d="M264.493,97.437c-0.198-0.083-0.413-0.132-0.676-0.132c-0.891,0-1.6,0.643-1.946,1.583v5.113h-0.825v-7.324
		h0.825v1.171c0.33-0.726,1.072-1.32,1.979-1.32c0.281,0,0.479,0.049,0.644,0.099L264.493,97.437L264.493,97.437z"/>
	<path fill="#666666" d="M268.057,104.002l-2.919-7.324h0.874l2.409,6.187l2.408-6.187h0.841l-2.903,7.324H268.057z"/>
	<path fill="#666666" d="M275.993,103.425c0.825,0,1.435-0.198,2.062-0.726v0.809c-0.544,0.445-1.27,0.643-2.128,0.643
		c-2.045,0-3.415-1.452-3.415-3.744c0-2.26,1.221-3.876,3.167-3.876c1.914,0,2.903,1.452,2.903,3.58v0.297h-5.262
		C273.321,102.385,274.476,103.425,275.993,103.425z M273.354,99.73h4.437c-0.049-1.287-0.66-2.475-2.111-2.475
		C274.476,97.255,273.552,98.146,273.354,99.73z"/>
	<path fill="#666666" d="M283.814,97.437c-0.198-0.083-0.413-0.132-0.676-0.132c-0.891,0-1.6,0.643-1.946,1.583v5.113h-0.825v-7.324
		h0.825v1.171c0.33-0.726,1.072-1.32,1.979-1.32c0.281,0,0.479,0.049,0.644,0.099L283.814,97.437L283.814,97.437z"/>
	<path fill="#666666" d="M289.953,99.631v4.371h-0.841V93.874h3.579c1.979,0,3.283,0.99,3.283,2.87c0,1.897-1.303,2.887-3.283,2.887
		H289.953z M292.658,94.633h-2.705v4.223h2.705c1.567,0,2.474-0.775,2.474-2.111C295.132,95.425,294.225,94.633,292.658,94.633z"/>
	<path fill="#666666" d="M301.04,97.437c-0.198-0.083-0.413-0.132-0.676-0.132c-0.891,0-1.6,0.643-1.946,1.583v5.113h-0.825v-7.324
		h0.825v1.171c0.33-0.726,1.072-1.32,1.979-1.32c0.281,0,0.479,0.049,0.644,0.099L301.04,97.437L301.04,97.437z"/>
	<path fill="#666666" d="M305.083,104.15c-1.93,0-3.233-1.55-3.233-3.81c0-2.26,1.303-3.811,3.233-3.811
		c1.946,0,3.25,1.551,3.25,3.811C308.333,102.6,307.029,104.15,305.083,104.15z M305.083,97.255c-1.452,0-2.408,1.237-2.408,3.085
		c0,1.847,0.957,3.084,2.408,3.084c1.468,0,2.424-1.237,2.424-3.084C307.507,98.493,306.551,97.255,305.083,97.255z"/>
	<path fill="#666666" d="M313.415,94.039c-0.214-0.115-0.462-0.181-0.742-0.181c-0.775,0-1.336,0.561-1.336,1.583v1.237h1.715v0.709
		h-1.715v6.614h-0.809v-6.614h-1.188v-0.709h1.188v-1.319c0-1.336,0.875-2.227,2.062-2.227c0.313,0,0.577,0.05,0.825,0.148V94.039
		L313.415,94.039z"/>
	<path fill="#666666" d="M314.818,95.012c-0.313,0-0.561-0.248-0.561-0.561c0-0.297,0.248-0.561,0.561-0.561
		s0.561,0.264,0.561,0.561C315.379,94.765,315.132,95.012,314.818,95.012z M315.231,104.002h-0.825v-7.324h0.825V104.002z"/>
	<path fill="#666666" d="M318.399,104.002h-0.825V93.28h0.825V104.002z"/>
	<path fill="#666666" d="M323.694,103.425c0.825,0,1.435-0.198,2.062-0.726v0.809c-0.544,0.445-1.27,0.643-2.128,0.643
		c-2.045,0-3.415-1.452-3.415-3.744c0-2.26,1.221-3.876,3.167-3.876c1.914,0,2.903,1.452,2.903,3.58v0.297h-5.262
		C321.022,102.385,322.177,103.425,323.694,103.425z M321.055,99.73h4.437c-0.049-1.287-0.66-2.475-2.111-2.475
		C322.177,97.255,321.253,98.146,321.055,99.73z"/>
	<path fill="#666666" d="M327.639,102.534c0.643,0.561,1.386,0.891,2.342,0.891c0.907,0,1.749-0.363,1.749-1.303
		c0-0.627-0.413-1.006-1.155-1.27l-1.221-0.445c-0.99-0.363-1.699-0.825-1.699-1.946c0-1.237,1.088-1.93,2.425-1.93
		c0.775,0,1.55,0.231,2.144,0.66v0.891c-0.61-0.479-1.237-0.825-2.144-0.825c-0.875,0-1.617,0.413-1.617,1.188
		c0,0.693,0.462,0.957,1.253,1.253l1.271,0.479c1.006,0.346,1.55,0.973,1.55,1.913c0,1.32-1.155,2.062-2.573,2.062
		c-0.973,0-1.847-0.33-2.326-0.726L327.639,102.534L327.639,102.534z"/>
	<path fill="#999999" d="M343.576,103.227v0.775h-6.35v-0.066l3.266-3.843c1.089-1.287,1.979-2.227,1.979-3.596
		c0-1.188-0.726-1.996-2.144-1.996c-1.155,0-2.161,0.66-2.87,1.402v-0.907c0.676-0.709,1.715-1.27,2.919-1.27
		c1.847,0,2.919,1.089,2.919,2.755c0,1.534-0.99,2.656-2.194,4.041l-2.342,2.705H343.576z"/>
	<path fill="#999999" d="M344.551,100.736c0-0.726,0.182-1.402,0.742-2.408l2.541-4.454h0.874l-2.276,3.959
		c0.363-0.28,0.94-0.479,1.501-0.479c1.897,0,3.332,1.468,3.332,3.381c0,1.93-1.468,3.415-3.365,3.415
		C346.02,104.15,344.551,102.666,344.551,100.736z M347.9,98.081c-1.435,0-2.573,1.171-2.573,2.655c0,1.501,1.138,2.656,2.573,2.656
		c1.451,0,2.589-1.155,2.589-2.656C350.489,99.251,349.351,98.081,347.9,98.081z"/>
</g>
<polyline fill="none" stroke="#00B388" stroke-width="1.5" stroke-miterlimit="10" points="358.226,95.029 362.358,99.249 
	358.226,103.469 "/>
<polyline fill="none" stroke="#00B388" stroke-width="1.5" stroke-miterlimit="10" points="581.722,95.029 585.853,99.249 
	581.722,103.469 "/>
<g>
	<path fill="#666666" d="M455.419,102.171c0.975,0.875,1.963,1.204,3.135,1.204c1.451,0,2.375-0.726,2.375-1.897
		c0-1.022-0.578-1.435-1.814-1.962l-1.484-0.627c-1.055-0.445-2.193-1.056-2.193-2.59c0-1.715,1.436-2.573,3.068-2.573
		c1.055,0,2.094,0.313,2.836,0.858v0.94c-0.791-0.66-1.682-1.022-2.82-1.022c-1.254,0-2.26,0.594-2.26,1.781
		c0,0.99,0.693,1.419,1.766,1.848l1.566,0.66c1.484,0.644,2.16,1.369,2.16,2.672c0,1.616-1.352,2.688-3.199,2.688
		c-1.354,0-2.475-0.429-3.135-1.006V102.171L455.419,102.171z"/>
	<path fill="#666666" d="M466.671,103.425c0.826,0,1.436-0.198,2.063-0.726v0.809c-0.543,0.445-1.27,0.643-2.127,0.643
		c-2.047,0-3.416-1.452-3.416-3.744c0-2.26,1.221-3.876,3.168-3.876c1.912,0,2.902,1.452,2.902,3.58v0.297H464
		C464,102.385,465.156,103.425,466.671,103.425z M464.033,99.73h4.438c-0.049-1.287-0.66-2.475-2.111-2.475
		C465.156,97.255,464.23,98.146,464.033,99.73z"/>
	<path fill="#666666" d="M474.494,97.437c-0.199-0.083-0.414-0.132-0.676-0.132c-0.893,0-1.602,0.643-1.947,1.583v5.113h-0.824
		v-7.324h0.824v1.171c0.33-0.726,1.072-1.32,1.979-1.32c0.281,0,0.48,0.049,0.645,0.099V97.437L474.494,97.437z"/>
	<path fill="#666666" d="M478.056,104.002l-2.918-7.324h0.873l2.41,6.187l2.408-6.187h0.84l-2.902,7.324H478.056z"/>
	<path fill="#666666" d="M485.994,103.425c0.824,0,1.434-0.198,2.061-0.726v0.809c-0.543,0.445-1.27,0.643-2.127,0.643
		c-2.045,0-3.416-1.452-3.416-3.744c0-2.26,1.223-3.876,3.168-3.876c1.914,0,2.902,1.452,2.902,3.58v0.297h-5.262
		C483.322,102.385,484.476,103.425,485.994,103.425z M483.353,99.73h4.438c-0.049-1.287-0.66-2.475-2.111-2.475
		C484.476,97.255,483.552,98.146,483.353,99.73z"/>
	<path fill="#666666" d="M493.814,97.437c-0.197-0.083-0.412-0.132-0.676-0.132c-0.891,0-1.6,0.643-1.945,1.583v5.113h-0.826v-7.324
		h0.826v1.171c0.328-0.726,1.07-1.32,1.979-1.32c0.281,0,0.479,0.049,0.645,0.099v0.81H493.814z"/>
	<path fill="#666666" d="M507.21,93.874v10.128h-0.842v-4.833h-6.416v4.833h-0.84V93.874h0.84v4.52h6.416v-4.52H507.21z"/>
	<path fill="#666666" d="M513.812,98.921c0-0.99-0.693-1.633-1.814-1.633c-0.84,0-1.533,0.248-2.127,0.643V97.14
		c0.494-0.33,1.303-0.61,2.209-0.61c1.551,0,2.523,0.891,2.523,2.342v5.13h-0.793v-0.693c-0.313,0.379-1.121,0.808-2.027,0.808
		c-1.486,0-2.705-0.857-2.705-2.26c0-1.353,1.219-2.243,2.738-2.243c0.875,0,1.666,0.413,1.994,0.775v-1.468H513.812z
		 M513.812,101.396c-0.23-0.627-1.057-1.089-1.945-1.089c-1.041,0-1.996,0.511-1.996,1.55c0,1.04,0.957,1.567,1.996,1.567
		c0.891,0,1.715-0.462,1.945-1.089V101.396z"/>
	<path fill="#666666" d="M520.312,97.437c-0.197-0.083-0.412-0.132-0.676-0.132c-0.891,0-1.6,0.643-1.945,1.583v5.113h-0.824v-7.324
		h0.824v1.171c0.33-0.726,1.072-1.32,1.979-1.32c0.281,0,0.48,0.049,0.645,0.099v0.81H520.312z"/>
	<path fill="#666666" d="M526.599,102.913c-0.414,0.627-1.27,1.237-2.275,1.237c-2.162,0-3.201-1.781-3.201-3.81
		c0-2.029,1.041-3.811,3.201-3.811c1.006,0,1.863,0.61,2.275,1.237V93.28h0.809v10.722h-0.809V102.913z M526.599,98.74
		c-0.496-0.94-1.32-1.452-2.211-1.452c-1.533,0-2.439,1.287-2.439,3.052c0,1.765,0.906,3.051,2.439,3.051
		c0.893,0,1.715-0.511,2.211-1.452V98.74z"/>
	<path fill="#666666" d="M535.673,102.715l1.797-6.037h0.793l-2.211,7.324h-0.709l-1.764-6.054l-1.766,6.054h-0.709l-2.211-7.324
		h0.809l1.799,6.037l1.748-6.037h0.676L535.673,102.715z"/>
	<path fill="#666666" d="M543.841,98.921c0-0.99-0.693-1.633-1.814-1.633c-0.842,0-1.533,0.248-2.127,0.643V97.14
		c0.494-0.33,1.303-0.61,2.209-0.61c1.551,0,2.523,0.891,2.523,2.342v5.13h-0.793v-0.693c-0.313,0.379-1.121,0.808-2.029,0.808
		c-1.484,0-2.703-0.857-2.703-2.26c0-1.353,1.219-2.243,2.736-2.243c0.875,0,1.666,0.413,1.996,0.775v-1.468H543.841z
		 M543.841,101.396c-0.23-0.627-1.057-1.089-1.947-1.089c-1.039,0-1.994,0.511-1.994,1.55c0,1.04,0.957,1.567,1.994,1.567
		c0.893,0,1.717-0.462,1.947-1.089V101.396z"/>
	<path fill="#666666" d="M550.341,97.437c-0.197-0.083-0.412-0.132-0.676-0.132c-0.891,0-1.6,0.643-1.945,1.583v5.113h-0.826v-7.324
		h0.826v1.171c0.33-0.726,1.072-1.32,1.979-1.32c0.281,0,0.479,0.049,0.645,0.099v0.81H550.341z"/>
	<path fill="#666666" d="M554.632,103.425c0.824,0,1.436-0.198,2.063-0.726v0.809c-0.545,0.445-1.271,0.643-2.129,0.643
		c-2.045,0-3.414-1.452-3.414-3.744c0-2.26,1.221-3.876,3.166-3.876c1.914,0,2.902,1.452,2.902,3.58v0.297h-5.262
		C551.96,102.385,553.115,103.425,554.632,103.425z M551.994,99.73h4.436c-0.049-1.287-0.66-2.475-2.109-2.475
		C553.115,97.255,552.191,98.146,551.994,99.73z"/>
	<path fill="#999999" d="M565.472,104.002h-0.826v-9.138l-2.654,1.369v-0.874l2.969-1.501h0.51v10.144H565.472z"/>
	<path fill="#999999" d="M567.486,101.231c0-1.27,0.857-2.293,2.096-2.623c-1.023-0.363-1.684-1.237-1.684-2.276
		c0-1.485,1.254-2.606,2.986-2.606c1.748,0,3.002,1.122,3.002,2.606c0,1.039-0.676,1.913-1.684,2.276
		c1.238,0.33,2.096,1.353,2.096,2.623c0,1.682-1.436,2.919-3.414,2.919C568.921,104.15,567.486,102.913,567.486,101.231z
		 M573.49,101.198c0-1.253-1.088-2.227-2.605-2.227s-2.59,0.973-2.59,2.227c0,1.254,1.072,2.227,2.59,2.227
		S573.49,102.452,573.49,101.198z M573.078,96.349c0-1.072-0.891-1.897-2.193-1.897c-1.287,0-2.178,0.825-2.178,1.897
		c0,1.056,0.891,1.896,2.178,1.896C572.187,98.245,573.078,97.404,573.078,96.349z"/>
</g>
<line fill="none" stroke="#EAEAEA" stroke-width="2" stroke-miterlimit="10" x1="441.667" y1="114" x2="636.667" y2="114"/>
<line fill="none" stroke="#EAEAEA" stroke-width="2" stroke-miterlimit="10" x1="231.667" y1="114" x2="426.667" y2="114"/>
<line fill="none" stroke="#EAEAEA" stroke-width="2" stroke-miterlimit="10" x1="19.667" y1="114" x2="214.667" y2="114"/>
<line fill="none" stroke="#EAEAEA" stroke-width="2" stroke-miterlimit="10" x1="652.667" y1="114" x2="846.667" y2="114"/>
<g>
	<path fill="#666666" d="M667.419,102.171c0.973,0.875,1.963,1.204,3.135,1.204c1.451,0,2.375-0.726,2.375-1.897
		c0-1.022-0.578-1.435-1.814-1.962l-1.484-0.627c-1.055-0.445-2.193-1.056-2.193-2.59c0-1.715,1.436-2.573,3.068-2.573
		c1.055,0,2.094,0.313,2.836,0.858v0.94c-0.791-0.66-1.682-1.022-2.82-1.022c-1.254,0-2.26,0.594-2.26,1.781
		c0,0.99,0.693,1.419,1.766,1.848l1.566,0.66c1.484,0.644,2.162,1.369,2.162,2.672c0,1.616-1.354,2.688-3.201,2.688
		c-1.352,0-2.475-0.429-3.133-1.006v-0.974H667.419z"/>
	<path fill="#666666" d="M677.187,104.002h-0.824v-6.614h-1.566v-0.709h1.566v-1.88h0.824v1.88h1.73v0.709h-1.73V104.002z"/>
	<path fill="#666666" d="M683.044,104.15c-1.93,0-3.232-1.55-3.232-3.81c0-2.26,1.303-3.811,3.232-3.811
		c1.945,0,3.25,1.551,3.25,3.811C686.294,102.6,684.992,104.15,683.044,104.15z M683.044,97.255c-1.451,0-2.408,1.237-2.408,3.085
		c0,1.847,0.957,3.084,2.408,3.084c1.469,0,2.424-1.237,2.424-3.084C685.468,98.493,684.513,97.255,683.044,97.255z"/>
	<path fill="#666666" d="M691.558,97.437c-0.197-0.083-0.412-0.132-0.676-0.132c-0.891,0-1.602,0.643-1.947,1.583v5.113h-0.824
		v-7.324h0.824v1.171c0.33-0.726,1.072-1.32,1.98-1.32c0.279,0,0.477,0.049,0.643,0.099V97.437z"/>
	<path fill="#666666" d="M697.07,98.921c0-0.99-0.693-1.633-1.814-1.633c-0.84,0-1.533,0.248-2.127,0.643V97.14
		c0.494-0.33,1.303-0.61,2.209-0.61c1.551,0,2.525,0.891,2.525,2.342v5.13h-0.793v-0.693c-0.313,0.379-1.121,0.808-2.029,0.808
		c-1.484,0-2.705-0.857-2.705-2.26c0-1.353,1.221-2.243,2.738-2.243c0.875,0,1.666,0.413,1.996,0.775V98.921L697.07,98.921z
		 M697.07,101.396c-0.23-0.627-1.057-1.089-1.945-1.089c-1.039,0-1.996,0.511-1.996,1.55c0,1.04,0.957,1.567,1.996,1.567
		c0.891,0,1.715-0.462,1.945-1.089V101.396z"/>
	<path fill="#666666" d="M705.005,102.781c-0.412,0.61-1.254,1.204-2.26,1.204c-2.127,0-3.15-1.765-3.15-3.728
		s1.023-3.728,3.15-3.728c1.006,0,1.848,0.594,2.26,1.221v-1.072h0.811v6.796c0,2.425-1.617,3.48-3.365,3.48
		c-0.924,0-1.75-0.28-2.293-0.693v-0.94c0.725,0.66,1.5,0.891,2.293,0.891c1.434,0,2.557-0.858,2.557-2.689v-0.742H705.005z
		 M705.005,98.707c-0.479-0.907-1.303-1.418-2.178-1.418c-1.518,0-2.408,1.237-2.408,2.969c0,1.748,0.891,2.985,2.408,2.985
		c0.875,0,1.699-0.528,2.178-1.418V98.707z"/>
	<path fill="#666666" d="M711.128,103.425c0.824,0,1.434-0.198,2.063-0.726v0.809c-0.545,0.445-1.271,0.643-2.129,0.643
		c-2.045,0-3.414-1.452-3.414-3.744c0-2.26,1.221-3.876,3.168-3.876c1.912,0,2.9,1.452,2.9,3.58v0.297h-5.262
		C708.457,102.385,709.611,103.425,711.128,103.425z M708.49,99.73h4.438c-0.051-1.287-0.66-2.475-2.111-2.475
		C709.611,97.255,708.687,98.146,708.49,99.73z"/>
	<path fill="#666666" d="M720.123,99.631v4.371h-0.842V93.874h3.58c1.979,0,3.281,0.99,3.281,2.87c0,1.897-1.305,2.887-3.281,2.887
		H720.123z M722.828,94.633h-2.705v4.223h2.705c1.564,0,2.473-0.775,2.473-2.111C725.3,95.425,724.392,94.633,722.828,94.633z"/>
	<path fill="#666666" d="M730.251,104.15c-1.93,0-3.232-1.55-3.232-3.81c0-2.26,1.303-3.811,3.232-3.811
		c1.945,0,3.25,1.551,3.25,3.811C733.501,102.6,732.199,104.15,730.251,104.15z M730.251,97.255c-1.451,0-2.408,1.237-2.408,3.085
		c0,1.847,0.957,3.084,2.408,3.084c1.469,0,2.424-1.237,2.424-3.084C732.675,98.493,731.72,97.255,730.251,97.255z"/>
	<path fill="#666666" d="M738.041,104.15c-1.93,0-3.232-1.55-3.232-3.81c0-2.26,1.303-3.811,3.232-3.811
		c1.945,0,3.25,1.551,3.25,3.811C741.291,102.6,739.986,104.15,738.041,104.15z M738.041,97.255c-1.451,0-2.408,1.237-2.408,3.085
		c0,1.847,0.957,3.084,2.408,3.084c1.469,0,2.424-1.237,2.424-3.084C740.464,98.493,739.507,97.255,738.041,97.255z"/>
	<path fill="#666666" d="M743.931,104.002h-0.824V93.28h0.824V104.002z"/>
	<path fill="#666666" d="M745.781,102.534c0.643,0.561,1.385,0.891,2.342,0.891c0.906,0,1.748-0.363,1.748-1.303
		c0-0.627-0.412-1.006-1.154-1.27l-1.221-0.445c-0.99-0.363-1.699-0.825-1.699-1.946c0-1.237,1.088-1.93,2.424-1.93
		c0.775,0,1.553,0.231,2.146,0.66v0.891c-0.611-0.479-1.238-0.825-2.146-0.825c-0.873,0-1.615,0.413-1.615,1.188
		c0,0.693,0.463,0.957,1.254,1.253l1.27,0.479c1.008,0.346,1.551,0.973,1.551,1.913c0,1.32-1.152,2.062-2.572,2.062
		c-0.973,0-1.848-0.33-2.324-0.726v-0.892H745.781z"/>
	<path fill="#999999" d="M761.716,103.227v0.775h-6.352v-0.066l3.266-3.843c1.09-1.287,1.98-2.227,1.98-3.596
		c0-1.188-0.727-1.996-2.146-1.996c-1.154,0-2.16,0.66-2.869,1.402v-0.907c0.676-0.709,1.715-1.27,2.92-1.27
		c1.848,0,2.92,1.089,2.92,2.755c0,1.534-0.99,2.656-2.193,4.041l-2.342,2.705H761.716z"/>
	<path fill="#999999" d="M762.97,98.938c0-3.084,1.486-5.212,3.73-5.212c2.227,0,3.711,2.128,3.711,5.212s-1.484,5.212-3.711,5.212
		C764.457,104.15,762.97,102.022,762.97,98.938z M763.812,98.938c0,2.606,1.09,4.437,2.889,4.437c1.797,0,2.887-1.831,2.887-4.437
		s-1.09-4.437-2.887-4.437C764.902,94.501,763.812,96.332,763.812,98.938z"/>
</g>
<polyline fill="none" stroke="#00B388" stroke-width="1.5" stroke-miterlimit="10" points="776.703,95.029 780.833,99.249 
	776.703,103.469 "/>
<line fill="none" stroke="#EAEAEA" stroke-width="2" stroke-miterlimit="10" x1="19.667" y1="305" x2="214.667" y2="305"/>
<line fill="none" stroke="#EAEAEA" stroke-width="2" stroke-miterlimit="10" x1="231.667" y1="305" x2="424.667" y2="305"/>
<g>
	<path fill="#666666" d="M255.365,284.375v0.775h-5.459v3.744h4.948v0.775h-4.948v4.058h5.459v0.774h-6.284v-10.127H255.365
		L255.365,284.375z"/>
	<path fill="#666666" d="M257.446,287.179h0.825v1.171c0.445-0.692,1.303-1.32,2.342-1.32c1.666,0,2.541,1.072,2.541,2.623v4.851
		h-0.808v-4.734c0-1.139-0.578-1.979-1.881-1.979c-1.006,0-1.831,0.709-2.193,1.582v5.131h-0.825L257.446,287.179L257.446,287.179z"
		/>
	<path fill="#666666" d="M268.302,287.031c0.709,0,1.435,0.198,1.946,0.645v0.841c-0.577-0.528-1.188-0.742-1.913-0.742
		c-1.452,0-2.623,1.138-2.623,3.067c0,1.931,1.171,3.068,2.623,3.068c0.726,0,1.336-0.214,1.913-0.742v0.842
		c-0.511,0.445-1.237,0.643-1.946,0.643c-1.963,0-3.415-1.501-3.415-3.811C264.887,288.533,266.339,287.031,268.302,287.031z"/>
	<path fill="#666666" d="M272.873,294.503h-0.825v-10.723h0.825V294.503z"/>
	<path fill="#666666" d="M277.921,294.651c-1.93,0-3.233-1.55-3.233-3.81s1.303-3.812,3.233-3.812c1.946,0,3.249,1.552,3.249,3.812
		S279.868,294.651,277.921,294.651z M277.921,287.755c-1.452,0-2.408,1.238-2.408,3.086c0,1.847,0.957,3.084,2.408,3.084
		c1.468,0,2.424-1.237,2.424-3.084C280.346,288.994,279.389,287.755,277.921,287.755z"/>
	<path fill="#666666" d="M282.493,293.035c0.644,0.562,1.386,0.891,2.342,0.891c0.907,0,1.749-0.362,1.749-1.303
		c0-0.627-0.413-1.006-1.155-1.27l-1.221-0.445c-0.99-0.363-1.699-0.824-1.699-1.945c0-1.237,1.088-1.93,2.425-1.93
		c0.775,0,1.55,0.23,2.144,0.659v0.892c-0.61-0.479-1.237-0.826-2.144-0.826c-0.875,0-1.617,0.414-1.617,1.188
		c0,0.693,0.462,0.957,1.253,1.253l1.271,0.479c1.006,0.347,1.55,0.974,1.55,1.914c0,1.32-1.155,2.062-2.573,2.062
		c-0.973,0-1.847-0.33-2.326-0.726L282.493,293.035L282.493,293.035z"/>
	<path fill="#666666" d="M294.866,294.503h-0.808v-1.172c-0.445,0.692-1.287,1.319-2.326,1.319c-1.666,0-2.54-1.071-2.54-2.623
		v-4.85H290v4.733c0,1.139,0.577,1.979,1.88,1.979c1.006,0,1.814-0.709,2.177-1.583v-5.13h0.808L294.866,294.503L294.866,294.503z"
		/>
	<path fill="#666666" d="M300.658,287.938c-0.198-0.083-0.413-0.132-0.676-0.132c-0.891,0-1.6,0.643-1.946,1.583v5.112h-0.825
		v-7.323h0.825v1.171c0.33-0.727,1.072-1.32,1.979-1.32c0.281,0,0.479,0.049,0.644,0.1L300.658,287.938L300.658,287.938z"/>
	<path fill="#666666" d="M304.948,293.925c0.825,0,1.435-0.197,2.062-0.725v0.809c-0.544,0.445-1.27,0.643-2.128,0.643
		c-2.045,0-3.415-1.451-3.415-3.744c0-2.26,1.221-3.875,3.167-3.875c1.914,0,2.903,1.451,2.903,3.579v0.298h-5.262
		C302.276,292.886,303.431,293.925,304.948,293.925z M302.309,290.231h4.437c-0.049-1.287-0.66-2.476-2.111-2.476
		C303.431,287.755,302.507,288.647,302.309,290.231z"/>
	<path fill="#666666" d="M308.893,293.035c0.643,0.562,1.386,0.891,2.342,0.891c0.907,0,1.749-0.362,1.749-1.303
		c0-0.627-0.413-1.006-1.155-1.27l-1.221-0.445c-0.99-0.363-1.699-0.824-1.699-1.945c0-1.237,1.088-1.93,2.425-1.93
		c0.775,0,1.55,0.23,2.144,0.659v0.892c-0.61-0.479-1.237-0.826-2.144-0.826c-0.875,0-1.617,0.414-1.617,1.188
		c0,0.693,0.462,0.957,1.253,1.253l1.271,0.479c1.006,0.347,1.55,0.974,1.55,1.914c0,1.32-1.155,2.062-2.573,2.062
		c-0.973,0-1.847-0.33-2.326-0.726L308.893,293.035L308.893,293.035z"/>
	<path fill="#999999" d="M324.83,293.728v0.775h-6.35v-0.066l3.266-3.844c1.089-1.286,1.979-2.227,1.979-3.596
		c0-1.188-0.726-1.996-2.144-1.996c-1.155,0-2.161,0.66-2.87,1.402v-0.906c0.676-0.709,1.715-1.271,2.919-1.271
		c1.847,0,2.919,1.089,2.919,2.755c0,1.534-0.99,2.656-2.194,4.041l-2.342,2.705H324.83L324.83,293.728z"/>
	<path fill="#999999" d="M326.086,289.439c0-3.084,1.484-5.212,3.728-5.212c2.227,0,3.711,2.128,3.711,5.212
		s-1.484,5.212-3.711,5.212C327.57,294.651,326.086,292.523,326.086,289.439z M326.927,289.439c0,2.605,1.088,4.438,2.886,4.438
		s2.887-1.832,2.887-4.438s-1.088-4.438-2.887-4.438C328.016,285.001,326.927,286.833,326.927,289.439z"/>
</g>
<polyline fill="none" stroke="#00B388" stroke-width="1.5" stroke-miterlimit="10" points="340.226,285.529 344.358,289.75 
	340.226,293.968 "/>
<line fill="none" stroke="#EAEAEA" stroke-width="2" stroke-miterlimit="10" x1="442.667" y1="305" x2="634.667" y2="305"/>
<polyline fill="none" stroke="#00B388" stroke-width="1.5" stroke-miterlimit="10" points="130.155,285.529 134.286,289.75 
	130.155,293.968 "/>
<g>
	<path fill="#666666" d="M41.289,291.714c0,1.781-1.237,2.789-3.299,2.789h-3.414v-10.129h3.101c2.078,0,3.233,0.94,3.233,2.623
		c0,1.336-0.792,1.996-1.666,2.26C40.497,289.472,41.289,290.496,41.289,291.714z M37.676,288.928c1.55,0,2.408-0.628,2.408-1.897
		s-0.858-1.896-2.408-1.896H35.4v3.794H37.676z M35.4,293.744h2.639c1.583,0,2.408-0.808,2.408-2.045
		c0-1.236-0.825-2.045-2.408-2.045H35.4V293.744z"/>
	<path fill="#666666" d="M43.897,294.503h-0.825v-10.723h0.825V294.503z"/>
	<path fill="#666666" d="M50.364,289.421c0-0.989-0.693-1.633-1.814-1.633c-0.841,0-1.534,0.248-2.128,0.644v-0.792
		c0.495-0.33,1.303-0.609,2.21-0.609c1.55,0,2.523,0.891,2.523,2.342v5.129h-0.792v-0.692c-0.313,0.379-1.122,0.808-2.029,0.808
		c-1.485,0-2.705-0.856-2.705-2.26c0-1.354,1.22-2.242,2.738-2.242c0.875,0,1.666,0.412,1.996,0.774L50.364,289.421L50.364,289.421z
		 M50.364,291.897c-0.231-0.627-1.056-1.089-1.946-1.089c-1.04,0-1.996,0.511-1.996,1.55c0,1.04,0.957,1.567,1.996,1.567
		c0.891,0,1.715-0.463,1.946-1.09V291.897z"/>
	<path fill="#666666" d="M58.366,293.414c-0.413,0.627-1.27,1.237-2.276,1.237c-2.161,0-3.2-1.78-3.2-3.81s1.04-3.812,3.2-3.812
		c1.006,0,1.864,0.61,2.276,1.237v-4.487h0.808v10.722h-0.808V293.414z M58.366,289.242c-0.495-0.941-1.32-1.453-2.21-1.453
		c-1.534,0-2.441,1.287-2.441,3.053c0,1.765,0.907,3.051,2.441,3.051c0.891,0,1.715-0.512,2.21-1.452V289.242z"/>
	<path fill="#666666" d="M64.488,293.925c0.825,0,1.435-0.197,2.062-0.725v0.809c-0.544,0.445-1.27,0.643-2.128,0.643
		c-2.045,0-3.415-1.451-3.415-3.744c0-2.26,1.221-3.875,3.167-3.875c1.914,0,2.903,1.451,2.903,3.579v0.298h-5.262
		C61.816,292.886,62.97,293.925,64.488,293.925z M61.849,290.231h4.437c-0.049-1.287-0.66-2.476-2.111-2.476
		C62.97,287.755,62.047,288.647,61.849,290.231z"/>
	<path fill="#666666" d="M79.353,291.714c0,1.781-1.237,2.789-3.299,2.789H72.64v-10.129h3.101c2.078,0,3.233,0.94,3.233,2.623
		c0,1.336-0.792,1.996-1.666,2.26C78.561,289.472,79.353,290.496,79.353,291.714z M75.741,288.928c1.55,0,2.408-0.628,2.408-1.897
		s-0.858-1.896-2.408-1.896h-2.276v3.794H75.741z M73.464,293.744h2.639c1.583,0,2.408-0.808,2.408-2.045
		c0-1.236-0.825-2.045-2.408-2.045h-2.639V293.744z"/>
	<path fill="#666666" d="M85.376,289.421c0-0.989-0.693-1.633-1.814-1.633c-0.841,0-1.534,0.248-2.128,0.644v-0.792
		c0.495-0.33,1.303-0.609,2.21-0.609c1.55,0,2.523,0.891,2.523,2.342v5.129h-0.792v-0.692c-0.313,0.379-1.122,0.808-2.029,0.808
		c-1.485,0-2.705-0.856-2.705-2.26c0-1.354,1.22-2.242,2.738-2.242c0.875,0,1.666,0.412,1.996,0.774L85.376,289.421L85.376,289.421z
		 M85.376,291.897c-0.231-0.627-1.056-1.089-1.946-1.089c-1.04,0-1.996,0.511-1.996,1.55c0,1.04,0.957,1.567,1.996,1.567
		c0.891,0,1.715-0.463,1.946-1.09V291.897z"/>
	<path fill="#666666" d="M89.156,297.307l1.188-2.903l-2.87-7.225h0.874l2.409,6.201l2.408-6.201h0.841l-4.024,10.128H89.156
		L89.156,297.307z"/>
	<path fill="#666666" d="M94.964,293.035c0.643,0.562,1.386,0.891,2.342,0.891c0.907,0,1.749-0.362,1.749-1.303
		c0-0.627-0.413-1.006-1.155-1.27l-1.221-0.445c-0.99-0.363-1.699-0.824-1.699-1.945c0-1.237,1.088-1.93,2.425-1.93
		c0.775,0,1.55,0.23,2.144,0.659v0.892c-0.61-0.479-1.237-0.826-2.144-0.826c-0.875,0-1.617,0.414-1.617,1.188
		c0,0.693,0.462,0.957,1.253,1.253l1.271,0.479c1.006,0.347,1.55,0.974,1.55,1.914c0,1.32-1.155,2.062-2.573,2.062
		c-0.973,0-1.847-0.33-2.326-0.726L94.964,293.035L94.964,293.035z"/>
	<path fill="#999999" d="M108.461,291.237c0-0.726,0.182-1.401,0.742-2.407l2.541-4.455h0.874l-2.276,3.959
		c0.363-0.279,0.94-0.479,1.501-0.479c1.897,0,3.332,1.469,3.332,3.381c0,1.93-1.468,3.415-3.365,3.415
		C109.929,294.651,108.461,293.167,108.461,291.237z M111.81,288.582c-1.435,0-2.573,1.172-2.573,2.655
		c0,1.501,1.138,2.656,2.573,2.656c1.451,0,2.589-1.155,2.589-2.656C114.399,289.751,113.261,288.582,111.81,288.582z"/>
	<path fill="#999999" d="M116.463,289.439c0-3.084,1.484-5.212,3.728-5.212c2.227,0,3.711,2.128,3.711,5.212
		s-1.484,5.212-3.711,5.212C117.948,294.651,116.463,292.523,116.463,289.439z M117.305,289.439c0,2.605,1.088,4.438,2.886,4.438
		s2.887-1.832,2.887-4.438s-1.088-4.438-2.887-4.438C118.393,285.001,117.305,286.833,117.305,289.439z"/>
</g>
<line fill="none" stroke="#EAEAEA" stroke-width="2" stroke-miterlimit="10" x1="652.667" y1="305" x2="846.667" y2="305"/>
<g>
	<path fill="#666666" d="M669.082,284.375h0.842v9.354h5.492v0.775h-6.334V284.375z"/>
	<path fill="#666666" d="M679.755,294.651c-1.93,0-3.232-1.55-3.232-3.81s1.303-3.812,3.232-3.812c1.945,0,3.25,1.552,3.25,3.812
		S681.703,294.651,679.755,294.651z M679.755,287.755c-1.451,0-2.408,1.238-2.408,3.086c0,1.847,0.957,3.084,2.408,3.084
		c1.469,0,2.424-1.237,2.424-3.084C682.179,288.994,681.224,287.755,679.755,287.755z"/>
	<path fill="#666666" d="M689.72,293.283c-0.412,0.609-1.254,1.203-2.26,1.203c-2.127,0-3.15-1.765-3.15-3.729
		c0-1.963,1.023-3.727,3.15-3.727c1.006,0,1.848,0.594,2.26,1.221v-1.072h0.811v6.796c0,2.425-1.617,3.479-3.365,3.479
		c-0.924,0-1.75-0.279-2.293-0.692v-0.94c0.725,0.66,1.5,0.891,2.293,0.891c1.434,0,2.557-0.857,2.557-2.688v-0.741H689.72z
		 M689.72,289.208c-0.479-0.908-1.303-1.418-2.178-1.418c-1.518,0-2.408,1.236-2.408,2.969c0,1.748,0.893,2.984,2.408,2.984
		c0.875,0,1.699-0.527,2.178-1.418V289.208z"/>
	<path fill="#666666" d="M693.302,285.513c-0.313,0-0.561-0.248-0.561-0.561c0-0.298,0.248-0.562,0.561-0.562
		c0.314,0,0.563,0.264,0.563,0.562C693.865,285.266,693.617,285.513,693.302,285.513z M693.714,294.503h-0.824v-7.324h0.824V294.503
		z"/>
	<path fill="#666666" d="M698.945,287.031c0.709,0,1.436,0.198,1.945,0.645v0.841c-0.576-0.528-1.188-0.742-1.912-0.742
		c-1.451,0-2.623,1.138-2.623,3.067c0,1.931,1.172,3.068,2.623,3.068c0.727,0,1.336-0.214,1.912-0.742v0.842
		c-0.51,0.445-1.236,0.643-1.945,0.643c-1.963,0-3.414-1.501-3.414-3.811C695.531,288.533,696.982,287.031,698.945,287.031z"/>
	<path fill="#666666" d="M706.88,289.421c0-0.989-0.693-1.633-1.813-1.633c-0.844,0-1.535,0.248-2.129,0.644v-0.792
		c0.494-0.33,1.303-0.609,2.211-0.609c1.551,0,2.523,0.891,2.523,2.342v5.129h-0.793v-0.692c-0.313,0.379-1.121,0.808-2.029,0.808
		c-1.482,0-2.705-0.856-2.705-2.26c0-1.354,1.223-2.242,2.738-2.242c0.875,0,1.666,0.412,1.996,0.774V289.421L706.88,289.421z
		 M706.88,291.897c-0.23-0.627-1.055-1.089-1.945-1.089c-1.039,0-1.996,0.511-1.996,1.55c0,1.04,0.957,1.567,1.996,1.567
		c0.891,0,1.715-0.463,1.945-1.09V291.897z"/>
	<path fill="#666666" d="M710.759,294.503h-0.824v-10.723h0.824V294.503z"/>
	<path fill="#666666" d="M717.722,294.503h-0.842v-10.129h0.842V294.503z"/>
	<path fill="#666666" d="M720.199,287.179h0.824v1.171c0.445-0.692,1.303-1.32,2.342-1.32c1.666,0,2.541,1.072,2.541,2.623v4.851
		h-0.809v-4.734c0-1.139-0.578-1.979-1.881-1.979c-1.006,0-1.832,0.709-2.193,1.582v5.131h-0.824V287.179z"/>
	<path fill="#666666" d="M729.736,294.503h-0.826v-6.614h-1.566v-0.709h1.566v-1.88h0.826v1.88h1.73v0.709h-1.73V294.503z"/>
	<path fill="#666666" d="M735.839,293.925c0.824,0,1.436-0.197,2.063-0.725v0.809c-0.545,0.445-1.271,0.643-2.129,0.643
		c-2.045,0-3.414-1.451-3.414-3.744c0-2.26,1.221-3.875,3.168-3.875c1.912,0,2.9,1.451,2.9,3.579v0.298h-5.262
		C733.167,292.886,734.322,293.925,735.839,293.925z M733.201,290.231h4.438c-0.051-1.287-0.66-2.476-2.111-2.476
		C734.322,287.755,733.398,288.647,733.201,290.231z"/>
	<path fill="#666666" d="M743.66,287.938c-0.197-0.083-0.412-0.132-0.676-0.132c-0.891,0-1.602,0.643-1.945,1.583v5.112h-0.826
		v-7.323h0.826v1.171c0.33-0.727,1.072-1.32,1.979-1.32c0.279,0,0.479,0.049,0.643,0.1V287.938z"/>
	<path fill="#666666" d="M747.884,287.031c0.709,0,1.438,0.198,1.947,0.645v0.841c-0.578-0.528-1.189-0.742-1.914-0.742
		c-1.451,0-2.623,1.138-2.623,3.067c0,1.931,1.172,3.068,2.623,3.068c0.727,0,1.336-0.214,1.914-0.742v0.842
		c-0.512,0.445-1.238,0.643-1.947,0.643c-1.963,0-3.414-1.501-3.414-3.811C744.47,288.533,745.921,287.031,747.884,287.031z"/>
	<path fill="#666666" d="M754.335,294.651c-1.93,0-3.232-1.55-3.232-3.81s1.305-3.812,3.232-3.812c1.947,0,3.25,1.552,3.25,3.812
		S756.283,294.651,754.335,294.651z M754.335,287.755c-1.451,0-2.408,1.238-2.408,3.086c0,1.847,0.957,3.084,2.408,3.084
		c1.469,0,2.426-1.237,2.426-3.084C756.761,288.994,755.804,287.755,754.335,287.755z"/>
	<path fill="#666666" d="M759.404,287.179h0.824v1.171c0.445-0.692,1.303-1.32,2.342-1.32c1.666,0,2.541,1.072,2.541,2.623v4.851
		h-0.809v-4.734c0-1.139-0.578-1.979-1.881-1.979c-1.006,0-1.832,0.709-2.193,1.582v5.131h-0.824V287.179z"/>
	<path fill="#666666" d="M767.373,287.179h0.826v1.171c0.443-0.692,1.303-1.32,2.342-1.32c1.666,0,2.539,1.072,2.539,2.623v4.851
		h-0.809v-4.734c0-1.139-0.576-1.979-1.881-1.979c-1.006,0-1.83,0.709-2.191,1.582v5.131h-0.826V287.179z"/>
	<path fill="#666666" d="M778.294,293.925c0.824,0,1.436-0.197,2.063-0.725v0.809c-0.545,0.445-1.271,0.643-2.129,0.643
		c-2.045,0-3.412-1.451-3.412-3.744c0-2.26,1.221-3.875,3.166-3.875c1.912,0,2.902,1.451,2.902,3.579v0.298h-5.262
		C775.623,292.886,776.779,293.925,778.294,293.925z M775.656,290.231h4.438c-0.049-1.287-0.66-2.476-2.109-2.476
		C776.779,287.755,775.853,288.647,775.656,290.231z"/>
	<path fill="#666666" d="M785.554,287.031c0.709,0,1.438,0.198,1.947,0.645v0.841c-0.578-0.528-1.189-0.742-1.914-0.742
		c-1.451,0-2.623,1.138-2.623,3.067c0,1.931,1.172,3.068,2.623,3.068c0.727,0,1.336-0.214,1.914-0.742v0.842
		c-0.512,0.445-1.238,0.643-1.947,0.643c-1.963,0-3.414-1.501-3.414-3.811C782.14,288.533,783.591,287.031,785.554,287.031z"/>
	<path fill="#666666" d="M790.933,294.503h-0.824v-6.614h-1.566v-0.709h1.566v-1.88h0.824v1.88h1.732v0.709h-1.732V294.503z"/>
	<path fill="#666666" d="M793.673,293.035c0.645,0.562,1.385,0.891,2.342,0.891c0.908,0,1.748-0.362,1.748-1.303
		c0-0.627-0.412-1.006-1.152-1.27l-1.223-0.445c-0.988-0.363-1.697-0.824-1.697-1.945c0-1.237,1.088-1.93,2.424-1.93
		c0.775,0,1.551,0.23,2.145,0.659v0.892c-0.609-0.479-1.236-0.826-2.145-0.826c-0.873,0-1.615,0.414-1.615,1.188
		c0,0.693,0.461,0.957,1.254,1.253l1.27,0.479c1.008,0.347,1.551,0.974,1.551,1.914c0,1.32-1.154,2.062-2.572,2.062
		c-0.973,0-1.848-0.33-2.326-0.726v-0.893H793.673z"/>
	<path fill="#999999" d="M809.611,293.728v0.775h-6.352v-0.066l3.268-3.844c1.088-1.286,1.979-2.227,1.979-3.596
		c0-1.188-0.727-1.996-2.145-1.996c-1.154,0-2.16,0.66-2.871,1.402v-0.906c0.678-0.709,1.717-1.271,2.92-1.271
		c1.848,0,2.92,1.089,2.92,2.755c0,1.534-0.99,2.656-2.193,4.041l-2.342,2.705H809.611L809.611,293.728z"/>
	<path fill="#999999" d="M817.037,293.728v0.775h-6.352v-0.066l3.266-3.844c1.09-1.286,1.979-2.227,1.979-3.596
		c0-1.188-0.725-1.996-2.145-1.996c-1.154,0-2.16,0.66-2.869,1.402v-0.906c0.676-0.709,1.715-1.271,2.92-1.271
		c1.848,0,2.92,1.089,2.92,2.755c0,1.534-0.99,2.656-2.195,4.041l-2.342,2.705H817.037L817.037,293.728z"/>
</g>
<polyline fill="none" stroke="#00B388" stroke-width="1.5" stroke-miterlimit="10" points="823.154,285.529 827.285,289.75 
	823.154,293.968 "/>
<g>
	<g>
		<g>
			<path fill="#E8E8E8" d="M142.063,403.292c-6.863,5.91-15.782,9.492-25.528,9.492c-21.608,0-39.792-17.578-39.792-39.186
				c0-20.711,16.923-37.713,35.923-39.086V323.71c-25,1.389-46.695,23.234-46.695,49.889c0,27.549,22.716,49.959,50.262,49.959
				c12.716,0,24.487-4.777,33.314-12.629L142.063,403.292z"/>
		</g>
		<g>
			<path fill="#60798D" d="M118.667,337.757c20,1.398,33.528,16.936,33.528,35.842c0,9.039-3.209,17.299-8.734,23.623l12.282,12.205
				c8.637-9.461,13.65-22.039,13.65-35.828c0-28.416-21.727-51.697-50.727-53.123L118.667,337.757L118.667,337.757z"/>
		</g>
	</g>
	<g>
		<path d="M113.604,372.556v1.41h-11.549v-0.119l5.939-6.99c1.98-2.34,3.6-4.051,3.6-6.539c0-2.16-1.32-3.631-3.9-3.631
			c-2.1,0-3.93,1.199-5.22,2.551v-1.65c1.23-1.291,3.12-2.311,5.31-2.311c3.36,0,5.31,1.98,5.31,5.01c0,2.791-1.8,4.83-3.99,7.35
			l-4.26,4.92H113.604L113.604,372.556z"/>
		<path d="M116.964,368.087h6.569v-4.561h1.47v4.561h3.39v1.379h-3.39v4.5h-1.47v-4.5h-8.699v-0.119l6.39-13.801h1.53
			L116.964,368.087z"/>
		<path fill="#333333" d="M88.713,388.388v3.578h-0.688v-8.291h2.93c1.621,0,2.688,0.811,2.688,2.35
			c0,1.553-1.067,2.363-2.688,2.363H88.713L88.713,388.388z M90.928,384.296h-2.215v3.457h2.215c1.283,0,2.025-0.635,2.025-1.729
			C92.954,384.945,92.211,384.296,90.928,384.296z"/>
		<path fill="#333333" d="M97.678,392.087c-1.58,0-2.646-1.27-2.646-3.119s1.066-3.119,2.646-3.119c1.594,0,2.661,1.27,2.661,3.119
			S99.271,392.087,97.678,392.087z M97.678,386.445c-1.188,0-1.972,1.012-1.972,2.523c0,1.514,0.783,2.525,1.972,2.525
			c1.202,0,1.985-1.012,1.985-2.525C99.663,387.457,98.88,386.445,97.678,386.445z"/>
		<path fill="#333333" d="M103.172,394.263h-0.675v-8.293h0.675v0.893c0.338-0.514,1.04-1.014,1.864-1.014
			c1.769,0,2.62,1.473,2.62,3.119s-0.851,3.119-2.62,3.119c-0.824,0-1.526-0.5-1.864-1.012V394.263z M103.172,390.279
			c0.405,0.77,1.067,1.188,1.796,1.188c1.269,0,2.012-1.053,2.012-2.498s-0.743-2.498-2.012-2.498c-0.729,0-1.391,0.418-1.796,1.188
			V390.279z"/>
		<path fill="#333333" d="M114.392,391.966h-0.662v-0.959c-0.365,0.568-1.053,1.082-1.904,1.082c-1.364,0-2.08-0.879-2.08-2.146
			v-3.971h0.662v3.875c0,0.932,0.473,1.621,1.54,1.621c0.824,0,1.485-0.582,1.783-1.297v-4.199h0.662L114.392,391.966
			L114.392,391.966z"/>
		<path fill="#333333" d="M117.657,391.966h-0.675v-8.777h0.675V391.966z"/>
		<path fill="#333333" d="M123.625,387.808c0-0.811-0.567-1.338-1.486-1.338c-0.688,0-1.256,0.203-1.742,0.527v-0.648
			c0.405-0.27,1.067-0.5,1.81-0.5c1.269,0,2.066,0.729,2.066,1.916v4.201h-0.648V391.4c-0.257,0.311-0.918,0.66-1.661,0.66
			c-1.215,0-2.215-0.701-2.215-1.85c0-1.107,1-1.836,2.242-1.836c0.716,0,1.364,0.338,1.634,0.635V387.808z M123.625,389.833
			c-0.189-0.514-0.864-0.891-1.594-0.891c-0.851,0-1.634,0.418-1.634,1.27s0.783,1.283,1.634,1.283c0.729,0,1.404-0.379,1.594-0.893
			V389.833z"/>
		<path fill="#333333" d="M128.066,391.966h-0.675v-5.414h-1.283v-0.582h1.283v-1.539h0.675v1.539h1.418v0.582h-1.418V391.966z"/>
		<path fill="#333333" d="M133.736,391.494c0.675,0,1.175-0.162,1.688-0.594v0.662c-0.446,0.365-1.04,0.527-1.742,0.527
			c-1.674,0-2.795-1.188-2.795-3.064c0-1.852,0.999-3.174,2.593-3.174c1.566,0,2.376,1.188,2.376,2.93v0.244h-4.308
			C131.549,390.644,132.494,391.494,133.736,391.494z M131.576,388.468h3.633c-0.041-1.053-0.541-2.023-1.729-2.023
			C132.494,386.445,131.738,387.173,131.576,388.468z"/>
		<path fill="#333333" d="M142.039,391.076c-0.337,0.514-1.04,1.014-1.863,1.014c-1.769,0-2.62-1.459-2.62-3.121
			c0-1.66,0.851-3.119,2.62-3.119c0.824,0,1.526,0.5,1.863,1.014v-3.672h0.662v8.777h-0.662V391.076z M142.039,387.66
			c-0.405-0.771-1.08-1.189-1.809-1.189c-1.256,0-1.999,1.055-1.999,2.498c0,1.445,0.743,2.5,1.999,2.5
			c0.729,0,1.404-0.42,1.809-1.188V387.66z"/>
	</g>
</g>
<g>
	<path fill="#00B388" d="M328.071,424.283c-28.121,0-50.999-22.877-50.999-51c0-28.119,22.878-50.998,50.999-50.998
		c28.123,0,51.001,22.879,51.001,50.998C379.072,401.406,356.194,424.283,328.071,424.283z M328.071,333.281
		c-22.056,0-40.002,17.947-40.002,40.002c0,22.059,17.946,40.006,40.002,40.006c22.059,0,40.005-17.947,40.005-40.006
		C368.076,351.228,350.129,333.281,328.071,333.281z"/>
	<g>
		<path d="M324.839,373.056v1.41H313.29v-0.121l5.939-6.988c1.98-2.342,3.6-4.051,3.6-6.541c0-2.16-1.32-3.631-3.9-3.631
			c-2.1,0-3.93,1.201-5.22,2.551v-1.65c1.23-1.289,3.12-2.309,5.31-2.309c3.36,0,5.31,1.979,5.31,5.01c0,2.789-1.8,4.83-3.99,7.35
			l-4.26,4.918h8.76V373.056z"/>
		<path d="M327.119,365.257c0-5.609,2.7-9.48,6.78-9.48c4.05,0,6.75,3.869,6.75,9.48c0,5.609-2.7,9.479-6.75,9.479
			C329.819,374.736,327.119,370.867,327.119,365.257z M328.649,365.257c0,4.74,1.98,8.068,5.25,8.068s5.25-3.33,5.25-8.068
			c0-4.74-1.98-8.07-5.25-8.07S328.649,360.517,328.649,365.257z"/>
		<path d="M323.711,392.587c-2.106,0-3.659-1.729-3.659-4.266c0-2.539,1.553-4.27,3.659-4.27c2.12,0,3.673,1.73,3.673,4.27
			C327.384,390.859,325.831,392.587,323.711,392.587z M323.711,384.703c-1.755,0-2.957,1.484-2.957,3.619
			c0,2.133,1.202,3.619,2.957,3.619c1.769,0,2.971-1.486,2.971-3.619C326.682,386.187,325.48,384.703,323.711,384.703z"/>
		<path d="M329.65,387.957l4.187-3.781h0.905l-4.43,3.984l4.538,4.307h-0.905l-4.294-4.023v4.023h-0.688v-8.291h0.688
			L329.65,387.957L329.65,387.957z"/>
	</g>
</g>
<g>
	<path fill="#00B388" d="M748.072,424.283c-28.121,0-50.998-22.877-50.998-51c0-28.119,22.877-50.998,50.998-50.998
		s51.002,22.879,51.002,50.998C799.074,401.406,776.193,424.283,748.072,424.283z M748.072,333.281
		c-22.057,0-40.002,17.947-40.002,40.002c0,22.059,17.945,40.006,40.002,40.006s40.004-17.947,40.004-40.006
		C788.076,351.228,770.128,333.281,748.072,333.281z"/>
	<g>
		<path d="M746.128,373.056v1.41H734.58v-0.121l5.939-6.988c1.979-2.342,3.6-4.051,3.6-6.541c0-2.16-1.32-3.631-3.9-3.631
			c-2.1,0-3.93,1.201-5.219,2.551v-1.65c1.229-1.289,3.119-2.309,5.311-2.309c3.359,0,5.311,1.979,5.311,5.01
			c0,2.789-1.801,4.83-3.99,7.35l-4.26,4.918h8.758V373.056z"/>
		<path d="M759.628,373.056v1.41h-11.551v-0.121l5.939-6.988c1.98-2.342,3.602-4.051,3.602-6.541c0-2.16-1.32-3.631-3.9-3.631
			c-2.1,0-3.93,1.201-5.221,2.551v-1.65c1.23-1.289,3.121-2.309,5.311-2.309c3.359,0,5.311,1.979,5.311,5.01
			c0,2.789-1.799,4.83-3.99,7.35l-4.26,4.918h8.76V373.056z"/>
		<path d="M743.712,392.587c-2.107,0-3.66-1.729-3.66-4.266c0-2.539,1.555-4.27,3.66-4.27c2.119,0,3.672,1.73,3.672,4.27
			C747.384,390.859,745.833,392.587,743.712,392.587z M743.712,384.703c-1.756,0-2.959,1.484-2.959,3.619
			c0,2.133,1.203,3.619,2.959,3.619c1.768,0,2.971-1.486,2.971-3.619C746.683,386.187,745.482,384.703,743.712,384.703z"/>
		<path d="M749.652,387.957l4.186-3.781h0.906l-4.432,3.984l4.537,4.307h-0.902l-4.295-4.023v4.023h-0.689v-8.291h0.689V387.957z"/>
	</g>
</g>
<g>
	<g>
		<g>
			<path fill="#00B388" d="M565.062,403.292c-6.861,5.91-15.781,9.492-25.527,9.492c-21.607,0-39.791-17.578-39.791-39.186
				c0-20.711,16.922-37.713,35.922-39.086V323.71c-25,1.389-46.695,23.234-46.695,49.889c0,27.549,22.717,49.959,50.264,49.959
				c12.715,0,24.486-4.777,33.313-12.629L565.062,403.292z"/>
		</g>
		<g>
			<path fill="#FFC200" d="M541.667,337.757c20,1.398,33.527,16.936,33.527,35.842c0,9.039-3.209,17.299-8.734,23.623l12.283,12.205
				c8.637-9.461,13.648-22.039,13.648-35.828c0-28.416-21.727-51.697-50.727-53.123v17.281H541.667z"/>
		</g>
	</g>
	<g>
		<path d="M532.583,372.966h-1.5v-16.619l-4.83,2.49v-1.59l5.4-2.73h0.93V372.966L532.583,372.966z"/>
		<path d="M536.484,363.757c0-5.609,2.699-9.48,6.779-9.48c4.051,0,6.75,3.869,6.75,9.48c0,5.609-2.699,9.479-6.75,9.479
			C539.183,373.236,536.484,369.367,536.484,363.757z M538.013,363.757c0,4.74,1.98,8.068,5.25,8.068c3.271,0,5.25-3.33,5.25-8.068
			c0-4.74-1.979-8.07-5.25-8.07C539.994,355.687,538.013,359.017,538.013,363.757z"/>
		<path d="M520.638,382.675l1.945,7.129l1.916-7.129h0.676l-2.256,8.291h-0.621l-1.957-7.063l-1.945,7.063h-0.607l-2.27-8.291h0.689
			l1.918,7.129l1.945-7.129H520.638z"/>
		<path d="M530.208,386.806c0-0.809-0.566-1.336-1.486-1.336c-0.688,0-1.256,0.203-1.742,0.527v-0.648
			c0.406-0.27,1.068-0.5,1.811-0.5c1.27,0,2.066,0.729,2.066,1.916v4.201h-0.648V390.4c-0.256,0.311-0.918,0.66-1.66,0.66
			c-1.215,0-2.215-0.701-2.215-1.85c0-1.107,1-1.836,2.242-1.836c0.715,0,1.363,0.338,1.633,0.635V386.806L530.208,386.806z
			 M530.208,388.833c-0.189-0.514-0.863-0.891-1.594-0.891c-0.852,0-1.633,0.418-1.633,1.27s0.781,1.283,1.633,1.283
			c0.729,0,1.404-0.379,1.594-0.893V388.833z"/>
		<path d="M536.203,385.591c-0.162-0.066-0.338-0.107-0.553-0.107c-0.73,0-1.311,0.525-1.596,1.297v4.186h-0.674v-5.996h0.674v0.957
			c0.271-0.594,0.879-1.08,1.621-1.08c0.23,0,0.393,0.041,0.527,0.082V385.591L536.203,385.591z"/>
		<path d="M538.119,384.97h0.676v0.959c0.365-0.566,1.066-1.08,1.918-1.08c1.363,0,2.08,0.877,2.08,2.146v3.971h-0.662v-3.875
			c0-0.932-0.473-1.621-1.539-1.621c-0.824,0-1.5,0.58-1.797,1.295v4.201h-0.674v-5.996H538.119z"/>
		<path d="M545.652,383.607c-0.256,0-0.459-0.203-0.459-0.461c0-0.242,0.203-0.459,0.459-0.459s0.459,0.217,0.459,0.459
			C546.111,383.404,545.91,383.607,545.652,383.607z M545.99,390.966h-0.674v-5.996h0.674V390.966z"/>
		<path d="M548.582,384.97h0.676v0.959c0.365-0.566,1.066-1.08,1.918-1.08c1.363,0,2.08,0.877,2.08,2.146v3.971h-0.662v-3.875
			c0-0.932-0.473-1.621-1.541-1.621c-0.822,0-1.498,0.58-1.795,1.295v4.201h-0.676V384.97L548.582,384.97z"/>
		<path d="M559.775,389.966c-0.34,0.5-1.027,0.986-1.852,0.986c-1.742,0-2.578-1.445-2.578-3.051c0-1.607,0.836-3.053,2.578-3.053
			c0.824,0,1.512,0.486,1.852,0.998v-0.877h0.66v5.564c0,1.984-1.322,2.848-2.754,2.848c-0.756,0-1.432-0.229-1.877-0.566v-0.77
			c0.594,0.539,1.229,0.729,1.877,0.729c1.174,0,2.094-0.701,2.094-2.201V389.966z M559.775,386.63
			c-0.393-0.742-1.068-1.16-1.783-1.16c-1.242,0-1.973,1.014-1.973,2.432c0,1.432,0.729,2.443,1.973,2.443
			c0.715,0,1.391-0.432,1.783-1.162V386.63z"/>
	</g>
</g>
<g>
	<path fill="#00B388" d="M539.572,235.283c-28.121,0-51-22.878-51-51c0-28.119,22.879-50.999,51-50.999s51,22.879,51,50.999
		C590.572,212.405,567.693,235.283,539.572,235.283z M539.572,144.281c-22.057,0-40.002,17.947-40.002,40.002
		c0,22.059,17.945,40.005,40.002,40.005s40.004-17.946,40.004-40.005C579.576,162.229,561.628,144.281,539.572,144.281z"/>
	<g>
		<path d="M533.91,185.467h-1.5v-16.619l-4.83,2.49v-1.59l5.398-2.73h0.932V185.467L533.91,185.467z"/>
		<path d="M537.57,180.427c0-2.31,1.561-4.169,3.811-4.77c-1.861-0.66-3.061-2.25-3.061-4.14c0-2.7,2.279-4.74,5.43-4.74
			c3.18,0,5.461,2.04,5.461,4.74c0,1.89-1.23,3.479-3.061,4.14c2.25,0.6,3.811,2.46,3.811,4.77c0,3.06-2.611,5.31-6.211,5.31
			C540.179,185.737,537.57,183.487,537.57,180.427z M548.49,180.367c0-2.28-1.98-4.05-4.74-4.05s-4.711,1.77-4.711,4.05
			c0,2.28,1.951,4.05,4.711,4.05S548.49,182.647,548.49,180.367z M547.74,171.547c0-1.95-1.621-3.45-3.99-3.45
			c-2.34,0-3.961,1.5-3.961,3.45c0,1.92,1.621,3.45,3.961,3.45C546.121,174.997,547.74,173.467,547.74,171.547z"/>
		<path d="M535.21,203.588c-2.105,0-3.658-1.729-3.658-4.267c0-2.539,1.553-4.268,3.658-4.268c2.121,0,3.674,1.729,3.674,4.268
			C538.884,201.86,537.332,203.588,535.21,203.588z M535.21,195.702c-1.754,0-2.957,1.485-2.957,3.619
			c0,2.133,1.203,3.619,2.957,3.619c1.77,0,2.971-1.485,2.971-3.619C538.183,197.188,536.98,195.702,535.21,195.702z"/>
		<path d="M541.152,198.957l4.186-3.781h0.906l-4.43,3.984l4.537,4.308h-0.904l-4.295-4.024v4.024h-0.688v-8.292h0.688V198.957
			L541.152,198.957z"/>
	</g>
</g>
<g>
	<g>
		<g>
			<path d="M112.125,185.467h-1.5v-16.619l-4.83,2.49v-1.59l5.399-2.73h0.93L112.125,185.467L112.125,185.467z"/>
			<path d="M117.554,179.587h6.569v-4.56h1.47v4.56h3.39v1.38h-3.39v4.5h-1.47v-4.5h-8.699v-0.12l6.39-13.8h1.53L117.554,179.587z"
				/>
			<path d="M98.118,199.888v3.579H97.43v-8.292h2.93c1.621,0,2.688,0.81,2.688,2.35c0,1.553-1.067,2.363-2.688,2.363H98.118z
				 M100.333,195.796h-2.215v3.457h2.215c1.283,0,2.025-0.635,2.025-1.729C102.358,196.445,101.616,195.796,100.333,195.796z"/>
			<path d="M107.866,198.092c-0.162-0.067-0.338-0.108-0.554-0.108c-0.729,0-1.31,0.526-1.594,1.296v4.186h-0.675v-5.996h0.675
				v0.958c0.271-0.594,0.878-1.08,1.621-1.08c0.229,0,0.392,0.041,0.527,0.081V198.092z"/>
			<path d="M111.849,203.588c-1.58,0-2.646-1.27-2.646-3.12c0-1.85,1.066-3.119,2.646-3.119c1.594,0,2.661,1.269,2.661,3.119
				C114.51,202.318,113.442,203.588,111.849,203.588z M111.849,197.944c-1.188,0-1.972,1.013-1.972,2.525
				c0,1.513,0.783,2.525,1.972,2.525c1.202,0,1.985-1.013,1.985-2.525C113.834,198.957,113.051,197.944,111.849,197.944z"/>
			<path d="M119.341,195.311c-0.176-0.095-0.378-0.149-0.608-0.149c-0.635,0-1.094,0.459-1.094,1.296v1.013h1.404v0.581h-1.404
				v5.415h-0.662v-5.415h-0.973v-0.581h0.973v-1.081c0-1.094,0.715-1.823,1.688-1.823c0.256,0,0.473,0.041,0.675,0.121
				L119.341,195.311L119.341,195.311z"/>
			<path d="M121.163,196.107c-0.256,0-0.459-0.203-0.459-0.459c0-0.243,0.203-0.459,0.459-0.459s0.459,0.216,0.459,0.459
				C121.622,195.904,121.419,196.107,121.163,196.107z M121.5,203.467h-0.675v-5.996h0.675V203.467z"/>
			<path d="M124.767,203.467h-0.675v-8.778h0.675V203.467z"/>
			<path d="M129.776,202.994c0.675,0,1.175-0.162,1.688-0.594v0.662c-0.446,0.365-1.04,0.527-1.742,0.527
				c-1.674,0-2.795-1.188-2.795-3.065c0-1.85,0.999-3.173,2.593-3.173c1.566,0,2.376,1.188,2.376,2.93v0.243h-4.308
				C127.588,202.144,128.534,202.994,129.776,202.994z M127.615,199.969h3.633c-0.041-1.053-0.541-2.025-1.729-2.025
				C128.534,197.944,127.777,198.673,127.615,199.969z"/>
			<path d="M133.677,202.265c0.527,0.459,1.134,0.729,1.917,0.729c0.743,0,1.432-0.297,1.432-1.067c0-0.513-0.338-0.824-0.945-1.04
				l-1-0.365c-0.81-0.297-1.391-0.675-1.391-1.593c0-1.013,0.891-1.58,1.985-1.58c0.635,0,1.27,0.189,1.755,0.54v0.729
				c-0.5-0.392-1.013-0.675-1.755-0.675c-0.716,0-1.323,0.337-1.323,0.972c0,0.567,0.378,0.783,1.026,1.026l1.04,0.392
				c0.824,0.284,1.27,0.796,1.27,1.566c0,1.08-0.945,1.688-2.107,1.688c-0.796,0-1.512-0.27-1.904-0.594V202.265z"/>
		</g>
	</g>
	<g>
		<path fill="#E8E8E8" d="M86.955,210.261c-5.977-6.88-10.211-15.851-10.211-25.657c0-20.714,16.923-37.716,35.923-39.09v-10.802
			c-25,1.388-46.695,23.235-46.695,49.892c0,12.777,5.126,24.448,13.045,33.292L86.955,210.261z"/>
	</g>
	<g>
		<path fill="#60798D" d="M118.667,131.477v17.282c20,1.398,33.531,16.934,33.531,35.844c0,19.827-15.981,35.957-35.809,35.957
			c-8.975,0-17.113-3.314-23.42-8.772L80.794,224c9.448,8.57,21.997,13.798,35.726,13.798c29.332,0,52.905-23.863,52.905-53.195
			C169.425,156.186,147.667,132.901,118.667,131.477z"/>
	</g>
</g>
<g>
	<path fill="#666666" d="M456.074,284.375h0.842v9.354h5.492v0.775h-6.334V284.375z"/>
	<path fill="#666666" d="M466.75,294.651c-1.93,0-3.234-1.55-3.234-3.81s1.305-3.812,3.234-3.812c1.945,0,3.25,1.552,3.25,3.812
		S468.695,294.651,466.75,294.651z M466.75,287.755c-1.453,0-2.408,1.238-2.408,3.086c0,1.847,0.957,3.084,2.408,3.084
		c1.467,0,2.424-1.237,2.424-3.084C469.173,288.994,468.216,287.755,466.75,287.755z"/>
	<path fill="#666666" d="M476.714,293.283c-0.414,0.609-1.254,1.203-2.26,1.203c-2.129,0-3.152-1.765-3.152-3.729
		c0-1.963,1.023-3.727,3.152-3.727c1.006,0,1.846,0.594,2.26,1.221v-1.072h0.807v6.796c0,2.425-1.615,3.479-3.363,3.479
		c-0.924,0-1.75-0.279-2.293-0.692v-0.94c0.725,0.66,1.5,0.891,2.293,0.891c1.434,0,2.557-0.857,2.557-2.688V293.283z
		 M476.714,289.208c-0.479-0.908-1.303-1.418-2.178-1.418c-1.518,0-2.408,1.236-2.408,2.969c0,1.748,0.891,2.984,2.408,2.984
		c0.875,0,1.699-0.527,2.178-1.418V289.208z"/>
	<path fill="#666666" d="M480.294,285.513c-0.313,0-0.561-0.248-0.561-0.561c0-0.298,0.248-0.562,0.561-0.562
		c0.314,0,0.563,0.264,0.563,0.562C480.855,285.266,480.609,285.513,480.294,285.513z M480.708,294.503h-0.826v-7.324h0.826V294.503
		z"/>
	<path fill="#666666" d="M485.937,287.031c0.709,0,1.436,0.198,1.947,0.645v0.841c-0.578-0.528-1.188-0.742-1.914-0.742
		c-1.451,0-2.623,1.138-2.623,3.067c0,1.931,1.172,3.068,2.623,3.068c0.727,0,1.336-0.214,1.914-0.742v0.842
		c-0.512,0.445-1.238,0.643-1.947,0.643c-1.963,0-3.414-1.501-3.414-3.811C482.523,288.533,483.974,287.031,485.937,287.031z"/>
	<path fill="#666666" d="M493.875,289.421c0-0.989-0.693-1.633-1.814-1.633c-0.842,0-1.533,0.248-2.129,0.644v-0.792
		c0.496-0.33,1.305-0.609,2.211-0.609c1.551,0,2.523,0.891,2.523,2.342v5.129h-0.793v-0.692c-0.313,0.379-1.121,0.808-2.029,0.808
		c-1.484,0-2.705-0.856-2.705-2.26c0-1.354,1.221-2.242,2.738-2.242c0.875,0,1.666,0.412,1.996,0.774v-1.468H493.875z
		 M493.875,291.897c-0.232-0.627-1.057-1.089-1.947-1.089c-1.039,0-1.996,0.511-1.996,1.55c0,1.04,0.957,1.567,1.996,1.567
		c0.893,0,1.715-0.463,1.947-1.09V291.897z"/>
	<path fill="#666666" d="M497.751,294.503h-0.824v-10.723h0.824V294.503z"/>
	<path fill="#666666" d="M510.158,284.375v0.775h-5.459v3.744h4.947v0.775h-4.947v4.058h5.459v0.774h-6.283v-10.127H510.158
		L510.158,284.375z"/>
	<path fill="#666666" d="M512.24,287.179h0.824v1.171c0.445-0.692,1.303-1.32,2.342-1.32c1.666,0,2.541,1.072,2.541,2.623v4.851
		h-0.809v-4.734c0-1.139-0.578-1.979-1.881-1.979c-1.006,0-1.83,0.709-2.191,1.582v5.131h-0.826V287.179L512.24,287.179z"/>
	<path fill="#666666" d="M523.095,287.031c0.709,0,1.436,0.198,1.945,0.645v0.841c-0.576-0.528-1.188-0.742-1.912-0.742
		c-1.453,0-2.623,1.138-2.623,3.067c0,1.931,1.17,3.068,2.623,3.068c0.725,0,1.336-0.214,1.912-0.742v0.842
		c-0.51,0.445-1.236,0.643-1.945,0.643c-1.963,0-3.416-1.501-3.416-3.811C519.679,288.533,521.132,287.031,523.095,287.031z"/>
	<path fill="#666666" d="M527.666,294.503h-0.824v-10.723h0.824V294.503z"/>
	<path fill="#666666" d="M532.714,294.651c-1.93,0-3.232-1.55-3.232-3.81s1.303-3.812,3.232-3.812c1.945,0,3.248,1.552,3.248,3.812
		S534.662,294.651,532.714,294.651z M532.714,287.755c-1.453,0-2.408,1.238-2.408,3.086c0,1.847,0.957,3.084,2.408,3.084
		c1.467,0,2.424-1.237,2.424-3.084C535.138,288.994,534.181,287.755,532.714,287.755z"/>
	<path fill="#666666" d="M537.287,293.035c0.643,0.562,1.385,0.891,2.342,0.891c0.906,0,1.748-0.362,1.748-1.303
		c0-0.627-0.412-1.006-1.154-1.27l-1.221-0.445c-0.99-0.363-1.699-0.824-1.699-1.945c0-1.237,1.088-1.93,2.424-1.93
		c0.775,0,1.551,0.23,2.145,0.659v0.892c-0.609-0.479-1.236-0.826-2.145-0.826c-0.875,0-1.615,0.414-1.615,1.188
		c0,0.693,0.461,0.957,1.252,1.253l1.271,0.479c1.006,0.347,1.549,0.974,1.549,1.914c0,1.32-1.154,2.062-2.572,2.062
		c-0.973,0-1.848-0.33-2.326-0.726v-0.893H537.287z"/>
	<path fill="#666666" d="M549.66,294.503h-0.809v-1.172c-0.445,0.692-1.287,1.319-2.326,1.319c-1.666,0-2.539-1.071-2.539-2.623
		v-4.85h0.807v4.733c0,1.139,0.578,1.979,1.881,1.979c1.006,0,1.814-0.709,2.176-1.583v-5.13h0.809v7.325H549.66z"/>
	<path fill="#666666" d="M555.451,287.938c-0.197-0.083-0.412-0.132-0.676-0.132c-0.891,0-1.6,0.643-1.945,1.583v5.112h-0.826
		v-7.323h0.826v1.171c0.33-0.727,1.072-1.32,1.979-1.32c0.281,0,0.479,0.049,0.645,0.1v0.81H555.451z"/>
	<path fill="#666666" d="M559.742,293.925c0.824,0,1.434-0.197,2.061-0.725v0.809c-0.543,0.445-1.27,0.643-2.127,0.643
		c-2.045,0-3.416-1.451-3.416-3.744c0-2.26,1.223-3.875,3.168-3.875c1.914,0,2.902,1.451,2.902,3.579v0.298h-5.262
		C557.07,292.886,558.224,293.925,559.742,293.925z M557.101,290.231h4.438c-0.049-1.287-0.66-2.476-2.111-2.476
		C558.224,287.755,557.3,288.647,557.101,290.231z"/>
	<path fill="#666666" d="M563.685,293.035c0.645,0.562,1.387,0.891,2.344,0.891c0.906,0,1.748-0.362,1.748-1.303
		c0-0.627-0.412-1.006-1.154-1.27l-1.221-0.445c-0.99-0.363-1.699-0.824-1.699-1.945c0-1.237,1.088-1.93,2.424-1.93
		c0.775,0,1.551,0.23,2.145,0.659v0.892c-0.609-0.479-1.236-0.826-2.145-0.826c-0.875,0-1.617,0.414-1.617,1.188
		c0,0.693,0.463,0.957,1.254,1.253l1.271,0.479c1.006,0.347,1.549,0.974,1.549,1.914c0,1.32-1.154,2.062-2.572,2.062
		c-0.973,0-1.848-0.33-2.326-0.726V293.035L563.685,293.035z"/>
	<path fill="#999999" d="M579.623,293.728v0.775h-6.35v-0.066l3.266-3.844c1.09-1.286,1.979-2.227,1.979-3.596
		c0-1.188-0.725-1.996-2.143-1.996c-1.156,0-2.162,0.66-2.871,1.402v-0.906c0.676-0.709,1.715-1.271,2.92-1.271
		c1.846,0,2.918,1.089,2.918,2.755c0,1.534-0.99,2.656-2.193,4.041l-2.342,2.705H579.623L579.623,293.728z"/>
	<path fill="#999999" d="M580.599,291.237c0-0.726,0.182-1.401,0.742-2.407l2.541-4.455h0.873l-2.275,3.959
		c0.363-0.279,0.939-0.479,1.502-0.479c1.896,0,3.33,1.469,3.33,3.381c0,1.93-1.467,3.415-3.363,3.415
		C582.068,294.651,580.599,293.167,580.599,291.237z M583.947,288.582c-1.436,0-2.572,1.172-2.572,2.655
		c0,1.501,1.137,2.656,2.572,2.656c1.451,0,2.59-1.155,2.59-2.656C586.537,289.751,585.398,288.582,583.947,288.582z"/>
</g>
<polyline fill="none" stroke="#00B388" stroke-width="1.5" stroke-miterlimit="10" points="592.654,285.529 596.785,289.75 
	592.654,293.968 "/>
</svg>
