<?xml version="1.0" encoding="utf-8"?>
<!-- Generator: Adobe Illustrator 17.1.0, SVG Export Plug-In . SVG Version: 6.00 Build 0)  -->
<!DOCTYPE svg PUBLIC "-//W3C//DTD SVG 1.1//EN" "http://www.w3.org/Graphics/SVG/1.1/DTD/svg11.dtd">
<svg version="1.1" id="Layer_1" xmlns="http://www.w3.org/2000/svg" xmlns:xlink="http://www.w3.org/1999/xlink" x="0px" y="0px"
	 viewBox="0 0 475 342" enable-background="new 0 0 475 342" xml:space="preserve">
<g>
	<rect x="213.2" y="109.3" fill="#505050" width="23" height="179"/>
	<rect x="134.2" y="291.3" fill="#505050" width="181" height="3"/>
	<rect x="1.7" y="1.8" fill="#0C96D4" width="444" height="237"/>
	<rect x="1.7" y="1.8" fill="none" stroke="#505050" stroke-width="2" stroke-miterlimit="10" width="444" height="237"/>
	<g>
		<g>
			<path fill="none" stroke="#3B67B1" stroke-width="2" d="M87.1,73.5v10.9c0,0-1.8,20.5,20.5,20.5h136.9"/>
		</g>
		<g>
			<path fill="none" stroke="#3B67B1" stroke-width="2" d="M113.1,75.2V132c0,0-1.8,20.5,20.5,20.5H177"/>
		</g>
		<g>
			<path fill="none" stroke="#3B67B1" stroke-width="2" d="M305.7,25.9v22.5c0,0-1.8,20.5,20.5,20.5h32.4"/>
		</g>
		<g>
			<path fill="none" stroke="#1096D4" stroke-width="2" d="M316.2,133h22.5c0,0,20.5,1.8,20.5-20.5V69.1"/>
		</g>
		<g>
			<path fill="none" stroke="#3B67B1" stroke-width="2" d="M359,86h36.3c0,0,20.5,1.8,20.5-20.5v-62"/>
		</g>
		<line fill="none" stroke="#3B67B1" stroke-width="2" x1="385" y1="3.5" x2="385" y2="200.5"/>
		<line fill="none" stroke="#3B67B1" stroke-width="2" x1="98.3" y1="74.8" x2="98.3" y2="90.2"/>
		<line fill="none" stroke="#3B67B1" stroke-width="2" x1="319" y1="194.2" x2="319" y2="209.5"/>
		<line fill="none" stroke="#3B67B1" stroke-width="2" x1="192" y1="201.2" x2="445.5" y2="201.2"/>
		<line fill="none" stroke="#3B67B1" stroke-width="2" x1="109" y1="201.2" x2="170.7" y2="201.2"/>
		<line fill="none" stroke="#3B67B1" stroke-width="2" x1="109" y1="188.2" x2="109" y2="203.5"/>
		<line fill="none" stroke="#3B67B1" stroke-width="2" x1="80" y1="185.2" x2="80" y2="221.5"/>
		<line fill="none" stroke="#3B67B1" stroke-width="2" x1="119" y1="188.2" x2="119" y2="203.5"/>
		<line fill="none" stroke="#3B67B1" stroke-width="2" x1="129" y1="188.2" x2="129" y2="203.5"/>
		<line fill="none" stroke="#3B67B1" stroke-width="2" x1="331" y1="194.2" x2="331" y2="209.5"/>
		<line fill="none" stroke="#3B67B1" stroke-width="2" x1="343" y1="194.2" x2="343" y2="209.5"/>
		<line fill="none" stroke="#3B67B1" stroke-width="2" x1="355" y1="194.2" x2="355" y2="209.5"/>
		<line fill="none" stroke="#3B67B1" stroke-width="2" x1="334.3" y1="35.2" x2="334.3" y2="50.5"/>
		<line fill="none" stroke="#3B67B1" stroke-width="2" x1="342.5" y1="35.2" x2="342.5" y2="50.5"/>
		<line fill="none" stroke="#3B67B1" stroke-width="2" x1="350.3" y1="35.2" x2="350.3" y2="50.5"/>
		<line fill="none" stroke="#3B67B1" stroke-width="2" x1="59" y1="53.8" x2="113.7" y2="53.8"/>
		<line fill="none" stroke="#3B67B1" stroke-width="2" x1="252" y1="42.8" x2="306.7" y2="42.8"/>
		<line fill="none" stroke="#3B67B1" stroke-width="2" x1="59" y1="74.5" x2="113.7" y2="74.5"/>
		<g>
			<path fill="none" stroke="#3B67B1" stroke-width="2" d="M33,104.2v15.4c0,0-0.5,5.6,5.6,5.6H86"/>
		</g>
		<g>
			<path fill="none" stroke="#3B67B1" stroke-width="2" d="M340,69.8v32.4c0,0-0.5,5.6,5.6,5.6H385"/>
		</g>
		<g>
			<path fill="none" stroke="#3B67B1" stroke-width="2" d="M96.7,16.5H64.2c0,0-5.6-0.5-5.6,5.6v102.5"/>
		</g>
		<g>
			<path fill="none" stroke="#1096D4" stroke-width="2" d="M316.2,167.2v-41.9c0,0,0.9-10.3-10.3-10.3h-37.2"/>
		</g>
		<line fill="none" stroke="#3B67B1" stroke-width="2" x1="33" y1="104.2" x2="4.5" y2="104.2"/>
		<circle fill="none" stroke="#3B67B1" stroke-width="2" cx="59.1" cy="75.2" r="6.5"/>
		<circle fill="none" stroke="#3B67B1" stroke-width="2" cx="34.1" cy="105.5" r="6.5"/>
		<circle fill="none" stroke="#3B67B1" stroke-width="2" cx="113.1" cy="105" r="5"/>
		<circle fill="none" stroke="#1096D4" stroke-width="2" cx="316.1" cy="133" r="7"/>
		<circle fill="none" stroke="#3B67B1" stroke-width="2" cx="385.1" cy="200" r="7"/>
		<circle fill="none" stroke="#3B67B1" stroke-width="2" cx="385.1" cy="107.5" r="7"/>
		<circle fill="none" stroke="#3B67B1" stroke-width="2" cx="254.1" cy="43" r="7"/>
		<circle fill="none" stroke="#3B67B1" stroke-width="2" cx="190.1" cy="43" r="7"/>
		<circle fill="none" stroke="#3B67B1" stroke-width="2" cx="163.1" cy="43" r="7"/>
		<circle fill="none" stroke="#3B67B1" stroke-width="2" cx="97.1" cy="17" r="7"/>
		<rect x="65.5" y="144.8" fill="none" stroke="#3B67B1" stroke-width="2" width="29.5" height="12.3"/>
		<rect x="65.5" y="161.8" fill="none" stroke="#3B67B1" stroke-width="2" width="29.5" height="12.3"/>
		<rect x="65.5" y="178.8" fill="none" stroke="#3B67B1" stroke-width="2" width="29.5" height="12.3"/>
		<rect x="290.5" y="19.8" fill="none" stroke="#3B67B1" stroke-width="2" width="29.5" height="12.3"/>
		<rect x="43.5" y="29.8" fill="none" stroke="#3B67B1" stroke-width="2" width="29.5" height="12.3"/>
		<rect x="138.7" y="138" fill="none" stroke="#3B67B1" stroke-width="2" width="12.3" height="29.5"/>
		<rect x="370.5" y="57.2" fill="none" stroke="#3B67B1" stroke-width="2" width="29.5" height="12.3"/>
		<rect x="370.5" y="161.2" fill="none" stroke="#3B67B1" stroke-width="2" width="29.5" height="12.3"/>
		<rect x="301.5" y="161.2" fill="none" stroke="#1096D4" stroke-width="2" width="29.5" height="12.3"/>
		<rect x="184.8" y="188.8" fill="none" stroke="#3B67B1" stroke-width="2" width="14" height="24"/>
		<rect x="164.3" y="188.8" fill="none" stroke="#3B67B1" stroke-width="2" width="14" height="24"/>
		<rect x="113.5" y="45.3" fill="none" stroke="#3B67B1" stroke-width="2" width="14" height="17"/>
		<line fill="none" stroke="#3B67B1" stroke-width="2" x1="3.5" y1="221.8" x2="255.5" y2="221.8"/>
		<rect x="248.5" y="212.3" fill="none" stroke="#3B67B1" stroke-width="2" width="9" height="17"/>
		<rect x="80.3" y="113.2" fill="none" stroke="#3B67B1" stroke-width="2" width="14" height="24"/>
		<line fill="none" stroke="#3B67B1" stroke-width="2" x1="143.7" y1="73.8" x2="143.7" y2="89.2"/>
		<line fill="none" stroke="#3B67B1" stroke-width="2" x1="139.7" y1="73.8" x2="139.7" y2="89.2"/>
		<line fill="none" stroke="#3B67B1" stroke-width="2" x1="135.7" y1="73.8" x2="135.7" y2="89.2"/>
	</g>
	<g>
		<rect x="165.2" y="56.3" fill="#FFFFFF" width="119" height="112"/>
		<rect x="195.7" y="103.8" fill="#FFFFFF" width="59" height="9"/>
		<rect x="195.7" y="103.8" fill="none" stroke="#CCCCCC" stroke-miterlimit="10" width="59" height="9"/>
		<rect x="195.2" y="97.3" fill="#CCCCCC" width="37" height="2"/>
		<rect x="195.7" y="125.8" fill="#FFFFFF" width="59" height="9"/>
		<rect x="195.7" y="125.8" fill="none" stroke="#CCCCCC" stroke-miterlimit="10" width="59" height="9"/>
		<rect x="195.2" y="119.3" fill="#CCCCCC" width="37" height="2"/>
		<rect x="195.2" y="141.3" fill="#1096D4" width="59" height="10"/>
		<rect x="195.2" y="141.3" fill="#0C96D4" width="59" height="10"/>
		<rect x="214.7" y="66.8" fill="none" stroke="#CCCCCC" stroke-miterlimit="10" width="18" height="18"/>
	</g>
</g>
<rect x="51" y="325" fill="none" width="369" height="18"/>
<text transform="matrix(1.0023 0 0 1 120.4058 335.6396)" fill="#F05023" font-family="'OpenSans-Light'" font-size="14">Login page with a background image</text>
<g>
	<rect x="359.8" y="130.3" fill="#505050" width="114" height="165.3"/>
	<rect x="364" y="136" fill="#0C96D4" width="104" height="140"/>
	<g>
		<line fill="none" stroke="#3B67B1" x1="399.7" y1="251" x2="399.7" y2="267.7"/>
		<rect x="393" y="232.4" fill="none" stroke="#1096D4" width="13.6" height="5.7"/>
		<rect x="393" y="237.2" fill="none" stroke="#3B67B1" width="13.6" height="5.7"/>
		<rect x="393" y="248" fill="none" stroke="#3B67B1" width="13.6" height="5.7"/>
		<line fill="none" stroke="#3B67B1" x1="364.5" y1="267.8" x2="446.5" y2="267.8"/>
	</g>
	<g>
		<line fill="none" stroke="#3B67B1" x1="417" y1="254.9" x2="458.7" y2="254.9"/>
		<line fill="none" stroke="#3B67B1" x1="417" y1="246.1" x2="417" y2="256.5"/>
		<line fill="none" stroke="#3B67B1" x1="423.7" y1="246.1" x2="423.7" y2="256.5"/>
		<line fill="none" stroke="#3B67B1" x1="430.5" y1="246.1" x2="430.5" y2="256.5"/>
		<rect x="454.4" y="246.6" fill="none" stroke="#3B67B1" width="9.5" height="16.2"/>
	</g>
	<g>
		<g>
			<path fill="none" stroke="#3B67B1" d="M414.2,142.6h-23.4c0,0-4-0.4-4,4v73.8"/>
		</g>
		<circle fill="none" stroke="#3B67B1" cx="414.5" cy="143" r="5"/>
		<rect x="375.9" y="152.3" fill="none" stroke="#3B67B1" width="21.3" height="8.9"/>
	</g>
</g>
<g>
	<rect x="364.8" y="147.3" fill="#FFFFFF" width="103" height="102.2"/>
	<rect x="386.5" y="219.6" fill="#0C96D4" width="59" height="10"/>
	<rect x="386.5" y="187.6" fill="none" stroke="#CCCCCC" stroke-miterlimit="10" width="59" height="7"/>
	<rect x="386" y="181.2" fill="#CCCCCC" width="37" height="2"/>
	<rect x="386.5" y="205.6" fill="none" stroke="#CCCCCC" stroke-miterlimit="10" width="59" height="7"/>
	<rect x="386" y="200.1" fill="#CCCCCC" width="37" height="2"/>
	<rect x="408.5" y="158" fill="none" stroke="#CCCCCC" stroke-miterlimit="10" width="14" height="14"/>
</g>
<g>
	<rect x="328.5" y="215.3" fill="#505050" width="44" height="80"/>
	<rect x="330.5" y="218.3" fill="#0C96D4" width="40" height="69"/>
	<g>
		<line fill="none" stroke="#3B67B1" x1="336.3" y1="280.6" x2="362.2" y2="280.6"/>
		<line fill="none" stroke="#1096D4" x1="336.3" y1="275.1" x2="336.3" y2="281.6"/>
		<line fill="none" stroke="#3B67B1" x1="340.5" y1="275.1" x2="340.5" y2="281.6"/>
		<line fill="none" stroke="#3B67B1" x1="344.7" y1="275.1" x2="344.7" y2="281.6"/>
		<rect x="359.5" y="275.4" fill="none" stroke="#3B67B1" width="5.9" height="10.1"/>
	</g>
	<g>
		<g>
			<path fill="none" stroke="#3B67B1" d="M354.8,225.1H341c0,0-2.4-0.2-2.4,2.4v43.4"/>
		</g>
		<circle fill="none" stroke="#3B67B1" cx="354.9" cy="225.3" r="3"/>
		<rect x="332.2" y="230.7" fill="none" stroke="#1096D4" width="12.5" height="5.2"/>
	</g>
	<g>
		<rect x="330.5" y="227.3" fill="#FFFFFF" width="40" height="52"/>
		<g>
			<rect x="337.3" y="263.7" fill="#0C96D4" width="25" height="5.6"/>
			<rect x="337.3" y="245.7" fill="none" stroke="#CCCCCC" stroke-miterlimit="10" width="25" height="3.9"/>
			<rect x="337" y="243.1" fill="#CCCCCC" width="12" height="0.6"/>
			<rect x="337.3" y="255.8" fill="none" stroke="#CCCCCC" stroke-miterlimit="10" width="25" height="3.9"/>
			<rect x="337" y="253.3" fill="#CCCCCC" width="12" height="0.6"/>
		</g>
		<rect x="346.2" y="231.5" fill="none" stroke="#CCCCCC" stroke-miterlimit="10" width="7.9" height="7.9"/>
	</g>
</g>
</svg>
