<?xml version="1.0" encoding="UTF-8" standalone="no"?>
<svg width="961px" height="604px" viewBox="0 0 961 604" version="1.1" xmlns="http://www.w3.org/2000/svg" xmlns:xlink="http://www.w3.org/1999/xlink" xmlns:sketch="http://www.bohemiancoding.com/sketch/ns">
    <!-- Generator: Sketch 3.3 (11970) - http://www.bohemiancoding.com/sketch -->
    <title>Architecture</title>
    <desc>Created with Sketch.</desc>
    <defs></defs>
    <g id="Page-1" stroke="none" stroke-width="1" fill="none" fill-rule="evenodd" sketch:type="MSPage">
        <rect id="Rectangle-1" stroke="#9B9B9B" fill="#FFFFFF" sketch:type="MSShapeGroup" x="1" y="74" width="652" height="72"></rect>
        <rect id="Rectangle-1-Copy" stroke="#9B9B9B" fill="#FFFFFF" sketch:type="MSShapeGroup" x="1" y="170" width="652" height="168"></rect>
        <rect id="Rectangle-1-Copy-3" stroke="#9B9B9B" fill="#FFFFFF" sketch:type="MSShapeGroup" x="1" y="458" width="652" height="72"></rect>
        <rect id="Rectangle-1-Copy-2" stroke="#9B9B9B" fill="#FFFFFF" sketch:type="MSShapeGroup" x="720" y="74" width="240" height="264"></rect>
        <text id="Components" sketch:type="MSTextLayer" font-family="Open Sans" font-size="24" font-weight="526" fill="#4990E2">
            <tspan x="333" y="118">Components</tspan>
        </text>
        <text id="Application-Componen" sketch:type="MSTextLayer" font-family="Open Sans" font-size="24" font-weight="526" fill="#F6A623">
            <tspan x="13" y="117">Application Components</tspan>
        </text>
        <text id="Application-Stores" sketch:type="MSTextLayer" font-family="Open Sans" font-size="24" font-weight="526" fill="#F6A623">
            <tspan x="13" y="218">Application Stores</tspan>
        </text>
        <text id="Application-Actions" sketch:type="MSTextLayer" font-family="Open Sans" font-size="24" font-weight="526" fill="#F6A623">
            <tspan x="93" y="313">Application Actions</tspan>
        </text>
        <text id="Styles" sketch:type="MSTextLayer" font-family="Open Sans" font-size="24" font-weight="526" fill="#4990E2">
            <tspan x="733" y="212.597656">Styles</tspan>
        </text>
        <text id="Theme/Brand" sketch:type="MSTextLayer" font-family="Open Sans" font-size="24" font-weight="526" fill="#F6A623">
            <tspan x="734" y="118">Theme/Brand</tspan>
        </text>
        <text id="Server" sketch:type="MSTextLayer" font-family="Open Sans" font-size="24" font-weight="526" fill="#9B9B9B">
            <tspan x="13" y="597">Server</tspan>
        </text>
        <text id="Resources" sketch:type="MSTextLayer" font-family="Open Sans" font-size="24" font-weight="526" fill="#8B572A">
            <tspan x="13" y="505">Resources</tspan>
        </text>
        <text id="Index" sketch:type="MSTextLayer" font-family="Open Sans" font-size="24" font-weight="526" fill="#8B572A">
            <tspan x="333" y="505">Index</tspan>
        </text>
        <text id="Security" sketch:type="MSTextLayer" font-family="Open Sans" font-size="24" font-weight="526" fill="#8B572A">
            <tspan x="493" y="505">Security</tspan>
        </text>
        <text id="REST-API" sketch:type="MSTextLayer" font-family="Open Sans" font-size="24" font-weight="526" fill="#9B9B9B">
            <tspan x="13" y="410">REST API</tspan>
        </text>
        <text id="Browser" sketch:type="MSTextLayer" font-family="Open Sans" font-size="24" font-weight="526" fill="#9B9B9B">
            <tspan x="13" y="26">Browser</tspan>
        </text>
        <text id="React" sketch:type="MSTextLayer" font-family="Open Sans" font-size="24" font-weight="526" fill="#417505">
            <tspan x="573" y="118">React</tspan>
        </text>
        <text id="Flux" sketch:type="MSTextLayer" font-family="Open Sans" font-size="24" font-weight="526" fill="#417505">
            <tspan x="573" y="216">Flux</tspan>
        </text>
        <text id="InuitCSS" sketch:type="MSTextLayer" font-family="Open Sans" font-size="24" font-weight="526" fill="#417505">
            <tspan x="733" y="313">InuitCSS</tspan>
        </text>
        <text id="Stores" sketch:type="MSTextLayer" font-family="Open Sans" font-size="24" font-weight="526" fill="#4990E2">
            <tspan x="333" y="216">Stores</tspan>
        </text>
        <text id="Actions" sketch:type="MSTextLayer" font-family="Open Sans" font-size="24" font-weight="526" fill="#4990E2">
            <tspan x="413" y="313">Actions</tspan>
        </text>
        <g id="Group" sketch:type="MSLayerGroup" transform="translate(360.000000, 135.000000)" stroke="#979797" stroke-width="6" stroke-linecap="round">
            <path d="M106,0.5 L106,137" id="Line" sketch:type="MSShapeGroup"></path>
            <path id="Line-decoration-1" d="M106,137 L109,126.2 L103,126.2 L106,137 Z"></path>
            <path d="M54,115 L54,143" id="Line-Copy-2" sketch:type="MSShapeGroup"></path>
            <path id="Line-Copy-2-decoration-1" d="M54,115 L57,125.8 L51,125.8 L54,115 Z"></path>
            <path d="M3,9 L3,48" id="Line-Copy-3" sketch:type="MSShapeGroup"></path>
            <path id="Line-Copy-3-decoration-1" d="M3,9 L6,19.8 L4.4408921e-16,19.8 L3,9 Z"></path>
            <path d="M93,203.5 L93,304" id="Line-Copy" sketch:type="MSShapeGroup"></path>
            <path id="Line-Copy-decoration-1" d="M93,203.5 L96,214.3 L90,214.3 L93,203.5 Z"></path>
            <path id="Line-Copy-decoration-2" d="M93,304 L96,293.2 L90,293.2 L93,304 Z"></path>
        </g>
        <g id="Group-Copy" sketch:type="MSLayerGroup" transform="translate(140.000000, 135.000000)" stroke="#979797" stroke-width="6" stroke-linecap="round">
            <path d="M106,0.5 L106,137" id="Line" sketch:type="MSShapeGroup"></path>
            <path id="Line-decoration-1" d="M106,137 L109,126.2 L103,126.2 L106,137 Z"></path>
            <path d="M54,115 L54,143" id="Line-Copy-2" sketch:type="MSShapeGroup"></path>
            <path id="Line-Copy-2-decoration-1" d="M54,115 L57,125.8 L51,125.8 L54,115 Z"></path>
            <path d="M3,9 L3,48" id="Line-Copy-3" sketch:type="MSShapeGroup"></path>
            <path id="Line-Copy-3-decoration-1" d="M3,9 L6,19.8 L4.4408921e-16,19.8 L3,9 Z"></path>
            <path d="M93,203.5 L93,304" id="Line-Copy" sketch:type="MSShapeGroup"></path>
            <path id="Line-Copy-decoration-1" d="M93,203.5 L96,214.3 L90,214.3 L93,203.5 Z"></path>
            <path id="Line-Copy-decoration-2" d="M93,304 L96,293.2 L90,293.2 L93,304 Z"></path>
        </g>
    </g>
</svg>