<?xml version="1.0" encoding="UTF-8" standalone="no"?>
<svg width="298px" height="338px" viewBox="0 0 298 338" version="1.1" xmlns="http://www.w3.org/2000/svg" xmlns:xlink="http://www.w3.org/1999/xlink" xmlns:sketch="http://www.bohemiancoding.com/sketch/ns">
    <!-- Generator: Sketch 3.3 (11970) - http://www.bohemiancoding.com/sketch -->
    <title>CSS3</title>
    <desc>Created with Sketch.</desc>
    <defs></defs>
    <g id="Page-1" stroke="none" stroke-width="1" fill="none" fill-rule="evenodd" sketch:type="MSPage">
        <g id="HTML5CSS3Logos" sketch:type="MSLayerGroup" transform="translate(-404.000000, -82.000000)">
            <g id="CSS3" transform="translate(404.000000, 82.000000)" sketch:type="MSShapeGroup">
                <path d="M27.142,304.29 L0.071,0.67 L297.521,0.67 L270.425,304.241 L148.614,338.011 L27.142,304.29 Z" id="Shape" fill="#1572B6"></path>
                <path d="M148.798,312.199 L247.225,284.911 L270.382,25.496 L148.798,25.496 L148.798,312.199 Z" id="Shape" fill="#33A9DC"></path>
                <path d="M148.797,135.496 L198.072,135.496 L201.475,97.364 L148.797,97.364 L148.797,60.125 L148.926,60.125 L242.172,60.125 L241.279,70.116 L232.127,172.732 L148.797,172.732 L148.797,135.496 Z" id="Shape" fill="#FFFFFF"></path>
                <path d="M149.02,232.204 L148.857,232.25 L107.385,221.051 L104.733,191.353 L84.582,191.353 L67.354,191.353 L72.57,249.82 L148.848,270.996 L149.02,270.948 L149.02,232.204 Z" id="Shape" fill="#EBEBEB"></path>
                <path d="M194.907,171.156 L190.423,221.026 L148.891,232.236 L148.891,270.978 L225.23,249.82 L225.79,243.53 L232.268,171.156 L194.907,171.156 Z" id="Shape" fill="#FFFFFF"></path>
                <path d="M148.926,60.125 L148.926,83.253 L148.926,97.272 L148.926,97.364 L59.098,97.364 L58.979,97.364 L58.232,88.994 L56.535,70.116 L55.645,60.125 L148.926,60.125 Z" id="Shape" fill="#EBEBEB"></path>
                <path d="M148.797,135.5 L148.797,158.629 L148.797,172.646 L148.797,172.738 L107.969,172.738 L107.85,172.738 L107.104,164.369 L105.406,145.491 L104.516,135.5 L148.797,135.5 Z" id="Shape" fill="#EBEBEB"></path>
            </g>
        </g>
    </g>
</svg>