<?xml version="1.0" encoding="UTF-8" standalone="no"?>
<svg version="1.1" id="Layer_1" xmlns="http://www.w3.org/2000/svg" xmlns:xlink="http://www.w3.org/1999/xlink" x="0px" y="0px"
   viewBox="0 0 170 170" enable-background="new 0 0 170 170" xml:space="preserve">
  <path fill="#8C50FF" d="M115.802,54.378c16.866,16.978,16.833,44.413-0.102,61.348c-16.933,16.933-44.564,16.92-61.482-0.028
    c-16.942-16.972-16.932-44.465,0.028-61.425c8.735-8.735,20.264-12.973,31.71-12.716l22.513-22.513
    c-24.462-8.696-52.793-3.369-72.514,15.981C8.28,62.183,8.014,106.931,35.38,134.401c27.329,27.433,71.723,27.465,99.091,0.096
    c27.302-27.302,27.336-71.546,0.103-98.892L115.802,54.378z"/>
  <path fill="#333333" d="M109.408,67.554c8.482,11.877,7.292,28.66-3.703,39.164c-11.844,11.315-30.408,11.083-41.981-0.509
    c-11.707-11.726-11.705-30.726,0.014-42.445L85.95,41.55c-11.405-0.216-22.972,3.984-31.707,12.719
    c-16.929,16.929-16.968,44.353-0.12,61.333c17.007,17.14,44.501,17.198,61.576,0.125c16.936-16.935,16.921-44.42,0.105-61.348
    l-5.813,5.813C108.013,62.169,107.783,65.278,109.408,67.554z"/>
</svg>