<?xml version="1.0" encoding="utf-8"?>
<!-- Generator: Adobe Illustrator 18.1.1, SVG Export Plug-In . SVG Version: 6.00 Build 0)  -->
<svg version="1.1" id="Layer_1" xmlns="http://www.w3.org/2000/svg" xmlns:xlink="http://www.w3.org/1999/xlink" x="0px" y="0px"
	 viewBox="0 0 200 200" enable-background="new 0 0 200 200" xml:space="preserve">
<path opacity="0.1" d="M135.216,64.99c19.283,19.411,19.245,50.777-0.116,70.139c-19.359,19.359-50.949,19.344-70.291-0.032
	C45.44,115.692,45.45,84.261,64.841,64.87c9.987-9.987,23.167-14.832,36.254-14.538l25.739-25.739
	c-27.967-9.941-60.358-3.852-82.904,18.271C12.287,73.914,11.983,125.073,43.27,156.48c31.245,31.364,81.999,31.4,113.29,0.11
	c31.214-31.214,31.253-81.798,0.117-113.061L135.216,64.99z"/>
<path fill="#8C50FF" d="M127.905,80.054c9.698,13.579,8.336,32.766-4.234,44.775c-13.541,12.936-34.765,12.67-47.996-0.582
	C62.291,110.84,62.293,89.118,75.691,75.72l25.396-25.396c-13.039-0.247-26.263,4.555-36.25,14.542
	c-19.355,19.355-19.399,50.708-0.137,70.121c19.444,19.596,50.877,19.662,70.398,0.143c19.363-19.362,19.345-50.785,0.12-70.138
	l-6.646,6.646C126.311,73.898,126.047,77.452,127.905,80.054z"/>
<path fill="#8C50FF" d="M127.905,80.054c9.698,13.579,8.336,32.766-4.234,44.775c-13.541,12.936-34.765,12.67-47.996-0.582
	C62.291,110.84,62.293,89.118,75.691,75.72l25.396-25.396c-13.039-0.247-26.263,4.555-36.25,14.542
	c-19.355,19.355-19.399,50.708-0.137,70.121c19.444,19.596,50.877,19.662,70.398,0.143c19.363-19.362,19.345-50.785,0.12-70.138
	l-6.646,6.646C126.311,73.898,126.047,77.452,127.905,80.054z"/>
</svg>
