<?xml version="1.0" encoding="utf-8"?>
<!-- Generator: Adobe Illustrator 16.0.0, SVG Export Plug-In . SVG Version: 6.00 Build 0)  -->
<!DOCTYPE svg PUBLIC "-//W3C//DTD SVG 1.1//EN" "http://www.w3.org/Graphics/SVG/1.1/DTD/svg11.dtd">
<svg version="1.1" id="primary_logo" xmlns="http://www.w3.org/2000/svg" xmlns:xlink="http://www.w3.org/1999/xlink" x="0px"
	 y="0px" width="432px" height="288px" viewBox="0 0 432 288" enable-background="new 0 0 432 288" xml:space="preserve">
<g>
	<path id="element" fill="#00B388" d="M48.492,73.322v32.943h0.001h114.69V73.322H48.492z M156.015,99.098H55.662V80.49h100.354
		V99.098z"/>
	<path fill="#FFFFFF" d="M55.661,160.714h-7.168V127.77h7.168v13.019h12.809V127.77h7.168v32.944h-7.168v-13.652H55.661V160.714z
		 M91.925,161.24c-7.273,0-12.229-4.586-12.229-12.122c0-7.328,4.85-12.389,11.28-12.389c7.01,0,10.488,4.692,10.488,11.703v2.636
		h-14.97c0.844,3.636,3.69,4.583,6.537,4.583c2.477,0,4.269-0.525,6.482-1.896h0.264v5.429
		C97.881,160.555,95.192,161.24,91.925,161.24z M86.495,146.271h8.539c-0.157-2.424-1.159-4.111-3.953-4.111
		C88.973,142.159,87.128,143.055,86.495,146.271z M120.176,146.903l-3.689,13.811h-6.272l-7.169-23.193v-0.263h6.852l3.901,13.862
		l3.689-13.862h5.587l3.743,13.862l3.953-13.862h6.589v0.263l-7.168,23.193h-6.273L120.176,146.903z M149.008,161.24
		c-5.693,0-8.012-2.268-8.012-7.59v-25.88h6.958v25.406c0,1.635,0.632,2.214,2.002,2.214c0.476,0,1.16-0.157,1.582-0.317h0.105
		v5.746C151.064,161.029,150.062,161.24,149.008,161.24z M165.822,161.24c-7.273,0-12.228-4.586-12.228-12.122
		c0-7.328,4.849-12.389,11.279-12.389c7.01,0,10.489,4.692,10.489,11.703v2.636h-14.97c0.843,3.636,3.689,4.583,6.536,4.583
		c2.478,0,4.27-0.525,6.484-1.896h0.264v5.429C171.779,160.555,169.09,161.24,165.822,161.24z M160.393,146.271h8.539
		c-0.159-2.424-1.159-4.111-3.953-4.111C162.871,142.159,161.025,143.055,160.393,146.271z M203.93,137.257h5.167v5.586h-5.167
		v9.542c0,2.055,0.791,3.004,2.899,3.004c0.58,0,1.318-0.053,2.109-0.317h0.158v5.482c-0.897,0.317-2.267,0.686-4.27,0.686
		c-5.642,0-7.854-2.583-7.854-8.539v-9.857h-8.908v9.542c0,2.055,0.791,3.004,2.899,3.004c0.58,0,1.318-0.053,2.108-0.317h0.159
		v5.482c-0.896,0.317-2.267,0.686-4.27,0.686c-5.641,0-7.854-2.583-7.854-8.539v-9.857h-3.585v-5.586h3.585v-6.43h6.958v6.43h8.908
		v-6.43h6.958V137.257z M245.191,138.944c0,7.169-4.797,11.07-12.073,11.07h-5.111v10.7h-7.166V127.77h12.277
		C240.395,127.77,245.191,131.67,245.191,138.944z M232.539,143.952c3.639,0,5.378-2.056,5.378-5.008
		c0-3.057-1.739-5.112-5.378-5.112h-4.532v10.12H232.539z M260.686,158.394c-1.528,1.844-3.793,2.74-6.219,2.74
		c-4.585,0-8.328-2.791-8.328-7.747c0-4.586,3.743-7.644,9.118-7.644c1.687,0,3.428,0.265,5.219,0.791v-0.421
		c0-2.531-1.423-3.637-5.165-3.637c-2.374,0-4.639,0.685-6.589,1.792h-0.263v-5.587c1.791-1.054,4.954-1.951,8.062-1.951
		c7.064,0,10.911,3.374,10.911,9.278v14.706h-6.747V158.394z M260.476,153.333v-2.003c-1.055-0.579-2.423-0.79-3.848-0.79
		c-2.267,0-3.636,0.843-3.636,2.74c0,1.952,1.369,2.795,3.425,2.795C258.367,156.075,259.843,155.072,260.476,153.333z
		 M270.965,149.012c0-7.538,5.324-12.282,12.281-12.282c2.479,0,4.797,0.528,6.536,1.792v5.957h-0.264
		c-1.529-1.16-3.321-1.846-5.376-1.846c-3.479,0-6.114,2.373-6.114,6.378s2.636,6.325,6.114,6.325c2.055,0,3.847-0.686,5.376-1.846
		h0.264v5.956c-1.739,1.267-4.058,1.793-6.536,1.793C276.289,161.24,270.965,156.55,270.965,149.012z M301.112,150.067v10.646
		h-6.955V127.77h6.955v18.764l7.013-9.277h7.905v0.263l-8.433,10.647l8.433,12.282v0.264h-7.958L301.112,150.067z M331.844,158.394
		c-1.528,1.844-3.796,2.74-6.221,2.74c-4.586,0-8.328-2.791-8.328-7.747c0-4.586,3.742-7.644,9.12-7.644
		c1.687,0,3.426,0.265,5.218,0.791v-0.421c0-2.531-1.424-3.637-5.165-3.637c-2.371,0-4.641,0.685-6.591,1.792h-0.262v-5.587
		c1.793-1.054,4.954-1.951,8.064-1.951c7.063,0,10.911,3.374,10.911,9.278v14.706h-6.747V158.394z M331.633,153.333v-2.003
		c-1.054-0.579-2.425-0.79-3.849-0.79c-2.266,0-3.637,0.843-3.637,2.74c0,1.952,1.371,2.795,3.426,2.795
		C329.525,156.075,331.001,155.072,331.633,153.333z M350.293,141.052c1.263-2.583,3.108-4.059,5.693-4.059
		c0.947,0,1.896,0.21,2.263,0.421v6.642h-0.262c-0.79-0.317-1.739-0.528-3.058-0.528c-2.16,0-3.847,1.266-4.428,3.689v13.495h-6.957
		v-23.457h6.748V141.052z M376.907,158.289c-1.474,1.897-3.794,2.951-6.955,2.951c-6.01,0-9.857-5.48-9.857-12.229
		c0-6.747,3.848-12.282,9.857-12.282c3.057,0,5.27,0.95,6.745,2.689V127.77h6.959v32.944h-6.749V158.289z M376.697,152.754v-7.538
		c-1.159-1.687-2.686-2.424-4.427-2.424c-3.056,0-5.111,2.214-5.111,6.22s2.056,6.167,5.111,6.167
		C374.012,155.179,375.538,154.44,376.697,152.754z M48.492,171.471h20.346v4.005h-15.76v10.066h14.284v3.901H53.078v10.965h15.76
		v4.004H48.492V171.471z M85.652,180.747c5.218,0,8.117,3.426,8.117,9.065v14.6h-4.374v-14.493c0-3.006-1.528-5.167-4.849-5.167
		c-2.741,0-5.062,1.739-5.851,4.217v15.443H74.32v-23.19h4.375v3.372C80.064,182.434,82.384,180.747,85.652,180.747z
		 M105.523,181.222h5.955v3.743h-5.955v12.49c0,2.636,1.37,3.532,3.847,3.532c0.685,0,1.423-0.104,1.95-0.315h0.158v3.74
		c-0.631,0.265-1.528,0.476-2.74,0.476c-5.429,0-7.59-2.479-7.59-7.011v-12.912h-4.005v-3.743h4.005v-6.165h4.375V181.222z
		 M125.71,204.888c-6.799,0-11.438-4.535-11.438-11.808c0-7.274,4.322-12.333,10.595-12.333c6.378,0,9.699,4.586,9.699,11.384v2.003
		h-15.918c0.475,4.692,3.479,6.958,7.643,6.958c2.583,0,4.427-0.579,6.483-2.108h0.159v3.85
		C131.035,204.309,128.557,204.888,125.71,204.888z M118.806,190.549h11.543c-0.157-3.424-1.845-6.059-5.429-6.059
		C121.599,184.49,119.438,186.966,118.806,190.549z M144.105,184.805c1.003-2.476,3.216-3.951,5.745-3.951
		c1.002,0,1.898,0.157,2.267,0.368v4.32h-0.158c-0.632-0.315-1.687-0.473-2.741-0.473c-2.372,0-4.374,1.581-5.113,4.217v15.126
		h-4.375v-23.19h4.375V184.805z M166.981,180.747c6.905,0,10.595,5.64,10.595,12.069c0,6.432-3.689,12.071-10.595,12.071
		c-2.846,0-5.27-1.476-6.482-3.058v11.492h-4.375v-32.101h4.375v2.634C161.711,182.223,164.135,180.747,166.981,180.747z
		 M166.243,200.934c4.323,0,6.853-3.426,6.853-8.117c0-4.639-2.53-8.116-6.853-8.116c-2.372,0-4.585,1.423-5.745,3.688v8.91
		C161.658,199.562,163.872,200.934,166.243,200.934z M187.117,184.805c1-2.476,3.215-3.951,5.745-3.951
		c1.001,0,1.897,0.157,2.266,0.368v4.32h-0.158c-0.632-0.315-1.686-0.473-2.741-0.473c-2.373,0-4.375,1.581-5.113,4.217v15.126
		h-4.375v-23.19h4.375V184.805z M201.453,171.84c1.528,0,2.794,1.211,2.794,2.741c0,1.527-1.266,2.74-2.794,2.74
		c-1.476,0-2.793-1.213-2.793-2.74C198.66,173.051,199.978,171.84,201.453,171.84z M199.292,181.222h4.375v23.19h-4.375V181.222z
		 M219.269,190.868c3.32,1.052,7.01,2.423,7.01,6.851c0,4.744-3.899,7.169-8.906,7.169c-3.058,0-6.115-0.739-7.854-2.108v-4.164
		h0.21c1.951,1.793,4.849,2.583,7.59,2.583c2.478,0,4.691-0.95,4.691-2.953c0-2.055-1.844-2.529-5.482-3.741
		c-3.269-1.054-6.905-2.267-6.905-6.642c0-4.481,3.689-7.115,8.381-7.115c2.741,0,5.164,0.579,7.116,1.897v4.217h-0.159
		c-1.896-1.528-4.111-2.425-6.852-2.425c-2.742,0-4.27,1.212-4.27,2.847C213.839,189.127,215.525,189.654,219.269,190.868z
		 M241.512,204.888c-6.8,0-11.438-4.535-11.438-11.808c0-7.274,4.322-12.333,10.594-12.333c6.379,0,9.699,4.586,9.699,11.384v2.003
		h-15.92c0.475,4.692,3.48,6.958,7.644,6.958c2.584,0,4.428-0.579,6.484-2.108h0.157v3.85
		C246.836,204.309,244.357,204.888,241.512,204.888z M234.607,190.549h11.541c-0.156-3.424-1.844-6.059-5.427-6.059
		C237.4,184.49,235.239,186.966,234.607,190.549z"/>
</g>
</svg>
