<?xml version="1.0" encoding="UTF-8" standalone="no"?>
<svg width="179px" height="70px" viewBox="0 0 179 70" version="1.1" xmlns="http://www.w3.org/2000/svg" xmlns:xlink="http://www.w3.org/1999/xlink" xmlns:sketch="http://www.bohemiancoding.com/sketch/ns">
    <!-- Generator: Sketch 3.3 (11970) - http://www.bohemiancoding.com/sketch -->
    <title>hpesm_pri_grn_pos_rgb</title>
    <desc>Created with Sketch.</desc>
    <defs></defs>
    <g id="Page-1" stroke="none" stroke-width="1" fill="none" fill-rule="evenodd" sketch:type="MSPage">
        <g id="hpesm_pri_grn_pos_rgb" sketch:type="MSLayerGroup">
            <g id="Group" sketch:type="MSShapeGroup">
                <path d="M0.617,0.327 L0.617,16.188 L55.835,16.188 L55.835,0.327 L0.617,0.327 L0.617,0.327 Z M52.384,12.737 L4.068,12.737 L4.068,3.778 L52.384,3.778 L52.384,12.737 L52.384,12.737 Z" id="element" fill="#00B388"></path>
                <path d="M10.668,49.173 L10.668,51.103 L2.825,51.103 L2.825,55.952 L9.957,55.952 L9.957,57.83 L2.825,57.83 L2.825,63.109 L10.668,63.109 L10.668,65.038 L0.617,65.038 L0.617,49.174 L10.668,49.174 L10.668,49.173 Z M16.123,65.037 L13.966,65.037 L13.966,53.361 L15.996,53.361 L15.996,55.545 C16.833,54.072 18.179,53.107 19.905,53.107 C22.621,53.107 24.22,54.883 24.22,57.549 L24.22,65.036 L22.062,65.036 L22.062,57.6 C22.062,56.053 21.25,55.138 19.448,55.138 C17.9,55.138 16.58,56.179 16.123,57.576 L16.123,65.037 L16.123,65.037 Z M33.051,65.291 C30.132,65.291 28.965,64.02 28.965,61.712 L28.965,55.266 L26.503,55.266 L26.503,53.362 L28.965,53.362 L28.965,50.342 L31.122,50.342 L31.122,53.362 L34.447,53.362 L34.447,55.266 L31.122,55.266 L31.122,61.51 C31.122,62.906 31.909,63.285 33.255,63.285 C33.609,63.285 33.965,63.236 34.27,63.133 L34.447,63.133 L34.447,65.037 C34.117,65.163 33.659,65.291 33.051,65.291 L33.051,65.291 Z M42.541,65.291 C38.658,65.291 36.196,63.007 36.196,59.326 C36.196,55.671 38.481,53.107 41.831,53.107 C45.282,53.107 47.034,55.419 47.034,58.844 L47.034,59.987 L38.43,59.987 C38.735,62.269 40.359,63.337 42.567,63.337 C43.938,63.337 44.979,63.108 45.994,62.373 L46.222,62.373 L46.222,64.226 C45.182,65.012 43.836,65.291 42.541,65.291 L42.541,65.291 Z M38.456,58.285 L44.928,58.285 C44.851,56.154 43.735,55.012 41.857,55.012 C39.979,55.012 38.735,56.383 38.456,58.285 L38.456,58.285 Z M56.474,55.569 C56.169,55.419 55.712,55.315 55.231,55.315 C53.859,55.315 52.768,56.282 52.312,57.853 L52.312,65.037 L50.155,65.037 L50.155,53.361 L52.185,53.361 L52.185,55.875 C52.871,53.971 54.114,53.184 55.51,53.184 C56.017,53.184 56.474,53.261 56.652,53.362 L56.652,55.57 L56.474,55.57 L56.474,55.569 Z M60.965,63.133 L60.965,69.326 L58.808,69.326 L58.808,53.361 L60.838,53.361 L60.838,55.367 C61.524,54.173 62.868,53.107 64.67,53.107 C68.198,53.107 70.051,55.899 70.051,59.072 C70.051,62.321 68.197,65.163 64.67,65.163 C62.996,65.163 61.676,64.25 60.965,63.133 L60.965,63.133 Z M67.843,59.072 C67.843,56.712 66.524,55.137 64.163,55.137 C62.768,55.137 61.651,55.874 60.966,57.143 L60.966,61.154 C61.652,62.397 62.768,63.159 64.163,63.159 C66.523,63.159 67.843,61.534 67.843,59.072 L67.843,59.072 Z M79.619,55.569 C79.314,55.419 78.857,55.315 78.375,55.315 C77.004,55.315 75.913,56.282 75.457,57.853 L75.457,65.037 L73.3,65.037 L73.3,53.361 L75.33,53.361 L75.33,55.875 C76.015,53.971 77.259,53.184 78.654,53.184 C79.162,53.184 79.619,53.261 79.797,53.362 L79.797,55.57 L79.619,55.57 L79.619,55.569 Z M83.297,52.194 C82.484,52.194 81.749,51.508 81.749,50.671 C81.749,49.834 82.484,49.173 83.297,49.173 C84.134,49.173 84.845,49.834 84.845,50.671 C84.845,51.509 84.135,52.194 83.297,52.194 L83.297,52.194 Z M84.363,65.037 L82.206,65.037 L82.206,53.361 L84.363,53.361 L84.363,65.037 L84.363,65.037 Z M87.865,62.27 L88.069,62.27 C89.033,63.057 90.455,63.463 91.799,63.463 C93.068,63.463 94.185,62.982 94.185,61.942 C94.185,60.901 93.246,60.671 91.394,60.064 C89.744,59.504 87.89,58.92 87.89,56.712 C87.89,54.402 89.768,53.108 92.181,53.108 C93.551,53.108 94.77,53.387 95.784,54.073 L95.784,56.053 L95.556,56.053 C94.642,55.367 93.551,54.936 92.205,54.936 C90.835,54.936 90.073,55.545 90.073,56.409 C90.073,57.373 90.885,57.628 92.789,58.21 C94.488,58.77 96.368,59.429 96.368,61.637 C96.368,64.049 94.387,65.292 91.825,65.292 C90.276,65.292 88.728,64.912 87.865,64.227 L87.865,62.27 L87.865,62.27 Z M105.147,65.291 C101.264,65.291 98.802,63.007 98.802,59.326 C98.802,55.671 101.086,53.107 104.437,53.107 C107.89,53.107 109.641,55.419 109.641,58.844 L109.641,59.987 L101.036,59.987 C101.341,62.269 102.965,63.337 105.175,63.337 C106.544,63.337 107.585,63.108 108.601,62.373 L108.829,62.373 L108.829,64.226 C107.787,65.012 106.442,65.291 105.147,65.291 L105.147,65.291 Z M101.062,58.285 L107.535,58.285 C107.459,56.154 106.342,55.012 104.464,55.012 C102.585,55.012 101.341,56.383 101.062,58.285 L101.062,58.285 Z M13.942,26.543 L13.942,42.406 L10.49,42.406 L10.49,35.832 L4.069,35.832 L4.069,42.406 L0.618,42.406 L0.618,26.543 L4.069,26.543 L4.069,32.812 L10.49,32.812 L10.49,26.543 L13.942,26.543 L13.942,26.543 Z M23.306,42.686 C18.94,42.686 16.605,40.325 16.605,36.518 C16.605,32.711 19.041,30.198 22.569,30.198 C26.376,30.198 28.28,32.584 28.28,36.163 L28.28,37.507 L20.158,37.507 C20.411,39.463 21.96,39.969 23.482,39.969 C24.854,39.969 25.919,39.792 27.037,39.185 L27.417,39.185 L27.417,41.671 C26.402,42.406 24.778,42.686 23.306,42.686 L23.306,42.686 Z M20.133,35.325 L24.88,35.325 C24.778,33.548 24.017,32.761 22.621,32.761 C21.428,32.761 20.361,33.32 20.133,35.325 L20.133,35.325 Z M32.339,42.406 L29.851,30.884 L29.851,30.478 L33.049,30.478 L34.395,37.737 L34.725,40.071 L35.182,37.737 L36.806,30.478 L40.436,30.478 L42.036,37.737 L42.518,40.071 L42.899,37.737 L44.244,30.478 L47.29,30.478 L47.29,30.884 L44.777,42.406 L40.36,42.406 L38.939,36.036 L38.533,33.65 L38.127,36.036 L36.731,42.406 L32.339,42.406 L32.339,42.406 Z M53.378,42.686 C50.84,42.686 49.571,41.519 49.571,38.802 L49.571,26.544 L53.023,26.544 L53.023,38.574 C53.023,39.412 53.378,39.691 54.19,39.691 C54.444,39.691 54.851,39.615 55.104,39.54 L55.155,39.54 L55.155,42.407 C54.774,42.534 54.038,42.686 53.378,42.686 L53.378,42.686 Z M62.87,42.686 C58.504,42.686 56.169,40.325 56.169,36.518 C56.169,32.711 58.606,30.198 62.134,30.198 C65.942,30.198 67.844,32.584 67.844,36.163 L67.844,37.507 L59.722,37.507 C59.976,39.463 61.524,39.969 63.047,39.969 C64.417,39.969 65.484,39.792 66.6,39.185 L66.981,39.185 L66.981,41.671 C65.965,42.406 64.341,42.686 62.87,42.686 L62.87,42.686 Z M59.696,35.325 L64.442,35.325 C64.341,33.548 63.58,32.761 62.184,32.761 C60.991,32.761 59.925,33.32 59.696,35.325 L59.696,35.325 Z M79.542,38.066 L79.542,33.319 L74.491,33.319 L74.491,37.913 C74.491,39.132 74.897,39.689 76.04,39.689 C76.37,39.689 76.801,39.587 77.029,39.487 L77.36,39.487 L77.36,42.329 C76.902,42.481 76.217,42.684 75.202,42.684 C72.284,42.684 71.04,41.288 71.04,38.065 L71.04,33.318 L68.984,33.318 L68.984,30.476 L71.04,30.476 L71.04,27.582 L74.492,27.582 L74.492,30.476 L79.543,30.476 L79.543,27.582 L82.995,27.582 L82.995,30.476 L85.863,30.476 L85.863,33.318 L82.995,33.318 L82.995,37.912 C82.995,39.131 83.401,39.688 84.543,39.688 C84.873,39.688 85.305,39.586 85.533,39.486 L85.863,39.486 L85.863,42.328 C85.406,42.48 84.721,42.683 83.706,42.683 C80.787,42.686 79.542,41.289 79.542,38.066 L79.542,38.066 Z M96.011,37.507 L96.011,42.406 L92.586,42.406 L92.586,26.543 L98.753,26.543 C102.256,26.543 104.565,28.472 104.565,32.05 C104.565,35.577 102.255,37.506 98.753,37.506 L96.011,37.506 L96.011,37.507 Z M98.475,29.462 L96.011,29.462 L96.011,34.589 L98.475,34.589 C100.224,34.589 101.063,33.548 101.063,32.051 C101.062,30.502 100.224,29.462 98.475,29.462 L98.475,29.462 Z M113.345,40.63 C112.635,41.95 111.34,42.534 109.741,42.534 C107.533,42.534 105.705,41.263 105.705,38.903 C105.705,36.544 107.304,35.173 110.325,35.173 C111.314,35.173 112.304,35.274 113.244,35.452 L113.244,34.766 C113.244,33.497 112.355,32.939 110.578,32.939 C109.258,32.939 108.167,33.218 107.254,33.674 L106.872,33.674 L106.872,31.085 C107.787,30.604 109.411,30.197 110.984,30.197 C114.716,30.197 116.645,31.898 116.645,34.842 L116.645,42.405 L113.344,42.405 L113.344,40.63 L113.345,40.63 Z M113.244,38.676 L113.244,37.153 C112.659,36.976 111.899,36.925 111.288,36.925 C109.893,36.925 109.182,37.458 109.182,38.548 C109.182,39.639 109.894,40.07 110.933,40.07 C111.976,40.07 112.913,39.564 113.244,38.676 L113.244,38.676 Z M119.18,36.468 C119.18,32.61 121.896,30.198 125.426,30.198 C126.871,30.198 127.988,30.529 128.749,31.036 L128.749,34.031 L128.394,34.031 C127.659,33.473 126.847,33.219 125.806,33.219 C124.104,33.219 122.735,34.411 122.735,36.468 C122.735,38.498 124.104,39.665 125.806,39.665 C126.847,39.665 127.659,39.411 128.394,38.853 L128.749,38.853 L128.749,41.848 C127.988,42.354 126.871,42.685 125.426,42.685 C121.896,42.686 119.18,40.3 119.18,36.468 L119.18,36.468 Z M134.864,36.619 L134.864,42.406 L131.413,42.406 L131.413,26.543 L134.864,26.543 L134.864,35.578 L135.676,34.361 L138.849,30.478 L142.504,30.478 L142.504,30.884 L138.088,35.884 L142.504,41.999 L142.504,42.406 L138.621,42.406 L135.676,38.04 L134.864,36.619 L134.864,36.619 Z M150.953,40.63 C150.243,41.95 148.948,42.534 147.349,42.534 C145.141,42.534 143.313,41.263 143.313,38.903 C143.313,36.544 144.912,35.173 147.933,35.173 C148.922,35.173 149.912,35.274 150.852,35.452 L150.852,34.766 C150.852,33.497 149.963,32.939 148.187,32.939 C146.868,32.939 145.775,33.218 144.863,33.674 L144.482,33.674 L144.482,31.085 C145.395,30.604 147.019,30.197 148.592,30.197 C152.324,30.197 154.253,31.898 154.253,34.842 L154.253,42.405 L150.952,42.405 L150.952,40.63 L150.953,40.63 Z M150.853,38.676 L150.853,37.153 C150.268,36.976 149.508,36.925 148.899,36.925 C147.503,36.925 146.793,37.458 146.793,38.548 C146.793,39.639 147.503,40.07 148.544,40.07 C149.585,40.07 150.521,39.564 150.853,38.676 L150.853,38.676 Z M160.698,32.889 C161.334,31.112 162.678,30.35 164.048,30.35 C164.507,30.35 164.887,30.477 165.039,30.553 L165.039,33.827 L164.684,33.827 C164.33,33.65 163.974,33.547 163.491,33.547 C162.12,33.547 161.131,34.182 160.851,35.527 L160.851,42.405 L157.4,42.405 L157.4,30.476 L160.699,30.476 L160.699,32.889 L160.698,32.889 Z M175.013,40.731 C174.226,41.974 172.981,42.685 171.434,42.685 C168.185,42.685 166.18,40.07 166.18,36.467 C166.18,32.837 168.185,30.197 171.434,30.197 C172.88,30.197 174.074,30.832 174.861,31.923 L174.861,26.543 L178.312,26.543 L178.312,42.406 L175.013,42.406 L175.013,40.731 L175.013,40.731 Z M174.86,38.523 L174.86,34.36 C174.225,33.446 173.362,33.014 172.373,33.014 C170.8,33.014 169.734,34.232 169.734,36.467 C169.734,38.675 170.799,39.867 172.373,39.867 C173.362,39.868 174.226,39.437 174.86,38.523 L174.86,38.523 Z" id="Shape" fill="#000000"></path>
            </g>
        </g>
    </g>
</svg>