<?xml version="1.0" encoding="UTF-8" standalone="no"?>
<svg width="298px" height="338px" viewBox="0 0 298 338" version="1.1" xmlns="http://www.w3.org/2000/svg" xmlns:xlink="http://www.w3.org/1999/xlink" xmlns:sketch="http://www.bohemiancoding.com/sketch/ns">
    <!-- Generator: Sketch 3.3 (11970) - http://www.bohemiancoding.com/sketch -->
    <title>HTML5</title>
    <desc>Created with Sketch.</desc>
    <defs></defs>
    <g id="Page-1" stroke="none" stroke-width="1" fill="none" fill-rule="evenodd" sketch:type="MSPage">
        <g id="HTML5CSS3Logos" sketch:type="MSLayerGroup" transform="translate(0.000000, -82.000000)">
            <g id="Group" sketch:type="MSShapeGroup">
                <g transform="translate(0.000000, 82.000000)" id="Shape">
                    <path d="M27.383,304.266 L0.313,0.646 L297.763,0.646 L270.665,304.217 L148.856,337.986 L27.383,304.266 Z" fill="#E44F26"></path>
                    <path d="M149.038,312.175 L247.465,284.887 L270.623,25.471 L149.038,25.471 L149.038,312.175 Z" fill="#F1662A"></path>
                    <path d="M149.038,138.08 L99.763,138.08 L96.359,99.948 L149.038,99.948 L149.038,62.709 L148.909,62.709 L55.663,62.709 L56.555,72.7 L65.707,175.316 L149.038,175.316 L149.038,138.08 Z" fill="#EBEBEB"></path>
                    <path d="M149.038,234.788 L148.875,234.834 L107.403,223.635 L104.751,193.937 L84.6,193.937 L67.371,193.937 L72.588,252.404 L148.866,273.58 L149.038,273.532 L149.038,234.788 Z" fill="#EBEBEB"></path>
                    <path d="M148.909,138.08 L148.909,175.316 L194.763,175.316 L190.441,223.61 L148.909,234.82 L148.909,273.562 L225.249,252.404 L225.808,246.114 L234.559,148.079 L235.467,138.08 L225.433,138.08 L148.909,138.08 Z" fill="#FFFFFF"></path>
                    <path d="M148.909,62.709 L148.909,85.837 L148.909,99.856 L148.909,99.948 L238.736,99.948 L238.856,99.948 L239.603,91.578 L241.299,72.7 L242.19,62.709 L148.909,62.709 Z" fill="#FFFFFF"></path>
                </g>
            </g>
        </g>
    </g>
</svg>