<?xml version="1.0" encoding="utf-8"?>
<!-- Generator: Adobe Illustrator 17.1.0, SVG Export Plug-In . SVG Version: 6.00 Build 0)  -->
<!DOCTYPE svg PUBLIC "-//W3C//DTD SVG 1.1//EN" "http://www.w3.org/Graphics/SVG/1.1/DTD/svg11.dtd">
<svg version="1.1" id="Layer_1" xmlns="http://www.w3.org/2000/svg" xmlns:xlink="http://www.w3.org/1999/xlink" x="0px" y="0px"
	 viewBox="0 0 106 82" enable-background="new 0 0 106 82" xml:space="preserve">
<rect x="11" y="11" fill="#03B388" width="20" height="20"/>
<path fill="#FFFFFF" d="M36,0H6H0v6v30v6h6h10v40h10V42h10h6v-6V6V0H36z M36,36H26v0H16v0H6V6h30V36z"/>
<rect x="69" fill="#FFFFFF" width="10" height="30"/>
<polygon fill="#03B388" points="77,52 77,34 71,34 71,52 71,54 71,58 99,58 99,76 69,76 45,76 45,82 69,82 99,82 99,82 105,82 
	105,82 105,76 105,58 105,52 "/>
</svg>
