<?xml version="1.0" encoding="utf-8"?>
<!-- Generator: Adobe Illustrator 18.1.1, SVG Export Plug-In . SVG Version: 6.00 Build 0)  -->
<svg version="1.1" id="Layer_1" xmlns="http://www.w3.org/2000/svg" xmlns:xlink="http://www.w3.org/1999/xlink" x="0px" y="0px"
	 viewBox="0 0 160 160" enable-background="new 0 0 160 160" xml:space="preserve">
<g>
	<path fill="#8C50FF" d="M129.496,30.501l-18.507,18.508c4.909,4.909,8.87,10.764,10.68,16.364
		c11.023,34.095-18.344,65.231-52.137,57.447c-14.541-3.35-29.011-17.822-32.357-32.364c-6.743-29.305,15.782-55.271,44.118-54.459
		l22.016-22.017c-7.213-2.547-14.967-3.95-23.045-3.98c-38.25-0.142-69.715,30.738-70.257,68.984
		c-0.555,39.14,31.02,71.04,70.038,71.015C118.802,149.975,150,118.756,150,80C150,60.669,142.164,43.169,129.496,30.501z"/>
	<path fill="#333333" d="M37.176,90.456c3.346,14.542,17.816,29.015,32.357,32.364c33.792,7.784,63.16-23.352,52.137-57.447
		c-1.811-5.6-5.772-11.456-10.68-16.364l-30.99,30.99L110.09,80c0,16.761-13.704,30.321-30.519,30.088
		c-16.137-0.224-29.337-13.343-29.656-29.478c-0.169-8.55,3.229-16.307,8.806-21.886l-0.077-0.077l22.648-22.65
		C52.958,35.185,30.433,61.151,37.176,90.456z"/>
</g>
</svg>
