<?xml version="1.0" encoding="utf-8"?>
<!-- Generator: Adobe Illustrator 16.0.0, SVG Export Plug-In . SVG Version: 6.00 Build 0)  -->
<!DOCTYPE svg PUBLIC "-//W3C//DTD SVG 1.1//EN" "http://www.w3.org/Graphics/SVG/1.1/DTD/svg11.dtd">
<svg version="1.1" id="secondary_logo_small" xmlns="http://www.w3.org/2000/svg" xmlns:xlink="http://www.w3.org/1999/xlink"
	 x="0px" y="0px" width="432px" height="288px" viewBox="0 0 432 288" enable-background="new 0 0 432 288" xml:space="preserve">
<path d="M188.475,109.327v15.861h0.001h55.218v-15.861H188.475z M240.242,121.737h-48.316v-8.959h48.316V121.737z M171.623,158.173
	v1.93h-7.842v4.849h7.132v1.878h-7.132v5.279h7.842v1.929h-10.05v-15.864H171.623z M177.078,174.037h-2.157v-11.676h2.03v2.184
	c0.837-1.473,2.183-2.438,3.909-2.438c2.716,0,4.315,1.776,4.315,4.442v7.487h-2.157V166.6c0-1.547-0.812-2.462-2.615-2.462
	c-1.548,0-2.869,1.041-3.325,2.438V174.037z M194.006,174.291c-2.919,0-4.086-1.271-4.086-3.579v-6.446h-2.462v-1.904h2.462v-3.02
	h2.158v3.02h3.324v1.904h-3.324v6.244c0,1.396,0.787,1.775,2.132,1.775c0.354,0,0.709-0.049,1.014-0.152h0.178v1.904
	C195.072,174.163,194.614,174.291,194.006,174.291z M203.497,174.291c-3.884,0-6.346-2.284-6.346-5.965
	c0-3.655,2.285-6.219,5.635-6.219c3.452,0,5.203,2.312,5.203,5.737v1.143h-8.604c0.305,2.282,1.929,3.35,4.137,3.35
	c1.371,0,2.412-0.229,3.427-0.964h0.228v1.853C206.137,174.012,204.792,174.291,203.497,174.291z M199.411,167.285h6.472
	c-0.076-2.131-1.193-3.273-3.071-3.273S199.69,165.383,199.411,167.285z M217.43,164.569c-0.305-0.15-0.763-0.254-1.244-0.254
	c-1.372,0-2.463,0.967-2.919,2.538v7.184h-2.157v-11.676h2.03v2.514c0.686-1.904,1.929-2.691,3.325-2.691
	c0.507,0,0.965,0.077,1.142,0.178v2.208H217.43z M221.921,172.133v6.193h-2.158v-15.965h2.032v2.006
	c0.684-1.194,2.028-2.26,3.831-2.26c3.527,0,5.38,2.792,5.38,5.965c0,3.249-1.853,6.091-5.38,6.091
	C223.951,174.163,222.631,173.25,221.921,172.133z M228.798,168.072c0-2.36-1.319-3.935-3.68-3.935
	c-1.396,0-2.512,0.737-3.197,2.006v4.011c0.686,1.243,1.801,2.005,3.197,2.005C227.479,172.159,228.798,170.534,228.798,168.072z
	 M240.573,164.569c-0.304-0.15-0.761-0.254-1.244-0.254c-1.371,0-2.462,0.967-2.918,2.538v7.184h-2.158v-11.676h2.032v2.514
	c0.684-1.904,1.927-2.691,3.323-2.691c0.508,0,0.965,0.077,1.142,0.178v2.208H240.573z M244.251,161.194
	c-0.812,0-1.547-0.686-1.547-1.523c0-0.837,0.735-1.498,1.547-1.498c0.839,0,1.55,0.661,1.55,1.498
	C245.801,160.509,245.09,161.194,244.251,161.194z M245.317,174.037h-2.156v-11.676h2.156V174.037z M248.82,171.27h0.202
	c0.965,0.787,2.388,1.193,3.731,1.193c1.269,0,2.386-0.481,2.386-1.521c0-1.041-0.939-1.271-2.792-1.878
	c-1.65-0.56-3.503-1.144-3.503-3.352c0-2.31,1.88-3.604,4.29-3.604c1.371,0,2.59,0.279,3.604,0.965v1.98h-0.228
	c-0.914-0.686-2.005-1.117-3.352-1.117c-1.369,0-2.132,0.609-2.132,1.473c0,0.964,0.812,1.219,2.717,1.801
	c1.699,0.56,3.579,1.219,3.579,3.427c0,2.412-1.98,3.655-4.544,3.655c-1.549,0-3.096-0.38-3.959-1.065V171.27z M266.103,174.291
	c-3.883,0-6.345-2.284-6.345-5.965c0-3.655,2.284-6.219,5.635-6.219c3.453,0,5.204,2.312,5.204,5.737v1.143h-8.604
	c0.304,2.282,1.927,3.35,4.135,3.35c1.371,0,2.412-0.229,3.428-0.964h0.228v1.853C268.744,174.012,267.397,174.291,266.103,174.291z
	 M262.018,167.285h6.473c-0.076-2.131-1.193-3.273-3.073-3.273C263.54,164.012,262.297,165.383,262.018,167.285z M140.562,135.543
	v15.863h-3.451v-6.574h-6.421v6.574h-3.452v-15.863h3.452v6.269h6.421v-6.269H140.562z M149.926,151.686
	c-4.366,0-6.701-2.361-6.701-6.168c0-3.807,2.436-6.32,5.965-6.32c3.808,0,5.71,2.386,5.71,5.965v1.344h-8.122
	c0.254,1.956,1.802,2.462,3.325,2.462c1.37,0,2.436-0.177,3.553-0.784h0.38v2.486C153.021,151.406,151.397,151.686,149.926,151.686z
	 M146.752,144.325h4.747c-0.102-1.777-0.863-2.564-2.259-2.564C148.047,141.761,146.98,142.32,146.752,144.325z M158.959,151.406
	l-2.488-11.522v-0.406h3.198l1.345,7.259l0.331,2.334l0.457-2.334l1.625-7.259h3.629l1.599,7.259l0.482,2.334l0.381-2.334
	l1.345-7.259h3.046v0.406l-2.514,11.522h-4.416l-1.421-6.37l-0.407-2.386l-0.406,2.386l-1.396,6.37H158.959z M179.998,151.686
	c-2.538,0-3.808-1.167-3.808-3.884v-12.258h3.452v12.03c0,0.838,0.355,1.117,1.167,1.117c0.254,0,0.661-0.076,0.915-0.151h0.051
	v2.867C181.394,151.534,180.657,151.686,179.998,151.686z M189.489,151.686c-4.365,0-6.701-2.361-6.701-6.168
	c0-3.807,2.437-6.32,5.965-6.32c3.807,0,5.71,2.386,5.71,5.965v1.344h-8.122c0.254,1.956,1.802,2.462,3.325,2.462
	c1.371,0,2.437-0.177,3.554-0.784h0.381v2.486C192.586,151.406,190.96,151.686,189.489,151.686z M186.316,144.325h4.746
	c-0.102-1.777-0.863-2.564-2.258-2.564C187.61,141.761,186.545,142.32,186.316,144.325z M206.162,147.066v-4.747h-5.051v4.594
	c0,1.219,0.406,1.776,1.549,1.776c0.33,0,0.761-0.102,0.989-0.202h0.331v2.842c-0.458,0.152-1.142,0.355-2.158,0.355
	c-2.918,0-4.162-1.396-4.162-4.619v-4.747h-2.056v-2.842h2.056v-2.894h3.451v2.894h5.051v-2.894h3.452v2.894h2.868v2.842h-2.868
	v4.594c0,1.219,0.406,1.776,1.548,1.776c0.33,0,0.762-0.102,0.99-0.202h0.329v2.842c-0.456,0.152-1.142,0.355-2.157,0.355
	C207.406,151.686,206.162,150.289,206.162,147.066z M222.631,146.507v4.899h-3.427v-15.863h6.168c3.503,0,5.813,1.929,5.813,5.507
	c0,3.527-2.311,5.456-5.813,5.456H222.631z M225.093,138.462h-2.462v5.127h2.462c1.752,0,2.59-1.041,2.59-2.538
	C227.683,139.502,226.845,138.462,225.093,138.462z M239.966,149.63c-0.713,1.32-2.006,1.904-3.604,1.904
	c-2.21,0-4.037-1.271-4.037-3.631c0-2.359,1.601-3.73,4.62-3.73c0.991,0,1.98,0.101,2.918,0.279v-0.686
	c0-1.269-0.888-1.827-2.664-1.827c-1.32,0-2.41,0.279-3.325,0.735h-0.38v-2.589c0.912-0.481,2.538-0.888,4.111-0.888
	c3.73,0,5.659,1.701,5.659,4.645v7.563h-3.298V149.63z M239.862,147.676v-1.523c-0.582-0.177-1.345-0.228-1.954-0.228
	c-1.396,0-2.106,0.533-2.106,1.623c0,1.091,0.711,1.522,1.752,1.522C238.594,149.07,239.534,148.564,239.862,147.676z
	 M245.801,145.468c0-3.858,2.716-6.27,6.243-6.27c1.447,0,2.563,0.331,3.325,0.838v2.995h-0.355
	c-0.735-0.558-1.549-0.812-2.588-0.812c-1.701,0-3.071,1.192-3.071,3.249c0,2.03,1.37,3.197,3.071,3.197
	c1.039,0,1.853-0.254,2.588-0.812h0.355v2.995c-0.762,0.506-1.878,0.837-3.325,0.837C248.517,151.686,245.801,149.3,245.801,145.468
	z M261.484,145.619v5.787h-3.451v-15.863h3.451v9.035l0.812-1.217l3.172-3.883h3.655v0.406l-4.415,5l4.415,6.115v0.407h-3.883
	l-2.944-4.366L261.484,145.619z M277.574,149.63c-0.711,1.32-2.006,1.904-3.604,1.904c-2.208,0-4.035-1.271-4.035-3.631
	c0-2.359,1.599-3.73,4.62-3.73c0.989,0,1.979,0.101,2.918,0.279v-0.686c0-1.269-0.89-1.827-2.666-1.827
	c-1.32,0-2.41,0.279-3.325,0.735h-0.38v-2.589c0.914-0.481,2.538-0.888,4.111-0.888c3.732,0,5.661,1.701,5.661,4.645v7.563h-3.3
	V149.63z M277.473,147.676v-1.523c-0.584-0.177-1.347-0.228-1.956-0.228c-1.394,0-2.106,0.533-2.106,1.623
	c0,1.091,0.713,1.522,1.752,1.522C276.202,149.07,277.143,148.564,277.473,147.676z M287.318,141.889
	c0.634-1.777,1.979-2.539,3.35-2.539c0.457,0,0.839,0.127,0.99,0.203v3.274h-0.354c-0.357-0.177-0.713-0.28-1.196-0.28
	c-1.369,0-2.358,0.635-2.638,1.98v6.878h-3.453v-11.929h3.301V141.889z M301.632,149.731c-0.787,1.243-2.03,1.954-3.578,1.954
	c-3.25,0-5.254-2.615-5.254-6.218c0-3.63,2.004-6.27,5.254-6.27c1.446,0,2.64,0.635,3.427,1.726v-5.38h3.451v15.863h-3.3V149.731z
	 M301.48,147.523v-4.163c-0.636-0.914-1.497-1.346-2.488-1.346c-1.574,0-2.64,1.218-2.64,3.453c0,2.208,1.065,3.4,2.64,3.4
	C299.983,148.868,300.845,148.437,301.48,147.523z"/>
</svg>
