<?xml version="1.0" encoding="UTF-8" standalone="no"?>
<svg width="132px" height="132px" viewBox="0 0 132 132" version="1.1" xmlns="http://www.w3.org/2000/svg" xmlns:xlink="http://www.w3.org/1999/xlink" xmlns:sketch="http://www.bohemiancoding.com/sketch/ns">
    <!-- Generator: Sketch 3.3.2 (12043) - http://www.bohemiancoding.com/sketch -->
    <title>grommet-logo-2</title>
    <desc>Created with Sketch.</desc>
    <defs></defs>
    <g id="Page-1" stroke="none" stroke-width="1" fill="none" fill-rule="evenodd" sketch:type="MSPage">
        <g id="grommet-logo-2" sketch:type="MSLayerGroup">
            <g id="Shape-+-Shape" sketch:type="MSShapeGroup">
                <path d="M112.667686,19.3299742 L95.2182542,36.7803742 C99.8467331,41.4088599 103.581385,46.9292885 105.287954,52.2092885 C115.681053,84.3560028 87.9922076,113.712803 56.1302831,106.373603 C42.4202176,103.215031 28.7770948,89.5700028 25.6222995,75.8589742 C19.2646231,48.2285456 40.502449,23.746317 67.2192097,24.511917 L87.977122,3.75303133 C81.1763034,1.35157419 73.8653999,0.028745618 66.2490111,0.000459903764 C30.1847785,-0.133425811 0.517822142,28.9820028 0.00679432268,65.042517 C-0.516490621,101.945946 29.2541798,132.023088 66.0425257,131.999517 C102.584786,131.976888 132,102.541831 132,66.0004599 C132,47.7740885 124.611782,31.2740885 112.667686,19.3299742 L112.667686,19.3299742 Z" id="Shape" fill="#8C50FF"></path>
                <path d="M25.6208828,75.8599748 C28.7755104,89.5710034 42.4179077,103.216975 56.1272442,106.374603 C87.9865316,113.713803 115.674847,84.3570034 105.282301,52.2102891 C103.57488,46.9302891 99.8404267,41.4089176 95.2131367,36.7813748 L65.9955906,66.0005176 L94.3646117,66.0014605 C94.3646117,81.8046891 81.4444035,94.5898319 65.591127,94.3701462 C50.3770727,94.1589462 37.9320386,81.7896034 37.6312836,66.5766034 C37.4719494,58.5151748 40.6756029,51.2014319 45.9336299,45.9412319 L45.8610338,45.8686319 L67.2136955,24.5129176 C40.5002411,23.7473176 19.2635445,48.2295462 25.6208828,75.8599748 L25.6208828,75.8599748 Z" id="Shape" fill="#333333"></path>
            </g>
        </g>
    </g>
</svg>